%FSLAX44Y44*%
%MOMM*%
G71*
G01*
G75*
G04 Layer_Physical_Order=4*
G04 Layer_Color=16711680*
%ADD10R,1.8000X1.1500*%
%ADD11C,0.7620*%
G04:AMPARAMS|DCode=12|XSize=1.15mm|YSize=1.8mm|CornerRadius=0mm|HoleSize=0mm|Usage=FLASHONLY|Rotation=135.000|XOffset=0mm|YOffset=0mm|HoleType=Round|Shape=Rectangle|*
%AMROTATEDRECTD12*
4,1,4,1.0430,0.2298,-0.2298,-1.0430,-1.0430,-0.2298,0.2298,1.0430,1.0430,0.2298,0.0*
%
%ADD12ROTATEDRECTD12*%

%ADD13R,1.1500X1.8000*%
%ADD14C,0.1500*%
%ADD15C,1.5000*%
%ADD16R,1.5000X1.5000*%
%ADD17R,1.5000X1.5000*%
%ADD18C,1.5240*%
%ADD19C,3.5000*%
%ADD20C,0.6000*%
%ADD21R,1.7000X1.1000*%
%ADD22R,1.1000X1.7000*%
G04:AMPARAMS|DCode=23|XSize=1.7mm|YSize=1.1mm|CornerRadius=0mm|HoleSize=0mm|Usage=FLASHONLY|Rotation=45.000|XOffset=0mm|YOffset=0mm|HoleType=Round|Shape=Rectangle|*
%AMROTATEDRECTD23*
4,1,4,-0.2121,-0.9900,-0.9900,-0.2121,0.2121,0.9900,0.9900,0.2121,-0.2121,-0.9900,0.0*
%
%ADD23ROTATEDRECTD23*%

D12*
X595884Y932688D02*
D03*
X617097Y911475D02*
D03*
D13*
X615724Y883158D02*
D03*
X585724D02*
D03*
X585696Y852904D02*
D03*
X615696D02*
D03*
X585724Y768604D02*
D03*
X615724D02*
D03*
X615696Y743204D02*
D03*
X585696D02*
D03*
X615724Y819404D02*
D03*
X585724D02*
D03*
D14*
X603250Y730758D02*
X615696Y743204D01*
X543814Y730758D02*
X603250D01*
X531114Y743458D02*
X543814Y730758D01*
X602770Y755650D02*
X615724Y768604D01*
X544322Y755650D02*
X602770D01*
X531114Y768858D02*
X544322Y755650D01*
X602770Y806704D02*
X615724Y819658D01*
X542725D02*
X555679Y806704D01*
X602770D01*
X796418Y893826D02*
X797814D01*
X796246Y893998D02*
X796418Y893826D01*
X787908Y885660D02*
X796246Y893998D01*
X759968Y893572D02*
X760222D01*
X753872Y887476D02*
X759968Y893572D01*
X787908Y912660D02*
Y917448D01*
X841500Y1002500D02*
X842480Y1001520D01*
Y987806D02*
Y1001520D01*
X770000Y989000D02*
X782500Y976500D01*
X793000D01*
X753872Y876554D02*
Y887476D01*
X748500Y871182D02*
X753872Y876554D01*
X748500Y859500D02*
Y871182D01*
X627888Y922528D02*
X645244Y905172D01*
X598805Y959739D02*
X649732Y908812D01*
X581500Y939500D02*
X588312Y932688D01*
X595884D01*
X630964Y853158D02*
X631952Y852170D01*
X615696Y853158D02*
X630964D01*
X631190Y883412D02*
X631444Y883158D01*
X615724Y883412D02*
X631190D01*
X633957Y827908D02*
X665125Y859076D01*
X620268Y827908D02*
X633957D01*
X615724Y823364D02*
X620268Y827908D01*
X632714Y830908D02*
X663882Y862076D01*
X609042Y830908D02*
X632714D01*
X597792Y819658D02*
X609042Y830908D01*
X734060Y868934D02*
Y879564D01*
X721060Y905718D02*
Y906526D01*
X716364Y901022D02*
X721060Y905718D01*
X687578Y914654D02*
X690372D01*
X692366Y916648D01*
X621525Y911475D02*
X628500Y904500D01*
X617097Y911475D02*
X621525D01*
X692366Y916648D02*
X703326D01*
X686694Y937806D02*
X692536Y943648D01*
X703326D01*
X802084Y755094D02*
X840232Y793242D01*
X596446Y743712D02*
X607828Y755094D01*
X802084D01*
X556768Y743712D02*
X596446D01*
X556514Y743458D02*
X556768Y743712D01*
X845010Y843026D02*
X848868D01*
X836168D02*
X838454D01*
X840232Y841248D01*
Y793242D02*
Y841248D01*
X818172Y805180D02*
X821690Y808698D01*
X810260Y805180D02*
X818172D01*
X760000Y868500D02*
X772000Y856500D01*
Y854500D02*
Y856500D01*
X613540Y784606D02*
X748562D01*
X597792Y768858D02*
X613540Y784606D01*
X556514Y768858D02*
X597792D01*
X792568Y865250D02*
X795654D01*
X798576Y868172D01*
X786868Y855269D02*
X791250Y859651D01*
Y863932D01*
X792568Y865250D01*
X734000Y932000D02*
X747000Y919000D01*
X734000Y932000D02*
Y933500D01*
X718604Y959066D02*
X718820Y958850D01*
X703326Y959066D02*
X718604D01*
X718820Y958850D02*
X720470Y960500D01*
X734000D01*
X718820Y983996D02*
X730212Y995388D01*
Y1001522D01*
X718820Y983996D02*
X723316Y979500D01*
X731000D01*
X716750Y986066D02*
X718820Y983996D01*
X703326Y986066D02*
X716750D01*
X744728Y990346D02*
X755904Y1001522D01*
X757212D01*
X794512Y989838D02*
X805942Y1001268D01*
X808012D01*
X770000Y989000D02*
X781012Y1000012D01*
Y1001268D01*
X765226Y979500D02*
X783082Y961644D01*
Y933958D02*
Y961644D01*
X758000Y979500D02*
X765226D01*
X746506Y969518D02*
X755524Y960500D01*
X759000D01*
X895794Y885000D02*
X899414Y881380D01*
X886500Y885000D02*
X895794D01*
X848440Y881498D02*
X851942Y885000D01*
X859500D01*
X841370Y863130D02*
X875284D01*
X836000Y868500D02*
X841370Y863130D01*
X861568Y830072D02*
X867626Y836130D01*
X875284D01*
X690880Y823722D02*
X691658Y824500D01*
X710500D01*
X691642Y798322D02*
X692464Y797500D01*
X710500D01*
X766046Y785046D02*
X773000Y792000D01*
X766046Y780954D02*
Y785046D01*
X735000Y804500D02*
X739454Y800046D01*
X746954D01*
X734500Y830500D02*
X736500Y832500D01*
X748500D01*
X771868Y818132D02*
X772500Y817500D01*
X771868Y818132D02*
Y831342D01*
X746734Y906500D02*
X747268Y907034D01*
X735500Y906500D02*
X746734D01*
X785368Y919988D02*
X787908Y917448D01*
X783082Y933958D02*
X785622Y931418D01*
X832000Y962772D02*
Y964000D01*
X820712Y951484D02*
X832000Y962772D01*
X811000Y967500D02*
X820000Y976500D01*
X811000Y932000D02*
Y967500D01*
X892776Y938276D02*
X899500Y945000D01*
X881418Y938276D02*
X892776D01*
X892500Y1002500D02*
X892772Y1002228D01*
Y987806D02*
Y1002228D01*
X919518Y963676D02*
X919772Y963930D01*
Y987806D01*
X869480Y987520D02*
X881000Y976000D01*
X869480Y987520D02*
Y987806D01*
Y964480D02*
X881000Y976000D01*
X869480Y963676D02*
Y964480D01*
X931672Y963676D02*
X932180Y964184D01*
X919518Y963676D02*
X931672D01*
X961428Y906272D02*
X976122D01*
X955332Y912368D02*
X961428Y906272D01*
X975868Y918972D02*
X982510Y912330D01*
X991108D01*
X975868Y944372D02*
X980910Y939330D01*
X991108D01*
X969772Y938276D02*
X975868Y944372D01*
X955078Y938276D02*
X969772D01*
X905218D02*
X928078D01*
X893876Y912876D02*
X899500Y918500D01*
X886498Y912876D02*
X893876D01*
X912368Y906526D02*
X918210Y912368D01*
X928332D01*
X905726Y836130D02*
X912368Y842772D01*
X897128Y836130D02*
X905726D01*
X924814Y855980D02*
X929856Y861022D01*
X939038D01*
X924814Y881126D02*
X931710Y888022D01*
X939038D01*
X821690Y879190D02*
X823500Y881000D01*
X821690Y835698D02*
Y879190D01*
X810768Y880768D02*
X811000Y881000D01*
X810768Y843242D02*
Y880768D01*
X824000Y906500D02*
X853122D01*
X859498Y912876D01*
X759000Y920500D02*
Y933500D01*
X798868Y856742D02*
X805750Y863624D01*
Y883175D02*
X810998Y888423D01*
Y893498D01*
X805750Y863624D02*
Y883175D01*
X793712Y951484D02*
X804000Y941196D01*
Y927500D02*
Y941196D01*
Y927500D02*
X810498Y921002D01*
Y918998D02*
Y921002D01*
X823500Y919258D02*
X842518Y938276D01*
X848940Y880998D02*
X848998D01*
X848440Y881498D02*
X848940Y880998D01*
X886758Y873500D02*
X897128Y863130D01*
X854500Y873500D02*
X886758D01*
X849498Y868498D02*
X854500Y873500D01*
X836422Y919480D02*
X842518Y925576D01*
X585696Y853158D02*
Y862104D01*
X564515Y883285D02*
X585696Y862104D01*
X543687Y883285D02*
X564515D01*
X573278Y895858D02*
X585724Y883412D01*
X543433Y959739D02*
X598805D01*
X842518Y938276D02*
X854418D01*
X823468Y931926D02*
X841718Y950176D01*
Y963676D01*
X880618D02*
X892518D01*
X798868Y831342D02*
X810768Y843242D01*
X842518Y925576D02*
X892518D01*
X905218Y938276D01*
X531114Y819658D02*
X542725D01*
X531114Y895858D02*
X543687Y883285D01*
X556514Y895858D02*
X573278D01*
X531114Y972058D02*
X543433Y959739D01*
X665125Y859076D02*
X686260D01*
X689836Y855500D01*
X721500D01*
X663882Y862076D02*
X684530D01*
X690372Y867918D01*
X708914D01*
X703532Y903272D02*
X705782Y901022D01*
X716364D01*
X649732Y908812D02*
X697484D01*
X700024Y906272D01*
X708660D01*
X645244Y905172D02*
X696044D01*
X697944Y903272D01*
X703532D01*
X556514Y819658D02*
X597792D01*
X734060Y868934D02*
X734568Y868426D01*
X843510Y841526D02*
X845010Y843026D01*
X843510Y791980D02*
Y841526D01*
X616444Y742456D02*
X625789Y751800D01*
X803330D01*
X843510Y791980D01*
X612256Y772072D02*
X621534Y781350D01*
X750330D01*
X786868Y817888D01*
Y855269D01*
X748562Y784606D02*
X783500Y819544D01*
Y856720D01*
X785622Y858842D01*
Y868172D01*
D15*
X556514Y641858D02*
D03*
Y667258D02*
D03*
Y591058D02*
D03*
Y616458D02*
D03*
Y743458D02*
D03*
Y768858D02*
D03*
Y565658D02*
D03*
X531114D02*
D03*
Y591058D02*
D03*
Y616458D02*
D03*
Y641858D02*
D03*
Y667258D02*
D03*
X556514Y692658D02*
D03*
X531114D02*
D03*
X556514Y718058D02*
D03*
X531114D02*
D03*
Y743458D02*
D03*
Y768858D02*
D03*
X556514Y794258D02*
D03*
X531114D02*
D03*
X556514Y819658D02*
D03*
X531114D02*
D03*
X556514Y845058D02*
D03*
X531114D02*
D03*
X556514Y870458D02*
D03*
X531114D02*
D03*
X556514Y895858D02*
D03*
X531114D02*
D03*
X556514Y921258D02*
D03*
X531114D02*
D03*
X556514Y946658D02*
D03*
X531114D02*
D03*
X556514Y972058D02*
D03*
X531114D02*
D03*
X556514Y997458D02*
D03*
X531114D02*
D03*
X556514Y1022858D02*
D03*
X531114D02*
D03*
X556514Y1048258D02*
D03*
X595122Y565658D02*
D03*
X596138Y625348D02*
D03*
D16*
X531114Y1048258D02*
D03*
D17*
X620522Y565658D02*
D03*
X621538Y625348D02*
D03*
D18*
X486410Y727456D02*
D03*
Y765979D02*
D03*
Y804503D02*
D03*
X460756Y783590D02*
D03*
X595884Y667004D02*
D03*
X596900Y527050D02*
D03*
X460756Y706120D02*
D03*
X486410Y843026D02*
D03*
X460756Y822960D02*
D03*
Y743458D02*
D03*
X461010Y924814D02*
D03*
Y1004316D02*
D03*
X485902Y1024128D02*
D03*
X461010Y964946D02*
D03*
X486664Y985859D02*
D03*
Y947335D02*
D03*
Y908812D02*
D03*
X461264Y857250D02*
D03*
X486918Y877316D02*
D03*
D19*
X399310Y1082320D02*
D03*
Y537840D02*
D03*
D20*
X797814Y893826D02*
D03*
X760222Y893572D02*
D03*
X747522D02*
D03*
X627888Y922528D02*
D03*
X721500Y855500D02*
D03*
X708914Y867918D02*
D03*
X631952Y852170D02*
D03*
X631444Y883158D02*
D03*
X721060Y906526D02*
D03*
X747268Y881380D02*
D03*
X687578Y914654D02*
D03*
X721614Y881380D02*
D03*
X708660Y906272D02*
D03*
X848868Y843026D02*
D03*
X836168D02*
D03*
X785622Y868172D02*
D03*
X798576D02*
D03*
X686694Y937806D02*
D03*
X772160Y881126D02*
D03*
X798830D02*
D03*
X747268Y907034D02*
D03*
X785622Y931418D02*
D03*
X849122Y893572D02*
D03*
X848868Y919480D02*
D03*
X628500Y904500D02*
D03*
X581500Y939500D02*
D03*
X760000Y868500D02*
D03*
X772500Y817500D02*
D03*
X734500Y830500D02*
D03*
X899500Y918500D02*
D03*
Y945000D02*
D03*
X881000Y976000D02*
D03*
X832000Y964000D02*
D03*
X718820Y983996D02*
D03*
X772500Y931500D02*
D03*
X759500Y843000D02*
D03*
X772414Y868426D02*
D03*
X810998Y893498D02*
D03*
X811000Y881000D02*
D03*
X785368Y919988D02*
D03*
X760000Y919500D02*
D03*
Y881000D02*
D03*
X772414Y893572D02*
D03*
X691642Y798322D02*
D03*
X692658Y861822D02*
D03*
X718820Y958850D02*
D03*
X747000Y919000D02*
D03*
X770000Y989000D02*
D03*
X746506Y969518D02*
D03*
X810498Y918998D02*
D03*
X811000Y932000D02*
D03*
X824000Y906500D02*
D03*
X823500Y919000D02*
D03*
Y881000D02*
D03*
X848998Y880998D02*
D03*
X849498Y868498D02*
D03*
X836168Y855472D02*
D03*
X836000Y868500D02*
D03*
X899414Y881380D02*
D03*
X912368Y842772D02*
D03*
X976122Y906272D02*
D03*
X836422Y919480D02*
D03*
X823468Y931926D02*
D03*
X932180Y964184D02*
D03*
X892500Y1002500D02*
D03*
X841500D02*
D03*
X794512Y989838D02*
D03*
X744728Y990346D02*
D03*
X687324Y925830D02*
D03*
X692912Y899922D02*
D03*
X810260Y805180D02*
D03*
X861568Y830072D02*
D03*
X880618Y963676D02*
D03*
X735000Y804500D02*
D03*
X690880Y823722D02*
D03*
X924814Y881126D02*
D03*
X975868Y918972D02*
D03*
X912368Y906526D02*
D03*
X773000Y792000D02*
D03*
X924814Y855980D02*
D03*
X975868Y944372D02*
D03*
X734568Y868426D02*
D03*
D21*
X703326Y986066D02*
D03*
Y959066D02*
D03*
X991108Y939330D02*
D03*
Y912330D02*
D03*
X939038Y861022D02*
D03*
Y888022D02*
D03*
X897128Y836130D02*
D03*
Y863130D02*
D03*
X875284Y836130D02*
D03*
Y863130D02*
D03*
X821690Y808698D02*
D03*
Y835698D02*
D03*
X710500Y797500D02*
D03*
Y824500D02*
D03*
X785622Y912660D02*
D03*
Y885660D02*
D03*
X703326Y943648D02*
D03*
Y916648D02*
D03*
X734000Y960500D02*
D03*
Y933500D02*
D03*
X759000Y960500D02*
D03*
Y933500D02*
D03*
X748500Y832500D02*
D03*
Y859500D02*
D03*
X734060Y879564D02*
D03*
Y906564D02*
D03*
D22*
X781012Y1001268D02*
D03*
X808012D02*
D03*
X869480Y987806D02*
D03*
X842480D02*
D03*
X919772D02*
D03*
X892772D02*
D03*
X730212Y1001522D02*
D03*
X757212D02*
D03*
X869480Y963676D02*
D03*
X842480D02*
D03*
X793000Y976500D02*
D03*
X820000D02*
D03*
X820712Y951484D02*
D03*
X793712D02*
D03*
X919518Y963676D02*
D03*
X892518D02*
D03*
X955078Y938276D02*
D03*
X928078D02*
D03*
X955332Y912368D02*
D03*
X928332D02*
D03*
X771868Y831342D02*
D03*
X798868D02*
D03*
X772000Y854500D02*
D03*
X799000D02*
D03*
X731000Y979500D02*
D03*
X758000D02*
D03*
X886498Y912876D02*
D03*
X859498D02*
D03*
X881418Y938276D02*
D03*
X854418D02*
D03*
X886500Y885000D02*
D03*
X859500D02*
D03*
D23*
X766466Y781156D02*
D03*
X747374Y800248D02*
D03*
M02*
