%FSLAX44Y44*%
%MOMM*%
G71*
G01*
G75*
G04 Layer_Physical_Order=1*
G04 Layer_Color=255*
%ADD10R,1.8000X1.1500*%
%ADD11C,0.7620*%
G04:AMPARAMS|DCode=12|XSize=1.15mm|YSize=1.8mm|CornerRadius=0mm|HoleSize=0mm|Usage=FLASHONLY|Rotation=135.000|XOffset=0mm|YOffset=0mm|HoleType=Round|Shape=Rectangle|*
%AMROTATEDRECTD12*
4,1,4,1.0430,0.2298,-0.2298,-1.0430,-1.0430,-0.2298,0.2298,1.0430,1.0430,0.2298,0.0*
%
%ADD12ROTATEDRECTD12*%

%ADD13R,1.1500X1.8000*%
%ADD14C,0.1500*%
%ADD15C,1.5000*%
%ADD16R,1.5000X1.5000*%
%ADD17R,1.5000X1.5000*%
%ADD18C,1.5240*%
%ADD19C,3.5000*%
%ADD20C,0.6000*%
D10*
X615724Y853412D02*
D03*
Y883412D02*
D03*
D11*
X702818Y849376D02*
D03*
X715518D02*
D03*
X702818Y874776D02*
D03*
X715518D02*
D03*
Y862076D02*
D03*
X728218D02*
D03*
X779018Y874776D02*
D03*
X791718D02*
D03*
X829818Y849376D02*
D03*
X842518D02*
D03*
X1071118Y582676D02*
D03*
X1058418D02*
D03*
X1045718D02*
D03*
X1033018D02*
D03*
X1020318D02*
D03*
X1007618D02*
D03*
X994918D02*
D03*
X982218D02*
D03*
X969518D02*
D03*
X956818D02*
D03*
X944118D02*
D03*
X931418D02*
D03*
X918718D02*
D03*
X906018D02*
D03*
X893318D02*
D03*
X880618D02*
D03*
X867918D02*
D03*
X855218D02*
D03*
X842518D02*
D03*
X829818D02*
D03*
X817118D02*
D03*
X804418D02*
D03*
X791718D02*
D03*
X779018D02*
D03*
X766318D02*
D03*
X753618D02*
D03*
X740918D02*
D03*
X728218D02*
D03*
Y950976D02*
D03*
X740918D02*
D03*
X753618D02*
D03*
X766318D02*
D03*
X779018D02*
D03*
X791718D02*
D03*
X804418D02*
D03*
X817118D02*
D03*
X829818D02*
D03*
X842518D02*
D03*
X855218D02*
D03*
X867918D02*
D03*
X880618D02*
D03*
X893318D02*
D03*
X906018D02*
D03*
X918718D02*
D03*
X931418D02*
D03*
X944118D02*
D03*
X956818D02*
D03*
X969518D02*
D03*
X982218D02*
D03*
X994918D02*
D03*
X1007618D02*
D03*
X1020318D02*
D03*
X1033018D02*
D03*
X1045718D02*
D03*
X1058418D02*
D03*
X715518Y938276D02*
D03*
X728218D02*
D03*
X740918D02*
D03*
X753618D02*
D03*
X766318D02*
D03*
X779018D02*
D03*
X791718D02*
D03*
X804418D02*
D03*
X817118D02*
D03*
X829818D02*
D03*
X842518D02*
D03*
X855218D02*
D03*
X867918D02*
D03*
X880618D02*
D03*
X893318D02*
D03*
X906018D02*
D03*
X918718D02*
D03*
X931418D02*
D03*
X944118D02*
D03*
X956818D02*
D03*
X969518D02*
D03*
X982218D02*
D03*
X994918D02*
D03*
X1007618D02*
D03*
X1020318D02*
D03*
X1033018D02*
D03*
X1045718D02*
D03*
X1058418D02*
D03*
X1071118D02*
D03*
X855218Y925576D02*
D03*
X867918D02*
D03*
X880618D02*
D03*
X893318D02*
D03*
X906018D02*
D03*
X918718D02*
D03*
X931418D02*
D03*
X944118D02*
D03*
X956818D02*
D03*
X969518D02*
D03*
X982218D02*
D03*
X994918D02*
D03*
X1007618D02*
D03*
X1020318D02*
D03*
X1033018D02*
D03*
X1045718D02*
D03*
X1058418D02*
D03*
X1071118D02*
D03*
X1083818D02*
D03*
X855218Y912876D02*
D03*
X867918D02*
D03*
X880618D02*
D03*
X893318D02*
D03*
X906018D02*
D03*
X918718D02*
D03*
X931418D02*
D03*
X944118D02*
D03*
X956818D02*
D03*
X969518D02*
D03*
X982218D02*
D03*
X994918D02*
D03*
X1007618D02*
D03*
X1020318D02*
D03*
X1033018D02*
D03*
X1045718D02*
D03*
X1058418D02*
D03*
X1071118D02*
D03*
X1083818D02*
D03*
X855218Y900176D02*
D03*
X867918D02*
D03*
X880618D02*
D03*
X893318D02*
D03*
X906018D02*
D03*
X918718D02*
D03*
X931418D02*
D03*
X944118D02*
D03*
X956818D02*
D03*
X969518D02*
D03*
X982218D02*
D03*
X994918D02*
D03*
X1007618D02*
D03*
X1020318D02*
D03*
X1033018D02*
D03*
X1045718D02*
D03*
X1058418D02*
D03*
X1071118D02*
D03*
X1083818D02*
D03*
X855218Y887476D02*
D03*
X867918D02*
D03*
X880618D02*
D03*
X893318D02*
D03*
X906018D02*
D03*
X918718D02*
D03*
X931418D02*
D03*
X944118D02*
D03*
X956818D02*
D03*
X969518D02*
D03*
X982218D02*
D03*
X994918D02*
D03*
X1007618D02*
D03*
X1020318D02*
D03*
X1033018D02*
D03*
X1045718D02*
D03*
X1058418D02*
D03*
X1071118D02*
D03*
X1083818D02*
D03*
X855218Y874776D02*
D03*
X867918D02*
D03*
X880618D02*
D03*
X893318D02*
D03*
X906018D02*
D03*
X918718D02*
D03*
X931418D02*
D03*
X944118D02*
D03*
X956818D02*
D03*
X969518D02*
D03*
X982218D02*
D03*
X994918D02*
D03*
X1007618D02*
D03*
X1020318D02*
D03*
X1033018D02*
D03*
X1045718D02*
D03*
X1058418D02*
D03*
X1071118D02*
D03*
X1083818D02*
D03*
X855218Y862076D02*
D03*
X867918D02*
D03*
X880618D02*
D03*
X893318D02*
D03*
X906018D02*
D03*
X918718D02*
D03*
X931418D02*
D03*
X944118D02*
D03*
X956818D02*
D03*
X969518D02*
D03*
X982218D02*
D03*
X994918D02*
D03*
X1007618D02*
D03*
X1020318D02*
D03*
X1033018D02*
D03*
X1045718D02*
D03*
X1058418D02*
D03*
X1071118D02*
D03*
X1083818D02*
D03*
X855218Y849376D02*
D03*
X867918D02*
D03*
X880618D02*
D03*
X893318D02*
D03*
X906018D02*
D03*
X918718D02*
D03*
X931418D02*
D03*
X944118D02*
D03*
X956818D02*
D03*
X969518D02*
D03*
X982218D02*
D03*
X994918D02*
D03*
X1007618D02*
D03*
X1020318D02*
D03*
X1033018D02*
D03*
X1045718D02*
D03*
X1058418D02*
D03*
X1071118D02*
D03*
X1083818D02*
D03*
X702818Y836676D02*
D03*
X715518D02*
D03*
X842518D02*
D03*
X855218D02*
D03*
X867918D02*
D03*
X880618D02*
D03*
X893318D02*
D03*
X906018D02*
D03*
X918718D02*
D03*
X931418D02*
D03*
X944118D02*
D03*
X956818D02*
D03*
X969518D02*
D03*
X982218D02*
D03*
X994918D02*
D03*
X1007618D02*
D03*
X1020318D02*
D03*
X1033018D02*
D03*
X1045718D02*
D03*
X1058418D02*
D03*
X1071118D02*
D03*
X1083818D02*
D03*
X702818Y823976D02*
D03*
X715518D02*
D03*
X728218D02*
D03*
X740918D02*
D03*
X753618D02*
D03*
X766318D02*
D03*
X779018D02*
D03*
X804418D02*
D03*
X817118D02*
D03*
X829818D02*
D03*
X842518D02*
D03*
X855218D02*
D03*
X867918D02*
D03*
X880618D02*
D03*
X893318D02*
D03*
X906018D02*
D03*
X918718D02*
D03*
X931418D02*
D03*
X944118D02*
D03*
X956818D02*
D03*
X969518D02*
D03*
X982218D02*
D03*
X994918D02*
D03*
X1007618D02*
D03*
X1020318D02*
D03*
X1033018D02*
D03*
X1045718D02*
D03*
X1058418D02*
D03*
X1071118D02*
D03*
X1083818D02*
D03*
X702818Y811276D02*
D03*
X715518D02*
D03*
X728218D02*
D03*
X740918D02*
D03*
X753618D02*
D03*
X766318D02*
D03*
X779018D02*
D03*
X804418D02*
D03*
X817118D02*
D03*
X829818D02*
D03*
X842518D02*
D03*
X855218D02*
D03*
X867918D02*
D03*
X880618D02*
D03*
X893318D02*
D03*
X906018D02*
D03*
X918718D02*
D03*
X931418D02*
D03*
X944118D02*
D03*
X956818D02*
D03*
X969518D02*
D03*
X982218D02*
D03*
X994918D02*
D03*
X1007618D02*
D03*
X1020318D02*
D03*
X1033018D02*
D03*
X1045718D02*
D03*
X1058418D02*
D03*
X1071118D02*
D03*
X1083818D02*
D03*
X702818Y798576D02*
D03*
X715518D02*
D03*
X728218D02*
D03*
X740918D02*
D03*
X753618D02*
D03*
X766318D02*
D03*
X779018D02*
D03*
X791718D02*
D03*
X804418D02*
D03*
X817118D02*
D03*
X829818D02*
D03*
X842518D02*
D03*
X855218D02*
D03*
X867918D02*
D03*
X880618D02*
D03*
X893318D02*
D03*
X906018D02*
D03*
X918718D02*
D03*
X931418D02*
D03*
X944118D02*
D03*
X956818D02*
D03*
X969518D02*
D03*
X982218D02*
D03*
X1007618D02*
D03*
X1020318D02*
D03*
X1033018D02*
D03*
X1045718D02*
D03*
X1058418D02*
D03*
X1071118D02*
D03*
X1083818D02*
D03*
X702818Y785876D02*
D03*
X715518D02*
D03*
X728218D02*
D03*
X740918D02*
D03*
X753618D02*
D03*
X766318D02*
D03*
X779018D02*
D03*
X791718D02*
D03*
X804418D02*
D03*
X817118D02*
D03*
X829818D02*
D03*
X842518D02*
D03*
X855218D02*
D03*
X867918D02*
D03*
X880618D02*
D03*
X893318D02*
D03*
X906018D02*
D03*
X918718D02*
D03*
X931418D02*
D03*
X944118D02*
D03*
X956818D02*
D03*
X969518D02*
D03*
X982218D02*
D03*
X1007618D02*
D03*
X1020318D02*
D03*
X1033018D02*
D03*
X1045718D02*
D03*
X1058418D02*
D03*
X1071118D02*
D03*
X1083818D02*
D03*
X702818Y773176D02*
D03*
X715518D02*
D03*
X728218D02*
D03*
X740918D02*
D03*
X753618D02*
D03*
X766318D02*
D03*
X779018D02*
D03*
X791718D02*
D03*
X804418D02*
D03*
X817118D02*
D03*
X829818D02*
D03*
X842518D02*
D03*
X855218D02*
D03*
X867918D02*
D03*
X880618D02*
D03*
X893318D02*
D03*
X906018D02*
D03*
X918718D02*
D03*
X931418D02*
D03*
X944118D02*
D03*
X956818D02*
D03*
X969518D02*
D03*
X982218D02*
D03*
X994918D02*
D03*
X1007618D02*
D03*
X1020318D02*
D03*
X1033018D02*
D03*
X1045718D02*
D03*
X1058418D02*
D03*
X1071118D02*
D03*
X1083818D02*
D03*
X702818Y760476D02*
D03*
X715518D02*
D03*
X728218D02*
D03*
X740918D02*
D03*
X753618D02*
D03*
X766318D02*
D03*
X779018D02*
D03*
X791718D02*
D03*
X804418D02*
D03*
X817118D02*
D03*
X829818D02*
D03*
X842518D02*
D03*
X855218D02*
D03*
X867918D02*
D03*
X880618D02*
D03*
X893318D02*
D03*
X906018D02*
D03*
X918718D02*
D03*
X931418D02*
D03*
X944118D02*
D03*
X956818D02*
D03*
X969518D02*
D03*
X982218D02*
D03*
X994918D02*
D03*
X1007618D02*
D03*
X1020318D02*
D03*
X1033018D02*
D03*
X1045718D02*
D03*
X1058418D02*
D03*
X1071118D02*
D03*
X1083818D02*
D03*
X702818Y747776D02*
D03*
X715518D02*
D03*
X728218D02*
D03*
X740918D02*
D03*
X753618D02*
D03*
X766318D02*
D03*
X779018D02*
D03*
X791718D02*
D03*
X804418D02*
D03*
X817118D02*
D03*
X829818D02*
D03*
X842518D02*
D03*
X855218D02*
D03*
X867918D02*
D03*
X880618D02*
D03*
X893318D02*
D03*
X906018D02*
D03*
X918718D02*
D03*
X931418D02*
D03*
X944118D02*
D03*
X956818D02*
D03*
X969518D02*
D03*
X982218D02*
D03*
X994918D02*
D03*
X1007618D02*
D03*
X1020318D02*
D03*
X1033018D02*
D03*
X1045718D02*
D03*
X1058418D02*
D03*
X1071118D02*
D03*
X1083818D02*
D03*
X702818Y735076D02*
D03*
X715518D02*
D03*
X728218D02*
D03*
X740918D02*
D03*
X753618D02*
D03*
X766318D02*
D03*
X779018D02*
D03*
X791718D02*
D03*
X804418D02*
D03*
X817118D02*
D03*
X829818D02*
D03*
X842518D02*
D03*
X855218D02*
D03*
X867918D02*
D03*
X880618D02*
D03*
X893318D02*
D03*
X906018D02*
D03*
X918718D02*
D03*
X931418D02*
D03*
X944118D02*
D03*
X956818D02*
D03*
X969518D02*
D03*
X982218D02*
D03*
X994918D02*
D03*
X1007618D02*
D03*
X1020318D02*
D03*
X1033018D02*
D03*
X1045718D02*
D03*
X1058418D02*
D03*
X1071118D02*
D03*
X1083818D02*
D03*
X702818Y722376D02*
D03*
X715518D02*
D03*
X728218D02*
D03*
X740918D02*
D03*
X753618D02*
D03*
X766318D02*
D03*
X779018D02*
D03*
X791718D02*
D03*
X804418D02*
D03*
X817118D02*
D03*
X829818D02*
D03*
X842518D02*
D03*
X855218D02*
D03*
X867918D02*
D03*
X880618D02*
D03*
X893318D02*
D03*
X906018D02*
D03*
X918718D02*
D03*
X931418D02*
D03*
X944118D02*
D03*
X956818D02*
D03*
X969518D02*
D03*
X982218D02*
D03*
X994918D02*
D03*
X1007618D02*
D03*
X1020318D02*
D03*
X1033018D02*
D03*
X1045718D02*
D03*
X1058418D02*
D03*
X1071118D02*
D03*
X1083818D02*
D03*
X702818Y709676D02*
D03*
X715518D02*
D03*
X728218D02*
D03*
X740918D02*
D03*
X753618D02*
D03*
X766318D02*
D03*
X779018D02*
D03*
X791718D02*
D03*
X804418D02*
D03*
X817118D02*
D03*
X829818D02*
D03*
X842518D02*
D03*
X855218D02*
D03*
X867918D02*
D03*
X880618D02*
D03*
X893318D02*
D03*
X906018D02*
D03*
X918718D02*
D03*
X931418D02*
D03*
X944118D02*
D03*
X956818D02*
D03*
X969518D02*
D03*
X982218D02*
D03*
X994918D02*
D03*
X1007618D02*
D03*
X1020318D02*
D03*
X1033018D02*
D03*
X1045718D02*
D03*
X1058418D02*
D03*
X1071118D02*
D03*
X1083818D02*
D03*
X702818Y696976D02*
D03*
X715518D02*
D03*
X728218D02*
D03*
X740918D02*
D03*
X753618D02*
D03*
X766318D02*
D03*
X779018D02*
D03*
X791718D02*
D03*
X804418D02*
D03*
X817118D02*
D03*
X829818D02*
D03*
X842518D02*
D03*
X855218D02*
D03*
X867918D02*
D03*
X880618D02*
D03*
X893318D02*
D03*
X906018D02*
D03*
X918718D02*
D03*
X931418D02*
D03*
X944118D02*
D03*
X956818D02*
D03*
X969518D02*
D03*
X982218D02*
D03*
X994918D02*
D03*
X1007618D02*
D03*
X1020318D02*
D03*
X1033018D02*
D03*
X1045718D02*
D03*
X1058418D02*
D03*
X1071118D02*
D03*
X1083818D02*
D03*
X702818Y684276D02*
D03*
X715518D02*
D03*
X728218D02*
D03*
X740918D02*
D03*
X753618D02*
D03*
X766318D02*
D03*
X779018D02*
D03*
X791718D02*
D03*
X804418D02*
D03*
X817118D02*
D03*
X829818D02*
D03*
X842518D02*
D03*
X855218D02*
D03*
X867918D02*
D03*
X880618D02*
D03*
X893318D02*
D03*
X906018D02*
D03*
X918718D02*
D03*
X931418D02*
D03*
X944118D02*
D03*
X956818D02*
D03*
X969518D02*
D03*
X982218D02*
D03*
X994918D02*
D03*
X1007618D02*
D03*
X1020318D02*
D03*
X1033018D02*
D03*
X1045718D02*
D03*
X1058418D02*
D03*
X1071118D02*
D03*
X1083818D02*
D03*
X702818Y671576D02*
D03*
X715518D02*
D03*
X728218D02*
D03*
X740918D02*
D03*
X753618D02*
D03*
X766318D02*
D03*
X779018D02*
D03*
X791718D02*
D03*
X804418D02*
D03*
X817118D02*
D03*
X829818D02*
D03*
X842518D02*
D03*
X855218D02*
D03*
X867918D02*
D03*
X880618D02*
D03*
X893318D02*
D03*
X906018D02*
D03*
X918718D02*
D03*
X931418D02*
D03*
X944118D02*
D03*
X956818D02*
D03*
X969518D02*
D03*
X982218D02*
D03*
X994918D02*
D03*
X1007618D02*
D03*
X1020318D02*
D03*
X1033018D02*
D03*
X1045718D02*
D03*
X1058418D02*
D03*
X1071118D02*
D03*
X1083818D02*
D03*
X702818Y658876D02*
D03*
X715518D02*
D03*
X728218D02*
D03*
X740918D02*
D03*
X753618D02*
D03*
X766318D02*
D03*
X779018D02*
D03*
X791718D02*
D03*
X804418D02*
D03*
X817118D02*
D03*
X829818D02*
D03*
X842518D02*
D03*
X855218D02*
D03*
X867918D02*
D03*
X880618D02*
D03*
X893318D02*
D03*
X906018D02*
D03*
X918718D02*
D03*
X931418D02*
D03*
X944118D02*
D03*
X956818D02*
D03*
X969518D02*
D03*
X994918D02*
D03*
X1007618D02*
D03*
X1020318D02*
D03*
X1033018D02*
D03*
X1045718D02*
D03*
X1058418D02*
D03*
X1071118D02*
D03*
X1083818D02*
D03*
X702818Y646176D02*
D03*
X715518D02*
D03*
X728218D02*
D03*
X740918D02*
D03*
X753618D02*
D03*
X766318D02*
D03*
X779018D02*
D03*
X791718D02*
D03*
X804418D02*
D03*
X817118D02*
D03*
X829818D02*
D03*
X842518D02*
D03*
X855218D02*
D03*
X867918D02*
D03*
X880618D02*
D03*
X893318D02*
D03*
X906018D02*
D03*
X918718D02*
D03*
X931418D02*
D03*
X944118D02*
D03*
X956818D02*
D03*
X969518D02*
D03*
X994918D02*
D03*
X1007618D02*
D03*
X1020318D02*
D03*
X1033018D02*
D03*
X1045718D02*
D03*
X1058418D02*
D03*
X1071118D02*
D03*
X1083818D02*
D03*
X702818Y633476D02*
D03*
X715518D02*
D03*
X728218D02*
D03*
X740918D02*
D03*
X753618D02*
D03*
X766318D02*
D03*
X779018D02*
D03*
X791718D02*
D03*
X804418D02*
D03*
X817118D02*
D03*
X829818D02*
D03*
X842518D02*
D03*
X855218D02*
D03*
X867918D02*
D03*
X880618D02*
D03*
X893318D02*
D03*
X906018D02*
D03*
X918718D02*
D03*
X931418D02*
D03*
X944118D02*
D03*
X956818D02*
D03*
X969518D02*
D03*
X982218D02*
D03*
X994918D02*
D03*
X1007618D02*
D03*
X1020318D02*
D03*
X1033018D02*
D03*
X1045718D02*
D03*
X1058418D02*
D03*
X1071118D02*
D03*
X1083818D02*
D03*
X702818Y620776D02*
D03*
X715518D02*
D03*
X728218D02*
D03*
X740918D02*
D03*
X753618D02*
D03*
X766318D02*
D03*
X779018D02*
D03*
X791718D02*
D03*
X804418D02*
D03*
X817118D02*
D03*
X829818D02*
D03*
X842518D02*
D03*
X855218D02*
D03*
X867918D02*
D03*
X880618D02*
D03*
X893318D02*
D03*
X906018D02*
D03*
X918718D02*
D03*
X931418D02*
D03*
X944118D02*
D03*
X956818D02*
D03*
X969518D02*
D03*
X982218D02*
D03*
X994918D02*
D03*
X1007618D02*
D03*
X1020318D02*
D03*
X1033018D02*
D03*
X1045718D02*
D03*
X1058418D02*
D03*
X1071118D02*
D03*
X1083818D02*
D03*
X702818Y608076D02*
D03*
X715518D02*
D03*
X728218D02*
D03*
X740918D02*
D03*
X753618D02*
D03*
X779018D02*
D03*
X791718D02*
D03*
X804418D02*
D03*
X817118D02*
D03*
X829818D02*
D03*
X842518D02*
D03*
X855218D02*
D03*
X867918D02*
D03*
X880618D02*
D03*
X893318D02*
D03*
X906018D02*
D03*
X918718D02*
D03*
X931418D02*
D03*
X944118D02*
D03*
X956818D02*
D03*
X969518D02*
D03*
X982218D02*
D03*
X994918D02*
D03*
X1007618D02*
D03*
X1020318D02*
D03*
X1033018D02*
D03*
X1045718D02*
D03*
X1058418D02*
D03*
X1071118D02*
D03*
X1083818D02*
D03*
X702818Y595376D02*
D03*
X715518D02*
D03*
X728218D02*
D03*
X740918D02*
D03*
X753618D02*
D03*
X779018D02*
D03*
X791718D02*
D03*
X804418D02*
D03*
X817118D02*
D03*
X829818D02*
D03*
X842518D02*
D03*
X855218D02*
D03*
X867918D02*
D03*
X880618D02*
D03*
X893318D02*
D03*
X906018D02*
D03*
X918718D02*
D03*
X931418D02*
D03*
X944118D02*
D03*
X956818D02*
D03*
X969518D02*
D03*
X982218D02*
D03*
X994918D02*
D03*
X1007618D02*
D03*
X1020318D02*
D03*
X1033018D02*
D03*
X1045718D02*
D03*
X1058418D02*
D03*
X1071118D02*
D03*
X1083818D02*
D03*
X728218Y569976D02*
D03*
X740918D02*
D03*
X753618D02*
D03*
X766318D02*
D03*
X779018D02*
D03*
X791718D02*
D03*
X804418D02*
D03*
X817118D02*
D03*
X829818D02*
D03*
X842518D02*
D03*
X855218D02*
D03*
X867918D02*
D03*
X880618D02*
D03*
X893318D02*
D03*
X906018D02*
D03*
X918718D02*
D03*
X931418D02*
D03*
X944118D02*
D03*
X956818D02*
D03*
X969518D02*
D03*
X982218D02*
D03*
X994918D02*
D03*
X1007618D02*
D03*
X1020318D02*
D03*
X1033018D02*
D03*
X1045718D02*
D03*
X1058418D02*
D03*
X728218Y836676D02*
D03*
X740918D02*
D03*
X753618D02*
D03*
X766318D02*
D03*
X779018D02*
D03*
X791718D02*
D03*
X804418D02*
D03*
X817118D02*
D03*
X829818D02*
D03*
X817118Y849376D02*
D03*
X804418D02*
D03*
X791718D02*
D03*
X779018D02*
D03*
X766318D02*
D03*
X753618D02*
D03*
X740918D02*
D03*
X728218D02*
D03*
X829818Y874776D02*
D03*
X817118D02*
D03*
X804418D02*
D03*
X766318D02*
D03*
X753618D02*
D03*
X740918D02*
D03*
X728218D02*
D03*
X829818Y887476D02*
D03*
X817118D02*
D03*
X804418D02*
D03*
X791718D02*
D03*
X779018D02*
D03*
X766318D02*
D03*
X753618D02*
D03*
X740918D02*
D03*
X728218D02*
D03*
X715518D02*
D03*
X702818D02*
D03*
X829818Y900176D02*
D03*
X817118D02*
D03*
X804418D02*
D03*
X791718D02*
D03*
X779018D02*
D03*
X766318D02*
D03*
X753618D02*
D03*
X740918D02*
D03*
X728218D02*
D03*
X715518D02*
D03*
X702818D02*
D03*
X829818Y912876D02*
D03*
X817118D02*
D03*
X804418D02*
D03*
X791718D02*
D03*
X779018D02*
D03*
X766318D02*
D03*
X753618D02*
D03*
X740918D02*
D03*
X728218D02*
D03*
X715518D02*
D03*
X702818D02*
D03*
X829818Y925576D02*
D03*
X817118D02*
D03*
X804418D02*
D03*
X791718D02*
D03*
X779018D02*
D03*
X766318D02*
D03*
X753618D02*
D03*
X740918D02*
D03*
X728218D02*
D03*
X715518D02*
D03*
X702818D02*
D03*
X842518Y874776D02*
D03*
Y887476D02*
D03*
Y900176D02*
D03*
Y912876D02*
D03*
Y925576D02*
D03*
Y862076D02*
D03*
X702818D02*
D03*
X740918D02*
D03*
X753618D02*
D03*
X766318D02*
D03*
X779018D02*
D03*
X791718D02*
D03*
X804418D02*
D03*
X817118D02*
D03*
X829818D02*
D03*
D12*
X615442Y931418D02*
D03*
X594229Y952631D02*
D03*
D13*
X585696Y794004D02*
D03*
X615696D02*
D03*
D14*
X531114Y794258D02*
X544068Y781304D01*
X797814Y893826D02*
Y893916D01*
X797896Y893998D01*
X791718Y900176D02*
X797896Y893998D01*
X760222Y893572D02*
Y893826D01*
X766318Y899922D01*
X779018Y887476D02*
X791718D01*
X700278Y877316D02*
X702818Y874776D01*
X692912Y849376D02*
X702818D01*
X556514Y794258D02*
X597764D01*
X609014Y805508D01*
X622703D01*
X630249Y813054D01*
X711388Y849376D02*
X715518D01*
X705328Y843316D02*
X711388Y849376D01*
X772500Y817500D02*
Y830494D01*
X766318Y836676D02*
X772500Y830494D01*
X785368Y919988D02*
X791718Y913638D01*
Y912876D02*
Y913638D01*
X737314Y896572D02*
X740918Y900176D01*
X733833Y896572D02*
X737314D01*
X731377Y894116D02*
X733833Y896572D01*
X741172Y887476D02*
X747268Y881380D01*
X740918Y887476D02*
X741172D01*
X615442Y931418D02*
X624332Y922528D01*
X627888D01*
X573532Y947468D02*
X581500Y939500D01*
X573532Y947468D02*
Y955040D01*
X556514Y972058D02*
X573532Y955040D01*
X631952Y852170D02*
Y854988D01*
X615724Y853412D02*
X630710D01*
X615724Y883412D02*
X631190D01*
X709618Y867918D02*
X715518Y862018D01*
X728076Y862076D02*
X728218D01*
X721500Y855500D02*
X728076Y862076D01*
X708914Y867918D02*
X709618D01*
X715518Y862018D02*
Y862076D01*
X643128Y869164D02*
X656820D01*
X631952Y854988D02*
X643128Y866164D01*
X631444Y880848D02*
X643128Y869164D01*
X631444Y880848D02*
Y883158D01*
X715518Y887476D02*
X721614Y881380D01*
X699770Y890524D02*
X702818Y887476D01*
X641096Y890524D02*
X699770D01*
X721060Y906526D02*
X721868D01*
X728218Y900176D01*
X687578Y913892D02*
Y914654D01*
Y913892D02*
X688594Y912876D01*
X702818D01*
X628500Y904500D02*
X629220Y903780D01*
X708660Y906272D02*
X709422D01*
X715518Y900176D01*
X842518Y849376D02*
X848868Y843026D01*
X829818Y849376D02*
X836168Y843026D01*
X861314Y830326D02*
X861568Y830072D01*
X848868Y830326D02*
X861314D01*
X791972Y874776D02*
X798576Y868172D01*
X791718Y874776D02*
X791972D01*
X779018D02*
X785622Y868172D01*
X687324Y925830D02*
X687578Y925576D01*
X702818D01*
X692658Y861822D02*
X692912Y862076D01*
X702818D01*
X692912Y899922D02*
X693166Y900176D01*
X702818D01*
X798830Y881126D02*
Y881888D01*
X804418Y887476D01*
X766318Y899922D02*
Y900176D01*
X772160Y881126D02*
X772922D01*
X779018Y887222D01*
X842521Y887476D02*
X848998Y880998D01*
X842518Y887476D02*
X842521D01*
X843221Y874776D02*
X849498Y868498D01*
X842518Y874776D02*
X843221D01*
X836168Y855472D02*
Y855726D01*
X842518Y862076D01*
X829818Y874682D02*
X836000Y868500D01*
X829818Y874682D02*
Y874776D01*
X759500Y843000D02*
X772694D01*
X779018Y836676D01*
X760000Y868500D02*
X766318Y862182D01*
Y862076D02*
Y862182D01*
X772414Y893572D02*
X779018Y900176D01*
X766318Y887476D02*
X772414Y893572D01*
X747268Y907034D02*
X753618Y900684D01*
Y900176D02*
Y900684D01*
X779780Y925576D02*
X785368Y919988D01*
X779018Y925576D02*
X779780D01*
X787098Y930402D02*
X791718Y925782D01*
X842518Y836676D02*
X848868Y830326D01*
X727976Y887476D02*
X728218D01*
X753618Y887382D02*
X760000Y881000D01*
X753618Y887382D02*
Y887476D01*
X779018Y887222D02*
Y887476D01*
X772414Y868426D02*
X778764Y862076D01*
X779018D01*
X804418Y900079D02*
X810998Y893498D01*
X804418Y900079D02*
Y900176D01*
X811000Y881000D02*
X817118Y887118D01*
Y887476D01*
X823500Y881000D02*
X829818Y887318D01*
Y887476D01*
X842518Y900176D02*
X849122Y893572D01*
X848868Y919226D02*
Y919480D01*
X842518Y912876D02*
X848868Y919226D01*
X804418Y912876D02*
X810498Y918956D01*
X817118Y925576D02*
X823468Y931926D01*
X804576Y925576D02*
X811000Y932000D01*
X804418Y925576D02*
X804576D01*
X791718D02*
Y925782D01*
X766576Y925576D02*
X772500Y931500D01*
X766318Y925576D02*
X766576D01*
X747000Y919000D02*
X753124Y912876D01*
X753618D01*
X760000Y919194D02*
Y919500D01*
Y919194D02*
X766318Y912876D01*
X817676Y900176D02*
X824000Y906500D01*
X817118Y900176D02*
X817676D01*
X817376Y912876D02*
X823500Y919000D01*
X817118Y912876D02*
X817376D01*
X829818D02*
X836422Y919480D01*
X543560Y934212D02*
X570230D01*
X543560Y985012D02*
X570230D01*
X594229Y961013D01*
Y952631D02*
Y961013D01*
X543560Y1010412D02*
X570230D01*
X734314Y932180D02*
X740918Y925576D01*
X556514Y997458D02*
X570230D01*
X648462Y944880D02*
X742884D01*
X746978Y932216D02*
X753618Y925576D01*
X742884Y944880D02*
X746978Y940786D01*
Y932216D02*
Y940786D01*
X843534Y963676D02*
X880618D01*
X570484Y1022858D02*
X648462Y944880D01*
X570230Y1010412D02*
X648462Y932180D01*
X734314D01*
X556514Y1022858D02*
X570484D01*
X531114Y997458D02*
X543560Y985012D01*
X531114Y946658D02*
X543560Y934212D01*
X531114Y1022858D02*
X543560Y1010412D01*
X544830Y1034542D02*
X556514Y1022858D01*
X461010Y1004316D02*
X512572D01*
X531114Y1022858D01*
X504190Y985859D02*
X527304Y1008973D01*
X535263D01*
X546777Y997458D01*
X556514D01*
X498602Y964946D02*
X531114Y997458D01*
X515451Y958596D02*
X543052D01*
X556514Y972058D01*
X513334D02*
X531114D01*
X543814Y883158D02*
X556514Y895858D01*
X503936Y843026D02*
X514350Y832612D01*
X543560D01*
X556514Y819658D01*
X460756Y822960D02*
X527812D01*
X531114Y819658D01*
X544322Y806450D02*
X556514Y794258D01*
X460756Y783590D02*
X520446D01*
X531114Y794258D01*
X486410Y765979D02*
X508677D01*
X522986Y780288D01*
X539242D01*
X550672Y768858D01*
X556514D01*
X460756Y743458D02*
X503174D01*
X528574Y768858D01*
X531114D01*
X525018Y756412D02*
X543560D01*
X556514Y743458D01*
X460756Y706120D02*
X501904D01*
X531114Y735330D01*
Y743458D01*
X485902Y1024128D02*
X496316Y1034542D01*
X544830D01*
X486664Y985859D02*
X504190D01*
X461010Y964946D02*
X498602D01*
X486664Y947335D02*
X504190D01*
X515451Y958596D01*
X461010Y924814D02*
Y939800D01*
X480949Y959739D01*
X501015D01*
X513334Y972058D01*
X486664Y908812D02*
X524510Y946658D01*
X531114D01*
X486918Y877316D02*
X492760Y883158D01*
X543814D01*
X461264Y857250D02*
Y876554D01*
X478282Y893572D01*
X528828D02*
X531114Y895858D01*
X478282Y893572D02*
X528828D01*
X486410Y843026D02*
X503936D01*
X486410Y804503D02*
X488357Y806450D01*
X544322D01*
X486410Y727456D02*
X496062D01*
X525018Y756412D01*
X734568Y919226D02*
X740918Y912876D01*
X607187Y897255D02*
X634365D01*
X570230Y934212D02*
X607187Y897255D01*
X634365D02*
X641096Y890524D01*
X679148Y903780D02*
X688812Y894116D01*
X629220Y903780D02*
X679148D01*
X688812Y894116D02*
X731377D01*
X829818Y925576D02*
X836275Y932033D01*
Y956417D01*
X843534Y963676D01*
X656820Y869164D02*
X668881Y881225D01*
X709069D01*
X715518Y874776D01*
X694436Y919226D02*
X734568D01*
X693252Y920410D02*
X694436Y919226D01*
X647278Y920410D02*
X693252D01*
X570230Y997458D02*
X647278Y920410D01*
X659274Y866164D02*
X670426Y877316D01*
X700278D01*
X643128Y866164D02*
X659274D01*
X729816Y887476D02*
X735912Y893572D01*
X747522D01*
X728218Y887476D02*
X729816D01*
X630249Y813054D02*
X656590D01*
X692912Y849376D01*
X693026Y843316D02*
X705328D01*
X658980Y809270D02*
X693026Y843316D01*
X544068Y781304D02*
X604244D01*
X632210Y809270D01*
X658980D01*
D15*
X556514Y641858D02*
D03*
Y667258D02*
D03*
Y591058D02*
D03*
Y616458D02*
D03*
Y743458D02*
D03*
Y768858D02*
D03*
Y565658D02*
D03*
X531114D02*
D03*
Y591058D02*
D03*
Y616458D02*
D03*
Y641858D02*
D03*
Y667258D02*
D03*
X556514Y692658D02*
D03*
X531114D02*
D03*
X556514Y718058D02*
D03*
X531114D02*
D03*
Y743458D02*
D03*
Y768858D02*
D03*
X556514Y794258D02*
D03*
X531114D02*
D03*
X556514Y819658D02*
D03*
X531114D02*
D03*
X556514Y845058D02*
D03*
X531114D02*
D03*
X556514Y870458D02*
D03*
X531114D02*
D03*
X556514Y895858D02*
D03*
X531114D02*
D03*
X556514Y921258D02*
D03*
X531114D02*
D03*
X556514Y946658D02*
D03*
X531114D02*
D03*
X556514Y972058D02*
D03*
X531114D02*
D03*
X556514Y997458D02*
D03*
X531114D02*
D03*
X556514Y1022858D02*
D03*
X531114D02*
D03*
X556514Y1048258D02*
D03*
X595122Y565658D02*
D03*
X596138Y625348D02*
D03*
D16*
X531114Y1048258D02*
D03*
D17*
X620522Y565658D02*
D03*
X621538Y625348D02*
D03*
D18*
X486410Y727456D02*
D03*
Y765979D02*
D03*
Y804503D02*
D03*
X460756Y783590D02*
D03*
X595884Y667004D02*
D03*
X596900Y527050D02*
D03*
X460756Y706120D02*
D03*
X486410Y843026D02*
D03*
X460756Y822960D02*
D03*
Y743458D02*
D03*
X461010Y924814D02*
D03*
Y1004316D02*
D03*
X485902Y1024128D02*
D03*
X461010Y964946D02*
D03*
X486664Y985859D02*
D03*
Y947335D02*
D03*
Y908812D02*
D03*
X461264Y857250D02*
D03*
X486918Y877316D02*
D03*
D19*
X399310Y1082320D02*
D03*
Y537840D02*
D03*
D20*
X797814Y893826D02*
D03*
X760222Y893572D02*
D03*
X747522D02*
D03*
X627888Y922528D02*
D03*
X721500Y855500D02*
D03*
X708914Y867918D02*
D03*
X631952Y852170D02*
D03*
X631444Y883158D02*
D03*
X721060Y906526D02*
D03*
X747268Y881380D02*
D03*
X687578Y914654D02*
D03*
X721614Y881380D02*
D03*
X708660Y906272D02*
D03*
X848868Y843026D02*
D03*
X836168D02*
D03*
X785622Y868172D02*
D03*
X798576D02*
D03*
X686694Y937806D02*
D03*
X772160Y881126D02*
D03*
X798830D02*
D03*
X747268Y907034D02*
D03*
X785622Y931418D02*
D03*
X849122Y893572D02*
D03*
X848868Y919480D02*
D03*
X628500Y904500D02*
D03*
X581500Y939500D02*
D03*
X760000Y868500D02*
D03*
X772500Y817500D02*
D03*
X734500Y830500D02*
D03*
X899500Y918500D02*
D03*
Y945000D02*
D03*
X881000Y976000D02*
D03*
X832000Y964000D02*
D03*
X718820Y983996D02*
D03*
X772500Y931500D02*
D03*
X759500Y843000D02*
D03*
X772414Y868426D02*
D03*
X810998Y893498D02*
D03*
X811000Y881000D02*
D03*
X785368Y919988D02*
D03*
X760000Y919500D02*
D03*
Y881000D02*
D03*
X772414Y893572D02*
D03*
X691642Y798322D02*
D03*
X692658Y861822D02*
D03*
X718820Y958850D02*
D03*
X747000Y919000D02*
D03*
X770000Y989000D02*
D03*
X746506Y969518D02*
D03*
X810498Y918998D02*
D03*
X811000Y932000D02*
D03*
X824000Y906500D02*
D03*
X823500Y919000D02*
D03*
Y881000D02*
D03*
X848998Y880998D02*
D03*
X849498Y868498D02*
D03*
X836168Y855472D02*
D03*
X836000Y868500D02*
D03*
X899414Y881380D02*
D03*
X912368Y842772D02*
D03*
X976122Y906272D02*
D03*
X836422Y919480D02*
D03*
X823468Y931926D02*
D03*
X932180Y964184D02*
D03*
X892500Y1002500D02*
D03*
X841500D02*
D03*
X794512Y989838D02*
D03*
X744728Y990346D02*
D03*
X687324Y925830D02*
D03*
X692912Y899922D02*
D03*
X810260Y805180D02*
D03*
X861568Y830072D02*
D03*
X880618Y963676D02*
D03*
X735000Y804500D02*
D03*
X690880Y823722D02*
D03*
X924814Y881126D02*
D03*
X975868Y918972D02*
D03*
X912368Y906526D02*
D03*
X773000Y792000D02*
D03*
X924814Y855980D02*
D03*
X975868Y944372D02*
D03*
X734568Y868426D02*
D03*
M02*
