%FSLAX44Y44*%
%MOMM*%
G71*
G01*
G75*
G04 Layer_Color=8421504*
%ADD10R,1.8000X1.1500*%
%ADD11C,0.7620*%
G04:AMPARAMS|DCode=12|XSize=1.15mm|YSize=1.8mm|CornerRadius=0mm|HoleSize=0mm|Usage=FLASHONLY|Rotation=135.000|XOffset=0mm|YOffset=0mm|HoleType=Round|Shape=Rectangle|*
%AMROTATEDRECTD12*
4,1,4,1.0430,0.2298,-0.2298,-1.0430,-1.0430,-0.2298,0.2298,1.0430,1.0430,0.2298,0.0*
%
%ADD12ROTATEDRECTD12*%

%ADD13R,1.1500X1.8000*%
%ADD14C,0.1500*%
%ADD15C,1.5000*%
%ADD16R,1.5000X1.5000*%
%ADD17R,1.5000X1.5000*%
%ADD18C,1.5240*%
%ADD19C,3.5000*%
%ADD20C,0.6000*%
%ADD21R,1.7000X1.1000*%
%ADD22R,1.1000X1.7000*%
G04:AMPARAMS|DCode=23|XSize=1.7mm|YSize=1.1mm|CornerRadius=0mm|HoleSize=0mm|Usage=FLASHONLY|Rotation=45.000|XOffset=0mm|YOffset=0mm|HoleType=Round|Shape=Rectangle|*
%AMROTATEDRECTD23*
4,1,4,-0.2121,-0.9900,-0.9900,-0.2121,0.2121,0.9900,0.9900,0.2121,-0.2121,-0.9900,0.0*
%
%ADD23ROTATEDRECTD23*%

%ADD24C,0.6000*%
%ADD25C,0.1000*%
%ADD26C,0.2540*%
%ADD27C,0.2000*%
%ADD28C,0.0178*%
%ADD29C,0.2032*%
D10*
X615724Y853412D02*
D03*
Y883412D02*
D03*
D11*
X702818Y849376D02*
D03*
X715518D02*
D03*
X702818Y874776D02*
D03*
X715518D02*
D03*
Y862076D02*
D03*
X728218D02*
D03*
X779018Y874776D02*
D03*
X791718D02*
D03*
X829818Y849376D02*
D03*
X842518D02*
D03*
X1071118Y582676D02*
D03*
X1058418D02*
D03*
X1045718D02*
D03*
X1033018D02*
D03*
X1020318D02*
D03*
X1007618D02*
D03*
X994918D02*
D03*
X982218D02*
D03*
X969518D02*
D03*
X956818D02*
D03*
X944118D02*
D03*
X931418D02*
D03*
X918718D02*
D03*
X906018D02*
D03*
X893318D02*
D03*
X880618D02*
D03*
X867918D02*
D03*
X855218D02*
D03*
X842518D02*
D03*
X829818D02*
D03*
X817118D02*
D03*
X804418D02*
D03*
X791718D02*
D03*
X779018D02*
D03*
X766318D02*
D03*
X753618D02*
D03*
X740918D02*
D03*
X728218D02*
D03*
Y950976D02*
D03*
X740918D02*
D03*
X753618D02*
D03*
X766318D02*
D03*
X779018D02*
D03*
X791718D02*
D03*
X804418D02*
D03*
X817118D02*
D03*
X829818D02*
D03*
X842518D02*
D03*
X855218D02*
D03*
X867918D02*
D03*
X880618D02*
D03*
X893318D02*
D03*
X906018D02*
D03*
X918718D02*
D03*
X931418D02*
D03*
X944118D02*
D03*
X956818D02*
D03*
X969518D02*
D03*
X982218D02*
D03*
X994918D02*
D03*
X1007618D02*
D03*
X1020318D02*
D03*
X1033018D02*
D03*
X1045718D02*
D03*
X1058418D02*
D03*
X715518Y938276D02*
D03*
X728218D02*
D03*
X740918D02*
D03*
X753618D02*
D03*
X766318D02*
D03*
X779018D02*
D03*
X791718D02*
D03*
X804418D02*
D03*
X817118D02*
D03*
X829818D02*
D03*
X842518D02*
D03*
X855218D02*
D03*
X867918D02*
D03*
X880618D02*
D03*
X893318D02*
D03*
X906018D02*
D03*
X918718D02*
D03*
X931418D02*
D03*
X944118D02*
D03*
X956818D02*
D03*
X969518D02*
D03*
X982218D02*
D03*
X994918D02*
D03*
X1007618D02*
D03*
X1020318D02*
D03*
X1033018D02*
D03*
X1045718D02*
D03*
X1058418D02*
D03*
X1071118D02*
D03*
X855218Y925576D02*
D03*
X867918D02*
D03*
X880618D02*
D03*
X893318D02*
D03*
X906018D02*
D03*
X918718D02*
D03*
X931418D02*
D03*
X944118D02*
D03*
X956818D02*
D03*
X969518D02*
D03*
X982218D02*
D03*
X994918D02*
D03*
X1007618D02*
D03*
X1020318D02*
D03*
X1033018D02*
D03*
X1045718D02*
D03*
X1058418D02*
D03*
X1071118D02*
D03*
X1083818D02*
D03*
X855218Y912876D02*
D03*
X867918D02*
D03*
X880618D02*
D03*
X893318D02*
D03*
X906018D02*
D03*
X918718D02*
D03*
X931418D02*
D03*
X944118D02*
D03*
X956818D02*
D03*
X969518D02*
D03*
X982218D02*
D03*
X994918D02*
D03*
X1007618D02*
D03*
X1020318D02*
D03*
X1033018D02*
D03*
X1045718D02*
D03*
X1058418D02*
D03*
X1071118D02*
D03*
X1083818D02*
D03*
X855218Y900176D02*
D03*
X867918D02*
D03*
X880618D02*
D03*
X893318D02*
D03*
X906018D02*
D03*
X918718D02*
D03*
X931418D02*
D03*
X944118D02*
D03*
X956818D02*
D03*
X969518D02*
D03*
X982218D02*
D03*
X994918D02*
D03*
X1007618D02*
D03*
X1020318D02*
D03*
X1033018D02*
D03*
X1045718D02*
D03*
X1058418D02*
D03*
X1071118D02*
D03*
X1083818D02*
D03*
X855218Y887476D02*
D03*
X867918D02*
D03*
X880618D02*
D03*
X893318D02*
D03*
X906018D02*
D03*
X918718D02*
D03*
X931418D02*
D03*
X944118D02*
D03*
X956818D02*
D03*
X969518D02*
D03*
X982218D02*
D03*
X994918D02*
D03*
X1007618D02*
D03*
X1020318D02*
D03*
X1033018D02*
D03*
X1045718D02*
D03*
X1058418D02*
D03*
X1071118D02*
D03*
X1083818D02*
D03*
X855218Y874776D02*
D03*
X867918D02*
D03*
X880618D02*
D03*
X893318D02*
D03*
X906018D02*
D03*
X918718D02*
D03*
X931418D02*
D03*
X944118D02*
D03*
X956818D02*
D03*
X969518D02*
D03*
X982218D02*
D03*
X994918D02*
D03*
X1007618D02*
D03*
X1020318D02*
D03*
X1033018D02*
D03*
X1045718D02*
D03*
X1058418D02*
D03*
X1071118D02*
D03*
X1083818D02*
D03*
X855218Y862076D02*
D03*
X867918D02*
D03*
X880618D02*
D03*
X893318D02*
D03*
X906018D02*
D03*
X918718D02*
D03*
X931418D02*
D03*
X944118D02*
D03*
X956818D02*
D03*
X969518D02*
D03*
X982218D02*
D03*
X994918D02*
D03*
X1007618D02*
D03*
X1020318D02*
D03*
X1033018D02*
D03*
X1045718D02*
D03*
X1058418D02*
D03*
X1071118D02*
D03*
X1083818D02*
D03*
X855218Y849376D02*
D03*
X867918D02*
D03*
X880618D02*
D03*
X893318D02*
D03*
X906018D02*
D03*
X918718D02*
D03*
X931418D02*
D03*
X944118D02*
D03*
X956818D02*
D03*
X969518D02*
D03*
X982218D02*
D03*
X994918D02*
D03*
X1007618D02*
D03*
X1020318D02*
D03*
X1033018D02*
D03*
X1045718D02*
D03*
X1058418D02*
D03*
X1071118D02*
D03*
X1083818D02*
D03*
X702818Y836676D02*
D03*
X715518D02*
D03*
X842518D02*
D03*
X855218D02*
D03*
X867918D02*
D03*
X880618D02*
D03*
X893318D02*
D03*
X906018D02*
D03*
X918718D02*
D03*
X931418D02*
D03*
X944118D02*
D03*
X956818D02*
D03*
X969518D02*
D03*
X982218D02*
D03*
X994918D02*
D03*
X1007618D02*
D03*
X1020318D02*
D03*
X1033018D02*
D03*
X1045718D02*
D03*
X1058418D02*
D03*
X1071118D02*
D03*
X1083818D02*
D03*
X702818Y823976D02*
D03*
X715518D02*
D03*
X728218D02*
D03*
X740918D02*
D03*
X753618D02*
D03*
X766318D02*
D03*
X779018D02*
D03*
X804418D02*
D03*
X817118D02*
D03*
X829818D02*
D03*
X842518D02*
D03*
X855218D02*
D03*
X867918D02*
D03*
X880618D02*
D03*
X893318D02*
D03*
X906018D02*
D03*
X918718D02*
D03*
X931418D02*
D03*
X944118D02*
D03*
X956818D02*
D03*
X969518D02*
D03*
X982218D02*
D03*
X994918D02*
D03*
X1007618D02*
D03*
X1020318D02*
D03*
X1033018D02*
D03*
X1045718D02*
D03*
X1058418D02*
D03*
X1071118D02*
D03*
X1083818D02*
D03*
X702818Y811276D02*
D03*
X715518D02*
D03*
X728218D02*
D03*
X740918D02*
D03*
X753618D02*
D03*
X766318D02*
D03*
X779018D02*
D03*
X804418D02*
D03*
X817118D02*
D03*
X829818D02*
D03*
X842518D02*
D03*
X855218D02*
D03*
X867918D02*
D03*
X880618D02*
D03*
X893318D02*
D03*
X906018D02*
D03*
X918718D02*
D03*
X931418D02*
D03*
X944118D02*
D03*
X956818D02*
D03*
X969518D02*
D03*
X982218D02*
D03*
X994918D02*
D03*
X1007618D02*
D03*
X1020318D02*
D03*
X1033018D02*
D03*
X1045718D02*
D03*
X1058418D02*
D03*
X1071118D02*
D03*
X1083818D02*
D03*
X702818Y798576D02*
D03*
X715518D02*
D03*
X728218D02*
D03*
X740918D02*
D03*
X753618D02*
D03*
X766318D02*
D03*
X779018D02*
D03*
X791718D02*
D03*
X804418D02*
D03*
X817118D02*
D03*
X829818D02*
D03*
X842518D02*
D03*
X855218D02*
D03*
X867918D02*
D03*
X880618D02*
D03*
X893318D02*
D03*
X906018D02*
D03*
X918718D02*
D03*
X931418D02*
D03*
X944118D02*
D03*
X956818D02*
D03*
X969518D02*
D03*
X982218D02*
D03*
X1007618D02*
D03*
X1020318D02*
D03*
X1033018D02*
D03*
X1045718D02*
D03*
X1058418D02*
D03*
X1071118D02*
D03*
X1083818D02*
D03*
X702818Y785876D02*
D03*
X715518D02*
D03*
X728218D02*
D03*
X740918D02*
D03*
X753618D02*
D03*
X766318D02*
D03*
X779018D02*
D03*
X791718D02*
D03*
X804418D02*
D03*
X817118D02*
D03*
X829818D02*
D03*
X842518D02*
D03*
X855218D02*
D03*
X867918D02*
D03*
X880618D02*
D03*
X893318D02*
D03*
X906018D02*
D03*
X918718D02*
D03*
X931418D02*
D03*
X944118D02*
D03*
X956818D02*
D03*
X969518D02*
D03*
X982218D02*
D03*
X1007618D02*
D03*
X1020318D02*
D03*
X1033018D02*
D03*
X1045718D02*
D03*
X1058418D02*
D03*
X1071118D02*
D03*
X1083818D02*
D03*
X702818Y773176D02*
D03*
X715518D02*
D03*
X728218D02*
D03*
X740918D02*
D03*
X753618D02*
D03*
X766318D02*
D03*
X779018D02*
D03*
X791718D02*
D03*
X804418D02*
D03*
X817118D02*
D03*
X829818D02*
D03*
X842518D02*
D03*
X855218D02*
D03*
X867918D02*
D03*
X880618D02*
D03*
X893318D02*
D03*
X906018D02*
D03*
X918718D02*
D03*
X931418D02*
D03*
X944118D02*
D03*
X956818D02*
D03*
X969518D02*
D03*
X982218D02*
D03*
X994918D02*
D03*
X1007618D02*
D03*
X1020318D02*
D03*
X1033018D02*
D03*
X1045718D02*
D03*
X1058418D02*
D03*
X1071118D02*
D03*
X1083818D02*
D03*
X702818Y760476D02*
D03*
X715518D02*
D03*
X728218D02*
D03*
X740918D02*
D03*
X753618D02*
D03*
X766318D02*
D03*
X779018D02*
D03*
X791718D02*
D03*
X804418D02*
D03*
X817118D02*
D03*
X829818D02*
D03*
X842518D02*
D03*
X855218D02*
D03*
X867918D02*
D03*
X880618D02*
D03*
X893318D02*
D03*
X906018D02*
D03*
X918718D02*
D03*
X931418D02*
D03*
X944118D02*
D03*
X956818D02*
D03*
X969518D02*
D03*
X982218D02*
D03*
X994918D02*
D03*
X1007618D02*
D03*
X1020318D02*
D03*
X1033018D02*
D03*
X1045718D02*
D03*
X1058418D02*
D03*
X1071118D02*
D03*
X1083818D02*
D03*
X702818Y747776D02*
D03*
X715518D02*
D03*
X728218D02*
D03*
X740918D02*
D03*
X753618D02*
D03*
X766318D02*
D03*
X779018D02*
D03*
X791718D02*
D03*
X804418D02*
D03*
X817118D02*
D03*
X829818D02*
D03*
X842518D02*
D03*
X855218D02*
D03*
X867918D02*
D03*
X880618D02*
D03*
X893318D02*
D03*
X906018D02*
D03*
X918718D02*
D03*
X931418D02*
D03*
X944118D02*
D03*
X956818D02*
D03*
X969518D02*
D03*
X982218D02*
D03*
X994918D02*
D03*
X1007618D02*
D03*
X1020318D02*
D03*
X1033018D02*
D03*
X1045718D02*
D03*
X1058418D02*
D03*
X1071118D02*
D03*
X1083818D02*
D03*
X702818Y735076D02*
D03*
X715518D02*
D03*
X728218D02*
D03*
X740918D02*
D03*
X753618D02*
D03*
X766318D02*
D03*
X779018D02*
D03*
X791718D02*
D03*
X804418D02*
D03*
X817118D02*
D03*
X829818D02*
D03*
X842518D02*
D03*
X855218D02*
D03*
X867918D02*
D03*
X880618D02*
D03*
X893318D02*
D03*
X906018D02*
D03*
X918718D02*
D03*
X931418D02*
D03*
X944118D02*
D03*
X956818D02*
D03*
X969518D02*
D03*
X982218D02*
D03*
X994918D02*
D03*
X1007618D02*
D03*
X1020318D02*
D03*
X1033018D02*
D03*
X1045718D02*
D03*
X1058418D02*
D03*
X1071118D02*
D03*
X1083818D02*
D03*
X702818Y722376D02*
D03*
X715518D02*
D03*
X728218D02*
D03*
X740918D02*
D03*
X753618D02*
D03*
X766318D02*
D03*
X779018D02*
D03*
X791718D02*
D03*
X804418D02*
D03*
X817118D02*
D03*
X829818D02*
D03*
X842518D02*
D03*
X855218D02*
D03*
X867918D02*
D03*
X880618D02*
D03*
X893318D02*
D03*
X906018D02*
D03*
X918718D02*
D03*
X931418D02*
D03*
X944118D02*
D03*
X956818D02*
D03*
X969518D02*
D03*
X982218D02*
D03*
X994918D02*
D03*
X1007618D02*
D03*
X1020318D02*
D03*
X1033018D02*
D03*
X1045718D02*
D03*
X1058418D02*
D03*
X1071118D02*
D03*
X1083818D02*
D03*
X702818Y709676D02*
D03*
X715518D02*
D03*
X728218D02*
D03*
X740918D02*
D03*
X753618D02*
D03*
X766318D02*
D03*
X779018D02*
D03*
X791718D02*
D03*
X804418D02*
D03*
X817118D02*
D03*
X829818D02*
D03*
X842518D02*
D03*
X855218D02*
D03*
X867918D02*
D03*
X880618D02*
D03*
X893318D02*
D03*
X906018D02*
D03*
X918718D02*
D03*
X931418D02*
D03*
X944118D02*
D03*
X956818D02*
D03*
X969518D02*
D03*
X982218D02*
D03*
X994918D02*
D03*
X1007618D02*
D03*
X1020318D02*
D03*
X1033018D02*
D03*
X1045718D02*
D03*
X1058418D02*
D03*
X1071118D02*
D03*
X1083818D02*
D03*
X702818Y696976D02*
D03*
X715518D02*
D03*
X728218D02*
D03*
X740918D02*
D03*
X753618D02*
D03*
X766318D02*
D03*
X779018D02*
D03*
X791718D02*
D03*
X804418D02*
D03*
X817118D02*
D03*
X829818D02*
D03*
X842518D02*
D03*
X855218D02*
D03*
X867918D02*
D03*
X880618D02*
D03*
X893318D02*
D03*
X906018D02*
D03*
X918718D02*
D03*
X931418D02*
D03*
X944118D02*
D03*
X956818D02*
D03*
X969518D02*
D03*
X982218D02*
D03*
X994918D02*
D03*
X1007618D02*
D03*
X1020318D02*
D03*
X1033018D02*
D03*
X1045718D02*
D03*
X1058418D02*
D03*
X1071118D02*
D03*
X1083818D02*
D03*
X702818Y684276D02*
D03*
X715518D02*
D03*
X728218D02*
D03*
X740918D02*
D03*
X753618D02*
D03*
X766318D02*
D03*
X779018D02*
D03*
X791718D02*
D03*
X804418D02*
D03*
X817118D02*
D03*
X829818D02*
D03*
X842518D02*
D03*
X855218D02*
D03*
X867918D02*
D03*
X880618D02*
D03*
X893318D02*
D03*
X906018D02*
D03*
X918718D02*
D03*
X931418D02*
D03*
X944118D02*
D03*
X956818D02*
D03*
X969518D02*
D03*
X982218D02*
D03*
X994918D02*
D03*
X1007618D02*
D03*
X1020318D02*
D03*
X1033018D02*
D03*
X1045718D02*
D03*
X1058418D02*
D03*
X1071118D02*
D03*
X1083818D02*
D03*
X702818Y671576D02*
D03*
X715518D02*
D03*
X728218D02*
D03*
X740918D02*
D03*
X753618D02*
D03*
X766318D02*
D03*
X779018D02*
D03*
X791718D02*
D03*
X804418D02*
D03*
X817118D02*
D03*
X829818D02*
D03*
X842518D02*
D03*
X855218D02*
D03*
X867918D02*
D03*
X880618D02*
D03*
X893318D02*
D03*
X906018D02*
D03*
X918718D02*
D03*
X931418D02*
D03*
X944118D02*
D03*
X956818D02*
D03*
X969518D02*
D03*
X982218D02*
D03*
X994918D02*
D03*
X1007618D02*
D03*
X1020318D02*
D03*
X1033018D02*
D03*
X1045718D02*
D03*
X1058418D02*
D03*
X1071118D02*
D03*
X1083818D02*
D03*
X702818Y658876D02*
D03*
X715518D02*
D03*
X728218D02*
D03*
X740918D02*
D03*
X753618D02*
D03*
X766318D02*
D03*
X779018D02*
D03*
X791718D02*
D03*
X804418D02*
D03*
X817118D02*
D03*
X829818D02*
D03*
X842518D02*
D03*
X855218D02*
D03*
X867918D02*
D03*
X880618D02*
D03*
X893318D02*
D03*
X906018D02*
D03*
X918718D02*
D03*
X931418D02*
D03*
X944118D02*
D03*
X956818D02*
D03*
X969518D02*
D03*
X994918D02*
D03*
X1007618D02*
D03*
X1020318D02*
D03*
X1033018D02*
D03*
X1045718D02*
D03*
X1058418D02*
D03*
X1071118D02*
D03*
X1083818D02*
D03*
X702818Y646176D02*
D03*
X715518D02*
D03*
X728218D02*
D03*
X740918D02*
D03*
X753618D02*
D03*
X766318D02*
D03*
X779018D02*
D03*
X791718D02*
D03*
X804418D02*
D03*
X817118D02*
D03*
X829818D02*
D03*
X842518D02*
D03*
X855218D02*
D03*
X867918D02*
D03*
X880618D02*
D03*
X893318D02*
D03*
X906018D02*
D03*
X918718D02*
D03*
X931418D02*
D03*
X944118D02*
D03*
X956818D02*
D03*
X969518D02*
D03*
X994918D02*
D03*
X1007618D02*
D03*
X1020318D02*
D03*
X1033018D02*
D03*
X1045718D02*
D03*
X1058418D02*
D03*
X1071118D02*
D03*
X1083818D02*
D03*
X702818Y633476D02*
D03*
X715518D02*
D03*
X728218D02*
D03*
X740918D02*
D03*
X753618D02*
D03*
X766318D02*
D03*
X779018D02*
D03*
X791718D02*
D03*
X804418D02*
D03*
X817118D02*
D03*
X829818D02*
D03*
X842518D02*
D03*
X855218D02*
D03*
X867918D02*
D03*
X880618D02*
D03*
X893318D02*
D03*
X906018D02*
D03*
X918718D02*
D03*
X931418D02*
D03*
X944118D02*
D03*
X956818D02*
D03*
X969518D02*
D03*
X982218D02*
D03*
X994918D02*
D03*
X1007618D02*
D03*
X1020318D02*
D03*
X1033018D02*
D03*
X1045718D02*
D03*
X1058418D02*
D03*
X1071118D02*
D03*
X1083818D02*
D03*
X702818Y620776D02*
D03*
X715518D02*
D03*
X728218D02*
D03*
X740918D02*
D03*
X753618D02*
D03*
X766318D02*
D03*
X779018D02*
D03*
X791718D02*
D03*
X804418D02*
D03*
X817118D02*
D03*
X829818D02*
D03*
X842518D02*
D03*
X855218D02*
D03*
X867918D02*
D03*
X880618D02*
D03*
X893318D02*
D03*
X906018D02*
D03*
X918718D02*
D03*
X931418D02*
D03*
X944118D02*
D03*
X956818D02*
D03*
X969518D02*
D03*
X982218D02*
D03*
X994918D02*
D03*
X1007618D02*
D03*
X1020318D02*
D03*
X1033018D02*
D03*
X1045718D02*
D03*
X1058418D02*
D03*
X1071118D02*
D03*
X1083818D02*
D03*
X702818Y608076D02*
D03*
X715518D02*
D03*
X728218D02*
D03*
X740918D02*
D03*
X753618D02*
D03*
X779018D02*
D03*
X791718D02*
D03*
X804418D02*
D03*
X817118D02*
D03*
X829818D02*
D03*
X842518D02*
D03*
X855218D02*
D03*
X867918D02*
D03*
X880618D02*
D03*
X893318D02*
D03*
X906018D02*
D03*
X918718D02*
D03*
X931418D02*
D03*
X944118D02*
D03*
X956818D02*
D03*
X969518D02*
D03*
X982218D02*
D03*
X994918D02*
D03*
X1007618D02*
D03*
X1020318D02*
D03*
X1033018D02*
D03*
X1045718D02*
D03*
X1058418D02*
D03*
X1071118D02*
D03*
X1083818D02*
D03*
X702818Y595376D02*
D03*
X715518D02*
D03*
X728218D02*
D03*
X740918D02*
D03*
X753618D02*
D03*
X779018D02*
D03*
X791718D02*
D03*
X804418D02*
D03*
X817118D02*
D03*
X829818D02*
D03*
X842518D02*
D03*
X855218D02*
D03*
X867918D02*
D03*
X880618D02*
D03*
X893318D02*
D03*
X906018D02*
D03*
X918718D02*
D03*
X931418D02*
D03*
X944118D02*
D03*
X956818D02*
D03*
X969518D02*
D03*
X982218D02*
D03*
X994918D02*
D03*
X1007618D02*
D03*
X1020318D02*
D03*
X1033018D02*
D03*
X1045718D02*
D03*
X1058418D02*
D03*
X1071118D02*
D03*
X1083818D02*
D03*
X728218Y569976D02*
D03*
X740918D02*
D03*
X753618D02*
D03*
X766318D02*
D03*
X779018D02*
D03*
X791718D02*
D03*
X804418D02*
D03*
X817118D02*
D03*
X829818D02*
D03*
X842518D02*
D03*
X855218D02*
D03*
X867918D02*
D03*
X880618D02*
D03*
X893318D02*
D03*
X906018D02*
D03*
X918718D02*
D03*
X931418D02*
D03*
X944118D02*
D03*
X956818D02*
D03*
X969518D02*
D03*
X982218D02*
D03*
X994918D02*
D03*
X1007618D02*
D03*
X1020318D02*
D03*
X1033018D02*
D03*
X1045718D02*
D03*
X1058418D02*
D03*
X728218Y836676D02*
D03*
X740918D02*
D03*
X753618D02*
D03*
X766318D02*
D03*
X779018D02*
D03*
X791718D02*
D03*
X804418D02*
D03*
X817118D02*
D03*
X829818D02*
D03*
X817118Y849376D02*
D03*
X804418D02*
D03*
X791718D02*
D03*
X779018D02*
D03*
X766318D02*
D03*
X753618D02*
D03*
X740918D02*
D03*
X728218D02*
D03*
X829818Y874776D02*
D03*
X817118D02*
D03*
X804418D02*
D03*
X766318D02*
D03*
X753618D02*
D03*
X740918D02*
D03*
X728218D02*
D03*
X829818Y887476D02*
D03*
X817118D02*
D03*
X804418D02*
D03*
X791718D02*
D03*
X779018D02*
D03*
X766318D02*
D03*
X753618D02*
D03*
X740918D02*
D03*
X728218D02*
D03*
X715518D02*
D03*
X702818D02*
D03*
X829818Y900176D02*
D03*
X817118D02*
D03*
X804418D02*
D03*
X791718D02*
D03*
X779018D02*
D03*
X766318D02*
D03*
X753618D02*
D03*
X740918D02*
D03*
X728218D02*
D03*
X715518D02*
D03*
X702818D02*
D03*
X829818Y912876D02*
D03*
X817118D02*
D03*
X804418D02*
D03*
X791718D02*
D03*
X779018D02*
D03*
X766318D02*
D03*
X753618D02*
D03*
X740918D02*
D03*
X728218D02*
D03*
X715518D02*
D03*
X702818D02*
D03*
X829818Y925576D02*
D03*
X817118D02*
D03*
X804418D02*
D03*
X791718D02*
D03*
X779018D02*
D03*
X766318D02*
D03*
X753618D02*
D03*
X740918D02*
D03*
X728218D02*
D03*
X715518D02*
D03*
X702818D02*
D03*
X842518Y874776D02*
D03*
Y887476D02*
D03*
Y900176D02*
D03*
Y912876D02*
D03*
Y925576D02*
D03*
Y862076D02*
D03*
X702818D02*
D03*
X740918D02*
D03*
X753618D02*
D03*
X766318D02*
D03*
X779018D02*
D03*
X791718D02*
D03*
X804418D02*
D03*
X817118D02*
D03*
X829818D02*
D03*
D12*
X615442Y931418D02*
D03*
X594229Y952631D02*
D03*
D13*
X585696Y794004D02*
D03*
X615696D02*
D03*
M02*
