%FSLAX44Y44*%
%MOMM*%
G71*
G01*
G75*
G04 Layer_Color=8388736*
%ADD10R,1.8000X1.1500*%
%ADD11C,0.7620*%
G04:AMPARAMS|DCode=12|XSize=1.15mm|YSize=1.8mm|CornerRadius=0mm|HoleSize=0mm|Usage=FLASHONLY|Rotation=135.000|XOffset=0mm|YOffset=0mm|HoleType=Round|Shape=Rectangle|*
%AMROTATEDRECTD12*
4,1,4,1.0430,0.2298,-0.2298,-1.0430,-1.0430,-0.2298,0.2298,1.0430,1.0430,0.2298,0.0*
%
%ADD12ROTATEDRECTD12*%

%ADD13R,1.1500X1.8000*%
%ADD14C,0.1500*%
%ADD15C,1.5000*%
%ADD16R,1.5000X1.5000*%
%ADD17R,1.5000X1.5000*%
%ADD18C,1.5240*%
%ADD19C,3.5000*%
%ADD20C,0.6000*%
%ADD21R,1.7000X1.1000*%
%ADD22R,1.1000X1.7000*%
G04:AMPARAMS|DCode=23|XSize=1.7mm|YSize=1.1mm|CornerRadius=0mm|HoleSize=0mm|Usage=FLASHONLY|Rotation=45.000|XOffset=0mm|YOffset=0mm|HoleType=Round|Shape=Rectangle|*
%AMROTATEDRECTD23*
4,1,4,-0.2121,-0.9900,-0.9900,-0.2121,0.2121,0.9900,0.9900,0.2121,-0.2121,-0.9900,0.0*
%
%ADD23ROTATEDRECTD23*%

%ADD24C,0.6000*%
%ADD25C,0.1000*%
%ADD26C,0.2540*%
%ADD27C,0.2000*%
%ADD28C,0.0178*%
%ADD29C,0.2032*%
%ADD30R,2.0000X1.3500*%
%ADD31C,0.9620*%
G04:AMPARAMS|DCode=32|XSize=1.35mm|YSize=2mm|CornerRadius=0mm|HoleSize=0mm|Usage=FLASHONLY|Rotation=135.000|XOffset=0mm|YOffset=0mm|HoleType=Round|Shape=Rectangle|*
%AMROTATEDRECTD32*
4,1,4,1.1844,0.2298,-0.2298,-1.1844,-1.1844,-0.2298,0.2298,1.1844,1.1844,0.2298,0.0*
%
%ADD32ROTATEDRECTD32*%

%ADD33R,1.3500X2.0000*%
%ADD34C,1.7000*%
%ADD35R,1.7000X1.7000*%
%ADD36R,1.7000X1.7000*%
%ADD37C,1.7240*%
%ADD38C,3.7000*%
%ADD39C,0.8000*%
D30*
X615724Y853412D02*
D03*
Y883412D02*
D03*
D31*
X702818Y849376D02*
D03*
X715518D02*
D03*
X702818Y874776D02*
D03*
X715518D02*
D03*
Y862076D02*
D03*
X728218D02*
D03*
X779018Y874776D02*
D03*
X791718D02*
D03*
X829818Y849376D02*
D03*
X842518D02*
D03*
X1071118Y582676D02*
D03*
X1058418D02*
D03*
X1045718D02*
D03*
X1033018D02*
D03*
X1020318D02*
D03*
X1007618D02*
D03*
X994918D02*
D03*
X982218D02*
D03*
X969518D02*
D03*
X956818D02*
D03*
X944118D02*
D03*
X931418D02*
D03*
X918718D02*
D03*
X906018D02*
D03*
X893318D02*
D03*
X880618D02*
D03*
X867918D02*
D03*
X855218D02*
D03*
X842518D02*
D03*
X829818D02*
D03*
X817118D02*
D03*
X804418D02*
D03*
X791718D02*
D03*
X779018D02*
D03*
X766318D02*
D03*
X753618D02*
D03*
X740918D02*
D03*
X728218D02*
D03*
Y950976D02*
D03*
X740918D02*
D03*
X753618D02*
D03*
X766318D02*
D03*
X779018D02*
D03*
X791718D02*
D03*
X804418D02*
D03*
X817118D02*
D03*
X829818D02*
D03*
X842518D02*
D03*
X855218D02*
D03*
X867918D02*
D03*
X880618D02*
D03*
X893318D02*
D03*
X906018D02*
D03*
X918718D02*
D03*
X931418D02*
D03*
X944118D02*
D03*
X956818D02*
D03*
X969518D02*
D03*
X982218D02*
D03*
X994918D02*
D03*
X1007618D02*
D03*
X1020318D02*
D03*
X1033018D02*
D03*
X1045718D02*
D03*
X1058418D02*
D03*
X715518Y938276D02*
D03*
X728218D02*
D03*
X740918D02*
D03*
X753618D02*
D03*
X766318D02*
D03*
X779018D02*
D03*
X791718D02*
D03*
X804418D02*
D03*
X817118D02*
D03*
X829818D02*
D03*
X842518D02*
D03*
X855218D02*
D03*
X867918D02*
D03*
X880618D02*
D03*
X893318D02*
D03*
X906018D02*
D03*
X918718D02*
D03*
X931418D02*
D03*
X944118D02*
D03*
X956818D02*
D03*
X969518D02*
D03*
X982218D02*
D03*
X994918D02*
D03*
X1007618D02*
D03*
X1020318D02*
D03*
X1033018D02*
D03*
X1045718D02*
D03*
X1058418D02*
D03*
X1071118D02*
D03*
X855218Y925576D02*
D03*
X867918D02*
D03*
X880618D02*
D03*
X893318D02*
D03*
X906018D02*
D03*
X918718D02*
D03*
X931418D02*
D03*
X944118D02*
D03*
X956818D02*
D03*
X969518D02*
D03*
X982218D02*
D03*
X994918D02*
D03*
X1007618D02*
D03*
X1020318D02*
D03*
X1033018D02*
D03*
X1045718D02*
D03*
X1058418D02*
D03*
X1071118D02*
D03*
X1083818D02*
D03*
X855218Y912876D02*
D03*
X867918D02*
D03*
X880618D02*
D03*
X893318D02*
D03*
X906018D02*
D03*
X918718D02*
D03*
X931418D02*
D03*
X944118D02*
D03*
X956818D02*
D03*
X969518D02*
D03*
X982218D02*
D03*
X994918D02*
D03*
X1007618D02*
D03*
X1020318D02*
D03*
X1033018D02*
D03*
X1045718D02*
D03*
X1058418D02*
D03*
X1071118D02*
D03*
X1083818D02*
D03*
X855218Y900176D02*
D03*
X867918D02*
D03*
X880618D02*
D03*
X893318D02*
D03*
X906018D02*
D03*
X918718D02*
D03*
X931418D02*
D03*
X944118D02*
D03*
X956818D02*
D03*
X969518D02*
D03*
X982218D02*
D03*
X994918D02*
D03*
X1007618D02*
D03*
X1020318D02*
D03*
X1033018D02*
D03*
X1045718D02*
D03*
X1058418D02*
D03*
X1071118D02*
D03*
X1083818D02*
D03*
X855218Y887476D02*
D03*
X867918D02*
D03*
X880618D02*
D03*
X893318D02*
D03*
X906018D02*
D03*
X918718D02*
D03*
X931418D02*
D03*
X944118D02*
D03*
X956818D02*
D03*
X969518D02*
D03*
X982218D02*
D03*
X994918D02*
D03*
X1007618D02*
D03*
X1020318D02*
D03*
X1033018D02*
D03*
X1045718D02*
D03*
X1058418D02*
D03*
X1071118D02*
D03*
X1083818D02*
D03*
X855218Y874776D02*
D03*
X867918D02*
D03*
X880618D02*
D03*
X893318D02*
D03*
X906018D02*
D03*
X918718D02*
D03*
X931418D02*
D03*
X944118D02*
D03*
X956818D02*
D03*
X969518D02*
D03*
X982218D02*
D03*
X994918D02*
D03*
X1007618D02*
D03*
X1020318D02*
D03*
X1033018D02*
D03*
X1045718D02*
D03*
X1058418D02*
D03*
X1071118D02*
D03*
X1083818D02*
D03*
X855218Y862076D02*
D03*
X867918D02*
D03*
X880618D02*
D03*
X893318D02*
D03*
X906018D02*
D03*
X918718D02*
D03*
X931418D02*
D03*
X944118D02*
D03*
X956818D02*
D03*
X969518D02*
D03*
X982218D02*
D03*
X994918D02*
D03*
X1007618D02*
D03*
X1020318D02*
D03*
X1033018D02*
D03*
X1045718D02*
D03*
X1058418D02*
D03*
X1071118D02*
D03*
X1083818D02*
D03*
X855218Y849376D02*
D03*
X867918D02*
D03*
X880618D02*
D03*
X893318D02*
D03*
X906018D02*
D03*
X918718D02*
D03*
X931418D02*
D03*
X944118D02*
D03*
X956818D02*
D03*
X969518D02*
D03*
X982218D02*
D03*
X994918D02*
D03*
X1007618D02*
D03*
X1020318D02*
D03*
X1033018D02*
D03*
X1045718D02*
D03*
X1058418D02*
D03*
X1071118D02*
D03*
X1083818D02*
D03*
X702818Y836676D02*
D03*
X715518D02*
D03*
X842518D02*
D03*
X855218D02*
D03*
X867918D02*
D03*
X880618D02*
D03*
X893318D02*
D03*
X906018D02*
D03*
X918718D02*
D03*
X931418D02*
D03*
X944118D02*
D03*
X956818D02*
D03*
X969518D02*
D03*
X982218D02*
D03*
X994918D02*
D03*
X1007618D02*
D03*
X1020318D02*
D03*
X1033018D02*
D03*
X1045718D02*
D03*
X1058418D02*
D03*
X1071118D02*
D03*
X1083818D02*
D03*
X702818Y823976D02*
D03*
X715518D02*
D03*
X728218D02*
D03*
X740918D02*
D03*
X753618D02*
D03*
X766318D02*
D03*
X779018D02*
D03*
X804418D02*
D03*
X817118D02*
D03*
X829818D02*
D03*
X842518D02*
D03*
X855218D02*
D03*
X867918D02*
D03*
X880618D02*
D03*
X893318D02*
D03*
X906018D02*
D03*
X918718D02*
D03*
X931418D02*
D03*
X944118D02*
D03*
X956818D02*
D03*
X969518D02*
D03*
X982218D02*
D03*
X994918D02*
D03*
X1007618D02*
D03*
X1020318D02*
D03*
X1033018D02*
D03*
X1045718D02*
D03*
X1058418D02*
D03*
X1071118D02*
D03*
X1083818D02*
D03*
X702818Y811276D02*
D03*
X715518D02*
D03*
X728218D02*
D03*
X740918D02*
D03*
X753618D02*
D03*
X766318D02*
D03*
X779018D02*
D03*
X804418D02*
D03*
X817118D02*
D03*
X829818D02*
D03*
X842518D02*
D03*
X855218D02*
D03*
X867918D02*
D03*
X880618D02*
D03*
X893318D02*
D03*
X906018D02*
D03*
X918718D02*
D03*
X931418D02*
D03*
X944118D02*
D03*
X956818D02*
D03*
X969518D02*
D03*
X982218D02*
D03*
X994918D02*
D03*
X1007618D02*
D03*
X1020318D02*
D03*
X1033018D02*
D03*
X1045718D02*
D03*
X1058418D02*
D03*
X1071118D02*
D03*
X1083818D02*
D03*
X702818Y798576D02*
D03*
X715518D02*
D03*
X728218D02*
D03*
X740918D02*
D03*
X753618D02*
D03*
X766318D02*
D03*
X779018D02*
D03*
X791718D02*
D03*
X804418D02*
D03*
X817118D02*
D03*
X829818D02*
D03*
X842518D02*
D03*
X855218D02*
D03*
X867918D02*
D03*
X880618D02*
D03*
X893318D02*
D03*
X906018D02*
D03*
X918718D02*
D03*
X931418D02*
D03*
X944118D02*
D03*
X956818D02*
D03*
X969518D02*
D03*
X982218D02*
D03*
X1007618D02*
D03*
X1020318D02*
D03*
X1033018D02*
D03*
X1045718D02*
D03*
X1058418D02*
D03*
X1071118D02*
D03*
X1083818D02*
D03*
X702818Y785876D02*
D03*
X715518D02*
D03*
X728218D02*
D03*
X740918D02*
D03*
X753618D02*
D03*
X766318D02*
D03*
X779018D02*
D03*
X791718D02*
D03*
X804418D02*
D03*
X817118D02*
D03*
X829818D02*
D03*
X842518D02*
D03*
X855218D02*
D03*
X867918D02*
D03*
X880618D02*
D03*
X893318D02*
D03*
X906018D02*
D03*
X918718D02*
D03*
X931418D02*
D03*
X944118D02*
D03*
X956818D02*
D03*
X969518D02*
D03*
X982218D02*
D03*
X1007618D02*
D03*
X1020318D02*
D03*
X1033018D02*
D03*
X1045718D02*
D03*
X1058418D02*
D03*
X1071118D02*
D03*
X1083818D02*
D03*
X702818Y773176D02*
D03*
X715518D02*
D03*
X728218D02*
D03*
X740918D02*
D03*
X753618D02*
D03*
X766318D02*
D03*
X779018D02*
D03*
X791718D02*
D03*
X804418D02*
D03*
X817118D02*
D03*
X829818D02*
D03*
X842518D02*
D03*
X855218D02*
D03*
X867918D02*
D03*
X880618D02*
D03*
X893318D02*
D03*
X906018D02*
D03*
X918718D02*
D03*
X931418D02*
D03*
X944118D02*
D03*
X956818D02*
D03*
X969518D02*
D03*
X982218D02*
D03*
X994918D02*
D03*
X1007618D02*
D03*
X1020318D02*
D03*
X1033018D02*
D03*
X1045718D02*
D03*
X1058418D02*
D03*
X1071118D02*
D03*
X1083818D02*
D03*
X702818Y760476D02*
D03*
X715518D02*
D03*
X728218D02*
D03*
X740918D02*
D03*
X753618D02*
D03*
X766318D02*
D03*
X779018D02*
D03*
X791718D02*
D03*
X804418D02*
D03*
X817118D02*
D03*
X829818D02*
D03*
X842518D02*
D03*
X855218D02*
D03*
X867918D02*
D03*
X880618D02*
D03*
X893318D02*
D03*
X906018D02*
D03*
X918718D02*
D03*
X931418D02*
D03*
X944118D02*
D03*
X956818D02*
D03*
X969518D02*
D03*
X982218D02*
D03*
X994918D02*
D03*
X1007618D02*
D03*
X1020318D02*
D03*
X1033018D02*
D03*
X1045718D02*
D03*
X1058418D02*
D03*
X1071118D02*
D03*
X1083818D02*
D03*
X702818Y747776D02*
D03*
X715518D02*
D03*
X728218D02*
D03*
X740918D02*
D03*
X753618D02*
D03*
X766318D02*
D03*
X779018D02*
D03*
X791718D02*
D03*
X804418D02*
D03*
X817118D02*
D03*
X829818D02*
D03*
X842518D02*
D03*
X855218D02*
D03*
X867918D02*
D03*
X880618D02*
D03*
X893318D02*
D03*
X906018D02*
D03*
X918718D02*
D03*
X931418D02*
D03*
X944118D02*
D03*
X956818D02*
D03*
X969518D02*
D03*
X982218D02*
D03*
X994918D02*
D03*
X1007618D02*
D03*
X1020318D02*
D03*
X1033018D02*
D03*
X1045718D02*
D03*
X1058418D02*
D03*
X1071118D02*
D03*
X1083818D02*
D03*
X702818Y735076D02*
D03*
X715518D02*
D03*
X728218D02*
D03*
X740918D02*
D03*
X753618D02*
D03*
X766318D02*
D03*
X779018D02*
D03*
X791718D02*
D03*
X804418D02*
D03*
X817118D02*
D03*
X829818D02*
D03*
X842518D02*
D03*
X855218D02*
D03*
X867918D02*
D03*
X880618D02*
D03*
X893318D02*
D03*
X906018D02*
D03*
X918718D02*
D03*
X931418D02*
D03*
X944118D02*
D03*
X956818D02*
D03*
X969518D02*
D03*
X982218D02*
D03*
X994918D02*
D03*
X1007618D02*
D03*
X1020318D02*
D03*
X1033018D02*
D03*
X1045718D02*
D03*
X1058418D02*
D03*
X1071118D02*
D03*
X1083818D02*
D03*
X702818Y722376D02*
D03*
X715518D02*
D03*
X728218D02*
D03*
X740918D02*
D03*
X753618D02*
D03*
X766318D02*
D03*
X779018D02*
D03*
X791718D02*
D03*
X804418D02*
D03*
X817118D02*
D03*
X829818D02*
D03*
X842518D02*
D03*
X855218D02*
D03*
X867918D02*
D03*
X880618D02*
D03*
X893318D02*
D03*
X906018D02*
D03*
X918718D02*
D03*
X931418D02*
D03*
X944118D02*
D03*
X956818D02*
D03*
X969518D02*
D03*
X982218D02*
D03*
X994918D02*
D03*
X1007618D02*
D03*
X1020318D02*
D03*
X1033018D02*
D03*
X1045718D02*
D03*
X1058418D02*
D03*
X1071118D02*
D03*
X1083818D02*
D03*
X702818Y709676D02*
D03*
X715518D02*
D03*
X728218D02*
D03*
X740918D02*
D03*
X753618D02*
D03*
X766318D02*
D03*
X779018D02*
D03*
X791718D02*
D03*
X804418D02*
D03*
X817118D02*
D03*
X829818D02*
D03*
X842518D02*
D03*
X855218D02*
D03*
X867918D02*
D03*
X880618D02*
D03*
X893318D02*
D03*
X906018D02*
D03*
X918718D02*
D03*
X931418D02*
D03*
X944118D02*
D03*
X956818D02*
D03*
X969518D02*
D03*
X982218D02*
D03*
X994918D02*
D03*
X1007618D02*
D03*
X1020318D02*
D03*
X1033018D02*
D03*
X1045718D02*
D03*
X1058418D02*
D03*
X1071118D02*
D03*
X1083818D02*
D03*
X702818Y696976D02*
D03*
X715518D02*
D03*
X728218D02*
D03*
X740918D02*
D03*
X753618D02*
D03*
X766318D02*
D03*
X779018D02*
D03*
X791718D02*
D03*
X804418D02*
D03*
X817118D02*
D03*
X829818D02*
D03*
X842518D02*
D03*
X855218D02*
D03*
X867918D02*
D03*
X880618D02*
D03*
X893318D02*
D03*
X906018D02*
D03*
X918718D02*
D03*
X931418D02*
D03*
X944118D02*
D03*
X956818D02*
D03*
X969518D02*
D03*
X982218D02*
D03*
X994918D02*
D03*
X1007618D02*
D03*
X1020318D02*
D03*
X1033018D02*
D03*
X1045718D02*
D03*
X1058418D02*
D03*
X1071118D02*
D03*
X1083818D02*
D03*
X702818Y684276D02*
D03*
X715518D02*
D03*
X728218D02*
D03*
X740918D02*
D03*
X753618D02*
D03*
X766318D02*
D03*
X779018D02*
D03*
X791718D02*
D03*
X804418D02*
D03*
X817118D02*
D03*
X829818D02*
D03*
X842518D02*
D03*
X855218D02*
D03*
X867918D02*
D03*
X880618D02*
D03*
X893318D02*
D03*
X906018D02*
D03*
X918718D02*
D03*
X931418D02*
D03*
X944118D02*
D03*
X956818D02*
D03*
X969518D02*
D03*
X982218D02*
D03*
X994918D02*
D03*
X1007618D02*
D03*
X1020318D02*
D03*
X1033018D02*
D03*
X1045718D02*
D03*
X1058418D02*
D03*
X1071118D02*
D03*
X1083818D02*
D03*
X702818Y671576D02*
D03*
X715518D02*
D03*
X728218D02*
D03*
X740918D02*
D03*
X753618D02*
D03*
X766318D02*
D03*
X779018D02*
D03*
X791718D02*
D03*
X804418D02*
D03*
X817118D02*
D03*
X829818D02*
D03*
X842518D02*
D03*
X855218D02*
D03*
X867918D02*
D03*
X880618D02*
D03*
X893318D02*
D03*
X906018D02*
D03*
X918718D02*
D03*
X931418D02*
D03*
X944118D02*
D03*
X956818D02*
D03*
X969518D02*
D03*
X982218D02*
D03*
X994918D02*
D03*
X1007618D02*
D03*
X1020318D02*
D03*
X1033018D02*
D03*
X1045718D02*
D03*
X1058418D02*
D03*
X1071118D02*
D03*
X1083818D02*
D03*
X702818Y658876D02*
D03*
X715518D02*
D03*
X728218D02*
D03*
X740918D02*
D03*
X753618D02*
D03*
X766318D02*
D03*
X779018D02*
D03*
X791718D02*
D03*
X804418D02*
D03*
X817118D02*
D03*
X829818D02*
D03*
X842518D02*
D03*
X855218D02*
D03*
X867918D02*
D03*
X880618D02*
D03*
X893318D02*
D03*
X906018D02*
D03*
X918718D02*
D03*
X931418D02*
D03*
X944118D02*
D03*
X956818D02*
D03*
X969518D02*
D03*
X994918D02*
D03*
X1007618D02*
D03*
X1020318D02*
D03*
X1033018D02*
D03*
X1045718D02*
D03*
X1058418D02*
D03*
X1071118D02*
D03*
X1083818D02*
D03*
X702818Y646176D02*
D03*
X715518D02*
D03*
X728218D02*
D03*
X740918D02*
D03*
X753618D02*
D03*
X766318D02*
D03*
X779018D02*
D03*
X791718D02*
D03*
X804418D02*
D03*
X817118D02*
D03*
X829818D02*
D03*
X842518D02*
D03*
X855218D02*
D03*
X867918D02*
D03*
X880618D02*
D03*
X893318D02*
D03*
X906018D02*
D03*
X918718D02*
D03*
X931418D02*
D03*
X944118D02*
D03*
X956818D02*
D03*
X969518D02*
D03*
X994918D02*
D03*
X1007618D02*
D03*
X1020318D02*
D03*
X1033018D02*
D03*
X1045718D02*
D03*
X1058418D02*
D03*
X1071118D02*
D03*
X1083818D02*
D03*
X702818Y633476D02*
D03*
X715518D02*
D03*
X728218D02*
D03*
X740918D02*
D03*
X753618D02*
D03*
X766318D02*
D03*
X779018D02*
D03*
X791718D02*
D03*
X804418D02*
D03*
X817118D02*
D03*
X829818D02*
D03*
X842518D02*
D03*
X855218D02*
D03*
X867918D02*
D03*
X880618D02*
D03*
X893318D02*
D03*
X906018D02*
D03*
X918718D02*
D03*
X931418D02*
D03*
X944118D02*
D03*
X956818D02*
D03*
X969518D02*
D03*
X982218D02*
D03*
X994918D02*
D03*
X1007618D02*
D03*
X1020318D02*
D03*
X1033018D02*
D03*
X1045718D02*
D03*
X1058418D02*
D03*
X1071118D02*
D03*
X1083818D02*
D03*
X702818Y620776D02*
D03*
X715518D02*
D03*
X728218D02*
D03*
X740918D02*
D03*
X753618D02*
D03*
X766318D02*
D03*
X779018D02*
D03*
X791718D02*
D03*
X804418D02*
D03*
X817118D02*
D03*
X829818D02*
D03*
X842518D02*
D03*
X855218D02*
D03*
X867918D02*
D03*
X880618D02*
D03*
X893318D02*
D03*
X906018D02*
D03*
X918718D02*
D03*
X931418D02*
D03*
X944118D02*
D03*
X956818D02*
D03*
X969518D02*
D03*
X982218D02*
D03*
X994918D02*
D03*
X1007618D02*
D03*
X1020318D02*
D03*
X1033018D02*
D03*
X1045718D02*
D03*
X1058418D02*
D03*
X1071118D02*
D03*
X1083818D02*
D03*
X702818Y608076D02*
D03*
X715518D02*
D03*
X728218D02*
D03*
X740918D02*
D03*
X753618D02*
D03*
X779018D02*
D03*
X791718D02*
D03*
X804418D02*
D03*
X817118D02*
D03*
X829818D02*
D03*
X842518D02*
D03*
X855218D02*
D03*
X867918D02*
D03*
X880618D02*
D03*
X893318D02*
D03*
X906018D02*
D03*
X918718D02*
D03*
X931418D02*
D03*
X944118D02*
D03*
X956818D02*
D03*
X969518D02*
D03*
X982218D02*
D03*
X994918D02*
D03*
X1007618D02*
D03*
X1020318D02*
D03*
X1033018D02*
D03*
X1045718D02*
D03*
X1058418D02*
D03*
X1071118D02*
D03*
X1083818D02*
D03*
X702818Y595376D02*
D03*
X715518D02*
D03*
X728218D02*
D03*
X740918D02*
D03*
X753618D02*
D03*
X779018D02*
D03*
X791718D02*
D03*
X804418D02*
D03*
X817118D02*
D03*
X829818D02*
D03*
X842518D02*
D03*
X855218D02*
D03*
X867918D02*
D03*
X880618D02*
D03*
X893318D02*
D03*
X906018D02*
D03*
X918718D02*
D03*
X931418D02*
D03*
X944118D02*
D03*
X956818D02*
D03*
X969518D02*
D03*
X982218D02*
D03*
X994918D02*
D03*
X1007618D02*
D03*
X1020318D02*
D03*
X1033018D02*
D03*
X1045718D02*
D03*
X1058418D02*
D03*
X1071118D02*
D03*
X1083818D02*
D03*
X728218Y569976D02*
D03*
X740918D02*
D03*
X753618D02*
D03*
X766318D02*
D03*
X779018D02*
D03*
X791718D02*
D03*
X804418D02*
D03*
X817118D02*
D03*
X829818D02*
D03*
X842518D02*
D03*
X855218D02*
D03*
X867918D02*
D03*
X880618D02*
D03*
X893318D02*
D03*
X906018D02*
D03*
X918718D02*
D03*
X931418D02*
D03*
X944118D02*
D03*
X956818D02*
D03*
X969518D02*
D03*
X982218D02*
D03*
X994918D02*
D03*
X1007618D02*
D03*
X1020318D02*
D03*
X1033018D02*
D03*
X1045718D02*
D03*
X1058418D02*
D03*
X728218Y836676D02*
D03*
X740918D02*
D03*
X753618D02*
D03*
X766318D02*
D03*
X779018D02*
D03*
X791718D02*
D03*
X804418D02*
D03*
X817118D02*
D03*
X829818D02*
D03*
X817118Y849376D02*
D03*
X804418D02*
D03*
X791718D02*
D03*
X779018D02*
D03*
X766318D02*
D03*
X753618D02*
D03*
X740918D02*
D03*
X728218D02*
D03*
X829818Y874776D02*
D03*
X817118D02*
D03*
X804418D02*
D03*
X766318D02*
D03*
X753618D02*
D03*
X740918D02*
D03*
X728218D02*
D03*
X829818Y887476D02*
D03*
X817118D02*
D03*
X804418D02*
D03*
X791718D02*
D03*
X779018D02*
D03*
X766318D02*
D03*
X753618D02*
D03*
X740918D02*
D03*
X728218D02*
D03*
X715518D02*
D03*
X702818D02*
D03*
X829818Y900176D02*
D03*
X817118D02*
D03*
X804418D02*
D03*
X791718D02*
D03*
X779018D02*
D03*
X766318D02*
D03*
X753618D02*
D03*
X740918D02*
D03*
X728218D02*
D03*
X715518D02*
D03*
X702818D02*
D03*
X829818Y912876D02*
D03*
X817118D02*
D03*
X804418D02*
D03*
X791718D02*
D03*
X779018D02*
D03*
X766318D02*
D03*
X753618D02*
D03*
X740918D02*
D03*
X728218D02*
D03*
X715518D02*
D03*
X702818D02*
D03*
X829818Y925576D02*
D03*
X817118D02*
D03*
X804418D02*
D03*
X791718D02*
D03*
X779018D02*
D03*
X766318D02*
D03*
X753618D02*
D03*
X740918D02*
D03*
X728218D02*
D03*
X715518D02*
D03*
X702818D02*
D03*
X842518Y874776D02*
D03*
Y887476D02*
D03*
Y900176D02*
D03*
Y912876D02*
D03*
Y925576D02*
D03*
Y862076D02*
D03*
X702818D02*
D03*
X740918D02*
D03*
X753618D02*
D03*
X766318D02*
D03*
X779018D02*
D03*
X791718D02*
D03*
X804418D02*
D03*
X817118D02*
D03*
X829818D02*
D03*
D32*
X615442Y931418D02*
D03*
X594229Y952631D02*
D03*
D33*
X585696Y794004D02*
D03*
X615696D02*
D03*
D34*
X556514Y641858D02*
D03*
Y667258D02*
D03*
Y591058D02*
D03*
Y616458D02*
D03*
Y743458D02*
D03*
Y768858D02*
D03*
Y565658D02*
D03*
X531114D02*
D03*
Y591058D02*
D03*
Y616458D02*
D03*
Y641858D02*
D03*
Y667258D02*
D03*
X556514Y692658D02*
D03*
X531114D02*
D03*
X556514Y718058D02*
D03*
X531114D02*
D03*
Y743458D02*
D03*
Y768858D02*
D03*
X556514Y794258D02*
D03*
X531114D02*
D03*
X556514Y819658D02*
D03*
X531114D02*
D03*
X556514Y845058D02*
D03*
X531114D02*
D03*
X556514Y870458D02*
D03*
X531114D02*
D03*
X556514Y895858D02*
D03*
X531114D02*
D03*
X556514Y921258D02*
D03*
X531114D02*
D03*
X556514Y946658D02*
D03*
X531114D02*
D03*
X556514Y972058D02*
D03*
X531114D02*
D03*
X556514Y997458D02*
D03*
X531114D02*
D03*
X556514Y1022858D02*
D03*
X531114D02*
D03*
X556514Y1048258D02*
D03*
X595122Y565658D02*
D03*
X596138Y625348D02*
D03*
D35*
X531114Y1048258D02*
D03*
D36*
X620522Y565658D02*
D03*
X621538Y625348D02*
D03*
D37*
X486410Y727456D02*
D03*
Y765979D02*
D03*
Y804503D02*
D03*
X460756Y783590D02*
D03*
X595884Y667004D02*
D03*
X596900Y527050D02*
D03*
X460756Y706120D02*
D03*
X486410Y843026D02*
D03*
X460756Y822960D02*
D03*
Y743458D02*
D03*
X461010Y924814D02*
D03*
Y1004316D02*
D03*
X485902Y1024128D02*
D03*
X461010Y964946D02*
D03*
X486664Y985859D02*
D03*
Y947335D02*
D03*
Y908812D02*
D03*
X461264Y857250D02*
D03*
X486918Y877316D02*
D03*
D38*
X399310Y1082320D02*
D03*
Y537840D02*
D03*
D39*
X797814Y893826D02*
D03*
X760222Y893572D02*
D03*
X747522D02*
D03*
X627888Y922528D02*
D03*
X721500Y855500D02*
D03*
X708914Y867918D02*
D03*
X631952Y852170D02*
D03*
X631444Y883158D02*
D03*
X721060Y906526D02*
D03*
X747268Y881380D02*
D03*
X687578Y914654D02*
D03*
X721614Y881380D02*
D03*
X708660Y906272D02*
D03*
X848868Y843026D02*
D03*
X836168D02*
D03*
X785622Y868172D02*
D03*
X798576D02*
D03*
X686694Y937806D02*
D03*
X772160Y881126D02*
D03*
X798830D02*
D03*
X747268Y907034D02*
D03*
X785622Y931418D02*
D03*
X849122Y893572D02*
D03*
X848868Y919480D02*
D03*
X628500Y904500D02*
D03*
X581500Y939500D02*
D03*
X760000Y868500D02*
D03*
X772500Y817500D02*
D03*
X734500Y830500D02*
D03*
X899500Y918500D02*
D03*
Y945000D02*
D03*
X881000Y976000D02*
D03*
X832000Y964000D02*
D03*
X718820Y983996D02*
D03*
X772500Y931500D02*
D03*
X759500Y843000D02*
D03*
X772414Y868426D02*
D03*
X810998Y893498D02*
D03*
X811000Y881000D02*
D03*
X785368Y919988D02*
D03*
X760000Y919500D02*
D03*
Y881000D02*
D03*
X772414Y893572D02*
D03*
X691642Y798322D02*
D03*
X692658Y861822D02*
D03*
X718820Y958850D02*
D03*
X747000Y919000D02*
D03*
X770000Y989000D02*
D03*
X746506Y969518D02*
D03*
X810498Y918998D02*
D03*
X811000Y932000D02*
D03*
X824000Y906500D02*
D03*
X823500Y919000D02*
D03*
Y881000D02*
D03*
X848998Y880998D02*
D03*
X849498Y868498D02*
D03*
X836168Y855472D02*
D03*
X836000Y868500D02*
D03*
X899414Y881380D02*
D03*
X912368Y842772D02*
D03*
X976122Y906272D02*
D03*
X836422Y919480D02*
D03*
X823468Y931926D02*
D03*
X932180Y964184D02*
D03*
X892500Y1002500D02*
D03*
X841500D02*
D03*
X794512Y989838D02*
D03*
X744728Y990346D02*
D03*
X687324Y925830D02*
D03*
X692912Y899922D02*
D03*
X810260Y805180D02*
D03*
X861568Y830072D02*
D03*
X880618Y963676D02*
D03*
X735000Y804500D02*
D03*
X690880Y823722D02*
D03*
X924814Y881126D02*
D03*
X975868Y918972D02*
D03*
X912368Y906526D02*
D03*
X773000Y792000D02*
D03*
X924814Y855980D02*
D03*
X975868Y944372D02*
D03*
X734568Y868426D02*
D03*
M02*
