%FSLAX44Y44*%
%MOMM*%
G71*
G01*
G75*
G04 Layer_Color=65535*
%ADD10R,1.8000X1.1500*%
%ADD11C,0.7620*%
G04:AMPARAMS|DCode=12|XSize=1.15mm|YSize=1.8mm|CornerRadius=0mm|HoleSize=0mm|Usage=FLASHONLY|Rotation=135.000|XOffset=0mm|YOffset=0mm|HoleType=Round|Shape=Rectangle|*
%AMROTATEDRECTD12*
4,1,4,1.0430,0.2298,-0.2298,-1.0430,-1.0430,-0.2298,0.2298,1.0430,1.0430,0.2298,0.0*
%
%ADD12ROTATEDRECTD12*%

%ADD13R,1.1500X1.8000*%
%ADD14C,0.1500*%
%ADD15C,1.5000*%
%ADD16R,1.5000X1.5000*%
%ADD17R,1.5000X1.5000*%
%ADD18C,1.5240*%
%ADD19C,3.5000*%
%ADD20C,0.6000*%
%ADD21R,1.7000X1.1000*%
%ADD22R,1.1000X1.7000*%
G04:AMPARAMS|DCode=23|XSize=1.7mm|YSize=1.1mm|CornerRadius=0mm|HoleSize=0mm|Usage=FLASHONLY|Rotation=45.000|XOffset=0mm|YOffset=0mm|HoleType=Round|Shape=Rectangle|*
%AMROTATEDRECTD23*
4,1,4,-0.2121,-0.9900,-0.9900,-0.2121,0.2121,0.9900,0.9900,0.2121,-0.2121,-0.9900,0.0*
%
%ADD23ROTATEDRECTD23*%

%ADD24C,0.6000*%
%ADD25C,0.1000*%
%ADD26C,0.2540*%
%ADD27C,0.2000*%
%ADD28C,0.0178*%
%ADD29C,0.2032*%
D14*
X577196Y731704D02*
X599196D01*
X624196D02*
Y741704D01*
X577196Y731704D02*
Y744704D01*
X599196Y731704D02*
X624196D01*
X577196Y744704D02*
Y754704D01*
X624196D01*
Y741704D02*
Y754704D01*
X627224Y844912D02*
Y866912D01*
X617224Y891912D02*
X627224D01*
X614224Y844912D02*
X627224D01*
Y866912D02*
Y891912D01*
X604224Y844912D02*
X614224D01*
X604224D02*
Y891912D01*
X617224D01*
X580087Y950510D02*
X595643Y934954D01*
X613321Y917276D02*
X620392Y924347D01*
X580087Y950510D02*
X589279Y959702D01*
X595643Y934954D02*
X613321Y917276D01*
X589279Y959702D02*
X596350Y966773D01*
X629584Y933539D01*
X620392Y924347D02*
X629584Y933539D01*
X602224Y830904D02*
X624224D01*
X577224Y820904D02*
Y830904D01*
X624224Y817904D02*
Y830904D01*
X577224D02*
X602224D01*
X624224Y807904D02*
Y817904D01*
X577224Y807904D02*
X624224D01*
X577224D02*
Y820904D01*
X577196Y782504D02*
X599196D01*
X624196D02*
Y792504D01*
X577196Y782504D02*
Y795504D01*
X599196Y782504D02*
X624196D01*
X577196Y795504D02*
Y805504D01*
X624196D01*
Y792504D02*
Y805504D01*
D24*
X603436Y819840D02*
G03*
X603441Y819567I-2472J-182D01*
G01*
X603182Y793932D02*
G03*
X603187Y793659I-2472J-182D01*
G01*
D25*
X595696Y743204D02*
X605696D01*
X600696Y738204D02*
Y748204D01*
X615724Y863412D02*
Y873412D01*
X610724Y868412D02*
X620724D01*
X601300Y945560D02*
X608371Y938489D01*
X601300D02*
X608371Y945560D01*
X595724Y819404D02*
X605724D01*
X600724Y814404D02*
Y824404D01*
X595696Y794004D02*
X605696D01*
X600696Y789004D02*
Y799004D01*
X590548Y539750D02*
X585216D01*
X590548Y545082D01*
Y546414D01*
X589215Y547747D01*
X586549D01*
X585216Y546414D01*
X593213Y539750D02*
Y541083D01*
X594546D01*
Y539750D01*
X593213D01*
X599878Y546414D02*
X601211Y547747D01*
X603877D01*
X605210Y546414D01*
Y541083D01*
X603877Y539750D01*
X601211D01*
X599878Y541083D01*
Y546414D01*
X607875Y547747D02*
Y542416D01*
X610541Y539750D01*
X613207Y542416D01*
Y547747D01*
X582422Y651571D02*
X583755Y652903D01*
X586421D01*
X587754Y651571D01*
Y650238D01*
X586421Y648905D01*
X585088D01*
X586421D01*
X587754Y647572D01*
Y646239D01*
X586421Y644906D01*
X583755D01*
X582422Y646239D01*
X590419Y644906D02*
Y646239D01*
X591752D01*
Y644906D01*
X590419D01*
X597084Y651571D02*
X598417Y652903D01*
X601083D01*
X602416Y651571D01*
Y650238D01*
X601083Y648905D01*
X599750D01*
X601083D01*
X602416Y647572D01*
Y646239D01*
X601083Y644906D01*
X598417D01*
X597084Y646239D01*
X605081Y652903D02*
Y647572D01*
X607747Y644906D01*
X610413Y647572D01*
Y652903D01*
X628904Y815594D02*
Y823591D01*
X632903D01*
X634236Y822259D01*
Y819593D01*
X632903Y818260D01*
X628904D01*
X631570D02*
X634236Y815594D01*
X636901Y822259D02*
X638234Y823591D01*
X640900D01*
X642233Y822259D01*
Y820926D01*
X640900Y819593D01*
X639567D01*
X640900D01*
X642233Y818260D01*
Y816927D01*
X640900Y815594D01*
X638234D01*
X636901Y816927D01*
X651000Y1094800D02*
X649667Y1096133D01*
X647001D01*
X645668Y1094800D01*
Y1089469D01*
X647001Y1088136D01*
X649667D01*
X651000Y1089469D01*
X653665Y1088136D02*
Y1096133D01*
X656331Y1093468D01*
X658997Y1096133D01*
Y1088136D01*
X661663Y1096133D02*
Y1090802D01*
X664329Y1088136D01*
X666994Y1090802D01*
Y1096133D01*
X673659Y1088136D02*
Y1096133D01*
X669660Y1092135D01*
X674992D01*
X677658Y1094800D02*
X678991Y1096133D01*
X681656D01*
X682989Y1094800D01*
Y1089469D01*
X681656Y1088136D01*
X678991D01*
X677658Y1089469D01*
Y1094800D01*
X685655D02*
X686988Y1096133D01*
X689654D01*
X690987Y1094800D01*
Y1089469D01*
X689654Y1088136D01*
X686988D01*
X685655Y1089469D01*
Y1094800D01*
X693652D02*
X694985Y1096133D01*
X697651D01*
X698984Y1094800D01*
Y1089469D01*
X697651Y1088136D01*
X694985D01*
X693652Y1089469D01*
Y1094800D01*
X629920Y791210D02*
Y799207D01*
X633919D01*
X635252Y797875D01*
Y795209D01*
X633919Y793876D01*
X629920D01*
X632586D02*
X635252Y791210D01*
X637917D02*
X640583D01*
X639250D01*
Y799207D01*
X637917Y797875D01*
X610108Y960120D02*
Y968117D01*
X614107D01*
X615440Y966785D01*
Y964119D01*
X614107Y962786D01*
X610108D01*
X612774D02*
X615440Y960120D01*
X623437Y968117D02*
X620771Y966785D01*
X618105Y964119D01*
Y961453D01*
X619438Y960120D01*
X622104D01*
X623437Y961453D01*
Y962786D01*
X622104Y964119D01*
X618105D01*
X931164Y525412D02*
Y518414D01*
X934663D01*
X935829Y519580D01*
Y524245D01*
X934663Y525412D01*
X931164D01*
X941661Y518414D02*
X939328D01*
X938162Y519580D01*
Y521913D01*
X939328Y523079D01*
X941661D01*
X942827Y521913D01*
Y520747D01*
X938162D01*
X945160Y518414D02*
Y523079D01*
X948658D01*
X949825Y521913D01*
Y518414D01*
X952157D02*
X954490D01*
X953324D01*
Y523079D01*
X952157D01*
X957989Y518414D02*
X961488D01*
X962654Y519580D01*
X961488Y520747D01*
X959155D01*
X957989Y521913D01*
X959155Y523079D01*
X962654D01*
X971984Y518414D02*
Y525412D01*
X975483D01*
X976649Y524245D01*
Y521913D01*
X975483Y520747D01*
X971984D01*
X982481Y518414D02*
X980148D01*
X978982Y519580D01*
Y521913D01*
X980148Y523079D01*
X982481D01*
X983647Y521913D01*
Y520747D01*
X978982D01*
X985980Y518414D02*
Y523079D01*
X989479D01*
X990645Y521913D01*
Y518414D01*
X994144Y523079D02*
X996476D01*
X997643Y521913D01*
Y518414D01*
X994144D01*
X992978Y519580D01*
X994144Y520747D01*
X997643D01*
X999975Y523079D02*
Y518414D01*
Y520747D01*
X1001142Y521913D01*
X1002308Y523079D01*
X1003474D01*
X1011638Y525412D02*
Y518414D01*
X1008139D01*
X1006973Y519580D01*
Y521913D01*
X1008139Y523079D01*
X1011638D01*
X1020968Y521913D02*
X1025634D01*
X1039629Y525412D02*
X1037297D01*
X1038463D01*
Y519580D01*
X1037297Y518414D01*
X1036130D01*
X1034964Y519580D01*
X1045461Y518414D02*
X1043128D01*
X1041962Y519580D01*
Y521913D01*
X1043128Y523079D01*
X1045461D01*
X1046627Y521913D01*
Y520747D01*
X1041962D01*
X1048960Y523079D02*
Y518414D01*
Y520747D01*
X1050126Y521913D01*
X1051292Y523079D01*
X1052458D01*
X1057123Y518414D02*
X1059456D01*
X1060622Y519580D01*
Y521913D01*
X1059456Y523079D01*
X1057123D01*
X1055957Y521913D01*
Y519580D01*
X1057123Y518414D01*
X1062955D02*
Y523079D01*
X1064121D01*
X1065288Y521913D01*
Y518414D01*
Y521913D01*
X1066454Y523079D01*
X1067620Y521913D01*
Y518414D01*
X1073452D02*
X1071119D01*
X1069953Y519580D01*
Y521913D01*
X1071119Y523079D01*
X1073452D01*
X1074618Y521913D01*
Y520747D01*
X1069953D01*
X1088613Y524245D02*
X1087447Y525412D01*
X1085115D01*
X1083948Y524245D01*
Y523079D01*
X1085115Y521913D01*
X1087447D01*
X1088613Y520747D01*
Y519580D01*
X1087447Y518414D01*
X1085115D01*
X1083948Y519580D01*
X1090946Y518414D02*
Y525412D01*
Y520747D02*
X1094445Y523079D01*
X1090946Y520747D02*
X1094445Y518414D01*
X1099110D02*
X1101443D01*
X1102609Y519580D01*
Y521913D01*
X1101443Y523079D01*
X1099110D01*
X1097944Y521913D01*
Y519580D01*
X1099110Y518414D01*
X1109607Y525412D02*
Y518414D01*
X1106108D01*
X1104941Y519580D01*
Y521913D01*
X1106108Y523079D01*
X1109607D01*
X1113105D02*
X1115438D01*
X1116604Y521913D01*
Y518414D01*
X1113105D01*
X1111939Y519580D01*
X1113105Y520747D01*
X1116604D01*
X1130600Y524245D02*
X1129434Y525412D01*
X1127101D01*
X1125935Y524245D01*
Y519580D01*
X1127101Y518414D01*
X1129434D01*
X1130600Y519580D01*
Y521913D01*
X1128267D01*
X1137598Y525412D02*
X1132933D01*
Y518414D01*
X1137598D01*
X1132933Y521913D02*
X1135265D01*
X1139930Y525412D02*
X1142263D01*
X1141096D01*
Y518414D01*
X1139930D01*
X1142263D01*
X1145762Y525412D02*
X1148094D01*
X1146928D01*
Y518414D01*
X1145762D01*
X1148094D01*
X1151593D02*
X1153926D01*
X1152759D01*
Y525412D01*
X1151593Y524245D01*
D26*
X645818Y532676D02*
Y1080676D01*
Y532676D02*
X1140818D01*
X1141818D02*
Y1080676D01*
X645818D02*
X1140818D01*
D27*
X518414Y552958D02*
Y1060958D01*
X569214Y552958D02*
Y1060958D01*
X518414D02*
X569214D01*
X518414Y552958D02*
X569214D01*
X582422D02*
Y578358D01*
X633222D01*
Y552958D02*
Y578358D01*
X582422Y552958D02*
X633222D01*
X583438Y612648D02*
Y638048D01*
X634238D01*
Y612648D02*
Y638048D01*
X583438Y612648D02*
X634238D01*
X389030Y1006718D02*
X387531Y1008217D01*
X384532D01*
X383032Y1006718D01*
Y1005218D01*
X384532Y1003719D01*
X387531D01*
X389030Y1002219D01*
Y1000720D01*
X387531Y999220D01*
X384532D01*
X383032Y1000720D01*
X392029Y999220D02*
Y1008217D01*
X396528D01*
X398027Y1006718D01*
Y1003719D01*
X396528Y1002219D01*
X392029D01*
X401026Y1008217D02*
X404025D01*
X402526D01*
Y999220D01*
X401026D01*
X404025D01*
X408524Y997721D02*
X414522D01*
X423519Y1006718D02*
X422019Y1008217D01*
X419020D01*
X417521Y1006718D01*
Y1000720D01*
X419020Y999220D01*
X422019D01*
X423519Y1000720D01*
X426518Y1008217D02*
Y999220D01*
X432516D01*
X435515Y1008217D02*
Y999220D01*
Y1002219D01*
X441513Y1008217D01*
X437015Y1003719D01*
X441513Y999220D01*
X389030Y967062D02*
X387531Y968561D01*
X384532D01*
X383032Y967062D01*
Y965562D01*
X384532Y964063D01*
X387531D01*
X389030Y962563D01*
Y961064D01*
X387531Y959564D01*
X384532D01*
X383032Y961064D01*
X392029Y959564D02*
Y968561D01*
X396528D01*
X398027Y967062D01*
Y964063D01*
X396528Y962563D01*
X392029D01*
X401026Y968561D02*
X404025D01*
X402526D01*
Y959564D01*
X401026D01*
X404025D01*
X408524Y958065D02*
X414522D01*
X417521Y968561D02*
X420520D01*
X419020D01*
Y959564D01*
X417521D01*
X420520D01*
X425018D02*
Y968561D01*
X431017Y959564D01*
Y968561D01*
X389030Y1026546D02*
X387531Y1028045D01*
X384532D01*
X383032Y1026546D01*
Y1025046D01*
X384532Y1023547D01*
X387531D01*
X389030Y1022047D01*
Y1020547D01*
X387531Y1019048D01*
X384532D01*
X383032Y1020547D01*
X392029Y1028045D02*
Y1026546D01*
X395028Y1023547D01*
X398027Y1026546D01*
Y1028045D01*
X395028Y1023547D02*
Y1019048D01*
X407024Y1026546D02*
X405525Y1028045D01*
X402526D01*
X401026Y1026546D01*
Y1025046D01*
X402526Y1023547D01*
X405525D01*
X407024Y1022047D01*
Y1020547D01*
X405525Y1019048D01*
X402526D01*
X401026Y1020547D01*
X410023Y1017549D02*
X416021D01*
X419020Y1019048D02*
Y1028045D01*
X423519D01*
X425018Y1026546D01*
Y1023547D01*
X423519Y1022047D01*
X419020D01*
X422019D02*
X425018Y1019048D01*
X434016Y1028045D02*
X428017D01*
Y1019048D01*
X434016D01*
X428017Y1023547D02*
X431017D01*
X443013Y1026546D02*
X441513Y1028045D01*
X438514D01*
X437015Y1026546D01*
Y1025046D01*
X438514Y1023547D01*
X441513D01*
X443013Y1022047D01*
Y1020547D01*
X441513Y1019048D01*
X438514D01*
X437015Y1020547D01*
X446012Y1017549D02*
X452010D01*
X455009Y1019048D02*
Y1028045D01*
X461007Y1019048D01*
Y1028045D01*
X389030Y986890D02*
X387531Y988389D01*
X384532D01*
X383032Y986890D01*
Y985390D01*
X384532Y983891D01*
X387531D01*
X389030Y982391D01*
Y980892D01*
X387531Y979392D01*
X384532D01*
X383032Y980892D01*
X392029Y979392D02*
Y988389D01*
X396528D01*
X398027Y986890D01*
Y983891D01*
X396528Y982391D01*
X392029D01*
X401026Y988389D02*
X404025D01*
X402526D01*
Y979392D01*
X401026D01*
X404025D01*
X408524Y977893D02*
X414522D01*
X423519Y988389D02*
X417521D01*
Y979392D01*
X423519D01*
X417521Y983891D02*
X420520D01*
X426518Y979392D02*
Y988389D01*
X432516Y979392D01*
Y988389D01*
X389030Y907578D02*
X387531Y909078D01*
X384532D01*
X383032Y907578D01*
Y901580D01*
X384532Y900081D01*
X387531D01*
X389030Y901580D01*
X392029Y909078D02*
Y900081D01*
X398027D01*
X401026Y909078D02*
Y900081D01*
Y903080D01*
X407024Y909078D01*
X402526Y904579D01*
X407024Y900081D01*
X410023Y898581D02*
X416021D01*
X419020Y909078D02*
X422019D01*
X420520D01*
Y900081D01*
X419020D01*
X422019D01*
X426518D02*
Y909078D01*
X432516Y900081D01*
Y909078D01*
X389030Y928906D02*
X383032D01*
Y924407D01*
X386031D01*
X383032D01*
Y919909D01*
X392029D02*
Y928906D01*
X396528D01*
X398027Y927406D01*
Y924407D01*
X396528Y922908D01*
X392029D01*
X395028D02*
X398027Y919909D01*
X401026D02*
Y925907D01*
X404025Y928906D01*
X407024Y925907D01*
Y919909D01*
Y924407D01*
X401026D01*
X410023Y919909D02*
Y928906D01*
X413022Y925907D01*
X416021Y928906D01*
Y919909D01*
X425018Y928906D02*
X419020D01*
Y919909D01*
X425018D01*
X419020Y924407D02*
X422019D01*
X428017Y918409D02*
X434016D01*
X437015Y919909D02*
Y928906D01*
X441513D01*
X443013Y927406D01*
Y924407D01*
X441513Y922908D01*
X437015D01*
X440014D02*
X443013Y919909D01*
X452010Y928906D02*
X446012D01*
Y919909D01*
X452010D01*
X446012Y924407D02*
X449011D01*
X461007Y921408D02*
Y927406D01*
X459507Y928906D01*
X456508D01*
X455009Y927406D01*
Y921408D01*
X456508Y919909D01*
X459507D01*
X458008Y922908D02*
X461007Y919909D01*
X459507D02*
X461007Y921408D01*
X389030Y947234D02*
X387531Y948734D01*
X384532D01*
X383032Y947234D01*
Y945735D01*
X384532Y944235D01*
X387531D01*
X389030Y942736D01*
Y941236D01*
X387531Y939736D01*
X384532D01*
X383032Y941236D01*
X392029Y939736D02*
Y948734D01*
X396528D01*
X398027Y947234D01*
Y944235D01*
X396528Y942736D01*
X392029D01*
X401026Y948734D02*
X404025D01*
X402526D01*
Y939736D01*
X401026D01*
X404025D01*
X408524Y938237D02*
X414522D01*
X422019Y948734D02*
X419020D01*
X417521Y947234D01*
Y941236D01*
X419020Y939736D01*
X422019D01*
X423519Y941236D01*
Y947234D01*
X422019Y948734D01*
X426518D02*
Y941236D01*
X428017Y939736D01*
X431017D01*
X432516Y941236D01*
Y948734D01*
X435515D02*
X441513D01*
X438514D01*
Y939736D01*
X383032Y889250D02*
Y880253D01*
X389030D01*
X392029Y889250D02*
Y883252D01*
X395028Y880253D01*
X398027Y883252D01*
Y889250D01*
X401026D02*
Y880253D01*
X405525D01*
X407024Y881752D01*
Y887750D01*
X405525Y889250D01*
X401026D01*
X416021Y887750D02*
X414522Y889250D01*
X411523D01*
X410023Y887750D01*
Y886251D01*
X411523Y884751D01*
X414522D01*
X416021Y883252D01*
Y881752D01*
X414522Y880253D01*
X411523D01*
X410023Y881752D01*
X419020Y878753D02*
X425018D01*
X434016Y887750D02*
X432516Y889250D01*
X429517D01*
X428017Y887750D01*
Y881752D01*
X429517Y880253D01*
X432516D01*
X434016Y881752D01*
X437015Y889250D02*
Y880253D01*
X443013D01*
X446012Y889250D02*
Y880253D01*
Y883252D01*
X452010Y889250D01*
X447511Y884751D01*
X452010Y880253D01*
X455009Y878753D02*
X461007D01*
X464006Y880253D02*
Y889250D01*
X470004Y880253D01*
Y889250D01*
X383032Y869422D02*
Y860425D01*
X389030D01*
X392029Y869422D02*
Y863424D01*
X395028Y860425D01*
X398027Y863424D01*
Y869422D01*
X401026D02*
Y860425D01*
X405525D01*
X407024Y861925D01*
Y867923D01*
X405525Y869422D01*
X401026D01*
X416021Y867923D02*
X414522Y869422D01*
X411523D01*
X410023Y867923D01*
Y866423D01*
X411523Y864923D01*
X414522D01*
X416021Y863424D01*
Y861925D01*
X414522Y860425D01*
X411523D01*
X410023Y861925D01*
X419020Y858925D02*
X425018D01*
X434016Y867923D02*
X432516Y869422D01*
X429517D01*
X428017Y867923D01*
Y861925D01*
X429517Y860425D01*
X432516D01*
X434016Y861925D01*
X437015Y869422D02*
Y860425D01*
X443013D01*
X446012Y869422D02*
Y860425D01*
Y863424D01*
X452010Y869422D01*
X447511Y864923D01*
X452010Y860425D01*
X455009Y858925D02*
X461007D01*
X464006Y860425D02*
Y869422D01*
X468504D01*
X470004Y867923D01*
Y864923D01*
X468504Y863424D01*
X464006D01*
X387531Y849594D02*
X384532D01*
X383032Y848095D01*
Y842097D01*
X384532Y840597D01*
X387531D01*
X389030Y842097D01*
Y848095D01*
X387531Y849594D01*
X392029D02*
Y842097D01*
X393529Y840597D01*
X396528D01*
X398027Y842097D01*
Y849594D01*
X401026D02*
X407024D01*
X404025D01*
Y840597D01*
X410023D02*
X413022D01*
X411523D01*
Y849594D01*
X410023Y848095D01*
X417521Y839098D02*
X423519D01*
X426518Y840597D02*
Y849594D01*
X432516Y840597D01*
Y849594D01*
X387531Y829766D02*
X384532D01*
X383032Y828267D01*
Y822269D01*
X384532Y820769D01*
X387531D01*
X389030Y822269D01*
Y828267D01*
X387531Y829766D01*
X392029D02*
Y822269D01*
X393529Y820769D01*
X396528D01*
X398027Y822269D01*
Y829766D01*
X401026D02*
X407024D01*
X404025D01*
Y820769D01*
X410023D02*
X413022D01*
X411523D01*
Y829766D01*
X410023Y828267D01*
X417521Y819270D02*
X423519D01*
X426518Y820769D02*
Y829766D01*
X431017D01*
X432516Y828267D01*
Y825268D01*
X431017Y823768D01*
X426518D01*
X387531Y770283D02*
X384532D01*
X383032Y768783D01*
Y762785D01*
X384532Y761286D01*
X387531D01*
X389030Y762785D01*
Y768783D01*
X387531Y770283D01*
X392029D02*
Y762785D01*
X393529Y761286D01*
X396528D01*
X398027Y762785D01*
Y770283D01*
X401026D02*
X407024D01*
X404025D01*
Y761286D01*
X410023Y762785D02*
X411523Y761286D01*
X414522D01*
X416021Y762785D01*
Y768783D01*
X414522Y770283D01*
X411523D01*
X410023Y768783D01*
Y767284D01*
X411523Y765784D01*
X416021D01*
X419020Y759786D02*
X425018D01*
X428017Y761286D02*
Y770283D01*
X434016Y761286D01*
Y770283D01*
X387531Y750455D02*
X384532D01*
X383032Y748955D01*
Y742957D01*
X384532Y741458D01*
X387531D01*
X389030Y742957D01*
Y748955D01*
X387531Y750455D01*
X392029D02*
Y742957D01*
X393529Y741458D01*
X396528D01*
X398027Y742957D01*
Y750455D01*
X401026D02*
X407024D01*
X404025D01*
Y741458D01*
X410023Y742957D02*
X411523Y741458D01*
X414522D01*
X416021Y742957D01*
Y748955D01*
X414522Y750455D01*
X411523D01*
X410023Y748955D01*
Y747456D01*
X411523Y745956D01*
X416021D01*
X419020Y739958D02*
X425018D01*
X428017Y741458D02*
Y750455D01*
X432516D01*
X434016Y748955D01*
Y745956D01*
X432516Y744457D01*
X428017D01*
X387531Y710799D02*
X384532D01*
X383032Y709300D01*
Y703301D01*
X384532Y701802D01*
X387531D01*
X389030Y703301D01*
Y709300D01*
X387531Y710799D01*
X392029D02*
Y703301D01*
X393529Y701802D01*
X396528D01*
X398027Y703301D01*
Y710799D01*
X401026D02*
X407024D01*
X404025D01*
Y701802D01*
X416021Y709300D02*
X414522Y710799D01*
X411523D01*
X410023Y709300D01*
Y703301D01*
X411523Y701802D01*
X414522D01*
X416021Y703301D01*
X419020Y710799D02*
Y701802D01*
X425018D01*
X428017Y710799D02*
Y701802D01*
Y704801D01*
X434016Y710799D01*
X429517Y706301D01*
X434016Y701802D01*
X437015Y700303D02*
X443013D01*
X446012Y701802D02*
Y710799D01*
X450510D01*
X452010Y709300D01*
Y706301D01*
X450510Y704801D01*
X446012D01*
X387531Y730627D02*
X384532D01*
X383032Y729127D01*
Y723129D01*
X384532Y721630D01*
X387531D01*
X389030Y723129D01*
Y729127D01*
X387531Y730627D01*
X392029D02*
Y723129D01*
X393529Y721630D01*
X396528D01*
X398027Y723129D01*
Y730627D01*
X401026D02*
X407024D01*
X404025D01*
Y721630D01*
X416021Y729127D02*
X414522Y730627D01*
X411523D01*
X410023Y729127D01*
Y723129D01*
X411523Y721630D01*
X414522D01*
X416021Y723129D01*
X419020Y730627D02*
Y721630D01*
X425018D01*
X428017Y730627D02*
Y721630D01*
Y724629D01*
X434016Y730627D01*
X429517Y726128D01*
X434016Y721630D01*
X437015Y720130D02*
X443013D01*
X446012Y721630D02*
Y730627D01*
X452010Y721630D01*
Y730627D01*
X387531Y809939D02*
X384532D01*
X383032Y808439D01*
Y802441D01*
X384532Y800941D01*
X387531D01*
X389030Y802441D01*
Y808439D01*
X387531Y809939D01*
X392029D02*
Y802441D01*
X393529Y800941D01*
X396528D01*
X398027Y802441D01*
Y809939D01*
X401026D02*
X407024D01*
X404025D01*
Y800941D01*
X416021Y808439D02*
X414522Y809939D01*
X411523D01*
X410023Y808439D01*
Y802441D01*
X411523Y800941D01*
X414522D01*
X416021Y802441D01*
X419020Y809939D02*
X425018D01*
X422019D01*
Y800941D01*
X428017D02*
Y809939D01*
X432516D01*
X434016Y808439D01*
Y805440D01*
X432516Y803940D01*
X428017D01*
X431017D02*
X434016Y800941D01*
X437015Y799442D02*
X443013D01*
X446012Y800941D02*
Y809939D01*
X450510D01*
X452010Y808439D01*
Y805440D01*
X450510Y803940D01*
X446012D01*
X387531Y790111D02*
X384532D01*
X383032Y788611D01*
Y782613D01*
X384532Y781114D01*
X387531D01*
X389030Y782613D01*
Y788611D01*
X387531Y790111D01*
X392029D02*
Y782613D01*
X393529Y781114D01*
X396528D01*
X398027Y782613D01*
Y790111D01*
X401026D02*
X407024D01*
X404025D01*
Y781114D01*
X416021Y788611D02*
X414522Y790111D01*
X411523D01*
X410023Y788611D01*
Y782613D01*
X411523Y781114D01*
X414522D01*
X416021Y782613D01*
X419020Y790111D02*
X425018D01*
X422019D01*
Y781114D01*
X428017D02*
Y790111D01*
X432516D01*
X434016Y788611D01*
Y785612D01*
X432516Y784112D01*
X428017D01*
X431017D02*
X434016Y781114D01*
X437015Y779614D02*
X443013D01*
X446012Y781114D02*
Y790111D01*
X452010Y781114D01*
Y790111D01*
D28*
X488569Y677367D02*
X490703D01*
X488391Y677189D02*
X490525D01*
X488213Y677012D02*
X490169D01*
X488213Y676834D02*
X489991D01*
X488036Y676656D02*
X489814D01*
X487858Y676478D02*
X489636D01*
X487680Y676300D02*
X489458D01*
X487680Y676123D02*
X489280D01*
X487502Y675945D02*
X489102D01*
X487324Y675767D02*
X488925D01*
X487147Y675589D02*
X488747D01*
X487147Y675411D02*
X488569D01*
X426872Y675056D02*
X427406D01*
X393446Y674878D02*
X409448D01*
X416382D02*
X418516D01*
X422250D02*
X424383D01*
X425628D02*
X428117D01*
X432384D02*
X434340D01*
X435585D02*
X437896D01*
X438074D02*
X440207D01*
X445897D02*
X448031D01*
X448742D02*
X455143D01*
X456387D02*
X461366D01*
X467233D02*
X471500D01*
X472745D02*
X475056D01*
X475590D02*
X482879D01*
X483768D02*
X490169D01*
X391668Y674700D02*
X409448D01*
X416382D02*
X418516D01*
X422250D02*
X424383D01*
X425628D02*
X428295D01*
X432384D02*
X434340D01*
X435585D02*
X437896D01*
X438074D02*
X440207D01*
X445897D02*
X448031D01*
X448742D02*
X455143D01*
X456387D02*
X462255D01*
X466700D02*
X471500D01*
X472745D02*
X475056D01*
X475590D02*
X483057D01*
X483768D02*
X490169D01*
X390601Y674522D02*
X409270D01*
X416382D02*
X418516D01*
X422250D02*
X424383D01*
X425628D02*
X428473D01*
X432384D02*
X434340D01*
X435585D02*
X437896D01*
X438074D02*
X440207D01*
X445719D02*
X447853D01*
X448742D02*
X455143D01*
X456387D02*
X462788D01*
X466344D02*
X471500D01*
X472745D02*
X475056D01*
X475590D02*
X483057D01*
X483768D02*
X490169D01*
X389712Y674345D02*
X409270D01*
X416382D02*
X418516D01*
X422250D02*
X424383D01*
X425628D02*
X428650D01*
X432384D02*
X434340D01*
X435585D02*
X437896D01*
X438252D02*
X440385D01*
X445719D02*
X447853D01*
X448742D02*
X455143D01*
X456387D02*
X463144D01*
X465988D02*
X471500D01*
X472745D02*
X475056D01*
X475590D02*
X483057D01*
X483768D02*
X490169D01*
X389001Y674167D02*
X409092D01*
X416382D02*
X418516D01*
X422250D02*
X424383D01*
X425628D02*
X428828D01*
X432384D02*
X434340D01*
X435585D02*
X437896D01*
X438252D02*
X440385D01*
X445719D02*
X447675D01*
X448742D02*
X455143D01*
X456387D02*
X463321D01*
X465811D02*
X471500D01*
X472745D02*
X475056D01*
X475590D02*
X483057D01*
X483768D02*
X490169D01*
X388468Y673989D02*
X409092D01*
X416382D02*
X418516D01*
X422250D02*
X424383D01*
X425628D02*
X428828D01*
X432384D02*
X434340D01*
X435585D02*
X437896D01*
X438429D02*
X440385D01*
X445541D02*
X447675D01*
X448742D02*
X455143D01*
X456387D02*
X463499D01*
X465633D02*
X471500D01*
X472745D02*
X475056D01*
X475590D02*
X483057D01*
X483768D02*
X490169D01*
X387934Y673811D02*
X408915D01*
X416382D02*
X418516D01*
X422250D02*
X424383D01*
X425628D02*
X429006D01*
X432384D02*
X434340D01*
X435585D02*
X437896D01*
X438429D02*
X440563D01*
X445541D02*
X447675D01*
X448742D02*
X455143D01*
X456387D02*
X463677D01*
X465633D02*
X471500D01*
X472745D02*
X475056D01*
X475590D02*
X483057D01*
X483768D02*
X490169D01*
X387579Y673633D02*
X408915D01*
X416382D02*
X418516D01*
X422250D02*
X424383D01*
X425628D02*
X429184D01*
X432384D02*
X434340D01*
X435585D02*
X437896D01*
X438429D02*
X440563D01*
X445541D02*
X447497D01*
X448742D02*
X455143D01*
X456387D02*
X463855D01*
X465455D02*
X471500D01*
X472745D02*
X475056D01*
X475590D02*
X483057D01*
X483768D02*
X490169D01*
X387045Y673456D02*
X408737D01*
X416382D02*
X418516D01*
X422250D02*
X424383D01*
X425628D02*
X429184D01*
X432384D02*
X434340D01*
X435585D02*
X437896D01*
X438607D02*
X440741D01*
X445364D02*
X447497D01*
X448742D02*
X455143D01*
X456387D02*
X464033D01*
X465455D02*
X471500D01*
X472745D02*
X475056D01*
X475590D02*
X483057D01*
X483768D02*
X490169D01*
X386690Y673278D02*
X408737D01*
X416382D02*
X418516D01*
X422250D02*
X424383D01*
X425628D02*
X429362D01*
X432384D02*
X434340D01*
X435585D02*
X437896D01*
X438607D02*
X440741D01*
X445364D02*
X447497D01*
X448742D02*
X450875D01*
X456387D02*
X458343D01*
X460654D02*
X464033D01*
X465277D02*
X471500D01*
X472745D02*
X475056D01*
X478257D02*
X480212D01*
X483768D02*
X485902D01*
X386512Y673100D02*
X408559D01*
X416382D02*
X418516D01*
X422250D02*
X424383D01*
X425628D02*
X429362D01*
X432384D02*
X434340D01*
X435585D02*
X437896D01*
X438785D02*
X440741D01*
X445186D02*
X447319D01*
X448742D02*
X450875D01*
X456387D02*
X458343D01*
X461543D02*
X464210D01*
X465277D02*
X467411D01*
X472745D02*
X475056D01*
X478257D02*
X480390D01*
X483768D02*
X485902D01*
X386156Y672922D02*
X408559D01*
X416382D02*
X418516D01*
X422250D02*
X424383D01*
X425628D02*
X429539D01*
X432384D02*
X434340D01*
X435585D02*
X437896D01*
X438785D02*
X440919D01*
X445186D02*
X447319D01*
X448742D02*
X450875D01*
X456387D02*
X458343D01*
X461899D02*
X464210D01*
X465277D02*
X467233D01*
X472745D02*
X475056D01*
X478257D02*
X480390D01*
X483768D02*
X485902D01*
X385801Y672744D02*
X408381D01*
X416382D02*
X418516D01*
X422250D02*
X424383D01*
X425628D02*
X429539D01*
X432384D02*
X434340D01*
X435585D02*
X437896D01*
X438785D02*
X440919D01*
X445186D02*
X447142D01*
X448742D02*
X450875D01*
X456387D02*
X458343D01*
X462077D02*
X464210D01*
X465099D02*
X467233D01*
X472745D02*
X475056D01*
X478257D02*
X480390D01*
X483768D02*
X485902D01*
X385623Y672567D02*
X408381D01*
X416382D02*
X418516D01*
X422250D02*
X424383D01*
X425628D02*
X429717D01*
X432384D02*
X434340D01*
X435585D02*
X437896D01*
X438963D02*
X441096D01*
X445008D02*
X447142D01*
X448742D02*
X450875D01*
X456387D02*
X458343D01*
X462255D02*
X464210D01*
X465099D02*
X467055D01*
X472745D02*
X475056D01*
X478257D02*
X480390D01*
X483768D02*
X485902D01*
X385267Y672389D02*
X408203D01*
X416382D02*
X418516D01*
X422250D02*
X424383D01*
X425628D02*
X429717D01*
X432384D02*
X434340D01*
X435585D02*
X437896D01*
X438963D02*
X441096D01*
X445008D02*
X447142D01*
X448742D02*
X450875D01*
X456387D02*
X458343D01*
X462255D02*
X464388D01*
X465099D02*
X467055D01*
X472745D02*
X475056D01*
X478257D02*
X480390D01*
X483768D02*
X485902D01*
X385089Y672211D02*
X408203D01*
X416382D02*
X418516D01*
X422250D02*
X424383D01*
X425628D02*
X427584D01*
X427761D02*
X429895D01*
X432384D02*
X434340D01*
X435585D02*
X437896D01*
X439141D02*
X441096D01*
X444830D02*
X446964D01*
X448742D02*
X450875D01*
X456387D02*
X458343D01*
X462255D02*
X464388D01*
X465099D02*
X467055D01*
X472745D02*
X475056D01*
X478257D02*
X480390D01*
X483768D02*
X485902D01*
X384912Y672033D02*
X408026D01*
X416382D02*
X418516D01*
X422250D02*
X424383D01*
X425628D02*
X427584D01*
X427761D02*
X430073D01*
X432384D02*
X434340D01*
X435585D02*
X437896D01*
X439141D02*
X441274D01*
X444830D02*
X446964D01*
X448742D02*
X450875D01*
X456387D02*
X458343D01*
X462432D02*
X464388D01*
X465099D02*
X467233D01*
X472745D02*
X475056D01*
X478257D02*
X480390D01*
X483768D02*
X485902D01*
X384734Y671855D02*
X407848D01*
X416382D02*
X418516D01*
X422250D02*
X424383D01*
X425628D02*
X427584D01*
X427761D02*
X430073D01*
X432384D02*
X434340D01*
X435585D02*
X437896D01*
X439141D02*
X441274D01*
X444830D02*
X446786D01*
X448742D02*
X450875D01*
X456387D02*
X458343D01*
X462432D02*
X464388D01*
X465099D02*
X467233D01*
X472745D02*
X475056D01*
X478257D02*
X480390D01*
X483768D02*
X485902D01*
X384556Y671678D02*
X407848D01*
X416382D02*
X418516D01*
X422250D02*
X424383D01*
X425628D02*
X427584D01*
X427939D02*
X430251D01*
X432384D02*
X434340D01*
X435585D02*
X437896D01*
X439318D02*
X441452D01*
X444652D02*
X446786D01*
X448742D02*
X450875D01*
X456387D02*
X458343D01*
X462432D02*
X464388D01*
X465277D02*
X467589D01*
X472745D02*
X475056D01*
X478257D02*
X480390D01*
X483768D02*
X485902D01*
X384378Y671500D02*
X407670D01*
X416382D02*
X418516D01*
X422250D02*
X424383D01*
X425628D02*
X427584D01*
X428117D02*
X430251D01*
X432384D02*
X434340D01*
X435585D02*
X437896D01*
X439318D02*
X441452D01*
X444652D02*
X446786D01*
X448742D02*
X450875D01*
X456387D02*
X458343D01*
X462432D02*
X464388D01*
X465277D02*
X467766D01*
X472745D02*
X475056D01*
X478257D02*
X480390D01*
X483768D02*
X485902D01*
X384200Y671322D02*
X407670D01*
X416382D02*
X418516D01*
X422250D02*
X424383D01*
X425628D02*
X427584D01*
X428117D02*
X430428D01*
X432384D02*
X434340D01*
X435585D02*
X437896D01*
X439496D02*
X441630D01*
X444652D02*
X446608D01*
X448742D02*
X450875D01*
X456387D02*
X458343D01*
X462255D02*
X464388D01*
X465277D02*
X468122D01*
X472745D02*
X475056D01*
X478257D02*
X480390D01*
X483768D02*
X485902D01*
X384023Y671144D02*
X407492D01*
X416382D02*
X418516D01*
X422250D02*
X424383D01*
X425628D02*
X427584D01*
X428295D02*
X430606D01*
X432384D02*
X434340D01*
X435585D02*
X437896D01*
X439496D02*
X441630D01*
X444475D02*
X446608D01*
X448742D02*
X450875D01*
X456387D02*
X458343D01*
X462255D02*
X464388D01*
X465455D02*
X468478D01*
X472745D02*
X475056D01*
X478257D02*
X480390D01*
X483768D02*
X485902D01*
X383845Y670966D02*
X407492D01*
X416382D02*
X418516D01*
X422250D02*
X424383D01*
X425628D02*
X427584D01*
X428295D02*
X430606D01*
X432384D02*
X434340D01*
X435585D02*
X437896D01*
X439496D02*
X441630D01*
X444475D02*
X446608D01*
X448742D02*
X450875D01*
X456387D02*
X458343D01*
X462077D02*
X464210D01*
X465455D02*
X468833D01*
X472745D02*
X475056D01*
X478257D02*
X480390D01*
X483768D02*
X485902D01*
X383845Y670789D02*
X407314D01*
X416382D02*
X418516D01*
X422250D02*
X424383D01*
X425628D02*
X427584D01*
X428473D02*
X430784D01*
X432384D02*
X434340D01*
X435585D02*
X437896D01*
X439674D02*
X441808D01*
X444297D02*
X446430D01*
X448742D02*
X454965D01*
X456387D02*
X458343D01*
X461899D02*
X464210D01*
X465633D02*
X469189D01*
X472745D02*
X475056D01*
X478257D02*
X480390D01*
X483768D02*
X489991D01*
X383667Y670611D02*
X407314D01*
X416382D02*
X418516D01*
X422250D02*
X424383D01*
X425628D02*
X427584D01*
X428473D02*
X430784D01*
X432384D02*
X434340D01*
X435585D02*
X437896D01*
X439674D02*
X441808D01*
X444297D02*
X446430D01*
X448742D02*
X454965D01*
X456387D02*
X458343D01*
X461721D02*
X464210D01*
X465811D02*
X469544D01*
X472745D02*
X475056D01*
X478257D02*
X480390D01*
X483768D02*
X489991D01*
X383489Y670433D02*
X407137D01*
X416382D02*
X418516D01*
X422250D02*
X424383D01*
X425628D02*
X427584D01*
X428650D02*
X430962D01*
X432384D02*
X434340D01*
X435585D02*
X437896D01*
X439852D02*
X441808D01*
X444297D02*
X446253D01*
X448742D02*
X454965D01*
X456387D02*
X458343D01*
X461366D02*
X464210D01*
X465988D02*
X469900D01*
X472745D02*
X475056D01*
X478257D02*
X480390D01*
X483768D02*
X489991D01*
X383489Y670255D02*
X407137D01*
X416382D02*
X418516D01*
X422250D02*
X424383D01*
X425628D02*
X427584D01*
X428828D02*
X430962D01*
X432384D02*
X434340D01*
X435585D02*
X437896D01*
X439852D02*
X441985D01*
X444119D02*
X446253D01*
X448742D02*
X454787D01*
X456387D02*
X458343D01*
X460477D02*
X464033D01*
X466166D02*
X470256D01*
X472745D02*
X475056D01*
X478257D02*
X480390D01*
X483768D02*
X489814D01*
X383311Y670077D02*
X406959D01*
X416382D02*
X418516D01*
X422250D02*
X424383D01*
X425628D02*
X427584D01*
X428828D02*
X431140D01*
X432384D02*
X434340D01*
X435585D02*
X437896D01*
X439852D02*
X441985D01*
X444119D02*
X446253D01*
X448742D02*
X454787D01*
X456387D02*
X458343D01*
X459054D02*
X463855D01*
X466522D02*
X470433D01*
X472745D02*
X475056D01*
X478257D02*
X480390D01*
X483768D02*
X489814D01*
X383311Y669900D02*
X406959D01*
X416382D02*
X418516D01*
X422250D02*
X424383D01*
X425628D02*
X427584D01*
X429006D02*
X431317D01*
X432384D02*
X434340D01*
X435585D02*
X437896D01*
X440030D02*
X442163D01*
X443941D02*
X446075D01*
X448742D02*
X454609D01*
X456387D02*
X458343D01*
X459054D02*
X463855D01*
X466700D02*
X470789D01*
X472745D02*
X475056D01*
X478257D02*
X480390D01*
X483768D02*
X489814D01*
X383134Y669722D02*
X406781D01*
X416382D02*
X418516D01*
X422250D02*
X424383D01*
X425628D02*
X427584D01*
X429006D02*
X431317D01*
X432384D02*
X434340D01*
X435585D02*
X437896D01*
X440030D02*
X442163D01*
X443941D02*
X446075D01*
X448742D02*
X454609D01*
X456387D02*
X458343D01*
X459054D02*
X463677D01*
X467055D02*
X470967D01*
X472745D02*
X475056D01*
X478257D02*
X480390D01*
X483768D02*
X489636D01*
X383134Y669544D02*
X406781D01*
X416382D02*
X418516D01*
X422250D02*
X424383D01*
X425628D02*
X427584D01*
X429184D02*
X431495D01*
X432384D02*
X434340D01*
X435585D02*
X437896D01*
X440207D02*
X442163D01*
X443941D02*
X446075D01*
X448742D02*
X454609D01*
X456387D02*
X458343D01*
X458876D02*
X463499D01*
X467411D02*
X471145D01*
X472745D02*
X475056D01*
X478257D02*
X480390D01*
X483768D02*
X489636D01*
X382956Y669366D02*
X406603D01*
X416382D02*
X418516D01*
X422250D02*
X424383D01*
X425628D02*
X427584D01*
X429184D02*
X431495D01*
X432384D02*
X434340D01*
X435585D02*
X437896D01*
X440207D02*
X442341D01*
X443763D02*
X445897D01*
X448742D02*
X454431D01*
X456387D02*
X458343D01*
X458876D02*
X463144D01*
X467766D02*
X471322D01*
X472745D02*
X475056D01*
X478257D02*
X480390D01*
X483768D02*
X489458D01*
X382956Y669188D02*
X406603D01*
X416382D02*
X418516D01*
X422250D02*
X424383D01*
X425628D02*
X427584D01*
X429362D02*
X431673D01*
X432384D02*
X434340D01*
X435585D02*
X437896D01*
X440207D02*
X442341D01*
X443763D02*
X445897D01*
X448742D02*
X450875D01*
X456387D02*
X458343D01*
X458876D02*
X462788D01*
X468122D02*
X471500D01*
X472745D02*
X475056D01*
X478257D02*
X480390D01*
X483768D02*
X485902D01*
X382956Y669011D02*
X406425D01*
X416382D02*
X418516D01*
X422250D02*
X424383D01*
X425628D02*
X427584D01*
X429539D02*
X431673D01*
X432384D02*
X434340D01*
X435585D02*
X437896D01*
X440385D02*
X442519D01*
X443586D02*
X445719D01*
X448742D02*
X450875D01*
X456387D02*
X458343D01*
X458699D02*
X462432D01*
X468478D02*
X471500D01*
X472745D02*
X475056D01*
X478257D02*
X480390D01*
X483768D02*
X485902D01*
X382778Y668833D02*
X406248D01*
X416382D02*
X418516D01*
X422250D02*
X424383D01*
X425628D02*
X427584D01*
X429539D02*
X431851D01*
X432384D02*
X434340D01*
X435585D02*
X437896D01*
X440385D02*
X442519D01*
X443586D02*
X445719D01*
X448742D02*
X450875D01*
X456387D02*
X458343D01*
X458699D02*
X461899D01*
X468833D02*
X471678D01*
X472745D02*
X475056D01*
X478257D02*
X480390D01*
X483768D02*
X485902D01*
X382778Y668655D02*
X406248D01*
X416382D02*
X418516D01*
X422250D02*
X424383D01*
X425628D02*
X427584D01*
X429717D02*
X431851D01*
X432384D02*
X434340D01*
X435585D02*
X437896D01*
X440385D02*
X442519D01*
X443586D02*
X445719D01*
X448742D02*
X450875D01*
X456387D02*
X458343D01*
X458699D02*
X461010D01*
X469189D02*
X471678D01*
X472745D02*
X475056D01*
X478257D02*
X480390D01*
X483768D02*
X485902D01*
X382778Y668477D02*
X406070D01*
X416382D02*
X418516D01*
X422250D02*
X424383D01*
X425628D02*
X427584D01*
X429717D02*
X432029D01*
X432384D02*
X434340D01*
X435585D02*
X437896D01*
X440563D02*
X442697D01*
X443408D02*
X445541D01*
X448742D02*
X450875D01*
X456387D02*
X458343D01*
X458876D02*
X461366D01*
X469367D02*
X471678D01*
X472745D02*
X475056D01*
X478257D02*
X480390D01*
X483768D02*
X485902D01*
X382600Y668299D02*
X406070D01*
X416382D02*
X418516D01*
X422250D02*
X424383D01*
X425628D02*
X427584D01*
X429895D02*
X432206D01*
X432384D02*
X434340D01*
X435585D02*
X437896D01*
X440563D02*
X442697D01*
X443408D02*
X445541D01*
X448742D02*
X450875D01*
X456387D02*
X458343D01*
X459054D02*
X461543D01*
X469544D02*
X471856D01*
X472745D02*
X475056D01*
X478257D02*
X480390D01*
X483768D02*
X485902D01*
X382600Y668122D02*
X405892D01*
X416382D02*
X418516D01*
X422250D02*
X424383D01*
X425628D02*
X427584D01*
X429895D02*
X432206D01*
X432384D02*
X434340D01*
X435585D02*
X437896D01*
X440741D02*
X442874D01*
X443408D02*
X445364D01*
X448742D02*
X450875D01*
X456387D02*
X458343D01*
X459232D02*
X461721D01*
X469722D02*
X471856D01*
X472745D02*
X475056D01*
X478257D02*
X480390D01*
X483768D02*
X485902D01*
X382600Y667944D02*
X405892D01*
X416382D02*
X418516D01*
X422250D02*
X424383D01*
X425628D02*
X427584D01*
X430073D02*
X434340D01*
X435585D02*
X437896D01*
X440741D02*
X442874D01*
X443230D02*
X445364D01*
X448742D02*
X450875D01*
X456387D02*
X458343D01*
X459410D02*
X461899D01*
X469900D02*
X471856D01*
X472745D02*
X475056D01*
X478257D02*
X480390D01*
X483768D02*
X485902D01*
X382600Y667766D02*
X405714D01*
X416560D02*
X418516D01*
X422250D02*
X424383D01*
X425628D02*
X427584D01*
X430251D02*
X434340D01*
X435585D02*
X437896D01*
X440741D02*
X442874D01*
X443230D02*
X445364D01*
X448742D02*
X450875D01*
X456387D02*
X458343D01*
X459588D02*
X461899D01*
X469900D02*
X471856D01*
X472745D02*
X475056D01*
X478257D02*
X480390D01*
X483768D02*
X485902D01*
X382600Y667588D02*
X394157D01*
X416560D02*
X418516D01*
X422072D02*
X424383D01*
X425628D02*
X427584D01*
X430251D02*
X434340D01*
X435585D02*
X437896D01*
X440919D02*
X443052D01*
X443230D02*
X445186D01*
X448742D02*
X450875D01*
X456387D02*
X458343D01*
X459765D02*
X462077D01*
X469900D02*
X471856D01*
X472745D02*
X475056D01*
X478257D02*
X480390D01*
X483768D02*
X485902D01*
X382600Y667410D02*
X393268D01*
X416560D02*
X418694D01*
X422072D02*
X424205D01*
X425628D02*
X427584D01*
X430428D02*
X434340D01*
X435585D02*
X437896D01*
X440919D02*
X445186D01*
X448742D02*
X450875D01*
X456387D02*
X458343D01*
X459943D02*
X462255D01*
X469900D02*
X471856D01*
X472745D02*
X475056D01*
X478257D02*
X480390D01*
X483768D02*
X485902D01*
X382422Y667233D02*
X392735D01*
X416560D02*
X418694D01*
X421894D02*
X424205D01*
X425628D02*
X427584D01*
X430428D02*
X434340D01*
X435585D02*
X437896D01*
X441096D02*
X445186D01*
X448742D02*
X450875D01*
X456387D02*
X458343D01*
X460121D02*
X462432D01*
X469900D02*
X471856D01*
X472745D02*
X475056D01*
X478257D02*
X480390D01*
X483768D02*
X485902D01*
X382422Y667055D02*
X392379D01*
X416738D02*
X418871D01*
X421894D02*
X424205D01*
X425628D02*
X427584D01*
X430606D02*
X434340D01*
X435585D02*
X437896D01*
X441096D02*
X445008D01*
X448742D02*
X450875D01*
X456387D02*
X458343D01*
X460299D02*
X462610D01*
X469722D02*
X471856D01*
X472745D02*
X475056D01*
X478257D02*
X480390D01*
X483768D02*
X485902D01*
X382422Y666877D02*
X392201D01*
X416738D02*
X419227D01*
X421716D02*
X424028D01*
X425628D02*
X427584D01*
X430606D02*
X434340D01*
X435585D02*
X437896D01*
X441096D02*
X445008D01*
X448742D02*
X450875D01*
X456387D02*
X458343D01*
X460299D02*
X462788D01*
X469544D02*
X471678D01*
X472745D02*
X475056D01*
X478257D02*
X480390D01*
X483768D02*
X485902D01*
X382422Y666699D02*
X392024D01*
X416916D02*
X419405D01*
X421361D02*
X424028D01*
X425628D02*
X427584D01*
X430784D02*
X434340D01*
X435585D02*
X437896D01*
X441274D02*
X444830D01*
X448742D02*
X450875D01*
X451053D02*
X454965D01*
X456387D02*
X458343D01*
X460477D02*
X462966D01*
X465099D02*
X471678D01*
X472745D02*
X475056D01*
X478257D02*
X480390D01*
X483768D02*
X485902D01*
X486080D02*
X489991D01*
X382422Y666521D02*
X391846D01*
X416916D02*
X423850D01*
X425628D02*
X427584D01*
X430784D02*
X434340D01*
X435585D02*
X437896D01*
X441274D02*
X444830D01*
X448742D02*
X455143D01*
X456387D02*
X458343D01*
X460654D02*
X463144D01*
X465099D02*
X471678D01*
X472745D02*
X475056D01*
X478257D02*
X480390D01*
X483768D02*
X490169D01*
X382422Y666344D02*
X391668D01*
X417093D02*
X423850D01*
X425628D02*
X427584D01*
X430962D02*
X434340D01*
X435585D02*
X437896D01*
X441452D02*
X444830D01*
X448742D02*
X455143D01*
X456387D02*
X458343D01*
X460832D02*
X463321D01*
X465099D02*
X471500D01*
X472745D02*
X475056D01*
X478257D02*
X480390D01*
X483768D02*
X490169D01*
X382422Y666166D02*
X391490D01*
X417271D02*
X423672D01*
X425628D02*
X427584D01*
X431140D02*
X434340D01*
X435585D02*
X437896D01*
X441452D02*
X444652D01*
X448742D02*
X455143D01*
X456387D02*
X458343D01*
X461010D02*
X463499D01*
X465099D02*
X471500D01*
X472745D02*
X475056D01*
X478257D02*
X480390D01*
X483768D02*
X490169D01*
X382422Y665988D02*
X391490D01*
X417449D02*
X423494D01*
X425628D02*
X427584D01*
X431140D02*
X434340D01*
X435585D02*
X437896D01*
X441452D02*
X444652D01*
X448742D02*
X455143D01*
X456387D02*
X458343D01*
X461188D02*
X463677D01*
X465099D02*
X471322D01*
X472745D02*
X475056D01*
X478257D02*
X480390D01*
X483768D02*
X490169D01*
X382422Y665810D02*
X391312D01*
X417627D02*
X423316D01*
X425628D02*
X427584D01*
X431317D02*
X434340D01*
X435585D02*
X437896D01*
X441630D02*
X444652D01*
X448742D02*
X455143D01*
X456387D02*
X458343D01*
X461366D02*
X463855D01*
X465099D02*
X471145D01*
X472745D02*
X475056D01*
X478257D02*
X480390D01*
X483768D02*
X490169D01*
X382422Y665632D02*
X391312D01*
X417805D02*
X422961D01*
X425628D02*
X427584D01*
X431317D02*
X434340D01*
X435585D02*
X437896D01*
X441630D02*
X444475D01*
X448742D02*
X455143D01*
X456387D02*
X458343D01*
X461543D02*
X464033D01*
X465099D02*
X470967D01*
X472745D02*
X475056D01*
X478257D02*
X480390D01*
X483768D02*
X490169D01*
X377800Y665455D02*
X377977D01*
X382422D02*
X391135D01*
X418160D02*
X422783D01*
X425628D02*
X427584D01*
X431495D02*
X434340D01*
X435585D02*
X437896D01*
X441808D02*
X444475D01*
X448742D02*
X455143D01*
X456387D02*
X458343D01*
X461721D02*
X464210D01*
X465099D02*
X470611D01*
X472745D02*
X475056D01*
X478257D02*
X480390D01*
X483768D02*
X490169D01*
X377800Y665277D02*
X377977D01*
X382422D02*
X391135D01*
X418338D02*
X422427D01*
X425628D02*
X427584D01*
X431673D02*
X434340D01*
X435585D02*
X437896D01*
X441985D02*
X444297D01*
X448742D02*
X455143D01*
X456387D02*
X458343D01*
X461899D02*
X464388D01*
X465099D02*
X470433D01*
X472745D02*
X475056D01*
X478257D02*
X480390D01*
X483768D02*
X490169D01*
X377800Y665099D02*
X377977D01*
X382422D02*
X391135D01*
X418871D02*
X422072D01*
X425628D02*
X427584D01*
X432029D02*
X434340D01*
X435585D02*
X437896D01*
X442163D02*
X444297D01*
X448742D02*
X455143D01*
X456387D02*
X458343D01*
X462077D02*
X464566D01*
X465099D02*
X469900D01*
X472745D02*
X475056D01*
X478257D02*
X480390D01*
X483768D02*
X490169D01*
X377800Y664921D02*
X377977D01*
X382600D02*
X391135D01*
X419583D02*
X421361D01*
X432384D02*
X433984D01*
X442341D02*
X444297D01*
X377800Y664743D02*
X378155D01*
X382600D02*
X390957D01*
X377800Y664566D02*
X378155D01*
X382600D02*
X390957D01*
X377800Y664388D02*
X378155D01*
X382600D02*
X390957D01*
X377800Y664210D02*
X378155D01*
X382600D02*
X390957D01*
X377800Y664032D02*
X378333D01*
X382600D02*
X390957D01*
X377800Y663854D02*
X378333D01*
X382778D02*
X390957D01*
X377800Y663677D02*
X378333D01*
X382778D02*
X390957D01*
X377800Y663499D02*
X378511D01*
X382778D02*
X391135D01*
X377800Y663321D02*
X378511D01*
X382778D02*
X391135D01*
X377800Y663143D02*
X378689D01*
X382956D02*
X391135D01*
X377977Y662965D02*
X378689D01*
X382956D02*
X391135D01*
X377977Y662788D02*
X378689D01*
X382956D02*
X391312D01*
X377977Y662610D02*
X378866D01*
X383134D02*
X391312D01*
X377977Y662432D02*
X378866D01*
X383134D02*
X391312D01*
X377977Y662254D02*
X379044D01*
X383134D02*
X391490D01*
X377977Y662076D02*
X379044D01*
X383311D02*
X391490D01*
X377977Y661899D02*
X379222D01*
X383311D02*
X391668D01*
X377977Y661721D02*
X379400D01*
X383489D02*
X391668D01*
X378155Y661543D02*
X379400D01*
X383489D02*
X391846D01*
X378155Y661365D02*
X379578D01*
X383667D02*
X392024D01*
X378155Y661187D02*
X379578D01*
X383845D02*
X392201D01*
X378155Y661010D02*
X379755D01*
X383845D02*
X392201D01*
X378155Y660832D02*
X379933D01*
X384023D02*
X392379D01*
X378333Y660654D02*
X380111D01*
X384200D02*
X392557D01*
X378333Y660476D02*
X380111D01*
X384200D02*
X392913D01*
X378333Y660298D02*
X380289D01*
X384378D02*
X393090D01*
X378333Y660121D02*
X380467D01*
X384556D02*
X393446D01*
X378333Y659943D02*
X380644D01*
X384734D02*
X393802D01*
X378511Y659765D02*
X380822D01*
X384912D02*
X393979D01*
X420472D02*
X424028D01*
X437718D02*
X441985D01*
X455320D02*
X458699D01*
X470078D02*
X474167D01*
X482524D02*
X489991D01*
X378511Y659587D02*
X380822D01*
X385089D02*
X394335D01*
X416560D02*
X426161D01*
X437718D02*
X442163D01*
X451409D02*
X461010D01*
X470078D02*
X474167D01*
X481457D02*
X490169D01*
X378511Y659409D02*
X381000D01*
X385267D02*
X394513D01*
X416560D02*
X427228D01*
X437718D02*
X442163D01*
X451409D02*
X462077D01*
X470078D02*
X474167D01*
X480924D02*
X490169D01*
X378689Y659232D02*
X381178D01*
X385445D02*
X394868D01*
X416560D02*
X427939D01*
X437540D02*
X442341D01*
X451409D02*
X462788D01*
X470078D02*
X474167D01*
X480390D02*
X490169D01*
X378689Y659054D02*
X381356D01*
X385623D02*
X395224D01*
X416560D02*
X428473D01*
X437540D02*
X442341D01*
X451409D02*
X463321D01*
X470078D02*
X474167D01*
X480035D02*
X490169D01*
X378689Y658876D02*
X381533D01*
X385801D02*
X395580D01*
X416560D02*
X429006D01*
X437540D02*
X442341D01*
X451409D02*
X463855D01*
X470078D02*
X474167D01*
X479857D02*
X490169D01*
X378866Y658698D02*
X381889D01*
X386156D02*
X395935D01*
X416560D02*
X429362D01*
X437363D02*
X442519D01*
X451409D02*
X464210D01*
X470078D02*
X474167D01*
X479501D02*
X490169D01*
X378866Y658520D02*
X382067D01*
X386334D02*
X396113D01*
X416560D02*
X429717D01*
X437363D02*
X442519D01*
X451409D02*
X464388D01*
X470078D02*
X474167D01*
X479323D02*
X490169D01*
X378866Y658343D02*
X382245D01*
X386512D02*
X396469D01*
X416560D02*
X429895D01*
X437185D02*
X442697D01*
X451409D02*
X464744D01*
X470078D02*
X474167D01*
X479146D02*
X490169D01*
X379044Y658165D02*
X382600D01*
X386867D02*
X396824D01*
X416560D02*
X430073D01*
X437185D02*
X442697D01*
X451409D02*
X464922D01*
X470078D02*
X474167D01*
X478968D02*
X490169D01*
X379044Y657987D02*
X382778D01*
X387045D02*
X397180D01*
X416560D02*
X430428D01*
X437185D02*
X442874D01*
X451409D02*
X465099D01*
X470078D02*
X474167D01*
X478790D02*
X490169D01*
X379044Y657809D02*
X382956D01*
X387223D02*
X397535D01*
X416560D02*
X430428D01*
X437007D02*
X442874D01*
X451409D02*
X465455D01*
X470078D02*
X474167D01*
X478612D02*
X490169D01*
X379222Y657631D02*
X383134D01*
X387579D02*
X397891D01*
X416560D02*
X430606D01*
X437007D02*
X443052D01*
X451409D02*
X465633D01*
X470078D02*
X474167D01*
X478434D02*
X490169D01*
X379222Y657454D02*
X383489D01*
X387756D02*
X398247D01*
X416560D02*
X430784D01*
X436829D02*
X443052D01*
X451409D02*
X465633D01*
X470078D02*
X474167D01*
X478434D02*
X490169D01*
X379400Y657276D02*
X383667D01*
X388112D02*
X398780D01*
X416560D02*
X430962D01*
X436829D02*
X443230D01*
X451409D02*
X465811D01*
X470078D02*
X474167D01*
X478257D02*
X490169D01*
X379400Y657098D02*
X384023D01*
X388468D02*
X399136D01*
X416560D02*
X431140D01*
X436829D02*
X443230D01*
X451409D02*
X465988D01*
X470078D02*
X474167D01*
X478257D02*
X490169D01*
X379578Y656920D02*
X384200D01*
X388823D02*
X399491D01*
X416560D02*
X431317D01*
X436651D02*
X443408D01*
X451409D02*
X466166D01*
X470078D02*
X474167D01*
X478079D02*
X490169D01*
X379578Y656742D02*
X384556D01*
X389001D02*
X399847D01*
X416560D02*
X431317D01*
X436651D02*
X443408D01*
X451409D02*
X466166D01*
X470078D02*
X474167D01*
X478079D02*
X490169D01*
X379755Y656565D02*
X384734D01*
X389357D02*
X400202D01*
X416560D02*
X431495D01*
X436474D02*
X443408D01*
X451409D02*
X466344D01*
X470078D02*
X474167D01*
X477901D02*
X490169D01*
X379755Y656387D02*
X385089D01*
X389712D02*
X400558D01*
X416560D02*
X420116D01*
X425094D02*
X431495D01*
X436474D02*
X443586D01*
X451409D02*
X454965D01*
X459943D02*
X466344D01*
X470078D02*
X474167D01*
X477901D02*
X482702D01*
X379933Y656209D02*
X385445D01*
X390068D02*
X400914D01*
X416560D02*
X420116D01*
X426161D02*
X431673D01*
X436296D02*
X443586D01*
X451409D02*
X454965D01*
X461010D02*
X466522D01*
X470078D02*
X474167D01*
X477901D02*
X481813D01*
X379933Y656031D02*
X385801D01*
X390423D02*
X401269D01*
X416560D02*
X420116D01*
X426695D02*
X431673D01*
X436296D02*
X443763D01*
X451409D02*
X454965D01*
X461543D02*
X466522D01*
X470078D02*
X474167D01*
X477723D02*
X481635D01*
X380111Y655853D02*
X385978D01*
X390779D02*
X401447D01*
X416560D02*
X420116D01*
X427050D02*
X431673D01*
X436296D02*
X440030D01*
X440207D02*
X443763D01*
X451409D02*
X454965D01*
X461899D02*
X466700D01*
X470078D02*
X474167D01*
X477723D02*
X481457D01*
X380111Y655676D02*
X386334D01*
X391135D02*
X401803D01*
X416560D02*
X420116D01*
X427406D02*
X431851D01*
X436118D02*
X439852D01*
X440207D02*
X443941D01*
X451409D02*
X454965D01*
X462255D02*
X466700D01*
X470078D02*
X474167D01*
X477723D02*
X481457D01*
X380289Y655498D02*
X386690D01*
X391668D02*
X402158D01*
X416560D02*
X420116D01*
X427584D02*
X431851D01*
X436118D02*
X439852D01*
X440207D02*
X443941D01*
X451409D02*
X454965D01*
X462610D02*
X466700D01*
X470078D02*
X474167D01*
X477723D02*
X481279D01*
X380467Y655320D02*
X387045D01*
X392024D02*
X402514D01*
X416560D02*
X420116D01*
X427939D02*
X431851D01*
X435940D02*
X439674D01*
X440385D02*
X444119D01*
X451409D02*
X454965D01*
X462788D02*
X466700D01*
X470078D02*
X474167D01*
X477545D02*
X481279D01*
X380467Y655142D02*
X387401D01*
X392379D02*
X402869D01*
X416560D02*
X420116D01*
X427939D02*
X431851D01*
X435940D02*
X439674D01*
X440385D02*
X444119D01*
X451409D02*
X454965D01*
X462966D02*
X466877D01*
X470078D02*
X474167D01*
X477545D02*
X481101D01*
X380644Y654964D02*
X387756D01*
X392735D02*
X403047D01*
X416560D02*
X420116D01*
X428117D02*
X432029D01*
X435940D02*
X439674D01*
X440563D02*
X444297D01*
X451409D02*
X454965D01*
X462966D02*
X466877D01*
X470078D02*
X474167D01*
X477545D02*
X481101D01*
X380822Y654787D02*
X388290D01*
X393090D02*
X403403D01*
X416560D02*
X420116D01*
X428295D02*
X432029D01*
X435762D02*
X439496D01*
X440563D02*
X444297D01*
X451409D02*
X454965D01*
X463144D02*
X466877D01*
X470078D02*
X474167D01*
X477545D02*
X481101D01*
X380822Y654609D02*
X388645D01*
X393624D02*
X403758D01*
X416560D02*
X420116D01*
X428295D02*
X432029D01*
X435762D02*
X439496D01*
X440741D02*
X444475D01*
X451409D02*
X454965D01*
X463144D02*
X466877D01*
X470078D02*
X474167D01*
X477545D02*
X481101D01*
X381000Y654431D02*
X389001D01*
X393979D02*
X403936D01*
X416560D02*
X420116D01*
X428473D02*
X432029D01*
X435585D02*
X439318D01*
X440741D02*
X444475D01*
X451409D02*
X454965D01*
X463321D02*
X466877D01*
X470078D02*
X474167D01*
X477545D02*
X481101D01*
X381178Y654253D02*
X389357D01*
X394335D02*
X404292D01*
X416560D02*
X420116D01*
X428473D02*
X432029D01*
X435585D02*
X439318D01*
X440741D02*
X444652D01*
X451409D02*
X454965D01*
X463321D02*
X466877D01*
X470078D02*
X474167D01*
X477545D02*
X481101D01*
X381356Y654075D02*
X389712D01*
X394868D02*
X404470D01*
X416560D02*
X420116D01*
X428473D02*
X432029D01*
X435585D02*
X439318D01*
X440919D02*
X444652D01*
X451409D02*
X454965D01*
X463321D02*
X466877D01*
X470078D02*
X474167D01*
X477545D02*
X481279D01*
X381356Y653898D02*
X390246D01*
X395224D02*
X404647D01*
X416560D02*
X420116D01*
X428473D02*
X432029D01*
X435407D02*
X439141D01*
X440919D02*
X444652D01*
X451409D02*
X454965D01*
X463321D02*
X467055D01*
X470078D02*
X474167D01*
X477545D02*
X481279D01*
X381533Y653720D02*
X390601D01*
X395580D02*
X405003D01*
X416560D02*
X420116D01*
X428473D02*
X432029D01*
X435407D02*
X439141D01*
X441096D02*
X444830D01*
X451409D02*
X454965D01*
X463321D02*
X467055D01*
X470078D02*
X474167D01*
X477545D02*
X481457D01*
X381711Y653542D02*
X391135D01*
X395935D02*
X405181D01*
X416560D02*
X420116D01*
X428473D02*
X432029D01*
X435229D02*
X438963D01*
X441096D02*
X444830D01*
X451409D02*
X454965D01*
X463321D02*
X467055D01*
X470078D02*
X474167D01*
X477723D02*
X481635D01*
X381889Y653364D02*
X391490D01*
X396469D02*
X405536D01*
X416560D02*
X420116D01*
X428473D02*
X432029D01*
X435229D02*
X438963D01*
X441274D02*
X445008D01*
X451409D02*
X454965D01*
X463499D02*
X467055D01*
X470078D02*
X474167D01*
X477723D02*
X481813D01*
X382067Y653186D02*
X391846D01*
X396824D02*
X405714D01*
X416560D02*
X420116D01*
X428473D02*
X432029D01*
X435051D02*
X438963D01*
X441274D02*
X445008D01*
X451409D02*
X454965D01*
X463321D02*
X467055D01*
X470078D02*
X474167D01*
X477723D02*
X481990D01*
X382245Y653009D02*
X392379D01*
X397180D02*
X405892D01*
X416560D02*
X420116D01*
X428473D02*
X432029D01*
X435051D02*
X438785D01*
X441452D02*
X445186D01*
X451409D02*
X454965D01*
X463321D02*
X467055D01*
X470078D02*
X474167D01*
X477723D02*
X482346D01*
X382422Y652831D02*
X392735D01*
X397535D02*
X406070D01*
X416560D02*
X420116D01*
X428473D02*
X432029D01*
X435051D02*
X438785D01*
X441452D02*
X445186D01*
X451409D02*
X454965D01*
X463321D02*
X467055D01*
X470078D02*
X474167D01*
X477901D02*
X482524D01*
X382600Y652653D02*
X393268D01*
X397891D02*
X406248D01*
X416560D02*
X420116D01*
X428473D02*
X432029D01*
X434873D02*
X438607D01*
X441452D02*
X445364D01*
X451409D02*
X454965D01*
X463321D02*
X467055D01*
X470078D02*
X474167D01*
X477901D02*
X482879D01*
X382778Y652475D02*
X393624D01*
X398247D02*
X406425D01*
X416560D02*
X420116D01*
X428473D02*
X432029D01*
X434873D02*
X438607D01*
X441630D02*
X445364D01*
X451409D02*
X454965D01*
X463321D02*
X466877D01*
X470078D02*
X474167D01*
X477901D02*
X483235D01*
X382956Y652297D02*
X393979D01*
X398602D02*
X406603D01*
X416560D02*
X420116D01*
X428473D02*
X432029D01*
X434873D02*
X438607D01*
X441630D02*
X445541D01*
X451409D02*
X454965D01*
X463321D02*
X466877D01*
X470078D02*
X474167D01*
X478079D02*
X483591D01*
X383134Y652120D02*
X394513D01*
X398958D02*
X406781D01*
X416560D02*
X420116D01*
X428295D02*
X432029D01*
X434696D02*
X438429D01*
X441808D02*
X445541D01*
X451409D02*
X454965D01*
X463144D02*
X466877D01*
X470078D02*
X474167D01*
X478257D02*
X483946D01*
X383311Y651942D02*
X394868D01*
X399313D02*
X406959D01*
X416560D02*
X420116D01*
X428295D02*
X432029D01*
X434696D02*
X438429D01*
X441808D02*
X445719D01*
X451409D02*
X454965D01*
X463144D02*
X466877D01*
X470078D02*
X474167D01*
X478257D02*
X484302D01*
X383489Y651764D02*
X395224D01*
X399669D02*
X407137D01*
X416560D02*
X420116D01*
X428117D02*
X431851D01*
X434518D02*
X438252D01*
X441985D02*
X445719D01*
X451409D02*
X454965D01*
X462966D02*
X466877D01*
X470078D02*
X474167D01*
X478434D02*
X484657D01*
X383667Y651586D02*
X395757D01*
X400025D02*
X407314D01*
X416560D02*
X420116D01*
X427939D02*
X431851D01*
X434518D02*
X438252D01*
X441985D02*
X445719D01*
X451409D02*
X454965D01*
X462788D02*
X466877D01*
X470078D02*
X474167D01*
X478612D02*
X485013D01*
X383845Y651408D02*
X396113D01*
X400380D02*
X407492D01*
X416560D02*
X420116D01*
X427939D02*
X431851D01*
X434340D02*
X438252D01*
X442163D02*
X445897D01*
X451409D02*
X454965D01*
X462610D02*
X466877D01*
X470078D02*
X474167D01*
X478612D02*
X485369D01*
X384023Y651231D02*
X396469D01*
X400736D02*
X407670D01*
X416560D02*
X420116D01*
X427761D02*
X431851D01*
X434340D02*
X438074D01*
X442163D02*
X445897D01*
X451409D02*
X454965D01*
X462432D02*
X466700D01*
X470078D02*
X474167D01*
X478790D02*
X485724D01*
X384378Y651053D02*
X396824D01*
X400914D02*
X407670D01*
X416560D02*
X420116D01*
X427406D02*
X431673D01*
X434340D02*
X438074D01*
X442163D02*
X446075D01*
X451409D02*
X454965D01*
X462255D02*
X466700D01*
X470078D02*
X474167D01*
X478968D02*
X486080D01*
X384556Y650875D02*
X397180D01*
X401269D02*
X407848D01*
X416560D02*
X420116D01*
X427228D02*
X431673D01*
X434162D02*
X437896D01*
X442341D02*
X446075D01*
X451409D02*
X454965D01*
X461899D02*
X466700D01*
X470078D02*
X474167D01*
X479146D02*
X486435D01*
X384734Y650697D02*
X397535D01*
X401625D02*
X408026D01*
X416560D02*
X420116D01*
X426872D02*
X431673D01*
X434162D02*
X437896D01*
X442341D02*
X446253D01*
X451409D02*
X454965D01*
X461366D02*
X466522D01*
X470078D02*
X474167D01*
X479323D02*
X486791D01*
X384912Y650519D02*
X397891D01*
X401803D02*
X408203D01*
X416560D02*
X420116D01*
X426339D02*
X431495D01*
X433984D02*
X437896D01*
X442519D02*
X446253D01*
X451409D02*
X454965D01*
X460832D02*
X466522D01*
X470078D02*
X474167D01*
X479501D02*
X487147D01*
X385267Y650342D02*
X398247D01*
X402158D02*
X408203D01*
X416560D02*
X420116D01*
X425628D02*
X431495D01*
X433984D02*
X437718D01*
X442519D02*
X446430D01*
X451409D02*
X454965D01*
X459943D02*
X466344D01*
X470078D02*
X474167D01*
X479857D02*
X487324D01*
X385445Y650164D02*
X398602D01*
X402336D02*
X408381D01*
X416560D02*
X420116D01*
X422072D02*
X431317D01*
X433984D02*
X437718D01*
X442697D02*
X446430D01*
X451409D02*
X454965D01*
X456921D02*
X466344D01*
X470078D02*
X474167D01*
X480035D02*
X487680D01*
X385801Y649986D02*
X398958D01*
X402692D02*
X408559D01*
X416560D02*
X420116D01*
X422072D02*
X431140D01*
X433807D02*
X437540D01*
X442697D02*
X446608D01*
X451409D02*
X454965D01*
X456921D02*
X466166D01*
X470078D02*
X474167D01*
X480212D02*
X487858D01*
X385978Y649808D02*
X399136D01*
X402869D02*
X408559D01*
X416560D02*
X420116D01*
X422072D02*
X431140D01*
X433807D02*
X437540D01*
X442874D02*
X446608D01*
X451409D02*
X454965D01*
X456921D02*
X466166D01*
X470078D02*
X474167D01*
X480568D02*
X488213D01*
X386334Y649630D02*
X399491D01*
X403225D02*
X408737D01*
X416560D02*
X420116D01*
X421894D02*
X430962D01*
X433629D02*
X437540D01*
X442874D02*
X446608D01*
X451409D02*
X454965D01*
X456743D02*
X465988D01*
X470078D02*
X474167D01*
X480924D02*
X488391D01*
X386512Y649453D02*
X399847D01*
X403403D02*
X408737D01*
X416560D02*
X420116D01*
X421894D02*
X430784D01*
X433629D02*
X446786D01*
X451409D02*
X454965D01*
X456743D02*
X465811D01*
X470078D02*
X474167D01*
X481101D02*
X488569D01*
X386867Y649275D02*
X400025D01*
X403581D02*
X408915D01*
X416560D02*
X420116D01*
X421894D02*
X430606D01*
X433451D02*
X446786D01*
X451409D02*
X454965D01*
X456743D02*
X465633D01*
X470078D02*
X474167D01*
X481457D02*
X488747D01*
X387045Y649097D02*
X400380D01*
X403936D02*
X408915D01*
X416560D02*
X420116D01*
X421716D02*
X430428D01*
X433451D02*
X446964D01*
X451409D02*
X454965D01*
X456565D02*
X465455D01*
X470078D02*
X474167D01*
X481813D02*
X488925D01*
X387401Y648919D02*
X400558D01*
X404114D02*
X409092D01*
X416560D02*
X420116D01*
X421716D02*
X430251D01*
X433451D02*
X446964D01*
X451409D02*
X454965D01*
X456565D02*
X465277D01*
X470078D02*
X474167D01*
X482168D02*
X489102D01*
X387756Y648741D02*
X400914D01*
X404292D02*
X409092D01*
X416560D02*
X420116D01*
X421716D02*
X430073D01*
X433273D02*
X447142D01*
X451409D02*
X454965D01*
X456565D02*
X465099D01*
X470078D02*
X474167D01*
X482524D02*
X489280D01*
X387934Y648564D02*
X401091D01*
X404470D02*
X409270D01*
X416560D02*
X420116D01*
X421538D02*
X429895D01*
X433273D02*
X447142D01*
X451409D02*
X454965D01*
X456387D02*
X464744D01*
X470078D02*
X474167D01*
X482879D02*
X489458D01*
X388290Y648386D02*
X401269D01*
X404647D02*
X409270D01*
X416560D02*
X420116D01*
X421538D02*
X429717D01*
X433095D02*
X447319D01*
X451409D02*
X454965D01*
X456387D02*
X464566D01*
X470078D02*
X474167D01*
X483235D02*
X489636D01*
X388645Y648208D02*
X401447D01*
X404825D02*
X409270D01*
X416560D02*
X420116D01*
X421538D02*
X429362D01*
X433095D02*
X447319D01*
X451409D02*
X454965D01*
X456387D02*
X464210D01*
X470078D02*
X474167D01*
X483768D02*
X489636D01*
X389001Y648030D02*
X401803D01*
X405003D02*
X409448D01*
X416560D02*
X420116D01*
X421361D02*
X429184D01*
X433095D02*
X447497D01*
X451409D02*
X454965D01*
X456209D02*
X463855D01*
X470078D02*
X474167D01*
X484124D02*
X489814D01*
X389357Y647852D02*
X401980D01*
X405181D02*
X409448D01*
X416560D02*
X420116D01*
X421361D02*
X428828D01*
X432918D02*
X447497D01*
X451409D02*
X454965D01*
X456209D02*
X463321D01*
X470078D02*
X474167D01*
X484480D02*
X489991D01*
X389534Y647675D02*
X402158D01*
X405359D02*
X409448D01*
X416560D02*
X420116D01*
X421361D02*
X428295D01*
X432918D02*
X447675D01*
X451409D02*
X454965D01*
X456209D02*
X462788D01*
X470078D02*
X474167D01*
X484835D02*
X489991D01*
X389890Y647497D02*
X402336D01*
X405536D02*
X409626D01*
X416560D02*
X420116D01*
X421183D02*
X427761D01*
X432740D02*
X447675D01*
X451409D02*
X454965D01*
X456032D02*
X462255D01*
X470078D02*
X474167D01*
X485013D02*
X490169D01*
X390246Y647319D02*
X402514D01*
X405714D02*
X409626D01*
X416560D02*
X420116D01*
X421183D02*
X427228D01*
X432740D02*
X447853D01*
X451409D02*
X454965D01*
X456032D02*
X461366D01*
X470078D02*
X474167D01*
X485369D02*
X490169D01*
X390601Y647141D02*
X402692D01*
X405892D02*
X409626D01*
X416560D02*
X420116D01*
X421183D02*
X426517D01*
X432740D02*
X447853D01*
X451409D02*
X454965D01*
X456032D02*
X460477D01*
X470078D02*
X474167D01*
X485724D02*
X490347D01*
X390957Y646963D02*
X402869D01*
X406070D02*
X409804D01*
X416560D02*
X420116D01*
X422961D02*
X424917D01*
X432562D02*
X447853D01*
X451409D02*
X454965D01*
X456032D02*
X460654D01*
X470078D02*
X474167D01*
X485902D02*
X490347D01*
X391312Y646786D02*
X403047D01*
X406248D02*
X409804D01*
X416560D02*
X420116D01*
X432562D02*
X448031D01*
X451409D02*
X454965D01*
X456209D02*
X460832D01*
X470078D02*
X474167D01*
X486258D02*
X490347D01*
X391668Y646608D02*
X403225D01*
X406425D02*
X409804D01*
X416560D02*
X420116D01*
X432384D02*
X448031D01*
X451409D02*
X454965D01*
X456387D02*
X461010D01*
X470078D02*
X474167D01*
X486435D02*
X490525D01*
X392024Y646430D02*
X403225D01*
X406425D02*
X409804D01*
X416560D02*
X420116D01*
X432384D02*
X448208D01*
X451409D02*
X454965D01*
X456565D02*
X461188D01*
X470078D02*
X474167D01*
X486613D02*
X490525D01*
X392379Y646252D02*
X403403D01*
X406603D02*
X409804D01*
X416560D02*
X420116D01*
X432384D02*
X436118D01*
X444475D02*
X448208D01*
X451409D02*
X454965D01*
X456743D02*
X461366D01*
X470078D02*
X474167D01*
X486613D02*
X490525D01*
X392735Y646074D02*
X403581D01*
X406781D02*
X409981D01*
X416560D02*
X420116D01*
X432206D02*
X436118D01*
X444475D02*
X448386D01*
X451409D02*
X454965D01*
X456921D02*
X461543D01*
X470078D02*
X474167D01*
X486791D02*
X490525D01*
X393090Y645897D02*
X403758D01*
X406959D02*
X409981D01*
X416560D02*
X420116D01*
X432206D02*
X435940D01*
X444475D02*
X448386D01*
X451409D02*
X454965D01*
X457098D02*
X461721D01*
X470078D02*
X474167D01*
X486969D02*
X490703D01*
X393446Y645719D02*
X403758D01*
X406959D02*
X409981D01*
X416560D02*
X420116D01*
X432029D02*
X435940D01*
X444652D02*
X448564D01*
X451409D02*
X454965D01*
X457276D02*
X461899D01*
X470078D02*
X474167D01*
X486969D02*
X490525D01*
X393802Y645541D02*
X403936D01*
X407137D02*
X409981D01*
X416560D02*
X420116D01*
X432029D02*
X435940D01*
X444652D02*
X448564D01*
X451409D02*
X454965D01*
X457454D02*
X462077D01*
X470078D02*
X474167D01*
X486969D02*
X490525D01*
X393979Y645363D02*
X404114D01*
X407314D02*
X409981D01*
X416560D02*
X420116D01*
X432029D02*
X435762D01*
X444830D02*
X448742D01*
X451409D02*
X454965D01*
X457632D02*
X462255D01*
X470078D02*
X474167D01*
X487147D02*
X490525D01*
X394335Y645185D02*
X404114D01*
X407314D02*
X409981D01*
X416560D02*
X420116D01*
X431851D02*
X435762D01*
X444830D02*
X448742D01*
X451409D02*
X454965D01*
X457810D02*
X462432D01*
X470078D02*
X474167D01*
X487147D02*
X490525D01*
X394691Y645008D02*
X404292D01*
X407492D02*
X409981D01*
X416560D02*
X420116D01*
X431851D02*
X435585D01*
X445008D02*
X448742D01*
X451409D02*
X454965D01*
X457987D02*
X462610D01*
X470078D02*
X474167D01*
X487147D02*
X490525D01*
X395046Y644830D02*
X404292D01*
X407670D02*
X409981D01*
X416560D02*
X420116D01*
X431673D02*
X435585D01*
X445008D02*
X448920D01*
X451409D02*
X454965D01*
X458165D02*
X462788D01*
X470078D02*
X474167D01*
X487147D02*
X490703D01*
X395224Y644652D02*
X404470D01*
X407670D02*
X409981D01*
X416560D02*
X420116D01*
X431673D02*
X435585D01*
X445008D02*
X448920D01*
X451409D02*
X454965D01*
X458343D02*
X462966D01*
X470078D02*
X474167D01*
X486969D02*
X490525D01*
X395580Y644474D02*
X404470D01*
X407848D02*
X409981D01*
X416560D02*
X420116D01*
X431495D02*
X435407D01*
X445186D02*
X449097D01*
X451409D02*
X454965D01*
X458521D02*
X463144D01*
X470078D02*
X474167D01*
X486969D02*
X490525D01*
X395757Y644296D02*
X404647D01*
X407848D02*
X409981D01*
X416560D02*
X420116D01*
X431495D02*
X435407D01*
X445186D02*
X449097D01*
X451409D02*
X454965D01*
X458699D02*
X463321D01*
X470078D02*
X474167D01*
X486969D02*
X490525D01*
X395935Y644119D02*
X404647D01*
X408026D02*
X409981D01*
X416560D02*
X420116D01*
X431495D02*
X435229D01*
X445364D02*
X449275D01*
X451409D02*
X454965D01*
X458876D02*
X463499D01*
X470078D02*
X474167D01*
X486791D02*
X490525D01*
X396113Y643941D02*
X404825D01*
X408026D02*
X409981D01*
X416560D02*
X420116D01*
X431317D02*
X435229D01*
X445364D02*
X449275D01*
X451409D02*
X454965D01*
X459054D02*
X463677D01*
X470078D02*
X474167D01*
X486791D02*
X490525D01*
X396113Y643763D02*
X404825D01*
X408203D02*
X409981D01*
X416560D02*
X420116D01*
X431317D02*
X435229D01*
X445541D02*
X449453D01*
X451409D02*
X454965D01*
X459232D02*
X463855D01*
X470078D02*
X474167D01*
X486435D02*
X490525D01*
X396291Y643585D02*
X404825D01*
X408203D02*
X409981D01*
X416560D02*
X420116D01*
X431140D02*
X435051D01*
X445541D02*
X449453D01*
X451409D02*
X454965D01*
X459410D02*
X464033D01*
X470078D02*
X474167D01*
X486258D02*
X490347D01*
X396291Y643407D02*
X405003D01*
X408381D02*
X409981D01*
X416560D02*
X420116D01*
X431140D02*
X435051D01*
X445719D02*
X449631D01*
X451409D02*
X454965D01*
X459588D02*
X464033D01*
X470078D02*
X474167D01*
X485724D02*
X490347D01*
X396469Y643230D02*
X405003D01*
X408381D02*
X409981D01*
X416560D02*
X420116D01*
X431140D02*
X434873D01*
X445719D02*
X449631D01*
X451409D02*
X454965D01*
X459765D02*
X464210D01*
X470078D02*
X474167D01*
X477368D02*
X490347D01*
X396469Y643052D02*
X405003D01*
X408559D02*
X409981D01*
X416560D02*
X420116D01*
X430962D02*
X434873D01*
X445719D02*
X449809D01*
X451409D02*
X454965D01*
X459943D02*
X464388D01*
X470078D02*
X474167D01*
X477368D02*
X490169D01*
X396646Y642874D02*
X405181D01*
X408559D02*
X409981D01*
X416560D02*
X420116D01*
X430962D02*
X434873D01*
X445897D02*
X449809D01*
X451409D02*
X454965D01*
X460121D02*
X464566D01*
X470078D02*
X474167D01*
X477368D02*
X490169D01*
X396646Y642696D02*
X405181D01*
X408559D02*
X409981D01*
X416560D02*
X420116D01*
X430784D02*
X434696D01*
X445897D02*
X449809D01*
X451409D02*
X454965D01*
X460121D02*
X464744D01*
X470078D02*
X474167D01*
X477368D02*
X489991D01*
X396646Y642518D02*
X405181D01*
X408737D02*
X409981D01*
X416560D02*
X420116D01*
X430784D02*
X434696D01*
X446075D02*
X449986D01*
X451409D02*
X454965D01*
X460299D02*
X464922D01*
X470078D02*
X474167D01*
X477368D02*
X489991D01*
X396646Y642341D02*
X405181D01*
X408737D02*
X409981D01*
X416560D02*
X420116D01*
X430784D02*
X434518D01*
X446075D02*
X449986D01*
X451409D02*
X454965D01*
X460477D02*
X465099D01*
X470078D02*
X474167D01*
X477368D02*
X489814D01*
X396824Y642163D02*
X405181D01*
X408915D02*
X409981D01*
X416560D02*
X420116D01*
X430606D02*
X434518D01*
X446253D02*
X450164D01*
X451409D02*
X454965D01*
X460654D02*
X465277D01*
X470078D02*
X474167D01*
X477368D02*
X489636D01*
X396824Y641985D02*
X405359D01*
X408915D02*
X409981D01*
X416560D02*
X420116D01*
X430606D02*
X434518D01*
X446253D02*
X450164D01*
X451409D02*
X454965D01*
X460832D02*
X465455D01*
X470078D02*
X474167D01*
X477368D02*
X489636D01*
X396824Y641807D02*
X405359D01*
X408915D02*
X409981D01*
X416560D02*
X420116D01*
X430428D02*
X434340D01*
X446430D02*
X450342D01*
X451409D02*
X454965D01*
X461010D02*
X465633D01*
X470078D02*
X474167D01*
X477368D02*
X489458D01*
X396824Y641629D02*
X405359D01*
X409092D02*
X409804D01*
X416560D02*
X420116D01*
X430428D02*
X434340D01*
X446430D02*
X450342D01*
X451409D02*
X454965D01*
X461188D02*
X465811D01*
X470078D02*
X474167D01*
X477368D02*
X489280D01*
X396824Y641452D02*
X405359D01*
X409092D02*
X409804D01*
X416560D02*
X420116D01*
X430428D02*
X434162D01*
X446430D02*
X450520D01*
X451409D02*
X454965D01*
X461366D02*
X465988D01*
X470078D02*
X474167D01*
X477368D02*
X489102D01*
X396824Y641274D02*
X405359D01*
X409092D02*
X409804D01*
X416560D02*
X420116D01*
X430251D02*
X434162D01*
X446608D02*
X450520D01*
X451409D02*
X454965D01*
X461543D02*
X466166D01*
X470078D02*
X474167D01*
X477368D02*
X488925D01*
X396824Y641096D02*
X405359D01*
X409270D02*
X409804D01*
X416560D02*
X420116D01*
X430251D02*
X434162D01*
X446608D02*
X450698D01*
X451409D02*
X454965D01*
X461721D02*
X466344D01*
X470078D02*
X474167D01*
X477368D02*
X488747D01*
X396824Y640918D02*
X405359D01*
X409270D02*
X409804D01*
X416560D02*
X420116D01*
X430073D02*
X433984D01*
X446786D02*
X450698D01*
X451409D02*
X454965D01*
X461899D02*
X466522D01*
X470078D02*
X474167D01*
X477368D02*
X488569D01*
X396824Y640740D02*
X405359D01*
X409270D02*
X409804D01*
X416560D02*
X420116D01*
X430073D02*
X433984D01*
X446786D02*
X450875D01*
X451409D02*
X454965D01*
X462077D02*
X466700D01*
X470078D02*
X474167D01*
X477368D02*
X488213D01*
X396824Y640563D02*
X405359D01*
X409270D02*
X409804D01*
X416560D02*
X420116D01*
X430073D02*
X433984D01*
X446964D02*
X450875D01*
X451409D02*
X454965D01*
X462255D02*
X466877D01*
X470078D02*
X474167D01*
X477368D02*
X487858D01*
X396824Y640385D02*
X405536D01*
X409270D02*
X409626D01*
X416560D02*
X420116D01*
X429895D02*
X433807D01*
X446964D02*
X450875D01*
X451409D02*
X454965D01*
X462432D02*
X467055D01*
X470078D02*
X474167D01*
X477368D02*
X487502D01*
X396824Y640207D02*
X405536D01*
X416560D02*
X420116D01*
X429895D02*
X433807D01*
X447142D02*
X451053D01*
X451409D02*
X454965D01*
X462610D02*
X467233D01*
X470078D02*
X474167D01*
X477368D02*
X487147D01*
X396646Y640029D02*
X405536D01*
X416560D02*
X420116D01*
X429717D02*
X433629D01*
X447142D02*
X451053D01*
X451409D02*
X454965D01*
X462788D02*
X467411D01*
X470078D02*
X474167D01*
X477368D02*
X486435D01*
X396646Y639851D02*
X405536D01*
X416560D02*
X420116D01*
X429717D02*
X433629D01*
X447142D02*
X451231D01*
X451409D02*
X454965D01*
X462966D02*
X467411D01*
X470078D02*
X474167D01*
X477368D02*
X484835D01*
X396646Y639674D02*
X405536D01*
X396469Y639496D02*
X405359D01*
X396469Y639318D02*
X405359D01*
X396291Y639140D02*
X405359D01*
X396113Y638962D02*
X405359D01*
X395935Y638785D02*
X405359D01*
X395757Y638607D02*
X405359D01*
X395580Y638429D02*
X405359D01*
X395224Y638251D02*
X405359D01*
X394868Y638073D02*
X405359D01*
X394335Y637896D02*
X405359D01*
X377977Y637718D02*
X405181D01*
X377977Y637540D02*
X405181D01*
X377977Y637362D02*
X405181D01*
X377977Y637184D02*
X405181D01*
X377977Y637007D02*
X405003D01*
X377977Y636829D02*
X405003D01*
X377977Y636651D02*
X405003D01*
X377977Y636473D02*
X404825D01*
X377977Y636295D02*
X404825D01*
X377977Y636118D02*
X404825D01*
X377977Y635940D02*
X404647D01*
X377977Y635762D02*
X404647D01*
X421005D02*
X429362D01*
X431317D02*
X435051D01*
X443052D02*
X454076D01*
X377977Y635584D02*
X404470D01*
X420294D02*
X429362D01*
X431317D02*
X435051D01*
X443052D02*
X454787D01*
X377977Y635406D02*
X404470D01*
X419760D02*
X429362D01*
X431317D02*
X435051D01*
X443052D02*
X455320D01*
X377977Y635229D02*
X404292D01*
X419405D02*
X429362D01*
X431317D02*
X435051D01*
X443052D02*
X455676D01*
X377977Y635051D02*
X404292D01*
X419049D02*
X429362D01*
X431317D02*
X435051D01*
X443052D02*
X456032D01*
X377977Y634873D02*
X404114D01*
X418871D02*
X429362D01*
X431317D02*
X435051D01*
X443052D02*
X456387D01*
X377977Y634695D02*
X403936D01*
X418516D02*
X429362D01*
X431317D02*
X435051D01*
X443052D02*
X456743D01*
X377977Y634517D02*
X403936D01*
X418338D02*
X429362D01*
X431317D02*
X435051D01*
X443052D02*
X457098D01*
X377977Y634340D02*
X403758D01*
X418160D02*
X429362D01*
X431317D02*
X435051D01*
X443052D02*
X457276D01*
X377977Y634162D02*
X403581D01*
X417982D02*
X429362D01*
X431317D02*
X435051D01*
X443052D02*
X457632D01*
X377977Y633984D02*
X403403D01*
X417805D02*
X429362D01*
X431317D02*
X435051D01*
X443052D02*
X457810D01*
X377977Y633806D02*
X403403D01*
X417805D02*
X429362D01*
X431317D02*
X435051D01*
X443052D02*
X457987D01*
X377977Y633628D02*
X403225D01*
X417627D02*
X429362D01*
X431317D02*
X435051D01*
X443052D02*
X458165D01*
X377977Y633451D02*
X403047D01*
X417449D02*
X429362D01*
X431317D02*
X435051D01*
X443052D02*
X458343D01*
X377977Y633273D02*
X402869D01*
X417449D02*
X429362D01*
X431317D02*
X435051D01*
X443052D02*
X458521D01*
X377977Y633095D02*
X402692D01*
X417271D02*
X429362D01*
X431317D02*
X435051D01*
X443052D02*
X458699D01*
X377977Y632917D02*
X402336D01*
X417271D02*
X429362D01*
X431317D02*
X435051D01*
X443052D02*
X458876D01*
X377977Y632739D02*
X402158D01*
X417093D02*
X429362D01*
X431317D02*
X435051D01*
X443052D02*
X459054D01*
X377977Y632562D02*
X401980D01*
X417093D02*
X429362D01*
X431317D02*
X435051D01*
X443052D02*
X459054D01*
X377977Y632384D02*
X401625D01*
X417093D02*
X421361D01*
X431317D02*
X435051D01*
X443052D02*
X446786D01*
X452653D02*
X459232D01*
X377977Y632206D02*
X401447D01*
X416916D02*
X421005D01*
X431317D02*
X435051D01*
X443052D02*
X446786D01*
X453365D02*
X459410D01*
X377977Y632028D02*
X401091D01*
X416916D02*
X420827D01*
X431317D02*
X435051D01*
X443052D02*
X446786D01*
X453720D02*
X459588D01*
X377977Y631850D02*
X400736D01*
X416916D02*
X420649D01*
X431317D02*
X435051D01*
X443052D02*
X446786D01*
X454254D02*
X459588D01*
X377977Y631673D02*
X400380D01*
X416916D02*
X420472D01*
X431317D02*
X435051D01*
X443052D02*
X446786D01*
X454609D02*
X459765D01*
X377977Y631495D02*
X399847D01*
X416738D02*
X420472D01*
X431317D02*
X435051D01*
X443052D02*
X446786D01*
X454787D02*
X459943D01*
X377977Y631317D02*
X399491D01*
X416738D02*
X420472D01*
X431317D02*
X435051D01*
X443052D02*
X446786D01*
X455143D02*
X459943D01*
X377977Y631139D02*
X398958D01*
X416738D02*
X420294D01*
X431317D02*
X435051D01*
X443052D02*
X446786D01*
X455320D02*
X460121D01*
X377977Y630961D02*
X398424D01*
X416738D02*
X420294D01*
X431317D02*
X435051D01*
X443052D02*
X446786D01*
X455498D02*
X460121D01*
X377977Y630784D02*
X397535D01*
X416738D02*
X420294D01*
X431317D02*
X435051D01*
X443052D02*
X446786D01*
X455676D02*
X460299D01*
X377977Y630606D02*
X396646D01*
X416738D02*
X420294D01*
X431317D02*
X435051D01*
X443052D02*
X446786D01*
X455854D02*
X460299D01*
X377977Y630428D02*
X395402D01*
X416738D02*
X420472D01*
X431317D02*
X435051D01*
X443052D02*
X446786D01*
X456032D02*
X460477D01*
X377977Y630250D02*
X385623D01*
X416738D02*
X420472D01*
X431317D02*
X435051D01*
X443052D02*
X446786D01*
X456032D02*
X460477D01*
X377977Y630072D02*
X385623D01*
X416738D02*
X420472D01*
X431317D02*
X435051D01*
X443052D02*
X446786D01*
X456209D02*
X460477D01*
X377977Y629895D02*
X385623D01*
X416916D02*
X420649D01*
X431317D02*
X435051D01*
X443052D02*
X446786D01*
X456387D02*
X460654D01*
X377977Y629717D02*
X385623D01*
X416916D02*
X420827D01*
X431317D02*
X435051D01*
X443052D02*
X446786D01*
X456387D02*
X460654D01*
X377977Y629539D02*
X385623D01*
X416916D02*
X421005D01*
X431317D02*
X435051D01*
X443052D02*
X446786D01*
X456565D02*
X460654D01*
X377977Y629361D02*
X385623D01*
X416916D02*
X421183D01*
X431317D02*
X435051D01*
X443052D02*
X446786D01*
X456743D02*
X460832D01*
X377977Y629183D02*
X385623D01*
X416916D02*
X421538D01*
X431317D02*
X435051D01*
X443052D02*
X446786D01*
X456743D02*
X460832D01*
X377977Y629006D02*
X385623D01*
X417093D02*
X421894D01*
X431317D02*
X435051D01*
X443052D02*
X446786D01*
X456921D02*
X460832D01*
X377977Y628828D02*
X385623D01*
X417093D02*
X422072D01*
X431317D02*
X435051D01*
X443052D02*
X446786D01*
X456921D02*
X461010D01*
X377977Y628650D02*
X385623D01*
X417093D02*
X422427D01*
X431317D02*
X435051D01*
X443052D02*
X446786D01*
X456921D02*
X461010D01*
X377977Y628472D02*
X385623D01*
X417271D02*
X422783D01*
X431317D02*
X435051D01*
X443052D02*
X446786D01*
X457098D02*
X461010D01*
X377977Y628294D02*
X385623D01*
X417449D02*
X423139D01*
X431317D02*
X435051D01*
X443052D02*
X446786D01*
X457098D02*
X461010D01*
X377977Y628117D02*
X385623D01*
X417449D02*
X423494D01*
X431317D02*
X435051D01*
X443052D02*
X446786D01*
X457098D02*
X461010D01*
X377977Y627939D02*
X385623D01*
X417627D02*
X423850D01*
X431317D02*
X435051D01*
X443052D02*
X446786D01*
X457276D02*
X461188D01*
X377977Y627761D02*
X385623D01*
X417805D02*
X424205D01*
X431317D02*
X435051D01*
X443052D02*
X446786D01*
X457276D02*
X461188D01*
X377977Y627583D02*
X385623D01*
X417805D02*
X424739D01*
X431317D02*
X435051D01*
X443052D02*
X446786D01*
X457276D02*
X461188D01*
X377977Y627405D02*
X385623D01*
X417982D02*
X425094D01*
X431317D02*
X435051D01*
X443052D02*
X446786D01*
X457276D02*
X461188D01*
X377977Y627228D02*
X385623D01*
X418160D02*
X425450D01*
X431317D02*
X435051D01*
X443052D02*
X446786D01*
X457276D02*
X461188D01*
X377977Y627050D02*
X385623D01*
X418338D02*
X425806D01*
X431317D02*
X435051D01*
X443052D02*
X446786D01*
X457454D02*
X461188D01*
X377977Y626872D02*
X385623D01*
X418516D02*
X425983D01*
X431317D02*
X435051D01*
X443052D02*
X446786D01*
X457454D02*
X461188D01*
X377977Y626694D02*
X385623D01*
X418694D02*
X426339D01*
X431317D02*
X435051D01*
X443052D02*
X446786D01*
X457454D02*
X461188D01*
X377977Y626516D02*
X385623D01*
X419049D02*
X426695D01*
X431317D02*
X435051D01*
X443052D02*
X446786D01*
X457454D02*
X461188D01*
X377977Y626339D02*
X385623D01*
X419227D02*
X426872D01*
X431317D02*
X435051D01*
X443052D02*
X446786D01*
X457454D02*
X461188D01*
X377977Y626161D02*
X385623D01*
X419405D02*
X427228D01*
X431317D02*
X435051D01*
X443052D02*
X446786D01*
X457454D02*
X461188D01*
X377977Y625983D02*
X385623D01*
X419760D02*
X427406D01*
X431317D02*
X435051D01*
X443052D02*
X446786D01*
X457454D02*
X461188D01*
X377977Y625805D02*
X385623D01*
X420116D02*
X427584D01*
X431317D02*
X435051D01*
X443052D02*
X446786D01*
X457454D02*
X461188D01*
X377977Y625627D02*
X385623D01*
X420294D02*
X427939D01*
X431317D02*
X435051D01*
X443052D02*
X446786D01*
X457454D02*
X461188D01*
X377977Y625450D02*
X385623D01*
X420649D02*
X428117D01*
X431317D02*
X435051D01*
X443052D02*
X446786D01*
X457454D02*
X461188D01*
X377977Y625272D02*
X385623D01*
X421005D02*
X428295D01*
X431317D02*
X435051D01*
X443052D02*
X446786D01*
X457454D02*
X461188D01*
X377977Y625094D02*
X385623D01*
X421361D02*
X428473D01*
X431317D02*
X435051D01*
X443052D02*
X446786D01*
X457454D02*
X461188D01*
X377977Y624916D02*
X385623D01*
X421716D02*
X428650D01*
X431317D02*
X435051D01*
X443052D02*
X446786D01*
X457276D02*
X461188D01*
X377977Y624738D02*
X385623D01*
X422072D02*
X428650D01*
X431317D02*
X435051D01*
X443052D02*
X446786D01*
X457276D02*
X461188D01*
X377977Y624561D02*
X385623D01*
X422427D02*
X428828D01*
X431317D02*
X435051D01*
X443052D02*
X446786D01*
X457276D02*
X461188D01*
X377977Y624383D02*
X385623D01*
X422961D02*
X429006D01*
X431317D02*
X435051D01*
X443052D02*
X446786D01*
X457276D02*
X461188D01*
X377977Y624205D02*
X385623D01*
X423316D02*
X429184D01*
X431317D02*
X435051D01*
X443052D02*
X446786D01*
X457276D02*
X461188D01*
X377977Y624027D02*
X385623D01*
X423672D02*
X429184D01*
X431317D02*
X435051D01*
X443052D02*
X446786D01*
X457276D02*
X461010D01*
X377977Y623849D02*
X385623D01*
X424028D02*
X429362D01*
X431317D02*
X435051D01*
X443052D02*
X446786D01*
X457098D02*
X461010D01*
X377977Y623672D02*
X385623D01*
X424205D02*
X429362D01*
X431317D02*
X435051D01*
X443052D02*
X446786D01*
X457098D02*
X461010D01*
X377977Y623494D02*
X385623D01*
X424561D02*
X429539D01*
X431317D02*
X435051D01*
X443052D02*
X446786D01*
X457098D02*
X461010D01*
X377977Y623316D02*
X385623D01*
X424917D02*
X429539D01*
X431317D02*
X435051D01*
X443052D02*
X446786D01*
X456921D02*
X461010D01*
X377977Y623138D02*
X385623D01*
X425094D02*
X429539D01*
X431317D02*
X435051D01*
X443052D02*
X446786D01*
X456921D02*
X461010D01*
X377977Y622960D02*
X385623D01*
X425272D02*
X429717D01*
X431317D02*
X435051D01*
X443052D02*
X446786D01*
X456921D02*
X460832D01*
X377977Y622783D02*
X385623D01*
X425450D02*
X429717D01*
X431317D02*
X435051D01*
X443052D02*
X446786D01*
X456743D02*
X460832D01*
X377977Y622605D02*
X385623D01*
X425628D02*
X429717D01*
X431317D02*
X435051D01*
X443052D02*
X446786D01*
X456743D02*
X460832D01*
X377977Y622427D02*
X385623D01*
X425806D02*
X429717D01*
X431317D02*
X435051D01*
X443052D02*
X446786D01*
X456565D02*
X460654D01*
X377977Y622249D02*
X385623D01*
X425983D02*
X429895D01*
X431495D02*
X435051D01*
X443052D02*
X446786D01*
X456565D02*
X460654D01*
X377977Y622071D02*
X385623D01*
X426161D02*
X429895D01*
X431495D02*
X435051D01*
X443052D02*
X446786D01*
X456387D02*
X460654D01*
X377977Y621894D02*
X385623D01*
X426161D02*
X429895D01*
X431495D02*
X435229D01*
X442874D02*
X446786D01*
X456387D02*
X460654D01*
X377977Y621716D02*
X385623D01*
X426161D02*
X429895D01*
X431495D02*
X435229D01*
X442874D02*
X446786D01*
X456209D02*
X460477D01*
X377977Y621538D02*
X385623D01*
X426339D02*
X429895D01*
X431495D02*
X435229D01*
X442874D02*
X446786D01*
X456032D02*
X460477D01*
X377977Y621360D02*
X385623D01*
X426339D02*
X429895D01*
X431495D02*
X435229D01*
X442874D02*
X446786D01*
X455854D02*
X460299D01*
X377977Y621182D02*
X385623D01*
X426339D02*
X429895D01*
X431495D02*
X435407D01*
X442697D02*
X446608D01*
X455854D02*
X460299D01*
X377977Y621005D02*
X385623D01*
X426339D02*
X429895D01*
X431673D02*
X435407D01*
X442697D02*
X446608D01*
X455676D02*
X460121D01*
X377977Y620827D02*
X385623D01*
X426161D02*
X429895D01*
X431673D02*
X435585D01*
X442519D02*
X446608D01*
X455498D02*
X460121D01*
X377977Y620649D02*
X385623D01*
X426161D02*
X429717D01*
X431673D02*
X435585D01*
X442519D02*
X446608D01*
X455320D02*
X459943D01*
X377977Y620471D02*
X385623D01*
X426161D02*
X429717D01*
X431851D02*
X435762D01*
X442341D02*
X446430D01*
X454965D02*
X459943D01*
X377977Y620293D02*
X385623D01*
X425983D02*
X429717D01*
X431851D02*
X435940D01*
X442163D02*
X446430D01*
X454787D02*
X459765D01*
X377977Y620116D02*
X385623D01*
X425983D02*
X429717D01*
X431851D02*
X436118D01*
X441985D02*
X446430D01*
X454431D02*
X459765D01*
X377977Y619938D02*
X385623D01*
X425806D02*
X429717D01*
X432029D02*
X436296D01*
X441808D02*
X446253D01*
X454076D02*
X459588D01*
X377977Y619760D02*
X385623D01*
X425628D02*
X429539D01*
X432029D02*
X436474D01*
X441630D02*
X446253D01*
X453720D02*
X459410D01*
X377977Y619582D02*
X385267D01*
X425094D02*
X429539D01*
X432206D02*
X436829D01*
X441274D02*
X446075D01*
X448208D02*
X448920D01*
X453187D02*
X459410D01*
X377977Y619404D02*
X384912D01*
X424028D02*
X429539D01*
X432206D02*
X437185D01*
X440741D02*
X446075D01*
X448031D02*
X450520D01*
X452120D02*
X459232D01*
X377977Y619227D02*
X384556D01*
X416560D02*
X429362D01*
X432384D02*
X437896D01*
X440207D02*
X445897D01*
X448031D02*
X459054D01*
X377977Y619049D02*
X384023D01*
X416560D02*
X429362D01*
X432384D02*
X445719D01*
X447853D02*
X458876D01*
X377977Y618871D02*
X383667D01*
X416560D02*
X429362D01*
X432562D02*
X445719D01*
X447853D02*
X458699D01*
X377977Y618693D02*
X383311D01*
X416560D02*
X429184D01*
X432740D02*
X445541D01*
X447675D02*
X458521D01*
X377977Y618515D02*
X382778D01*
X416560D02*
X429184D01*
X432918D02*
X445364D01*
X447675D02*
X458343D01*
X377977Y618338D02*
X382422D01*
X416560D02*
X429006D01*
X432918D02*
X445364D01*
X447497D02*
X458165D01*
X377977Y618160D02*
X382067D01*
X416560D02*
X428828D01*
X433095D02*
X445186D01*
X447497D02*
X457987D01*
X377977Y617982D02*
X381533D01*
X416560D02*
X428828D01*
X433273D02*
X445008D01*
X447319D02*
X457810D01*
X377977Y617804D02*
X381178D01*
X416560D02*
X428650D01*
X433451D02*
X444830D01*
X447319D02*
X457454D01*
X377977Y617626D02*
X380822D01*
X416560D02*
X428473D01*
X433629D02*
X444475D01*
X447142D02*
X457098D01*
X377977Y617449D02*
X380467D01*
X416560D02*
X428295D01*
X433984D02*
X444297D01*
X447142D02*
X456921D01*
X377977Y617271D02*
X379933D01*
X416560D02*
X428117D01*
X434162D02*
X444119D01*
X446964D02*
X456565D01*
X377977Y617093D02*
X379578D01*
X416560D02*
X427939D01*
X434340D02*
X443763D01*
X446964D02*
X456209D01*
X377977Y616915D02*
X379222D01*
X416560D02*
X427584D01*
X434696D02*
X443586D01*
X446786D02*
X455676D01*
X377977Y616737D02*
X378689D01*
X416560D02*
X427228D01*
X435051D02*
X443230D01*
X446786D02*
X455320D01*
X377977Y616560D02*
X378333D01*
X416560D02*
X426872D01*
X435407D02*
X442697D01*
X447142D02*
X454609D01*
X416560Y616382D02*
X426517D01*
X435940D02*
X442341D01*
X447675D02*
X453898D01*
X416560Y616204D02*
X425983D01*
X436474D02*
X441808D01*
X448920D02*
X452653D01*
X416560Y616026D02*
X425094D01*
X437363D02*
X440919D01*
X377266Y606781D02*
X509372D01*
X377266Y606603D02*
X509372D01*
X377266Y606425D02*
X509372D01*
X377266Y606247D02*
X509372D01*
X377266Y606069D02*
X509372D01*
X377266Y605892D02*
X509372D01*
X377266Y605714D02*
X509372D01*
X381000Y595401D02*
X383667D01*
X386156D02*
X389001D01*
X393090D02*
X395757D01*
X397180D02*
X406781D01*
X412471D02*
X418694D01*
X424383D02*
X433095D01*
X442341D02*
X445186D01*
X453365D02*
X455676D01*
X464388D02*
X467233D01*
X472567D02*
X475412D01*
X479323D02*
X482168D01*
X488036D02*
X490347D01*
X496214D02*
X498704D01*
X503504D02*
X506171D01*
X381000Y595224D02*
X383667D01*
X386156D02*
X389001D01*
X393090D02*
X395757D01*
X397180D02*
X406781D01*
X412471D02*
X419227D01*
X424383D02*
X433095D01*
X441808D02*
X445719D01*
X453365D02*
X455676D01*
X463855D02*
X467766D01*
X472567D02*
X475412D01*
X479323D02*
X482168D01*
X488036D02*
X490347D01*
X496214D02*
X498881D01*
X503504D02*
X506171D01*
X381000Y595046D02*
X383667D01*
X386156D02*
X389001D01*
X393090D02*
X395757D01*
X397180D02*
X406781D01*
X412471D02*
X419760D01*
X424383D02*
X433095D01*
X441274D02*
X446075D01*
X453187D02*
X455854D01*
X463321D02*
X468122D01*
X472567D02*
X475412D01*
X479323D02*
X482168D01*
X487858D02*
X490525D01*
X496214D02*
X498881D01*
X503504D02*
X506171D01*
X381000Y594868D02*
X383667D01*
X386156D02*
X389001D01*
X393090D02*
X395757D01*
X397180D02*
X406781D01*
X412471D02*
X420116D01*
X424383D02*
X433095D01*
X441096D02*
X446430D01*
X453187D02*
X455854D01*
X463144D02*
X468478D01*
X472567D02*
X475412D01*
X479323D02*
X482168D01*
X487858D02*
X490525D01*
X496214D02*
X499059D01*
X503504D02*
X506171D01*
X381000Y594690D02*
X383667D01*
X386156D02*
X389001D01*
X393090D02*
X395757D01*
X397180D02*
X406781D01*
X412471D02*
X420294D01*
X424383D02*
X433095D01*
X440741D02*
X446786D01*
X453009D02*
X456032D01*
X462788D02*
X468655D01*
X472567D02*
X475412D01*
X479323D02*
X482168D01*
X487680D02*
X490525D01*
X496214D02*
X499059D01*
X503504D02*
X506171D01*
X381000Y594512D02*
X383667D01*
X386156D02*
X389001D01*
X393090D02*
X395757D01*
X397180D02*
X406781D01*
X412471D02*
X420472D01*
X424383D02*
X433095D01*
X440563D02*
X446964D01*
X453009D02*
X456032D01*
X462610D02*
X469011D01*
X472567D02*
X475412D01*
X479323D02*
X482168D01*
X487680D02*
X490703D01*
X496214D02*
X499237D01*
X503504D02*
X506171D01*
X381000Y594335D02*
X383667D01*
X386156D02*
X389001D01*
X393090D02*
X395757D01*
X397180D02*
X406781D01*
X412471D02*
X420649D01*
X424383D02*
X433095D01*
X440385D02*
X447142D01*
X453009D02*
X456032D01*
X462432D02*
X469189D01*
X472567D02*
X475412D01*
X479323D02*
X482168D01*
X487680D02*
X490703D01*
X496214D02*
X499415D01*
X503504D02*
X506171D01*
X381000Y594157D02*
X383667D01*
X386156D02*
X389001D01*
X393090D02*
X395757D01*
X397180D02*
X406781D01*
X412471D02*
X420827D01*
X424383D02*
X433095D01*
X440207D02*
X447319D01*
X452831D02*
X456209D01*
X462255D02*
X469367D01*
X472567D02*
X475412D01*
X479323D02*
X482168D01*
X487502D02*
X490703D01*
X496214D02*
X499415D01*
X503504D02*
X506171D01*
X381000Y593979D02*
X383667D01*
X386156D02*
X389001D01*
X393090D02*
X395757D01*
X397180D02*
X406781D01*
X412471D02*
X421005D01*
X424383D02*
X433095D01*
X440030D02*
X447497D01*
X452831D02*
X456209D01*
X462077D02*
X469544D01*
X472567D02*
X475412D01*
X479323D02*
X482168D01*
X487502D02*
X490880D01*
X496214D02*
X499593D01*
X503504D02*
X506171D01*
X381000Y593801D02*
X383667D01*
X386156D02*
X389001D01*
X393090D02*
X395757D01*
X397180D02*
X406781D01*
X412471D02*
X421183D01*
X424383D02*
X433095D01*
X439852D02*
X447675D01*
X452831D02*
X456209D01*
X461899D02*
X469722D01*
X472567D02*
X475412D01*
X479323D02*
X482168D01*
X487502D02*
X490880D01*
X496214D02*
X499770D01*
X503504D02*
X506171D01*
X381000Y593623D02*
X383667D01*
X386156D02*
X389001D01*
X393090D02*
X395757D01*
X397180D02*
X406781D01*
X412471D02*
X421361D01*
X424383D02*
X433095D01*
X439674D02*
X447675D01*
X452653D02*
X456387D01*
X461721D02*
X469722D01*
X472567D02*
X475412D01*
X479323D02*
X482168D01*
X487324D02*
X491058D01*
X496214D02*
X499770D01*
X503504D02*
X506171D01*
X381000Y593446D02*
X383667D01*
X386156D02*
X389001D01*
X393090D02*
X395757D01*
X397180D02*
X406781D01*
X412471D02*
X421361D01*
X424383D02*
X433095D01*
X439496D02*
X447853D01*
X452653D02*
X456387D01*
X461543D02*
X469900D01*
X472567D02*
X475412D01*
X479323D02*
X482168D01*
X487324D02*
X491058D01*
X496214D02*
X499948D01*
X503504D02*
X506171D01*
X381000Y593268D02*
X383667D01*
X386156D02*
X389001D01*
X393090D02*
X395757D01*
X397358D02*
X406781D01*
X412471D02*
X421538D01*
X424383D02*
X433095D01*
X439496D02*
X448031D01*
X452653D02*
X456387D01*
X461543D02*
X470078D01*
X472567D02*
X475412D01*
X479323D02*
X482168D01*
X487324D02*
X491058D01*
X496214D02*
X500126D01*
X503504D02*
X506171D01*
X381000Y593090D02*
X383667D01*
X386156D02*
X389001D01*
X393090D02*
X395757D01*
X397358D02*
X403403D01*
X403581D02*
X406781D01*
X412471D02*
X415315D01*
X415493D02*
X421538D01*
X424383D02*
X427228D01*
X427406D02*
X433095D01*
X439318D02*
X448031D01*
X452476D02*
X456565D01*
X461366D02*
X470078D01*
X472567D02*
X475412D01*
X479323D02*
X482168D01*
X487147D02*
X491236D01*
X496214D02*
X500126D01*
X503504D02*
X506171D01*
X381000Y592912D02*
X383667D01*
X386156D02*
X389001D01*
X393090D02*
X395757D01*
X400558D02*
X403403D01*
X412471D02*
X415315D01*
X417982D02*
X421716D01*
X424383D02*
X427228D01*
X439318D02*
X443052D01*
X444475D02*
X448208D01*
X452476D02*
X456565D01*
X461366D02*
X464922D01*
X466522D02*
X470256D01*
X472567D02*
X475412D01*
X479323D02*
X482168D01*
X487147D02*
X491236D01*
X496214D02*
X500304D01*
X503504D02*
X506171D01*
X381000Y592734D02*
X383667D01*
X386156D02*
X389001D01*
X393090D02*
X395757D01*
X400558D02*
X403403D01*
X412471D02*
X415315D01*
X418338D02*
X421716D01*
X424383D02*
X427228D01*
X439141D02*
X442519D01*
X445008D02*
X448208D01*
X452476D02*
X456743D01*
X461188D02*
X464566D01*
X467055D02*
X470256D01*
X472567D02*
X475412D01*
X479323D02*
X482168D01*
X486969D02*
X491236D01*
X496214D02*
X500304D01*
X503504D02*
X506171D01*
X381000Y592557D02*
X383667D01*
X386156D02*
X389001D01*
X393090D02*
X395757D01*
X400558D02*
X403403D01*
X412471D02*
X415315D01*
X418516D02*
X421716D01*
X424383D02*
X427228D01*
X439141D02*
X442341D01*
X445186D02*
X448208D01*
X452298D02*
X456743D01*
X461188D02*
X464388D01*
X467233D02*
X470256D01*
X472567D02*
X475412D01*
X479323D02*
X482168D01*
X486969D02*
X491414D01*
X496214D02*
X500482D01*
X503504D02*
X506171D01*
X381000Y592379D02*
X383667D01*
X386156D02*
X389001D01*
X393090D02*
X395757D01*
X400558D02*
X403403D01*
X412471D02*
X415315D01*
X418694D02*
X421894D01*
X424383D02*
X427228D01*
X439141D02*
X442163D01*
X445364D02*
X448386D01*
X452298D02*
X456743D01*
X461188D02*
X464210D01*
X467411D02*
X470433D01*
X472567D02*
X475412D01*
X479323D02*
X482168D01*
X486969D02*
X491414D01*
X496214D02*
X500659D01*
X503504D02*
X506171D01*
X381000Y592201D02*
X383667D01*
X386156D02*
X389001D01*
X393090D02*
X395757D01*
X400558D02*
X403403D01*
X412471D02*
X415315D01*
X418871D02*
X421894D01*
X424383D02*
X427228D01*
X439141D02*
X441985D01*
X445364D02*
X448386D01*
X452120D02*
X456921D01*
X461188D02*
X464033D01*
X467411D02*
X470433D01*
X472567D02*
X475412D01*
X479323D02*
X482168D01*
X486791D02*
X491414D01*
X496214D02*
X500659D01*
X503504D02*
X506171D01*
X381000Y592023D02*
X383667D01*
X386156D02*
X389001D01*
X393090D02*
X395757D01*
X400558D02*
X403403D01*
X412471D02*
X415315D01*
X418871D02*
X421894D01*
X424383D02*
X427228D01*
X438963D02*
X441985D01*
X445541D02*
X448386D01*
X452120D02*
X456921D01*
X461010D02*
X464033D01*
X467589D02*
X470433D01*
X472567D02*
X475412D01*
X479323D02*
X482168D01*
X486791D02*
X491592D01*
X496214D02*
X500837D01*
X503504D02*
X506171D01*
X381000Y591845D02*
X383667D01*
X386156D02*
X389001D01*
X393090D02*
X395757D01*
X400558D02*
X403403D01*
X412471D02*
X415315D01*
X419049D02*
X421894D01*
X424383D02*
X427228D01*
X438963D02*
X441985D01*
X445541D02*
X448564D01*
X452120D02*
X456921D01*
X461010D02*
X464033D01*
X467589D02*
X470611D01*
X472567D02*
X475412D01*
X479323D02*
X482168D01*
X486791D02*
X491592D01*
X496214D02*
X501015D01*
X503504D02*
X506171D01*
X381000Y591668D02*
X383667D01*
X386156D02*
X389001D01*
X393090D02*
X395757D01*
X400558D02*
X403403D01*
X412471D02*
X415315D01*
X419049D02*
X421894D01*
X424383D02*
X427228D01*
X438963D02*
X441808D01*
X445719D02*
X448564D01*
X451942D02*
X457098D01*
X461010D02*
X463855D01*
X467766D02*
X470611D01*
X472567D02*
X475412D01*
X479323D02*
X482168D01*
X486613D02*
X491769D01*
X496214D02*
X501015D01*
X503504D02*
X506171D01*
X381000Y591490D02*
X383667D01*
X386156D02*
X389001D01*
X393090D02*
X395757D01*
X400558D02*
X403403D01*
X412471D02*
X415315D01*
X419049D02*
X422072D01*
X424383D02*
X427228D01*
X438963D02*
X441808D01*
X445719D02*
X448564D01*
X451942D02*
X457098D01*
X461010D02*
X463855D01*
X467766D02*
X470611D01*
X472567D02*
X475412D01*
X479323D02*
X482168D01*
X486613D02*
X491769D01*
X496214D02*
X501193D01*
X503504D02*
X506171D01*
X381000Y591312D02*
X383667D01*
X386156D02*
X389001D01*
X393090D02*
X395757D01*
X400558D02*
X403403D01*
X412471D02*
X415315D01*
X419049D02*
X422072D01*
X424383D02*
X427228D01*
X438963D02*
X441808D01*
X445719D02*
X448564D01*
X451942D02*
X457098D01*
X461010D02*
X463855D01*
X467766D02*
X470611D01*
X472567D02*
X475412D01*
X479323D02*
X482168D01*
X486613D02*
X489102D01*
X489280D02*
X491769D01*
X496214D02*
X501371D01*
X503504D02*
X506171D01*
X381000Y591134D02*
X383667D01*
X386156D02*
X389001D01*
X393090D02*
X395757D01*
X400558D02*
X403403D01*
X412471D02*
X415315D01*
X419049D02*
X422072D01*
X424383D02*
X427228D01*
X438963D02*
X441808D01*
X451764D02*
X457276D01*
X461010D02*
X463855D01*
X472567D02*
X475412D01*
X479323D02*
X482168D01*
X486435D02*
X489102D01*
X489280D02*
X491947D01*
X496214D02*
X501371D01*
X503504D02*
X506171D01*
X381000Y590956D02*
X383667D01*
X386156D02*
X389001D01*
X393090D02*
X395757D01*
X400558D02*
X403403D01*
X412471D02*
X415315D01*
X419227D02*
X422072D01*
X424383D02*
X427228D01*
X438963D02*
X441808D01*
X451764D02*
X454431D01*
X454609D02*
X457276D01*
X461010D02*
X463855D01*
X472567D02*
X475412D01*
X479323D02*
X482168D01*
X486435D02*
X489102D01*
X489280D02*
X491947D01*
X496214D02*
X501548D01*
X503504D02*
X506171D01*
X381000Y590779D02*
X383667D01*
X386156D02*
X389001D01*
X393090D02*
X395757D01*
X400558D02*
X403403D01*
X412471D02*
X415315D01*
X419227D02*
X422072D01*
X424383D02*
X427228D01*
X438963D02*
X441808D01*
X451587D02*
X454431D01*
X454787D02*
X457454D01*
X461010D02*
X463855D01*
X472567D02*
X475412D01*
X479323D02*
X482168D01*
X486258D02*
X489102D01*
X489458D02*
X491947D01*
X496214D02*
X501726D01*
X503504D02*
X506171D01*
X381000Y590601D02*
X383667D01*
X386156D02*
X389001D01*
X393090D02*
X395757D01*
X400558D02*
X403403D01*
X412471D02*
X415315D01*
X419227D02*
X422072D01*
X424383D02*
X427228D01*
X438963D02*
X441808D01*
X451587D02*
X454431D01*
X454787D02*
X457454D01*
X461010D02*
X463855D01*
X472567D02*
X475412D01*
X479323D02*
X482168D01*
X486258D02*
X489102D01*
X489458D02*
X492125D01*
X496214D02*
X501726D01*
X503504D02*
X506171D01*
X381000Y590423D02*
X383667D01*
X386156D02*
X389001D01*
X393090D02*
X395757D01*
X400558D02*
X403403D01*
X412471D02*
X415315D01*
X419227D02*
X422072D01*
X424383D02*
X427228D01*
X438785D02*
X441808D01*
X451587D02*
X454254D01*
X454787D02*
X457454D01*
X460832D02*
X463855D01*
X472567D02*
X475412D01*
X479323D02*
X482168D01*
X486258D02*
X488925D01*
X489458D02*
X492125D01*
X496214D02*
X501904D01*
X503504D02*
X506171D01*
X381000Y590245D02*
X383667D01*
X386156D02*
X389001D01*
X393090D02*
X395757D01*
X400558D02*
X403403D01*
X412471D02*
X415315D01*
X419227D02*
X422072D01*
X424383D02*
X432206D01*
X438785D02*
X441630D01*
X451409D02*
X454254D01*
X454965D02*
X457632D01*
X460832D02*
X463677D01*
X472567D02*
X482168D01*
X486080D02*
X488925D01*
X489636D02*
X492303D01*
X496214D02*
X501904D01*
X503504D02*
X506171D01*
X381000Y590067D02*
X383667D01*
X386156D02*
X389001D01*
X393090D02*
X395757D01*
X400558D02*
X403403D01*
X412471D02*
X415315D01*
X419227D02*
X422072D01*
X424383D02*
X432206D01*
X438785D02*
X441630D01*
X451409D02*
X454254D01*
X454965D02*
X457632D01*
X460832D02*
X463677D01*
X472567D02*
X482168D01*
X486080D02*
X488925D01*
X489636D02*
X492303D01*
X496214D02*
X502082D01*
X503504D02*
X506171D01*
X381000Y589890D02*
X383667D01*
X386156D02*
X389001D01*
X393090D02*
X395757D01*
X400558D02*
X403403D01*
X412471D02*
X415315D01*
X419227D02*
X422072D01*
X424383D02*
X432206D01*
X438785D02*
X441630D01*
X451409D02*
X454076D01*
X454965D02*
X457632D01*
X460832D02*
X463677D01*
X472567D02*
X482168D01*
X486080D02*
X488747D01*
X489636D02*
X492303D01*
X496214D02*
X498881D01*
X499059D02*
X502260D01*
X503504D02*
X506171D01*
X381000Y589712D02*
X383667D01*
X386156D02*
X389001D01*
X393090D02*
X395757D01*
X400558D02*
X403403D01*
X412471D02*
X415315D01*
X419227D02*
X422072D01*
X424383D02*
X432206D01*
X438785D02*
X441630D01*
X451231D02*
X454076D01*
X455143D02*
X457810D01*
X460832D02*
X463677D01*
X472567D02*
X482168D01*
X485902D02*
X488747D01*
X489814D02*
X492481D01*
X496214D02*
X498881D01*
X499237D02*
X502260D01*
X503504D02*
X506171D01*
X381000Y589534D02*
X383667D01*
X386156D02*
X389001D01*
X393090D02*
X395757D01*
X400558D02*
X403403D01*
X412471D02*
X415315D01*
X419227D02*
X422072D01*
X424383D02*
X432206D01*
X438785D02*
X441630D01*
X451231D02*
X454076D01*
X455143D02*
X457810D01*
X460832D02*
X463677D01*
X472567D02*
X482168D01*
X485902D02*
X488747D01*
X489814D02*
X492481D01*
X496214D02*
X498881D01*
X499237D02*
X502437D01*
X503504D02*
X506171D01*
X381000Y589356D02*
X383667D01*
X386156D02*
X389001D01*
X393090D02*
X395757D01*
X400558D02*
X403403D01*
X412471D02*
X415315D01*
X419227D02*
X422072D01*
X424383D02*
X432206D01*
X438785D02*
X441630D01*
X451231D02*
X453898D01*
X455143D02*
X457987D01*
X460832D02*
X463677D01*
X472567D02*
X482168D01*
X485902D02*
X488569D01*
X489814D02*
X492481D01*
X496214D02*
X498881D01*
X499415D02*
X502615D01*
X503504D02*
X506171D01*
X381000Y589178D02*
X383667D01*
X386156D02*
X389001D01*
X393090D02*
X395757D01*
X400558D02*
X403403D01*
X412471D02*
X415315D01*
X419227D02*
X422072D01*
X424383D02*
X432206D01*
X438785D02*
X441630D01*
X451053D02*
X453898D01*
X455320D02*
X457987D01*
X460832D02*
X463677D01*
X472567D02*
X482168D01*
X485724D02*
X488569D01*
X489991D02*
X492658D01*
X496214D02*
X498881D01*
X499593D02*
X502615D01*
X503504D02*
X506171D01*
X381000Y589001D02*
X383667D01*
X386156D02*
X389001D01*
X393090D02*
X395757D01*
X400558D02*
X403403D01*
X412471D02*
X415315D01*
X419227D02*
X422072D01*
X424383D02*
X432206D01*
X438785D02*
X441630D01*
X451053D02*
X453898D01*
X455320D02*
X457987D01*
X460832D02*
X463677D01*
X472567D02*
X482168D01*
X485724D02*
X488391D01*
X489991D02*
X492658D01*
X496214D02*
X498881D01*
X499593D02*
X502793D01*
X503504D02*
X506171D01*
X381000Y588823D02*
X383667D01*
X386156D02*
X389001D01*
X393090D02*
X395757D01*
X400558D02*
X403403D01*
X412471D02*
X415315D01*
X419227D02*
X422072D01*
X424383D02*
X432206D01*
X438785D02*
X441630D01*
X450875D02*
X453720D01*
X455320D02*
X458165D01*
X460832D02*
X463677D01*
X472567D02*
X482168D01*
X485546D02*
X488391D01*
X489991D02*
X492836D01*
X496214D02*
X498881D01*
X499770D02*
X502971D01*
X503504D02*
X506171D01*
X381000Y588645D02*
X383667D01*
X386156D02*
X389001D01*
X393090D02*
X395757D01*
X400558D02*
X403403D01*
X412471D02*
X415315D01*
X419227D02*
X422072D01*
X424383D02*
X432206D01*
X438785D02*
X441630D01*
X450875D02*
X453720D01*
X455498D02*
X458165D01*
X460832D02*
X463677D01*
X472567D02*
X482168D01*
X485546D02*
X488391D01*
X490169D02*
X492836D01*
X496214D02*
X498881D01*
X499948D02*
X502971D01*
X503504D02*
X506171D01*
X381000Y588467D02*
X383667D01*
X386156D02*
X389001D01*
X393090D02*
X395757D01*
X400558D02*
X403403D01*
X412471D02*
X415315D01*
X419227D02*
X422072D01*
X424383D02*
X432206D01*
X438785D02*
X441630D01*
X450875D02*
X453720D01*
X455498D02*
X458165D01*
X460832D02*
X463677D01*
X472567D02*
X482168D01*
X485546D02*
X488213D01*
X490169D02*
X492836D01*
X496214D02*
X498881D01*
X499948D02*
X503149D01*
X503504D02*
X506171D01*
X381000Y588289D02*
X383667D01*
X386156D02*
X389001D01*
X393090D02*
X395757D01*
X400558D02*
X403403D01*
X412471D02*
X415315D01*
X419227D02*
X422072D01*
X424383D02*
X432206D01*
X438785D02*
X441630D01*
X450698D02*
X453542D01*
X455498D02*
X458343D01*
X460832D02*
X463677D01*
X472567D02*
X482168D01*
X485369D02*
X488213D01*
X490169D02*
X493014D01*
X496214D02*
X498881D01*
X500126D02*
X503326D01*
X503504D02*
X506171D01*
X381000Y588112D02*
X383667D01*
X386156D02*
X389001D01*
X393090D02*
X395757D01*
X400558D02*
X403403D01*
X412471D02*
X415315D01*
X419227D02*
X422072D01*
X424383D02*
X432206D01*
X438785D02*
X441630D01*
X450698D02*
X453542D01*
X455676D02*
X458343D01*
X460832D02*
X463677D01*
X472567D02*
X482168D01*
X485369D02*
X488213D01*
X490347D02*
X493014D01*
X496214D02*
X498881D01*
X500126D02*
X503326D01*
X503504D02*
X506171D01*
X381000Y587934D02*
X383667D01*
X386156D02*
X389001D01*
X393090D02*
X395757D01*
X400558D02*
X403403D01*
X412471D02*
X415315D01*
X419227D02*
X422072D01*
X424383D02*
X427228D01*
X427406D02*
X432206D01*
X438785D02*
X441630D01*
X450698D02*
X453365D01*
X455676D02*
X458343D01*
X460832D02*
X463677D01*
X472567D02*
X475412D01*
X475590D02*
X479146D01*
X479323D02*
X482168D01*
X485369D02*
X488036D01*
X490347D02*
X493014D01*
X496214D02*
X498881D01*
X500304D02*
X506171D01*
X381000Y587756D02*
X383667D01*
X386156D02*
X389001D01*
X393090D02*
X395757D01*
X400558D02*
X403403D01*
X412471D02*
X415315D01*
X419227D02*
X422072D01*
X424383D02*
X427228D01*
X438785D02*
X441630D01*
X450520D02*
X453365D01*
X455676D02*
X458521D01*
X460832D02*
X463677D01*
X472567D02*
X475412D01*
X479323D02*
X482168D01*
X485191D02*
X488036D01*
X490347D02*
X493192D01*
X496214D02*
X498881D01*
X500482D02*
X506171D01*
X381000Y587578D02*
X383667D01*
X386156D02*
X389001D01*
X393090D02*
X395757D01*
X400558D02*
X403403D01*
X412471D02*
X415315D01*
X419227D02*
X422072D01*
X424383D02*
X427228D01*
X438785D02*
X441808D01*
X450520D02*
X453365D01*
X455854D02*
X458521D01*
X460832D02*
X463855D01*
X472567D02*
X475412D01*
X479323D02*
X482168D01*
X485191D02*
X488036D01*
X490525D02*
X493192D01*
X496214D02*
X498881D01*
X500482D02*
X506171D01*
X381000Y587400D02*
X383667D01*
X386156D02*
X389001D01*
X393090D02*
X395757D01*
X400558D02*
X403403D01*
X412471D02*
X415315D01*
X419227D02*
X422072D01*
X424383D02*
X427228D01*
X438963D02*
X441808D01*
X450520D02*
X453187D01*
X455854D02*
X458699D01*
X460832D02*
X463855D01*
X472567D02*
X475412D01*
X479323D02*
X482168D01*
X485191D02*
X487858D01*
X490525D02*
X493192D01*
X496214D02*
X498881D01*
X500659D02*
X506171D01*
X381000Y587223D02*
X383667D01*
X386156D02*
X389001D01*
X393090D02*
X395757D01*
X400558D02*
X403403D01*
X412471D02*
X415315D01*
X419227D02*
X422072D01*
X424383D02*
X427228D01*
X438963D02*
X441808D01*
X450342D02*
X453187D01*
X455854D02*
X458699D01*
X461010D02*
X463855D01*
X472567D02*
X475412D01*
X479323D02*
X482168D01*
X485013D02*
X487680D01*
X490525D02*
X493370D01*
X496214D02*
X498881D01*
X500837D02*
X506171D01*
X381000Y587045D02*
X383667D01*
X386156D02*
X389001D01*
X393090D02*
X395757D01*
X400558D02*
X403403D01*
X412471D02*
X415315D01*
X419049D02*
X422072D01*
X424383D02*
X427228D01*
X438963D02*
X441808D01*
X450342D02*
X458699D01*
X461010D02*
X463855D01*
X472567D02*
X475412D01*
X479323D02*
X482168D01*
X485013D02*
X493370D01*
X496214D02*
X498881D01*
X500837D02*
X506171D01*
X381000Y586867D02*
X383667D01*
X386156D02*
X389001D01*
X393090D02*
X395757D01*
X400558D02*
X403403D01*
X412471D02*
X415315D01*
X419049D02*
X422072D01*
X424383D02*
X427228D01*
X438963D02*
X441808D01*
X450342D02*
X458876D01*
X461010D02*
X463855D01*
X472567D02*
X475412D01*
X479323D02*
X482168D01*
X485013D02*
X493370D01*
X496214D02*
X498881D01*
X501015D02*
X506171D01*
X381000Y586689D02*
X383667D01*
X386156D02*
X389001D01*
X393090D02*
X395757D01*
X400558D02*
X403403D01*
X412471D02*
X415315D01*
X419049D02*
X422072D01*
X424383D02*
X427228D01*
X438963D02*
X441808D01*
X450164D02*
X458876D01*
X461010D02*
X463855D01*
X472567D02*
X475412D01*
X479323D02*
X482168D01*
X484835D02*
X493547D01*
X496214D02*
X498881D01*
X501193D02*
X506171D01*
X381000Y586511D02*
X383667D01*
X386334D02*
X389001D01*
X393090D02*
X395757D01*
X400558D02*
X403403D01*
X412471D02*
X415315D01*
X419049D02*
X421894D01*
X424383D02*
X427228D01*
X438963D02*
X441808D01*
X445719D02*
X448564D01*
X450164D02*
X458876D01*
X461010D02*
X463855D01*
X467766D02*
X470611D01*
X472567D02*
X475412D01*
X479323D02*
X482168D01*
X484835D02*
X493547D01*
X496214D02*
X498881D01*
X501193D02*
X506171D01*
X381000Y586334D02*
X383667D01*
X386334D02*
X389001D01*
X392913D02*
X395757D01*
X400558D02*
X403403D01*
X412471D02*
X415315D01*
X419049D02*
X421894D01*
X424383D02*
X427228D01*
X438963D02*
X441808D01*
X445719D02*
X448564D01*
X449986D02*
X459054D01*
X461010D02*
X463855D01*
X467766D02*
X470611D01*
X472567D02*
X475412D01*
X479323D02*
X482168D01*
X484657D02*
X493547D01*
X496214D02*
X498881D01*
X501371D02*
X506171D01*
X381000Y586156D02*
X383667D01*
X386156D02*
X389001D01*
X392913D02*
X395757D01*
X400558D02*
X403403D01*
X412471D02*
X415315D01*
X418871D02*
X421894D01*
X424383D02*
X427228D01*
X438963D02*
X441985D01*
X445541D02*
X448564D01*
X449986D02*
X459054D01*
X461010D02*
X464033D01*
X467589D02*
X470611D01*
X472567D02*
X475412D01*
X479323D02*
X482168D01*
X484657D02*
X493725D01*
X496214D02*
X498881D01*
X501548D02*
X506171D01*
X381000Y585978D02*
X383667D01*
X386334D02*
X389179D01*
X392913D02*
X395757D01*
X400558D02*
X403403D01*
X412471D02*
X415315D01*
X418871D02*
X421894D01*
X424383D02*
X427228D01*
X438963D02*
X441985D01*
X445541D02*
X448386D01*
X449986D02*
X459054D01*
X461010D02*
X464033D01*
X467589D02*
X470433D01*
X472567D02*
X475412D01*
X479323D02*
X482168D01*
X484657D02*
X493725D01*
X496214D02*
X498881D01*
X501548D02*
X506171D01*
X381000Y585800D02*
X383667D01*
X386334D02*
X389179D01*
X392735D02*
X395757D01*
X400558D02*
X403403D01*
X412471D02*
X415315D01*
X418694D02*
X421894D01*
X424383D02*
X427228D01*
X439141D02*
X441985D01*
X445364D02*
X448386D01*
X449809D02*
X459232D01*
X461188D02*
X464033D01*
X467411D02*
X470433D01*
X472567D02*
X475412D01*
X479323D02*
X482168D01*
X484480D02*
X493725D01*
X496214D02*
X498881D01*
X501726D02*
X506171D01*
X381000Y585622D02*
X383667D01*
X386334D02*
X389357D01*
X392735D02*
X395580D01*
X400558D02*
X403403D01*
X412471D02*
X415315D01*
X418516D02*
X421716D01*
X424383D02*
X427228D01*
X439141D02*
X442163D01*
X445364D02*
X448386D01*
X449809D02*
X459232D01*
X461188D02*
X464210D01*
X467411D02*
X470433D01*
X472567D02*
X475412D01*
X479323D02*
X482168D01*
X484480D02*
X493903D01*
X496214D02*
X498881D01*
X501726D02*
X506171D01*
X381000Y585445D02*
X383667D01*
X386334D02*
X389534D01*
X392557D02*
X395580D01*
X400558D02*
X403403D01*
X412471D02*
X415315D01*
X418338D02*
X421716D01*
X424383D02*
X427228D01*
X439141D02*
X442341D01*
X445186D02*
X448208D01*
X449809D02*
X459410D01*
X461188D02*
X464388D01*
X467233D02*
X470256D01*
X472567D02*
X475412D01*
X479323D02*
X482168D01*
X484480D02*
X493903D01*
X496214D02*
X498881D01*
X501904D02*
X506171D01*
X381000Y585267D02*
X383667D01*
X386512D02*
X389712D01*
X392379D02*
X395580D01*
X400558D02*
X403403D01*
X412471D02*
X415315D01*
X418160D02*
X421716D01*
X424383D02*
X427228D01*
X439141D02*
X442519D01*
X445008D02*
X448208D01*
X449631D02*
X459410D01*
X461188D02*
X464566D01*
X467055D02*
X470256D01*
X472567D02*
X475412D01*
X479323D02*
X482168D01*
X484302D02*
X494081D01*
X496214D02*
X498881D01*
X502082D02*
X506171D01*
X381000Y585089D02*
X383667D01*
X386690D02*
X389890D01*
X392201D02*
X395402D01*
X400558D02*
X403403D01*
X412471D02*
X415315D01*
X417805D02*
X421538D01*
X424383D02*
X427228D01*
X439318D02*
X442697D01*
X444830D02*
X448208D01*
X449631D02*
X459410D01*
X461366D02*
X464744D01*
X466877D02*
X470256D01*
X472567D02*
X475412D01*
X479323D02*
X482168D01*
X484302D02*
X494081D01*
X496214D02*
X498881D01*
X502082D02*
X506171D01*
X381000Y584911D02*
X383667D01*
X386690D02*
X390423D01*
X391668D02*
X395402D01*
X400558D02*
X403403D01*
X412471D02*
X421538D01*
X424383D02*
X433095D01*
X439318D02*
X443052D01*
X444475D02*
X448031D01*
X449631D02*
X452476D01*
X456743D02*
X459588D01*
X461366D02*
X465099D01*
X466522D02*
X470078D01*
X472567D02*
X475412D01*
X479323D02*
X482168D01*
X484302D02*
X486969D01*
X491414D02*
X494081D01*
X496214D02*
X498881D01*
X502260D02*
X506171D01*
X381000Y584733D02*
X383667D01*
X386690D02*
X395224D01*
X400558D02*
X403403D01*
X412471D02*
X421361D01*
X424383D02*
X433095D01*
X439496D02*
X448031D01*
X449453D02*
X452298D01*
X456743D02*
X459588D01*
X461543D02*
X470078D01*
X472567D02*
X475412D01*
X479323D02*
X482168D01*
X484124D02*
X486969D01*
X491414D02*
X494259D01*
X496214D02*
X498881D01*
X502437D02*
X506171D01*
X381000Y584556D02*
X383667D01*
X386867D02*
X395224D01*
X400558D02*
X403403D01*
X412471D02*
X421361D01*
X424383D02*
X433095D01*
X439496D02*
X447853D01*
X449453D02*
X452298D01*
X456743D02*
X459588D01*
X461543D02*
X469900D01*
X472567D02*
X475412D01*
X479323D02*
X482168D01*
X484124D02*
X486969D01*
X491414D02*
X494259D01*
X496214D02*
X498881D01*
X502437D02*
X506171D01*
X381000Y584378D02*
X383667D01*
X387045D02*
X395046D01*
X400558D02*
X403403D01*
X412471D02*
X421183D01*
X424383D02*
X433095D01*
X439674D02*
X447675D01*
X449275D02*
X452298D01*
X456743D02*
X459765D01*
X461721D02*
X469722D01*
X472567D02*
X475412D01*
X479323D02*
X482168D01*
X483946D02*
X486969D01*
X491414D02*
X494259D01*
X496214D02*
X498881D01*
X502615D02*
X506171D01*
X381000Y584200D02*
X383667D01*
X387045D02*
X394868D01*
X400558D02*
X403403D01*
X412471D02*
X421005D01*
X424383D02*
X433095D01*
X439852D02*
X447675D01*
X449275D02*
X452120D01*
X456921D02*
X459765D01*
X461899D02*
X469722D01*
X472567D02*
X475412D01*
X479323D02*
X482168D01*
X483946D02*
X486791D01*
X491592D02*
X494436D01*
X496214D02*
X498881D01*
X502793D02*
X506171D01*
X381000Y584022D02*
X383667D01*
X387223D02*
X394868D01*
X400558D02*
X403403D01*
X412471D02*
X420827D01*
X424383D02*
X433095D01*
X440030D02*
X447497D01*
X449275D02*
X452120D01*
X456921D02*
X459765D01*
X462077D02*
X469544D01*
X472567D02*
X475412D01*
X479323D02*
X482168D01*
X483946D02*
X486791D01*
X491592D02*
X494436D01*
X496214D02*
X498881D01*
X502793D02*
X506171D01*
X381000Y583844D02*
X383667D01*
X387401D02*
X394691D01*
X400558D02*
X403403D01*
X412471D02*
X420649D01*
X424383D02*
X433095D01*
X440207D02*
X447319D01*
X449097D02*
X452120D01*
X456921D02*
X459943D01*
X462255D02*
X469367D01*
X472567D02*
X475412D01*
X479323D02*
X482168D01*
X483768D02*
X486791D01*
X491592D02*
X494436D01*
X496214D02*
X498881D01*
X502971D02*
X506171D01*
X381000Y583667D02*
X383667D01*
X387579D02*
X394513D01*
X400558D02*
X403403D01*
X412471D02*
X420472D01*
X424383D02*
X433095D01*
X440385D02*
X447142D01*
X449097D02*
X451942D01*
X457098D02*
X459943D01*
X462432D02*
X469189D01*
X472567D02*
X475412D01*
X479323D02*
X482168D01*
X483768D02*
X486613D01*
X491769D02*
X494614D01*
X496214D02*
X498881D01*
X503149D02*
X506171D01*
X381000Y583489D02*
X383667D01*
X387756D02*
X394335D01*
X400558D02*
X403403D01*
X412471D02*
X420294D01*
X424383D02*
X433095D01*
X440563D02*
X446964D01*
X449097D02*
X451942D01*
X457098D02*
X459943D01*
X462610D02*
X469011D01*
X472567D02*
X475412D01*
X479323D02*
X482168D01*
X483768D02*
X486613D01*
X491769D02*
X494614D01*
X496214D02*
X498881D01*
X503149D02*
X506171D01*
X381000Y583311D02*
X383667D01*
X388112D02*
X393979D01*
X400558D02*
X403403D01*
X412471D02*
X420116D01*
X424383D02*
X433095D01*
X440741D02*
X446786D01*
X448920D02*
X451942D01*
X457098D02*
X460121D01*
X462788D02*
X468833D01*
X472567D02*
X475412D01*
X479323D02*
X482168D01*
X483591D02*
X486613D01*
X491769D02*
X494792D01*
X496214D02*
X498881D01*
X503326D02*
X506171D01*
X381000Y583133D02*
X383667D01*
X388290D02*
X393802D01*
X400558D02*
X403403D01*
X412471D02*
X419760D01*
X424383D02*
X433095D01*
X441096D02*
X446430D01*
X448920D02*
X451764D01*
X457276D02*
X460121D01*
X462966D02*
X468478D01*
X472567D02*
X475412D01*
X479323D02*
X482168D01*
X483591D02*
X486435D01*
X491947D02*
X494792D01*
X496214D02*
X498881D01*
X503504D02*
X506171D01*
X381000Y582955D02*
X383667D01*
X388645D02*
X393446D01*
X400558D02*
X403403D01*
X412471D02*
X419405D01*
X424383D02*
X433095D01*
X441274D02*
X446075D01*
X448920D02*
X451764D01*
X457276D02*
X460299D01*
X463321D02*
X468122D01*
X472567D02*
X475412D01*
X479323D02*
X482168D01*
X483591D02*
X486435D01*
X491947D02*
X494792D01*
X496214D02*
X498881D01*
X503504D02*
X506171D01*
X381000Y582778D02*
X383667D01*
X389001D02*
X393090D01*
X400558D02*
X403403D01*
X412471D02*
X418871D01*
X424383D02*
X433095D01*
X441808D02*
X445719D01*
X448742D02*
X451764D01*
X457276D02*
X460299D01*
X463677D02*
X467766D01*
X472567D02*
X475412D01*
X479323D02*
X482168D01*
X483413D02*
X486435D01*
X491947D02*
X494970D01*
X496214D02*
X498881D01*
X503682D02*
X506171D01*
X389534Y582600D02*
X392557D01*
X442341D02*
X445186D01*
X464210D02*
X467233D01*
D29*
X503174Y1042670D02*
X507406D01*
X505290D01*
Y1055366D01*
X503174Y1053250D01*
X588092Y1043178D02*
X579628D01*
X588092Y1051642D01*
Y1053758D01*
X585976Y1055874D01*
X581744D01*
X579628Y1053758D01*
X553972Y532384D02*
Y545080D01*
X547624Y538732D01*
X556088D01*
X560320Y542964D02*
X562436Y545080D01*
X566668D01*
X568784Y542964D01*
Y534500D01*
X566668Y532384D01*
X562436D01*
X560320Y534500D01*
Y542964D01*
X484378Y568618D02*
X486494Y570734D01*
X490726D01*
X492842Y568618D01*
Y566502D01*
X490726Y564386D01*
X488610D01*
X490726D01*
X492842Y562270D01*
Y560154D01*
X490726Y558038D01*
X486494D01*
X484378Y560154D01*
X497074D02*
X499190Y558038D01*
X503422D01*
X505538Y560154D01*
Y568618D01*
X503422Y570734D01*
X499190D01*
X497074Y568618D01*
Y566502D01*
X499190Y564386D01*
X505538D01*
M02*
