%FSLAX44Y44*%
%MOMM*%
G71*
G01*
G75*
G04 Layer_Physical_Order=2*
G04 Layer_Color=36540*
%ADD10R,1.8000X1.1500*%
%ADD11C,0.7620*%
G04:AMPARAMS|DCode=12|XSize=1.15mm|YSize=1.8mm|CornerRadius=0mm|HoleSize=0mm|Usage=FLASHONLY|Rotation=135.000|XOffset=0mm|YOffset=0mm|HoleType=Round|Shape=Rectangle|*
%AMROTATEDRECTD12*
4,1,4,1.0430,0.2298,-0.2298,-1.0430,-1.0430,-0.2298,0.2298,1.0430,1.0430,0.2298,0.0*
%
%ADD12ROTATEDRECTD12*%

%ADD13R,1.1500X1.8000*%
%ADD14C,0.1500*%
%ADD15C,1.5000*%
%ADD16R,1.5000X1.5000*%
%ADD17R,1.5000X1.5000*%
%ADD18C,1.5240*%
%ADD19C,3.5000*%
%ADD20C,0.6000*%
G36*
X777748Y893318D02*
X793327D01*
X793575Y892070D01*
X794570Y890582D01*
X796058Y889587D01*
X797814Y889238D01*
X799570Y889587D01*
X801058Y890582D01*
X802053Y892070D01*
X802301Y893318D01*
X806446D01*
X806759Y891742D01*
X807754Y890254D01*
X809243Y889259D01*
X810998Y888910D01*
X812754Y889259D01*
X814243Y890254D01*
X815237Y891742D01*
X815551Y893318D01*
X844584D01*
X844883Y891816D01*
X845878Y890328D01*
X847366Y889333D01*
X849122Y888984D01*
X850878Y889333D01*
X852366Y890328D01*
X853361Y891816D01*
X853660Y893318D01*
X1173431D01*
Y508049D01*
X584962D01*
Y584962D01*
X608076D01*
X607984Y770382D01*
X608351Y773167D01*
X609426Y775762D01*
X611135Y777990D01*
X613364Y779700D01*
X615959Y780775D01*
X618744Y781142D01*
Y780927D01*
X623723Y781417D01*
X628511Y782870D01*
X632924Y785229D01*
X636791Y788403D01*
X639966Y792270D01*
X642324Y796683D01*
X643776Y801471D01*
X644267Y806450D01*
X644144D01*
X644021Y846328D01*
X644511Y851307D01*
X645964Y856095D01*
X648323Y860508D01*
X651497Y864375D01*
X655364Y867550D01*
X659777Y869908D01*
X664565Y871360D01*
X669544Y871851D01*
Y871728D01*
X706516D01*
X705670Y871162D01*
X704675Y869674D01*
X704326Y867918D01*
X704675Y866162D01*
X705670Y864674D01*
X707158Y863679D01*
X708914Y863330D01*
X710670Y863679D01*
X712158Y864674D01*
X713153Y866162D01*
X713502Y867918D01*
X713153Y869674D01*
X712158Y871162D01*
X711312Y871728D01*
X727456D01*
Y863854D01*
X734487D01*
X734568Y863838D01*
X734649Y863854D01*
X738886D01*
X739393Y864572D01*
X739123Y870461D01*
X739214Y872120D01*
X740441Y872628D01*
X741926Y873768D01*
X743066Y875253D01*
X743783Y876983D01*
X743791Y877041D01*
X745106Y876161D01*
X745998Y875984D01*
Y881380D01*
Y886776D01*
X745106Y886599D01*
X743274Y885374D01*
X742049Y883542D01*
X741809Y882335D01*
X741796Y882332D01*
X741786Y882338D01*
X741786Y882338D01*
X741745Y882329D01*
X741663Y882346D01*
X741651Y882343D01*
X741645Y882345D01*
X741643Y882344D01*
X741627Y882333D01*
X741559Y882345D01*
X741489Y882330D01*
X741344Y882359D01*
X741277Y882345D01*
X741263Y882336D01*
X741247Y882339D01*
X741187Y882326D01*
X741183Y882327D01*
X741178Y882326D01*
X741178Y882325D01*
X741170Y882324D01*
X741170Y882324D01*
D01*
X741170Y882324D01*
X741170D01*
X741161Y882326D01*
X741157Y882325D01*
X741154Y882323D01*
X741154Y882323D01*
X741141Y882326D01*
X741141Y882326D01*
X741138Y882327D01*
X741137Y882328D01*
X741135Y882327D01*
X741133Y882328D01*
X741130Y882329D01*
X741125Y882328D01*
X741104Y882332D01*
X741098Y882331D01*
X741093Y882334D01*
X741034Y882346D01*
X741028Y882345D01*
X741022Y882348D01*
X741020Y882349D01*
X741009Y882346D01*
X740943Y882360D01*
X740943D01*
X740943D01*
X740943Y882360D01*
D01*
X740943D01*
X740943Y882360D01*
X740872Y882374D01*
D01*
X740410Y882466D01*
Y882344D01*
X740389Y882348D01*
X740378Y882346D01*
X740343Y882324D01*
X740318Y882327D01*
X740317Y882327D01*
X740305Y882328D01*
X740298Y882324D01*
X739107Y882561D01*
X739106Y882561D01*
X739098Y882562D01*
X739088Y882564D01*
X739088D01*
X739088Y882564D01*
X739088Y882565D01*
X739057Y882584D01*
X738819Y882626D01*
X738814Y882632D01*
X738814Y882632D01*
X738745Y882645D01*
X738744Y882645D01*
X738744Y882645D01*
X738724Y882659D01*
X738669Y882714D01*
X738669Y882714D01*
X738640Y882715D01*
X738640Y882715D01*
X738573Y882759D01*
X738572Y882760D01*
X738502Y882807D01*
X738469Y882813D01*
X738440Y882807D01*
X738416Y882821D01*
X738368Y882809D01*
X738344Y882825D01*
X738344D01*
X738317Y882843D01*
X738304Y882846D01*
X738304D01*
X738304Y882846D01*
X738195Y882915D01*
X738160Y882921D01*
X737595Y883299D01*
X737595D01*
X737595D01*
X737595Y883299D01*
X737148Y883598D01*
X737148D01*
X737142Y883602D01*
X737035Y883673D01*
X737035D01*
X737028Y883678D01*
X737028D01*
X737027Y883678D01*
D01*
X737018Y883684D01*
D01*
X737018Y883684D01*
D01*
X737018Y883684D01*
X737007Y883692D01*
X737007D01*
X737001Y883696D01*
X736999Y883697D01*
X736999D01*
X736990Y883703D01*
D01*
X736990Y883703D01*
X736990Y883703D01*
X736989Y883704D01*
X736988Y883704D01*
X736979Y883711D01*
X736966Y883719D01*
X736962Y883722D01*
D01*
X736961Y883723D01*
D01*
X736961Y883723D01*
X736961Y883723D01*
X736955Y883726D01*
D01*
X736955Y883726D01*
X736955Y883727D01*
X736954Y883727D01*
Y883727D01*
X736954Y883727D01*
X736954Y883727D01*
X736953Y883728D01*
X736953Y883728D01*
X736945Y883733D01*
X736937Y883738D01*
X736934Y883740D01*
X736934D01*
X736931Y883743D01*
X736930Y883743D01*
Y883743D01*
X736923Y883754D01*
D01*
X736922Y883756D01*
Y883756D01*
X736920Y883758D01*
Y883758D01*
X736918Y883761D01*
X736918Y883762D01*
X736918D01*
D01*
Y883762D01*
X736908Y883776D01*
X736908Y883776D01*
X736908Y883777D01*
X736908Y883777D01*
X736908Y883777D01*
X736900Y883789D01*
X736896Y883794D01*
X736896Y883794D01*
X736894Y883797D01*
Y883797D01*
X736891Y883802D01*
X736886Y883810D01*
X736886D01*
X736882Y883815D01*
X736882Y883815D01*
X736881Y883818D01*
X736880Y883818D01*
X736877Y883823D01*
X736877Y883823D01*
X736756Y884004D01*
X736756Y884004D01*
X736755Y884006D01*
Y884006D01*
X736751Y884011D01*
X736721Y884056D01*
D01*
X736721Y884057D01*
D01*
X736628Y884195D01*
X736628Y884195D01*
X736628Y884195D01*
Y884195D01*
X736442Y884474D01*
X736337Y884632D01*
X736044Y885070D01*
Y885070D01*
X736043Y885070D01*
Y885070D01*
X736041Y885075D01*
X736039Y885078D01*
X736038Y885082D01*
X736040Y885090D01*
X736039Y885092D01*
X736026Y885111D01*
X736025Y885113D01*
D01*
X736024Y885114D01*
X736009Y885198D01*
X735905Y885360D01*
X735904Y885360D01*
X735904Y885361D01*
X735899Y885369D01*
X735899Y885369D01*
X735897Y885382D01*
X735885Y885399D01*
X735866Y885497D01*
X735870Y885517D01*
X735860Y885567D01*
X735821Y885624D01*
X735818Y885640D01*
D01*
X735814Y885666D01*
X735799Y885689D01*
X735799Y885689D01*
X735799Y885689D01*
X735793Y885698D01*
X735792Y885699D01*
X735791Y885708D01*
X735770Y885810D01*
X735768Y885840D01*
X735762Y885851D01*
D01*
X735762Y885853D01*
X735754Y885890D01*
X735706Y886135D01*
D01*
X735624Y886543D01*
X735513Y887105D01*
D01*
X735513Y887105D01*
D01*
X735491Y887214D01*
X735491Y887215D01*
X735490Y887219D01*
X735490Y887220D01*
X735490Y887222D01*
X735491D01*
X735860Y889079D01*
X736912Y890654D01*
X738487Y891706D01*
X740344Y892076D01*
Y891982D01*
X743247Y891999D01*
X743283Y891816D01*
X744278Y890328D01*
X745766Y889333D01*
X747522Y888984D01*
X749278Y889333D01*
X750766Y890328D01*
X751761Y891816D01*
X751807Y892048D01*
X754954Y892066D01*
X754983Y892060D01*
D01*
X755320Y891993D01*
X755320D01*
D01*
D01*
D01*
X755974Y891863D01*
X755983Y891816D01*
X756978Y890328D01*
X758466Y889333D01*
X758991Y889229D01*
X759085Y888758D01*
D01*
X759289Y887730D01*
X759107D01*
X759219Y887167D01*
Y887167D01*
X759501Y885748D01*
X759653Y885519D01*
X758244Y885239D01*
X756756Y884244D01*
X755761Y882756D01*
X755412Y881000D01*
X755761Y879244D01*
X756756Y877756D01*
X758244Y876761D01*
X760000Y876412D01*
X761756Y876761D01*
X763244Y877756D01*
X764239Y879244D01*
X764588Y881000D01*
X764279Y882552D01*
X764286Y882551D01*
Y882650D01*
X766798Y882565D01*
X766764Y882396D01*
X777556D01*
X777379Y883288D01*
X776154Y885120D01*
X774322Y886345D01*
X772160Y886775D01*
X771849Y886713D01*
X772001Y887476D01*
X771792D01*
Y887476D01*
X772104Y889046D01*
X772414Y888984D01*
X774170Y889333D01*
X775658Y890328D01*
X776653Y891816D01*
X776943Y893272D01*
X777748Y893432D01*
X777748D01*
X777748Y893318D01*
D02*
G37*
G36*
X1173431Y895618D02*
X853167D01*
X852366Y896816D01*
X850878Y897811D01*
X849122Y898160D01*
X847366Y897811D01*
X845878Y896816D01*
X845077Y895618D01*
X814994D01*
X814243Y896742D01*
X812754Y897737D01*
X810998Y898086D01*
X809243Y897737D01*
X807754Y896742D01*
X807002Y895618D01*
X802029D01*
X801058Y897070D01*
X799570Y898065D01*
X797814Y898414D01*
X796058Y898065D01*
X794570Y897070D01*
X793599Y895618D01*
X777656D01*
X777633Y895734D01*
X776408Y897566D01*
X774576Y898791D01*
X773684Y898968D01*
Y893572D01*
X772414D01*
Y892302D01*
X767018D01*
X767195Y891410D01*
X768420Y889578D01*
X769881Y888602D01*
X769740Y887893D01*
X768673Y886296D01*
X767077Y885229D01*
X765194Y884855D01*
X762400Y884949D01*
Y884850D01*
X762312Y884867D01*
X761756Y885239D01*
X761217Y885346D01*
X761183Y885519D01*
X761246Y885836D01*
X761093Y886065D01*
X760811Y887484D01*
X760913Y887730D01*
X760849Y887884D01*
X760882Y888047D01*
X760677Y889074D01*
X761978Y889333D01*
X763466Y890328D01*
X764461Y891816D01*
X764810Y893572D01*
X764461Y895328D01*
X763466Y896816D01*
X761978Y897811D01*
X760222Y898160D01*
X758466Y897811D01*
X756978Y896816D01*
X755983Y895328D01*
X755637Y893585D01*
D01*
X755299Y893652D01*
D01*
X754726Y894035D01*
X753067Y894365D01*
X751954Y894359D01*
X751761Y895328D01*
X750766Y896816D01*
X749278Y897811D01*
X747522Y898160D01*
X745766Y897811D01*
X744278Y896816D01*
X743283Y895328D01*
X743080Y894308D01*
X738458Y894282D01*
Y894375D01*
X736600Y894006D01*
X735026Y892953D01*
X733974Y891379D01*
X733604Y889521D01*
X733603D01*
X733948Y887788D01*
X733898Y887539D01*
X733931Y887377D01*
X733866Y887222D01*
X733902Y887136D01*
X733889Y887105D01*
X733889Y887105D01*
X733889Y887105D01*
X733922Y887026D01*
X733898Y886904D01*
X733898Y886901D01*
X733900Y886893D01*
X733900Y886892D01*
X733901Y886888D01*
X733901Y886888D01*
X733919Y886793D01*
X733921Y886791D01*
X733920Y886788D01*
X733921Y886786D01*
D01*
X733921Y886786D01*
D01*
X734032Y886227D01*
X734113Y885819D01*
D01*
Y885819D01*
X734162Y885573D01*
X734162Y885573D01*
X734162Y885572D01*
X734169Y885536D01*
X734182Y885516D01*
X734178Y885494D01*
X734198Y885391D01*
X734199Y885391D01*
X734199Y885390D01*
X734200Y885380D01*
X734221Y885350D01*
X734223Y885337D01*
X734266Y885271D01*
X734259Y885176D01*
X734259Y885176D01*
X734279Y885153D01*
X734293Y885080D01*
X734306Y885062D01*
X734305Y885060D01*
X734308Y885048D01*
X734416Y884888D01*
X734427Y884826D01*
X734427Y884825D01*
X734428Y884819D01*
X734433Y884812D01*
Y884812D01*
X734447Y884789D01*
X734448Y884789D01*
X734446Y884779D01*
X734446Y884777D01*
D01*
X734445Y884769D01*
X734446Y884764D01*
X734472Y884725D01*
X734473Y884720D01*
X734500Y884680D01*
X734502Y884667D01*
X734535Y884489D01*
X734539Y884482D01*
X734644Y884319D01*
X734654Y884312D01*
X734673Y884213D01*
X734674Y884213D01*
Y884213D01*
X734684Y884198D01*
X734687Y884182D01*
X734687Y884182D01*
X734688Y884177D01*
X734690Y884174D01*
Y884174D01*
X734693Y884170D01*
X734694Y884169D01*
X734694Y884168D01*
X734987Y883730D01*
X734987Y883730D01*
Y883729D01*
X735092Y883572D01*
X735092Y883572D01*
Y883572D01*
X735278Y883293D01*
Y883293D01*
X735371Y883155D01*
X735371Y883155D01*
X735371Y883154D01*
X735401Y883109D01*
X735402Y883108D01*
X735403Y883107D01*
X735406Y883102D01*
X735406Y883102D01*
D01*
X735527Y882921D01*
X735529Y882919D01*
X735530Y882917D01*
X735530Y882916D01*
Y882916D01*
X735534Y882911D01*
X735534Y882911D01*
X735535Y882909D01*
X735535Y882908D01*
X735541Y882900D01*
X735541Y882900D01*
X735542Y882899D01*
X735545Y882895D01*
X735546Y882894D01*
X735546Y882892D01*
X735550Y882887D01*
X735550D01*
X735557Y882876D01*
X735558Y882875D01*
X735558Y882874D01*
X735568Y882860D01*
X735569Y882859D01*
X735569Y882858D01*
X735571Y882855D01*
X735573Y882854D01*
X735574Y882851D01*
X735574Y882850D01*
X735574Y882850D01*
X735581Y882840D01*
X735591Y882833D01*
X735594Y882822D01*
X735594Y882821D01*
X735700Y882752D01*
X735738Y882662D01*
X735742Y882660D01*
X735746Y882649D01*
X735747Y882649D01*
X735748Y882646D01*
X735748Y882646D01*
X735753Y882644D01*
X735760Y882629D01*
X735760Y882629D01*
X735764Y882627D01*
X735770Y882613D01*
X735770Y882613D01*
D01*
X735771Y882613D01*
X735772Y882610D01*
X735773Y882610D01*
X735774Y882608D01*
X735774Y882607D01*
X735775Y882606D01*
X735778Y882605D01*
X735782Y882595D01*
X735785Y882594D01*
X735786Y882592D01*
X735804Y882585D01*
X735806Y882579D01*
D01*
X735806Y882579D01*
X735807Y882579D01*
X735807Y882578D01*
X735807Y882578D01*
X735812Y882576D01*
X735813Y882575D01*
X735813Y882575D01*
X735813Y882574D01*
X735814Y882574D01*
X735838Y882564D01*
X735842Y882555D01*
X735842Y882555D01*
X735849Y882552D01*
X735850Y882549D01*
X735858Y882546D01*
X735859Y882544D01*
X735868Y882540D01*
X735870Y882536D01*
X735870Y882536D01*
X735870Y882536D01*
X735870Y882536D01*
X735878Y882533D01*
X735879Y882530D01*
X735880Y882530D01*
X735880Y882530D01*
X735886Y882527D01*
X735887Y882525D01*
X735930Y882507D01*
X735934Y882501D01*
X735934Y882501D01*
X735939Y882494D01*
X735965Y882488D01*
X736028Y882393D01*
X736030Y882392D01*
X736031Y882391D01*
X736034Y882390D01*
X736035Y882388D01*
X736043Y882383D01*
X736044Y882383D01*
X736045Y882382D01*
X736052Y882377D01*
X736052Y882377D01*
X736053Y882376D01*
X736053Y882376D01*
X736059Y882373D01*
X736059Y882373D01*
X736059Y882372D01*
X736064Y882369D01*
X736064Y882369D01*
X736076Y882361D01*
X736078Y882361D01*
X736079Y882359D01*
X736079Y882359D01*
X736080Y882359D01*
X736086Y882354D01*
X736086Y882354D01*
X736095Y882348D01*
X736096Y882348D01*
X736096Y882348D01*
X736096Y882347D01*
X736098Y882347D01*
X736099Y882346D01*
X736105Y882342D01*
X736116Y882335D01*
D01*
X736116Y882335D01*
X736125Y882328D01*
X736125D01*
X736131Y882324D01*
X736132Y882324D01*
X736133Y882323D01*
X736239Y882252D01*
X736243Y882249D01*
X736245Y882249D01*
X736246Y882248D01*
X736693Y881949D01*
X736693D01*
X736693Y881949D01*
X737258Y881571D01*
X737313Y881560D01*
X737324Y881545D01*
X737432Y881476D01*
X737444Y881474D01*
X737468Y881458D01*
X737513Y881449D01*
X737541Y881412D01*
X737701Y881389D01*
X737738Y881364D01*
X737793Y881354D01*
X737823Y881308D01*
X737843Y881294D01*
X737844Y881294D01*
X737844Y881294D01*
X737933Y881276D01*
X737943Y881263D01*
X737943Y881262D01*
X737986Y881255D01*
X737988Y881253D01*
X738002Y881251D01*
X738002Y881251D01*
X738030Y881222D01*
X738030Y881222D01*
X738154Y881220D01*
X738154D01*
X738155Y881220D01*
X738220Y881175D01*
X738221Y881174D01*
X738239Y881178D01*
X738321Y881123D01*
X738337Y881126D01*
X738462Y881046D01*
X738463Y881046D01*
X738463Y881046D01*
X738526Y881035D01*
X738538Y881027D01*
X738539Y881027D01*
X738539Y881027D01*
X738742Y880991D01*
X738770Y880972D01*
X738770Y880972D01*
X738770Y880972D01*
X738771Y880972D01*
X738780Y880970D01*
X738785Y880971D01*
X738790Y880968D01*
X739982Y880731D01*
X740016Y880738D01*
X740026Y880731D01*
X740039Y880734D01*
X740069Y880716D01*
X740083Y880720D01*
X740088Y880720D01*
X740089Y880720D01*
X740111Y880716D01*
X740303Y880765D01*
X740410Y880721D01*
X740540Y880775D01*
X740703Y880750D01*
X740704Y880750D01*
X740713Y880757D01*
X740713Y880757D01*
X740718Y880754D01*
X740776Y880742D01*
X740782Y880743D01*
X740788Y880740D01*
X740808Y880736D01*
X740814Y880737D01*
X740814Y880737D01*
X740817Y880736D01*
D01*
X740820Y880734D01*
X740828Y880733D01*
X740829Y880732D01*
X740829Y880732D01*
X740833Y880732D01*
X740838Y880733D01*
X740840Y880732D01*
X740841Y880731D01*
X740861Y880736D01*
X740862Y880735D01*
X740918Y880746D01*
X740943Y880736D01*
X740943D01*
X740943Y880736D01*
X740943Y880736D01*
X740943D01*
X740958Y880742D01*
X740960Y880741D01*
X740976Y880738D01*
X741043Y880753D01*
X741170Y880700D01*
X741170D01*
X741170Y880700D01*
X741170Y880700D01*
X741280Y880746D01*
X741341Y880735D01*
X741360Y880739D01*
X741430Y880723D01*
X741431Y880724D01*
X741437Y880722D01*
X741437Y880722D01*
X741452Y880732D01*
X741462Y880730D01*
X741467Y880731D01*
X741471Y880733D01*
X741483Y880731D01*
X741491Y880732D01*
X741491Y880733D01*
X741496Y880733D01*
X741511Y880744D01*
X741533Y880740D01*
X741593Y880753D01*
X741593D01*
X741661Y880766D01*
X741671Y880773D01*
X741837Y880744D01*
X741906Y880759D01*
X741907Y880759D01*
X741956Y880749D01*
X741969Y880751D01*
X741974Y880755D01*
X741974Y880754D01*
X741977Y880755D01*
X741994Y880767D01*
X742090Y880751D01*
X741897Y879283D01*
X741180Y877553D01*
X740040Y876067D01*
X738554Y874927D01*
X736824Y874211D01*
X735838Y874081D01*
Y868426D01*
X733298D01*
Y873968D01*
X667658Y874027D01*
Y874150D01*
X662678Y873660D01*
X657890Y872208D01*
X653478Y869849D01*
X649610Y866675D01*
X646436Y862807D01*
X644078Y858395D01*
X642625Y853607D01*
X642135Y848627D01*
X642258Y808749D01*
X642381D01*
X641890Y803770D01*
X640438Y798982D01*
X638079Y794570D01*
X634905Y790702D01*
X631037Y787528D01*
X626625Y785169D01*
X621837Y783717D01*
X616858Y783227D01*
Y783441D01*
X614073Y783075D01*
X611478Y782000D01*
X609249Y780290D01*
X607539Y778062D01*
X606464Y775466D01*
X606097Y772682D01*
X606190Y699262D01*
Y625999D01*
Y625918D01*
X605920Y627969D01*
X604908Y630411D01*
X603299Y632509D01*
X601201Y634118D01*
X598759Y635130D01*
X597408Y635307D01*
Y625348D01*
Y615389D01*
X598759Y615566D01*
X601201Y616578D01*
X603299Y618187D01*
X604908Y620285D01*
X605920Y622727D01*
X606190Y624778D01*
Y587502D01*
X579882D01*
Y508054D01*
X370594D01*
Y1112770D01*
X1173431D01*
Y895618D01*
D02*
G37*
G36*
X1173839Y1117358D02*
X368300D01*
X367422Y1117183D01*
X366678Y1116686D01*
X366414Y1116291D01*
Y1117363D01*
X1173839D01*
Y1117358D01*
D02*
G37*
%LPC*%
G36*
X758230Y848396D02*
X757338Y848219D01*
X755506Y846994D01*
X754281Y845162D01*
X754104Y844270D01*
X758230D01*
Y848396D01*
D02*
G37*
G36*
X760770D02*
Y844270D01*
X764896D01*
X764719Y845162D01*
X763494Y846994D01*
X761662Y848219D01*
X760770Y848396D01*
D02*
G37*
G36*
X912368Y847360D02*
X910612Y847011D01*
X909124Y846016D01*
X908129Y844528D01*
X907780Y842772D01*
X908129Y841016D01*
X909124Y839528D01*
X910612Y838533D01*
X912368Y838184D01*
X914124Y838533D01*
X915612Y839528D01*
X916607Y841016D01*
X916956Y842772D01*
X916607Y844528D01*
X915612Y846016D01*
X914124Y847011D01*
X912368Y847360D01*
D02*
G37*
G36*
X836168Y847614D02*
X834412Y847265D01*
X832924Y846270D01*
X831929Y844782D01*
X831580Y843026D01*
X831929Y841270D01*
X832924Y839782D01*
X834412Y838787D01*
X836168Y838438D01*
X837924Y838787D01*
X839412Y839782D01*
X840407Y841270D01*
X840756Y843026D01*
X840407Y844782D01*
X839412Y846270D01*
X837924Y847265D01*
X836168Y847614D01*
D02*
G37*
G36*
X848868D02*
X847112Y847265D01*
X845624Y846270D01*
X844629Y844782D01*
X844280Y843026D01*
X844629Y841270D01*
X845624Y839782D01*
X847112Y838787D01*
X848868Y838438D01*
X850624Y838787D01*
X852112Y839782D01*
X853107Y841270D01*
X853456Y843026D01*
X853107Y844782D01*
X852112Y846270D01*
X850624Y847265D01*
X848868Y847614D01*
D02*
G37*
G36*
X631952Y856758D02*
X630196Y856409D01*
X628708Y855414D01*
X627713Y853926D01*
X627364Y852170D01*
X627713Y850414D01*
X628708Y848926D01*
X630196Y847931D01*
X631952Y847582D01*
X633708Y847931D01*
X635196Y848926D01*
X636191Y850414D01*
X636540Y852170D01*
X636191Y853926D01*
X635196Y855414D01*
X633708Y856409D01*
X631952Y856758D01*
D02*
G37*
G36*
X721500Y860088D02*
X719744Y859739D01*
X718256Y858744D01*
X717261Y857256D01*
X716912Y855500D01*
X717261Y853744D01*
X718256Y852256D01*
X719744Y851261D01*
X721500Y850912D01*
X723256Y851261D01*
X724744Y852256D01*
X725739Y853744D01*
X726088Y855500D01*
X725739Y857256D01*
X724744Y858744D01*
X723256Y859739D01*
X721500Y860088D01*
D02*
G37*
G36*
X924814Y860568D02*
X923058Y860219D01*
X921570Y859224D01*
X920575Y857736D01*
X920226Y855980D01*
X920575Y854224D01*
X921570Y852736D01*
X923058Y851741D01*
X924814Y851392D01*
X926570Y851741D01*
X928058Y852736D01*
X929053Y854224D01*
X929402Y855980D01*
X929053Y857736D01*
X928058Y859224D01*
X926570Y860219D01*
X924814Y860568D01*
D02*
G37*
G36*
X692658Y866410D02*
X690902Y866061D01*
X689414Y865066D01*
X688419Y863578D01*
X688070Y861822D01*
X688419Y860066D01*
X689414Y858578D01*
X690902Y857583D01*
X692658Y857234D01*
X694414Y857583D01*
X695902Y858578D01*
X696897Y860066D01*
X697246Y861822D01*
X696897Y863578D01*
X695902Y865066D01*
X694414Y866061D01*
X692658Y866410D01*
D02*
G37*
G36*
X531114Y879536D02*
X528764Y879226D01*
X526575Y878319D01*
X524695Y876877D01*
X523252Y874997D01*
X522346Y872807D01*
X522036Y870458D01*
X522346Y868109D01*
X523252Y865919D01*
X524695Y864039D01*
X526575Y862597D01*
X528764Y861690D01*
X531114Y861380D01*
X533464Y861690D01*
X535653Y862597D01*
X537533Y864039D01*
X538975Y865919D01*
X539882Y868109D01*
X540192Y870458D01*
X539882Y872807D01*
X538975Y874997D01*
X537533Y876877D01*
X535653Y878319D01*
X533464Y879226D01*
X531114Y879536D01*
D02*
G37*
G36*
X461264Y866449D02*
X458883Y866135D01*
X456665Y865216D01*
X454759Y863755D01*
X453298Y861849D01*
X452379Y859631D01*
X452065Y857250D01*
X452379Y854869D01*
X453298Y852651D01*
X454759Y850745D01*
X456665Y849284D01*
X458883Y848365D01*
X461264Y848051D01*
X463645Y848365D01*
X465863Y849284D01*
X467769Y850745D01*
X469230Y852651D01*
X470149Y854869D01*
X470463Y857250D01*
X470149Y859631D01*
X469230Y861849D01*
X467769Y863755D01*
X465863Y865216D01*
X463645Y866135D01*
X461264Y866449D01*
D02*
G37*
G36*
X836168Y860060D02*
X834412Y859711D01*
X832924Y858716D01*
X831929Y857228D01*
X831580Y855472D01*
X831929Y853716D01*
X832924Y852228D01*
X834412Y851233D01*
X836168Y850884D01*
X837924Y851233D01*
X839412Y852228D01*
X840407Y853716D01*
X840756Y855472D01*
X840407Y857228D01*
X839412Y858716D01*
X837924Y859711D01*
X836168Y860060D01*
D02*
G37*
G36*
X764896Y841730D02*
X760770D01*
Y837604D01*
X761662Y837781D01*
X763494Y839006D01*
X764719Y840838D01*
X764896Y841730D01*
D02*
G37*
G36*
X696276Y822452D02*
X692150D01*
Y818326D01*
X693042Y818503D01*
X694874Y819728D01*
X696099Y821560D01*
X696276Y822452D01*
D02*
G37*
G36*
X689610Y829118D02*
X688718Y828941D01*
X686886Y827716D01*
X685661Y825884D01*
X685484Y824992D01*
X689610D01*
Y829118D01*
D02*
G37*
G36*
X692150D02*
Y824992D01*
X696276D01*
X696099Y825884D01*
X694874Y827716D01*
X693042Y828941D01*
X692150Y829118D01*
D02*
G37*
G36*
X772500Y822088D02*
X770744Y821739D01*
X769256Y820744D01*
X768261Y819256D01*
X767912Y817500D01*
X768261Y815744D01*
X769256Y814256D01*
X770744Y813261D01*
X772500Y812912D01*
X774256Y813261D01*
X775744Y814256D01*
X776739Y815744D01*
X777088Y817500D01*
X776739Y819256D01*
X775744Y820744D01*
X774256Y821739D01*
X772500Y822088D01*
D02*
G37*
G36*
X460756Y832159D02*
X458375Y831845D01*
X456157Y830926D01*
X454252Y829464D01*
X452790Y827559D01*
X451871Y825341D01*
X451557Y822960D01*
X451871Y820579D01*
X452790Y818361D01*
X454252Y816456D01*
X456157Y814994D01*
X458375Y814075D01*
X460756Y813761D01*
X463137Y814075D01*
X465355Y814994D01*
X467261Y816456D01*
X468722Y818361D01*
X469641Y820579D01*
X469955Y822960D01*
X469641Y825341D01*
X468722Y827559D01*
X467261Y829464D01*
X465355Y830926D01*
X463137Y831845D01*
X460756Y832159D01*
D02*
G37*
G36*
X689610Y822452D02*
X685484D01*
X685661Y821560D01*
X686886Y819728D01*
X688718Y818503D01*
X689610Y818326D01*
Y822452D01*
D02*
G37*
G36*
X531114Y854136D02*
X528764Y853826D01*
X526575Y852919D01*
X524695Y851477D01*
X523252Y849597D01*
X522346Y847408D01*
X522036Y845058D01*
X522346Y842709D01*
X523252Y840519D01*
X524695Y838639D01*
X526575Y837197D01*
X528764Y836290D01*
X531114Y835980D01*
X533464Y836290D01*
X535653Y837197D01*
X537533Y838639D01*
X538975Y840519D01*
X539882Y842709D01*
X540192Y845058D01*
X539882Y847408D01*
X538975Y849597D01*
X537533Y851477D01*
X535653Y852919D01*
X533464Y853826D01*
X531114Y854136D01*
D02*
G37*
G36*
X556514D02*
X554165Y853826D01*
X551975Y852919D01*
X550095Y851477D01*
X548652Y849597D01*
X547746Y847408D01*
X547436Y845058D01*
X547746Y842709D01*
X548652Y840519D01*
X550095Y838639D01*
X551975Y837197D01*
X554165Y836290D01*
X556514Y835980D01*
X558863Y836290D01*
X561053Y837197D01*
X562933Y838639D01*
X564375Y840519D01*
X565282Y842709D01*
X565592Y845058D01*
X565282Y847408D01*
X564375Y849597D01*
X562933Y851477D01*
X561053Y852919D01*
X558863Y853826D01*
X556514Y854136D01*
D02*
G37*
G36*
X758230Y841730D02*
X754104D01*
X754281Y840838D01*
X755506Y839006D01*
X757338Y837781D01*
X758230Y837604D01*
Y841730D01*
D02*
G37*
G36*
X861568Y834660D02*
X859812Y834311D01*
X858324Y833316D01*
X857329Y831828D01*
X856980Y830072D01*
X857329Y828316D01*
X858324Y826828D01*
X859812Y825833D01*
X861568Y825484D01*
X863324Y825833D01*
X864812Y826828D01*
X865807Y828316D01*
X866156Y830072D01*
X865807Y831828D01*
X864812Y833316D01*
X863324Y834311D01*
X861568Y834660D01*
D02*
G37*
G36*
X734500Y835088D02*
X732744Y834739D01*
X731256Y833744D01*
X730261Y832256D01*
X729912Y830500D01*
X730261Y828744D01*
X731256Y827256D01*
X732744Y826261D01*
X734500Y825912D01*
X736256Y826261D01*
X737744Y827256D01*
X738739Y828744D01*
X739088Y830500D01*
X738739Y832256D01*
X737744Y833744D01*
X736256Y834739D01*
X734500Y835088D01*
D02*
G37*
G36*
X486410Y852225D02*
X484029Y851911D01*
X481811Y850992D01*
X479906Y849530D01*
X478444Y847625D01*
X477525Y845407D01*
X477211Y843026D01*
X477525Y840645D01*
X478444Y838427D01*
X479906Y836522D01*
X481811Y835060D01*
X484029Y834141D01*
X486410Y833827D01*
X488791Y834141D01*
X491009Y835060D01*
X492915Y836522D01*
X494376Y838427D01*
X495295Y840645D01*
X495609Y843026D01*
X495295Y845407D01*
X494376Y847625D01*
X492915Y849530D01*
X491009Y850992D01*
X488791Y851911D01*
X486410Y852225D01*
D02*
G37*
G36*
X727010Y880110D02*
X722884D01*
Y875984D01*
X723776Y876161D01*
X725608Y877386D01*
X726833Y879218D01*
X727010Y880110D01*
D02*
G37*
G36*
X752664D02*
X748538D01*
Y875984D01*
X749430Y876161D01*
X751262Y877386D01*
X752487Y879218D01*
X752664Y880110D01*
D02*
G37*
G36*
X848998Y885586D02*
X847243Y885237D01*
X845754Y884243D01*
X844759Y882754D01*
X844410Y880998D01*
X844759Y879242D01*
X845754Y877754D01*
X847243Y876759D01*
X848998Y876410D01*
X850754Y876759D01*
X852243Y877754D01*
X853237Y879242D01*
X853587Y880998D01*
X853237Y882754D01*
X852243Y884243D01*
X850754Y885237D01*
X848998Y885586D01*
D02*
G37*
G36*
X923544Y879856D02*
X919418D01*
X919595Y878964D01*
X920820Y877132D01*
X922652Y875907D01*
X923544Y875730D01*
Y879856D01*
D02*
G37*
G36*
X930210D02*
X926084D01*
Y875730D01*
X926976Y875907D01*
X928808Y877132D01*
X930033Y878964D01*
X930210Y879856D01*
D02*
G37*
G36*
X720344Y880110D02*
X716218D01*
X716395Y879218D01*
X717620Y877386D01*
X719452Y876161D01*
X720344Y875984D01*
Y880110D01*
D02*
G37*
G36*
X899414Y885968D02*
X897658Y885619D01*
X896170Y884624D01*
X895175Y883136D01*
X894826Y881380D01*
X895175Y879624D01*
X896170Y878136D01*
X897658Y877141D01*
X899414Y876792D01*
X901170Y877141D01*
X902658Y878136D01*
X903653Y879624D01*
X904002Y881380D01*
X903653Y883136D01*
X902658Y884624D01*
X901170Y885619D01*
X899414Y885968D01*
D02*
G37*
G36*
X631444Y887746D02*
X629688Y887397D01*
X628200Y886402D01*
X627205Y884914D01*
X626856Y883158D01*
X627205Y881402D01*
X628200Y879914D01*
X629688Y878919D01*
X631444Y878570D01*
X633200Y878919D01*
X634688Y879914D01*
X635683Y881402D01*
X636032Y883158D01*
X635683Y884914D01*
X634688Y886402D01*
X633200Y887397D01*
X631444Y887746D01*
D02*
G37*
G36*
X923544Y886522D02*
X922652Y886345D01*
X920820Y885120D01*
X919595Y883288D01*
X919418Y882396D01*
X923544D01*
Y886522D01*
D02*
G37*
G36*
X811000Y885588D02*
X809244Y885239D01*
X807756Y884244D01*
X806761Y882756D01*
X806412Y881000D01*
X806761Y879244D01*
X807756Y877756D01*
X809244Y876761D01*
X811000Y876412D01*
X812756Y876761D01*
X814244Y877756D01*
X815239Y879244D01*
X815588Y881000D01*
X815239Y882756D01*
X814244Y884244D01*
X812756Y885239D01*
X811000Y885588D01*
D02*
G37*
G36*
X823500D02*
X821744Y885239D01*
X820256Y884244D01*
X819261Y882756D01*
X818912Y881000D01*
X819261Y879244D01*
X820256Y877756D01*
X821744Y876761D01*
X823500Y876412D01*
X825256Y876761D01*
X826744Y877756D01*
X827739Y879244D01*
X828088Y881000D01*
X827739Y882756D01*
X826744Y884244D01*
X825256Y885239D01*
X823500Y885588D01*
D02*
G37*
G36*
X798830Y885714D02*
X797074Y885365D01*
X795586Y884370D01*
X794591Y882882D01*
X794242Y881126D01*
X794591Y879370D01*
X795586Y877882D01*
X797074Y876887D01*
X798830Y876538D01*
X800586Y876887D01*
X802074Y877882D01*
X803069Y879370D01*
X803418Y881126D01*
X803069Y882882D01*
X802074Y884370D01*
X800586Y885365D01*
X798830Y885714D01*
D02*
G37*
G36*
X777556Y879856D02*
X773430D01*
Y875730D01*
X774322Y875907D01*
X776154Y877132D01*
X777379Y878964D01*
X777556Y879856D01*
D02*
G37*
G36*
X785622Y872760D02*
X783866Y872411D01*
X782378Y871416D01*
X781383Y869928D01*
X781034Y868172D01*
X781383Y866416D01*
X782378Y864928D01*
X783866Y863933D01*
X785622Y863584D01*
X787378Y863933D01*
X788866Y864928D01*
X789861Y866416D01*
X790210Y868172D01*
X789861Y869928D01*
X788866Y871416D01*
X787378Y872411D01*
X785622Y872760D01*
D02*
G37*
G36*
X798576D02*
X796820Y872411D01*
X795332Y871416D01*
X794337Y869928D01*
X793988Y868172D01*
X794337Y866416D01*
X795332Y864928D01*
X796820Y863933D01*
X798576Y863584D01*
X800332Y863933D01*
X801820Y864928D01*
X802815Y866416D01*
X803164Y868172D01*
X802815Y869928D01*
X801820Y871416D01*
X800332Y872411D01*
X798576Y872760D01*
D02*
G37*
G36*
X849498Y873086D02*
X847742Y872737D01*
X846254Y871743D01*
X845259Y870254D01*
X844910Y868498D01*
X845259Y866742D01*
X846254Y865254D01*
X847742Y864259D01*
X849498Y863910D01*
X851254Y864259D01*
X852743Y865254D01*
X853737Y866742D01*
X854087Y868498D01*
X853737Y870254D01*
X852743Y871743D01*
X851254Y872737D01*
X849498Y873086D01*
D02*
G37*
G36*
X556514Y879536D02*
X554165Y879226D01*
X551975Y878319D01*
X550095Y876877D01*
X548652Y874997D01*
X547746Y872807D01*
X547436Y870458D01*
X547746Y868109D01*
X548652Y865919D01*
X550095Y864039D01*
X551975Y862597D01*
X554165Y861690D01*
X556514Y861380D01*
X558863Y861690D01*
X561053Y862597D01*
X562933Y864039D01*
X564375Y865919D01*
X565282Y868109D01*
X565592Y870458D01*
X565282Y872807D01*
X564375Y874997D01*
X562933Y876877D01*
X561053Y878319D01*
X558863Y879226D01*
X556514Y879536D01*
D02*
G37*
G36*
X771144Y867156D02*
X767018D01*
X767195Y866264D01*
X768420Y864432D01*
X770252Y863207D01*
X771144Y863030D01*
Y867156D01*
D02*
G37*
G36*
X777810D02*
X773684D01*
Y863030D01*
X774576Y863207D01*
X776408Y864432D01*
X777633Y866264D01*
X777810Y867156D01*
D02*
G37*
G36*
X771144Y873822D02*
X770252Y873645D01*
X768420Y872420D01*
X767195Y870588D01*
X767018Y869696D01*
X771144D01*
Y873822D01*
D02*
G37*
G36*
X773684D02*
Y869696D01*
X777810D01*
X777633Y870588D01*
X776408Y872420D01*
X774576Y873645D01*
X773684Y873822D01*
D02*
G37*
G36*
X770890Y879856D02*
X766764D01*
X766941Y878964D01*
X768166Y877132D01*
X769998Y875907D01*
X770890Y875730D01*
Y879856D01*
D02*
G37*
G36*
X760000Y873088D02*
X758244Y872739D01*
X756756Y871744D01*
X755761Y870256D01*
X755412Y868500D01*
X755761Y866744D01*
X756756Y865256D01*
X758244Y864261D01*
X760000Y863912D01*
X761756Y864261D01*
X763244Y865256D01*
X764239Y866744D01*
X764588Y868500D01*
X764239Y870256D01*
X763244Y871744D01*
X761756Y872739D01*
X760000Y873088D01*
D02*
G37*
G36*
X836000D02*
X834244Y872739D01*
X832756Y871744D01*
X831761Y870256D01*
X831412Y868500D01*
X831761Y866744D01*
X832756Y865256D01*
X834244Y864261D01*
X836000Y863912D01*
X837756Y864261D01*
X839244Y865256D01*
X840239Y866744D01*
X840588Y868500D01*
X840239Y870256D01*
X839244Y871744D01*
X837756Y872739D01*
X836000Y873088D01*
D02*
G37*
G36*
X486918Y886515D02*
X484537Y886201D01*
X482319Y885282D01*
X480414Y883820D01*
X478952Y881915D01*
X478033Y879697D01*
X477719Y877316D01*
X478033Y874935D01*
X478952Y872717D01*
X480414Y870811D01*
X482319Y869350D01*
X484537Y868431D01*
X486918Y868117D01*
X489299Y868431D01*
X491517Y869350D01*
X493423Y870811D01*
X494884Y872717D01*
X495803Y874935D01*
X496117Y877316D01*
X495803Y879697D01*
X494884Y881915D01*
X493423Y883820D01*
X491517Y885282D01*
X489299Y886201D01*
X486918Y886515D01*
D02*
G37*
G36*
X556514Y828736D02*
X554165Y828426D01*
X551975Y827520D01*
X550095Y826077D01*
X548652Y824197D01*
X547746Y822008D01*
X547436Y819658D01*
X547746Y817309D01*
X548652Y815119D01*
X550095Y813239D01*
X551975Y811796D01*
X554165Y810890D01*
X556514Y810580D01*
X558863Y810890D01*
X561053Y811796D01*
X562933Y813239D01*
X564375Y815119D01*
X565282Y817309D01*
X565592Y819658D01*
X565282Y822008D01*
X564375Y824197D01*
X562933Y826077D01*
X561053Y827520D01*
X558863Y828426D01*
X556514Y828736D01*
D02*
G37*
G36*
X630538Y634348D02*
X612538D01*
Y616348D01*
X630538D01*
Y634348D01*
D02*
G37*
G36*
X594868Y635307D02*
X593517Y635130D01*
X591075Y634118D01*
X588977Y632509D01*
X587368Y630411D01*
X586356Y627969D01*
X586179Y626618D01*
X594868D01*
Y635307D01*
D02*
G37*
G36*
X531114Y650936D02*
X528764Y650626D01*
X526575Y649719D01*
X524695Y648277D01*
X523252Y646397D01*
X522346Y644208D01*
X522036Y641858D01*
X522346Y639509D01*
X523252Y637319D01*
X524695Y635439D01*
X526575Y633997D01*
X528764Y633090D01*
X531114Y632780D01*
X533464Y633090D01*
X535653Y633997D01*
X537533Y635439D01*
X538975Y637319D01*
X539882Y639509D01*
X540192Y641858D01*
X539882Y644208D01*
X538975Y646397D01*
X537533Y648277D01*
X535653Y649719D01*
X533464Y650626D01*
X531114Y650936D01*
D02*
G37*
G36*
Y625536D02*
X528764Y625226D01*
X526575Y624319D01*
X524695Y622877D01*
X523252Y620997D01*
X522346Y618807D01*
X522036Y616458D01*
X522346Y614109D01*
X523252Y611919D01*
X524695Y610039D01*
X526575Y608596D01*
X528764Y607690D01*
X531114Y607380D01*
X533464Y607690D01*
X535653Y608596D01*
X537533Y610039D01*
X538975Y611919D01*
X539882Y614109D01*
X540192Y616458D01*
X539882Y618807D01*
X538975Y620997D01*
X537533Y622877D01*
X535653Y624319D01*
X533464Y625226D01*
X531114Y625536D01*
D02*
G37*
G36*
X556514D02*
X554165Y625226D01*
X551975Y624319D01*
X550095Y622877D01*
X548652Y620997D01*
X547746Y618807D01*
X547436Y616458D01*
X547746Y614109D01*
X548652Y611919D01*
X550095Y610039D01*
X551975Y608596D01*
X554165Y607690D01*
X556514Y607380D01*
X558863Y607690D01*
X561053Y608596D01*
X562933Y610039D01*
X564375Y611919D01*
X565282Y614109D01*
X565592Y616458D01*
X565282Y618807D01*
X564375Y620997D01*
X562933Y622877D01*
X561053Y624319D01*
X558863Y625226D01*
X556514Y625536D01*
D02*
G37*
G36*
X594868Y624078D02*
X586179D01*
X586356Y622727D01*
X587368Y620285D01*
X588977Y618187D01*
X591075Y616578D01*
X593517Y615566D01*
X594868Y615389D01*
Y624078D01*
D02*
G37*
G36*
X556514Y650936D02*
X554165Y650626D01*
X551975Y649719D01*
X550095Y648277D01*
X548652Y646397D01*
X547746Y644208D01*
X547436Y641858D01*
X547746Y639509D01*
X548652Y637319D01*
X550095Y635439D01*
X551975Y633997D01*
X554165Y633090D01*
X556514Y632780D01*
X558863Y633090D01*
X561053Y633997D01*
X562933Y635439D01*
X564375Y637319D01*
X565282Y639509D01*
X565592Y641858D01*
X565282Y644208D01*
X564375Y646397D01*
X562933Y648277D01*
X561053Y649719D01*
X558863Y650626D01*
X556514Y650936D01*
D02*
G37*
G36*
Y676336D02*
X554165Y676026D01*
X551975Y675119D01*
X550095Y673677D01*
X548652Y671797D01*
X547746Y669607D01*
X547436Y667258D01*
X547746Y664909D01*
X548652Y662719D01*
X550095Y660839D01*
X551975Y659397D01*
X554165Y658490D01*
X556514Y658180D01*
X558863Y658490D01*
X561053Y659397D01*
X562933Y660839D01*
X564375Y662719D01*
X565282Y664909D01*
X565592Y667258D01*
X565282Y669607D01*
X564375Y671797D01*
X562933Y673677D01*
X561053Y675119D01*
X558863Y676026D01*
X556514Y676336D01*
D02*
G37*
G36*
X594614Y677085D02*
X593232Y676902D01*
X590760Y675879D01*
X588638Y674250D01*
X587009Y672128D01*
X585985Y669656D01*
X585803Y668274D01*
X594614D01*
Y677085D01*
D02*
G37*
G36*
X529844Y691388D02*
X521155D01*
X521332Y690037D01*
X522344Y687595D01*
X523953Y685497D01*
X526051Y683888D01*
X528493Y682876D01*
X529844Y682699D01*
Y691388D01*
D02*
G37*
G36*
X594614Y665734D02*
X585803D01*
X585985Y664352D01*
X587009Y661880D01*
X588638Y659758D01*
X590760Y658129D01*
X593232Y657105D01*
X594614Y656924D01*
Y665734D01*
D02*
G37*
G36*
X597154Y677085D02*
Y667004D01*
Y656924D01*
X598536Y657105D01*
X601008Y658129D01*
X603130Y659758D01*
X604759Y661880D01*
X605783Y664352D01*
X606132Y667004D01*
X605783Y669656D01*
X604759Y672128D01*
X603130Y674250D01*
X601008Y675879D01*
X598536Y676902D01*
X597154Y677085D01*
D02*
G37*
G36*
X531114Y676336D02*
X528764Y676026D01*
X526575Y675119D01*
X524695Y673677D01*
X523252Y671797D01*
X522346Y669607D01*
X522036Y667258D01*
X522346Y664909D01*
X523252Y662719D01*
X524695Y660839D01*
X526575Y659397D01*
X528764Y658490D01*
X531114Y658180D01*
X533464Y658490D01*
X535653Y659397D01*
X537533Y660839D01*
X538975Y662719D01*
X539882Y664909D01*
X540192Y667258D01*
X539882Y669607D01*
X538975Y671797D01*
X537533Y673677D01*
X535653Y675119D01*
X533464Y676026D01*
X531114Y676336D01*
D02*
G37*
G36*
X595630Y537131D02*
X594248Y536949D01*
X591776Y535925D01*
X589654Y534296D01*
X588025Y532174D01*
X587001Y529702D01*
X586819Y528320D01*
X595630D01*
Y537131D01*
D02*
G37*
G36*
X598170D02*
Y528320D01*
X606981D01*
X606799Y529702D01*
X605775Y532174D01*
X604146Y534296D01*
X602024Y535925D01*
X599552Y536949D01*
X598170Y537131D01*
D02*
G37*
G36*
X593852Y575617D02*
X592501Y575440D01*
X590059Y574428D01*
X587961Y572819D01*
X586352Y570721D01*
X585340Y568279D01*
X584995Y565658D01*
X585340Y563037D01*
X586352Y560595D01*
X587961Y558497D01*
X590059Y556888D01*
X592501Y555876D01*
X593852Y555699D01*
Y565658D01*
Y575617D01*
D02*
G37*
G36*
X595630Y525780D02*
X586819D01*
X587001Y524398D01*
X588025Y521926D01*
X589654Y519804D01*
X591776Y518175D01*
X594248Y517151D01*
X595630Y516969D01*
Y525780D01*
D02*
G37*
G36*
X606981D02*
X598170D01*
Y516969D01*
X599552Y517151D01*
X602024Y518175D01*
X604146Y519804D01*
X605775Y521926D01*
X606799Y524398D01*
X606981Y525780D01*
D02*
G37*
G36*
X399310Y556932D02*
X395585Y556565D01*
X392004Y555479D01*
X388703Y553714D01*
X385810Y551340D01*
X383436Y548447D01*
X381671Y545146D01*
X380585Y541565D01*
X380218Y537840D01*
X380585Y534115D01*
X381671Y530534D01*
X383436Y527233D01*
X385810Y524340D01*
X388703Y521966D01*
X392004Y520201D01*
X395585Y519115D01*
X399310Y518748D01*
X403035Y519115D01*
X406616Y520201D01*
X409917Y521966D01*
X412810Y524340D01*
X415184Y527233D01*
X416949Y530534D01*
X418035Y534115D01*
X418402Y537840D01*
X418035Y541565D01*
X416949Y545146D01*
X415184Y548447D01*
X412810Y551340D01*
X409917Y553714D01*
X406616Y555479D01*
X403035Y556565D01*
X399310Y556932D01*
D02*
G37*
G36*
X605081Y564388D02*
X596392D01*
Y555699D01*
X597743Y555876D01*
X600185Y556888D01*
X602283Y558497D01*
X603892Y560595D01*
X604904Y563037D01*
X605081Y564388D01*
D02*
G37*
G36*
X596392Y575617D02*
Y566928D01*
X605081D01*
X604904Y568279D01*
X603892Y570721D01*
X602283Y572819D01*
X600185Y574428D01*
X597743Y575440D01*
X596392Y575617D01*
D02*
G37*
G36*
X531114Y600136D02*
X528764Y599826D01*
X526575Y598919D01*
X524695Y597477D01*
X523252Y595597D01*
X522346Y593408D01*
X522036Y591058D01*
X522346Y588708D01*
X523252Y586519D01*
X524695Y584639D01*
X526575Y583196D01*
X528764Y582290D01*
X531114Y581980D01*
X533464Y582290D01*
X535653Y583196D01*
X537533Y584639D01*
X538975Y586519D01*
X539882Y588708D01*
X540192Y591058D01*
X539882Y593408D01*
X538975Y595597D01*
X537533Y597477D01*
X535653Y598919D01*
X533464Y599826D01*
X531114Y600136D01*
D02*
G37*
G36*
X556514D02*
X554165Y599826D01*
X551975Y598919D01*
X550095Y597477D01*
X548652Y595597D01*
X547746Y593408D01*
X547436Y591058D01*
X547746Y588708D01*
X548652Y586519D01*
X550095Y584639D01*
X551975Y583196D01*
X554165Y582290D01*
X556514Y581980D01*
X558863Y582290D01*
X561053Y583196D01*
X562933Y584639D01*
X564375Y586519D01*
X565282Y588708D01*
X565592Y591058D01*
X565282Y593408D01*
X564375Y595597D01*
X562933Y597477D01*
X561053Y598919D01*
X558863Y599826D01*
X556514Y600136D01*
D02*
G37*
G36*
X531114Y574736D02*
X528764Y574426D01*
X526575Y573520D01*
X524695Y572077D01*
X523252Y570197D01*
X522346Y568008D01*
X522036Y565658D01*
X522346Y563308D01*
X523252Y561119D01*
X524695Y559239D01*
X526575Y557797D01*
X528764Y556890D01*
X531114Y556580D01*
X533464Y556890D01*
X535653Y557797D01*
X537533Y559239D01*
X538975Y561119D01*
X539882Y563308D01*
X540192Y565658D01*
X539882Y568008D01*
X538975Y570197D01*
X537533Y572077D01*
X535653Y573520D01*
X533464Y574426D01*
X531114Y574736D01*
D02*
G37*
G36*
X556514D02*
X554165Y574426D01*
X551975Y573520D01*
X550095Y572077D01*
X548652Y570197D01*
X547746Y568008D01*
X547436Y565658D01*
X547746Y563308D01*
X548652Y561119D01*
X550095Y559239D01*
X551975Y557797D01*
X554165Y556890D01*
X556514Y556580D01*
X558863Y556890D01*
X561053Y557797D01*
X562933Y559239D01*
X564375Y561119D01*
X565282Y563308D01*
X565592Y565658D01*
X565282Y568008D01*
X564375Y570197D01*
X562933Y572077D01*
X561053Y573520D01*
X558863Y574426D01*
X556514Y574736D01*
D02*
G37*
G36*
X629522Y574658D02*
X611522D01*
Y556658D01*
X629522D01*
Y574658D01*
D02*
G37*
G36*
X556514Y803336D02*
X554165Y803026D01*
X551975Y802120D01*
X550095Y800677D01*
X548652Y798797D01*
X547746Y796608D01*
X547436Y794258D01*
X547746Y791908D01*
X548652Y789719D01*
X550095Y787839D01*
X551975Y786396D01*
X554165Y785490D01*
X556514Y785180D01*
X558863Y785490D01*
X561053Y786396D01*
X562933Y787839D01*
X564375Y789719D01*
X565282Y791908D01*
X565592Y794258D01*
X565282Y796608D01*
X564375Y798797D01*
X562933Y800677D01*
X561053Y802120D01*
X558863Y803026D01*
X556514Y803336D01*
D02*
G37*
G36*
X773000Y796588D02*
X771244Y796239D01*
X769756Y795244D01*
X768761Y793756D01*
X768412Y792000D01*
X768761Y790244D01*
X769756Y788756D01*
X771244Y787761D01*
X773000Y787412D01*
X774756Y787761D01*
X776244Y788756D01*
X777239Y790244D01*
X777588Y792000D01*
X777239Y793756D01*
X776244Y795244D01*
X774756Y796239D01*
X773000Y796588D01*
D02*
G37*
G36*
X691642Y802910D02*
X689886Y802561D01*
X688398Y801566D01*
X687403Y800078D01*
X687054Y798322D01*
X687403Y796566D01*
X688398Y795078D01*
X689886Y794083D01*
X691642Y793734D01*
X693398Y794083D01*
X694886Y795078D01*
X695881Y796566D01*
X696230Y798322D01*
X695881Y800078D01*
X694886Y801566D01*
X693398Y802561D01*
X691642Y802910D01*
D02*
G37*
G36*
X556514Y777936D02*
X554165Y777626D01*
X551975Y776720D01*
X550095Y775277D01*
X548652Y773397D01*
X547746Y771208D01*
X547436Y768858D01*
X547746Y766508D01*
X548652Y764319D01*
X550095Y762439D01*
X551975Y760996D01*
X554165Y760090D01*
X556514Y759780D01*
X558863Y760090D01*
X561053Y760996D01*
X562933Y762439D01*
X564375Y764319D01*
X565282Y766508D01*
X565592Y768858D01*
X565282Y771208D01*
X564375Y773397D01*
X562933Y775277D01*
X561053Y776720D01*
X558863Y777626D01*
X556514Y777936D01*
D02*
G37*
G36*
X460756Y792789D02*
X458375Y792475D01*
X456157Y791556D01*
X454252Y790095D01*
X452790Y788189D01*
X451871Y785971D01*
X451557Y783590D01*
X451871Y781209D01*
X452790Y778991D01*
X454252Y777085D01*
X456157Y775624D01*
X458375Y774705D01*
X460756Y774391D01*
X463137Y774705D01*
X465355Y775624D01*
X467261Y777085D01*
X468722Y778991D01*
X469641Y781209D01*
X469955Y783590D01*
X469641Y785971D01*
X468722Y788189D01*
X467261Y790095D01*
X465355Y791556D01*
X463137Y792475D01*
X460756Y792789D01*
D02*
G37*
G36*
X531114Y803336D02*
X528764Y803026D01*
X526575Y802120D01*
X524695Y800677D01*
X523252Y798797D01*
X522346Y796608D01*
X522036Y794258D01*
X522346Y791908D01*
X523252Y789719D01*
X524695Y787839D01*
X526575Y786396D01*
X528764Y785490D01*
X531114Y785180D01*
X533464Y785490D01*
X535653Y786396D01*
X537533Y787839D01*
X538975Y789719D01*
X539882Y791908D01*
X540192Y794258D01*
X539882Y796608D01*
X538975Y798797D01*
X537533Y800677D01*
X535653Y802120D01*
X533464Y803026D01*
X531114Y803336D01*
D02*
G37*
G36*
X486410Y813701D02*
X484029Y813388D01*
X481811Y812469D01*
X479906Y811007D01*
X478444Y809102D01*
X477525Y806883D01*
X477211Y804503D01*
X477525Y802122D01*
X478444Y799903D01*
X479906Y797998D01*
X481811Y796536D01*
X484029Y795617D01*
X486410Y795304D01*
X488791Y795617D01*
X491009Y796536D01*
X492915Y797998D01*
X494376Y799903D01*
X495295Y802122D01*
X495609Y804503D01*
X495295Y806883D01*
X494376Y809102D01*
X492915Y811007D01*
X491009Y812469D01*
X488791Y813388D01*
X486410Y813701D01*
D02*
G37*
G36*
X733730Y809896D02*
X732838Y809718D01*
X731006Y808494D01*
X729781Y806662D01*
X729604Y805770D01*
X733730D01*
Y809896D01*
D02*
G37*
G36*
X736270D02*
Y805770D01*
X740396D01*
X740219Y806662D01*
X738994Y808494D01*
X737162Y809718D01*
X736270Y809896D01*
D02*
G37*
G36*
X531114Y828736D02*
X528764Y828426D01*
X526575Y827520D01*
X524695Y826077D01*
X523252Y824197D01*
X522346Y822008D01*
X522036Y819658D01*
X522346Y817309D01*
X523252Y815119D01*
X524695Y813239D01*
X526575Y811796D01*
X528764Y810890D01*
X531114Y810580D01*
X533464Y810890D01*
X535653Y811796D01*
X537533Y813239D01*
X538975Y815119D01*
X539882Y817309D01*
X540192Y819658D01*
X539882Y822008D01*
X538975Y824197D01*
X537533Y826077D01*
X535653Y827520D01*
X533464Y828426D01*
X531114Y828736D01*
D02*
G37*
G36*
X733730Y803230D02*
X729604D01*
X729781Y802338D01*
X731006Y800506D01*
X732838Y799281D01*
X733730Y799104D01*
Y803230D01*
D02*
G37*
G36*
X740396D02*
X736270D01*
Y799104D01*
X737162Y799281D01*
X738994Y800506D01*
X740219Y802338D01*
X740396Y803230D01*
D02*
G37*
G36*
X810260Y809768D02*
X808504Y809419D01*
X807016Y808424D01*
X806021Y806936D01*
X805672Y805180D01*
X806021Y803424D01*
X807016Y801936D01*
X808504Y800941D01*
X810260Y800592D01*
X812016Y800941D01*
X813504Y801936D01*
X814499Y803424D01*
X814848Y805180D01*
X814499Y806936D01*
X813504Y808424D01*
X812016Y809419D01*
X810260Y809768D01*
D02*
G37*
G36*
X532384Y702617D02*
Y693928D01*
X541073D01*
X540896Y695279D01*
X539884Y697721D01*
X538275Y699819D01*
X536177Y701428D01*
X533735Y702440D01*
X532384Y702617D01*
D02*
G37*
G36*
X460756Y715319D02*
X458375Y715005D01*
X456157Y714086D01*
X454252Y712625D01*
X452790Y710719D01*
X451871Y708501D01*
X451557Y706120D01*
X451871Y703739D01*
X452790Y701521D01*
X454252Y699615D01*
X456157Y698154D01*
X458375Y697235D01*
X460756Y696921D01*
X463137Y697235D01*
X465355Y698154D01*
X467261Y699615D01*
X468722Y701521D01*
X469641Y703739D01*
X469955Y706120D01*
X469641Y708501D01*
X468722Y710719D01*
X467261Y712625D01*
X465355Y714086D01*
X463137Y715005D01*
X460756Y715319D01*
D02*
G37*
G36*
X531114Y727136D02*
X528764Y726826D01*
X526575Y725919D01*
X524695Y724477D01*
X523252Y722597D01*
X522346Y720407D01*
X522036Y718058D01*
X522346Y715708D01*
X523252Y713519D01*
X524695Y711639D01*
X526575Y710197D01*
X528764Y709290D01*
X531114Y708980D01*
X533464Y709290D01*
X535653Y710197D01*
X537533Y711639D01*
X538975Y713519D01*
X539882Y715708D01*
X540192Y718058D01*
X539882Y720407D01*
X538975Y722597D01*
X537533Y724477D01*
X535653Y725919D01*
X533464Y726826D01*
X531114Y727136D01*
D02*
G37*
G36*
X541073Y691388D02*
X532384D01*
Y682699D01*
X533735Y682876D01*
X536177Y683888D01*
X538275Y685497D01*
X539884Y687595D01*
X540896Y690037D01*
X541073Y691388D01*
D02*
G37*
G36*
X556514Y701736D02*
X554165Y701426D01*
X551975Y700519D01*
X550095Y699077D01*
X548652Y697197D01*
X547746Y695007D01*
X547436Y692658D01*
X547746Y690309D01*
X548652Y688119D01*
X550095Y686239D01*
X551975Y684797D01*
X554165Y683890D01*
X556514Y683580D01*
X558863Y683890D01*
X561053Y684797D01*
X562933Y686239D01*
X564375Y688119D01*
X565282Y690309D01*
X565592Y692658D01*
X565282Y695007D01*
X564375Y697197D01*
X562933Y699077D01*
X561053Y700519D01*
X558863Y701426D01*
X556514Y701736D01*
D02*
G37*
G36*
X529844Y702617D02*
X528493Y702440D01*
X526051Y701428D01*
X523953Y699819D01*
X522344Y697721D01*
X521332Y695279D01*
X521155Y693928D01*
X529844D01*
Y702617D01*
D02*
G37*
G36*
X556514Y727136D02*
X554165Y726826D01*
X551975Y725919D01*
X550095Y724477D01*
X548652Y722597D01*
X547746Y720407D01*
X547436Y718058D01*
X547746Y715708D01*
X548652Y713519D01*
X550095Y711639D01*
X551975Y710197D01*
X554165Y709290D01*
X556514Y708980D01*
X558863Y709290D01*
X561053Y710197D01*
X562933Y711639D01*
X564375Y713519D01*
X565282Y715708D01*
X565592Y718058D01*
X565282Y720407D01*
X564375Y722597D01*
X562933Y724477D01*
X561053Y725919D01*
X558863Y726826D01*
X556514Y727136D01*
D02*
G37*
G36*
Y752536D02*
X554165Y752226D01*
X551975Y751320D01*
X550095Y749877D01*
X548652Y747997D01*
X547746Y745807D01*
X547436Y743458D01*
X547746Y741108D01*
X548652Y738919D01*
X550095Y737039D01*
X551975Y735596D01*
X554165Y734690D01*
X556514Y734380D01*
X558863Y734690D01*
X561053Y735596D01*
X562933Y737039D01*
X564375Y738919D01*
X565282Y741108D01*
X565592Y743458D01*
X565282Y745807D01*
X564375Y747997D01*
X562933Y749877D01*
X561053Y751320D01*
X558863Y752226D01*
X556514Y752536D01*
D02*
G37*
G36*
X486410Y775178D02*
X484029Y774865D01*
X481811Y773946D01*
X479906Y772484D01*
X478444Y770579D01*
X477525Y768360D01*
X477211Y765979D01*
X477525Y763598D01*
X478444Y761380D01*
X479906Y759475D01*
X481811Y758013D01*
X484029Y757094D01*
X486410Y756781D01*
X488791Y757094D01*
X491009Y758013D01*
X492915Y759475D01*
X494376Y761380D01*
X495295Y763598D01*
X495609Y765979D01*
X495295Y768360D01*
X494376Y770579D01*
X492915Y772484D01*
X491009Y773946D01*
X488791Y774865D01*
X486410Y775178D01*
D02*
G37*
G36*
X531114Y777936D02*
X528764Y777626D01*
X526575Y776720D01*
X524695Y775277D01*
X523252Y773397D01*
X522346Y771208D01*
X522036Y768858D01*
X522346Y766508D01*
X523252Y764319D01*
X524695Y762439D01*
X526575Y760996D01*
X528764Y760090D01*
X531114Y759780D01*
X533464Y760090D01*
X535653Y760996D01*
X537533Y762439D01*
X538975Y764319D01*
X539882Y766508D01*
X540192Y768858D01*
X539882Y771208D01*
X538975Y773397D01*
X537533Y775277D01*
X535653Y776720D01*
X533464Y777626D01*
X531114Y777936D01*
D02*
G37*
G36*
X486410Y736655D02*
X484029Y736341D01*
X481811Y735422D01*
X479906Y733960D01*
X478444Y732055D01*
X477525Y729837D01*
X477211Y727456D01*
X477525Y725075D01*
X478444Y722857D01*
X479906Y720952D01*
X481811Y719490D01*
X484029Y718571D01*
X486410Y718257D01*
X488791Y718571D01*
X491009Y719490D01*
X492915Y720952D01*
X494376Y722857D01*
X495295Y725075D01*
X495609Y727456D01*
X495295Y729837D01*
X494376Y732055D01*
X492915Y733960D01*
X491009Y735422D01*
X488791Y736341D01*
X486410Y736655D01*
D02*
G37*
G36*
X460756Y752657D02*
X458375Y752343D01*
X456157Y751424D01*
X454252Y749962D01*
X452790Y748057D01*
X451871Y745839D01*
X451557Y743458D01*
X451871Y741077D01*
X452790Y738859D01*
X454252Y736954D01*
X456157Y735492D01*
X458375Y734573D01*
X460756Y734259D01*
X463137Y734573D01*
X465355Y735492D01*
X467261Y736954D01*
X468722Y738859D01*
X469641Y741077D01*
X469955Y743458D01*
X469641Y745839D01*
X468722Y748057D01*
X467261Y749962D01*
X465355Y751424D01*
X463137Y752343D01*
X460756Y752657D01*
D02*
G37*
G36*
X531114Y752536D02*
X528764Y752226D01*
X526575Y751320D01*
X524695Y749877D01*
X523252Y747997D01*
X522346Y745807D01*
X522036Y743458D01*
X522346Y741108D01*
X523252Y738919D01*
X524695Y737039D01*
X526575Y735596D01*
X528764Y734690D01*
X531114Y734380D01*
X533464Y734690D01*
X535653Y735596D01*
X537533Y737039D01*
X538975Y738919D01*
X539882Y741108D01*
X540192Y743458D01*
X539882Y745807D01*
X538975Y747997D01*
X537533Y749877D01*
X535653Y751320D01*
X533464Y752226D01*
X531114Y752536D01*
D02*
G37*
G36*
X932180Y968772D02*
X930424Y968423D01*
X928936Y967428D01*
X927941Y965940D01*
X927592Y964184D01*
X927941Y962428D01*
X928936Y960940D01*
X930424Y959945D01*
X932180Y959596D01*
X933936Y959945D01*
X935424Y960940D01*
X936419Y962428D01*
X936768Y964184D01*
X936419Y965940D01*
X935424Y967428D01*
X933936Y968423D01*
X932180Y968772D01*
D02*
G37*
G36*
X717550Y964246D02*
X716658Y964069D01*
X714826Y962844D01*
X713601Y961012D01*
X713424Y960120D01*
X717550D01*
Y964246D01*
D02*
G37*
G36*
X720090D02*
Y960120D01*
X724216D01*
X724039Y961012D01*
X722814Y962844D01*
X720982Y964069D01*
X720090Y964246D01*
D02*
G37*
G36*
X461010Y974145D02*
X458629Y973831D01*
X456411Y972912D01*
X454506Y971451D01*
X453044Y969545D01*
X452125Y967327D01*
X451811Y964946D01*
X452125Y962565D01*
X453044Y960347D01*
X454506Y958442D01*
X456411Y956980D01*
X458629Y956061D01*
X461010Y955747D01*
X463391Y956061D01*
X465609Y956980D01*
X467514Y958442D01*
X468976Y960347D01*
X469895Y962565D01*
X470209Y964946D01*
X469895Y967327D01*
X468976Y969545D01*
X467514Y971451D01*
X465609Y972912D01*
X463391Y973831D01*
X461010Y974145D01*
D02*
G37*
G36*
X880618Y968264D02*
X878862Y967915D01*
X877374Y966920D01*
X876379Y965432D01*
X876030Y963676D01*
X876379Y961920D01*
X877374Y960432D01*
X878862Y959437D01*
X880618Y959088D01*
X882374Y959437D01*
X883862Y960432D01*
X884857Y961920D01*
X885206Y963676D01*
X884857Y965432D01*
X883862Y966920D01*
X882374Y967915D01*
X880618Y968264D01*
D02*
G37*
G36*
X832000Y968588D02*
X830244Y968239D01*
X828756Y967244D01*
X827761Y965756D01*
X827412Y964000D01*
X827761Y962244D01*
X828756Y960756D01*
X830244Y959761D01*
X832000Y959412D01*
X833756Y959761D01*
X835244Y960756D01*
X836239Y962244D01*
X836588Y964000D01*
X836239Y965756D01*
X835244Y967244D01*
X833756Y968239D01*
X832000Y968588D01*
D02*
G37*
G36*
X881000Y980588D02*
X879244Y980239D01*
X877756Y979244D01*
X876761Y977756D01*
X876412Y976000D01*
X876761Y974244D01*
X877756Y972756D01*
X879244Y971761D01*
X881000Y971412D01*
X882756Y971761D01*
X884244Y972756D01*
X885239Y974244D01*
X885588Y976000D01*
X885239Y977756D01*
X884244Y979244D01*
X882756Y980239D01*
X881000Y980588D01*
D02*
G37*
G36*
X486664Y995057D02*
X484283Y994744D01*
X482065Y993825D01*
X480159Y992363D01*
X478698Y990458D01*
X477779Y988240D01*
X477465Y985859D01*
X477779Y983478D01*
X478698Y981259D01*
X480159Y979354D01*
X482065Y977892D01*
X484283Y976973D01*
X486664Y976660D01*
X489045Y976973D01*
X491263Y977892D01*
X493168Y979354D01*
X494630Y981259D01*
X495549Y983478D01*
X495863Y985859D01*
X495549Y988240D01*
X494630Y990458D01*
X493168Y992363D01*
X491263Y993825D01*
X489045Y994744D01*
X486664Y995057D01*
D02*
G37*
G36*
X718820Y988584D02*
X717064Y988235D01*
X715576Y987240D01*
X714581Y985752D01*
X714232Y983996D01*
X714581Y982240D01*
X715576Y980752D01*
X717064Y979757D01*
X718820Y979408D01*
X720576Y979757D01*
X722064Y980752D01*
X723059Y982240D01*
X723408Y983996D01*
X723059Y985752D01*
X722064Y987240D01*
X720576Y988235D01*
X718820Y988584D01*
D02*
G37*
G36*
X531114Y981136D02*
X528764Y980826D01*
X526575Y979920D01*
X524695Y978477D01*
X523252Y976597D01*
X522346Y974408D01*
X522036Y972058D01*
X522346Y969708D01*
X523252Y967519D01*
X524695Y965639D01*
X526575Y964196D01*
X528764Y963290D01*
X531114Y962980D01*
X533464Y963290D01*
X535653Y964196D01*
X537533Y965639D01*
X538975Y967519D01*
X539882Y969708D01*
X540192Y972058D01*
X539882Y974408D01*
X538975Y976597D01*
X537533Y978477D01*
X535653Y979920D01*
X533464Y980826D01*
X531114Y981136D01*
D02*
G37*
G36*
X556514D02*
X554165Y980826D01*
X551975Y979920D01*
X550095Y978477D01*
X548652Y976597D01*
X547746Y974408D01*
X547436Y972058D01*
X547746Y969708D01*
X548652Y967519D01*
X550095Y965639D01*
X551975Y964196D01*
X554165Y963290D01*
X556514Y962980D01*
X558863Y963290D01*
X561053Y964196D01*
X562933Y965639D01*
X564375Y967519D01*
X565282Y969708D01*
X565592Y972058D01*
X565282Y974408D01*
X564375Y976597D01*
X562933Y978477D01*
X561053Y979920D01*
X558863Y980826D01*
X556514Y981136D01*
D02*
G37*
G36*
X746506Y974106D02*
X744750Y973757D01*
X743262Y972762D01*
X742267Y971274D01*
X741918Y969518D01*
X742267Y967762D01*
X743262Y966274D01*
X744750Y965279D01*
X746506Y964930D01*
X748262Y965279D01*
X749750Y966274D01*
X750745Y967762D01*
X751094Y969518D01*
X750745Y971274D01*
X749750Y972762D01*
X748262Y973757D01*
X746506Y974106D01*
D02*
G37*
G36*
X724216Y957580D02*
X720090D01*
Y953454D01*
X720982Y953631D01*
X722814Y954856D01*
X724039Y956688D01*
X724216Y957580D01*
D02*
G37*
G36*
X531114Y955736D02*
X528764Y955426D01*
X526575Y954520D01*
X524695Y953077D01*
X523252Y951197D01*
X522346Y949007D01*
X522036Y946658D01*
X522346Y944308D01*
X523252Y942119D01*
X524695Y940239D01*
X526575Y938796D01*
X528764Y937890D01*
X531114Y937580D01*
X533464Y937890D01*
X535653Y938796D01*
X537533Y940239D01*
X538975Y942119D01*
X539882Y944308D01*
X540192Y946658D01*
X539882Y949007D01*
X538975Y951197D01*
X537533Y953077D01*
X535653Y954520D01*
X533464Y955426D01*
X531114Y955736D01*
D02*
G37*
G36*
X556514D02*
X554165Y955426D01*
X551975Y954520D01*
X550095Y953077D01*
X548652Y951197D01*
X547746Y949007D01*
X547436Y946658D01*
X547746Y944308D01*
X548652Y942119D01*
X550095Y940239D01*
X551975Y938796D01*
X554165Y937890D01*
X556514Y937580D01*
X558863Y937890D01*
X561053Y938796D01*
X562933Y940239D01*
X564375Y942119D01*
X565282Y944308D01*
X565592Y946658D01*
X565282Y949007D01*
X564375Y951197D01*
X562933Y953077D01*
X561053Y954520D01*
X558863Y955426D01*
X556514Y955736D01*
D02*
G37*
G36*
X486664Y956534D02*
X484283Y956221D01*
X482065Y955302D01*
X480159Y953840D01*
X478698Y951935D01*
X477779Y949716D01*
X477465Y947335D01*
X477779Y944955D01*
X478698Y942736D01*
X480159Y940831D01*
X482065Y939369D01*
X484283Y938450D01*
X486664Y938137D01*
X489045Y938450D01*
X491263Y939369D01*
X493168Y940831D01*
X494630Y942736D01*
X495549Y944955D01*
X495863Y947335D01*
X495549Y949716D01*
X494630Y951935D01*
X493168Y953840D01*
X491263Y955302D01*
X489045Y956221D01*
X486664Y956534D01*
D02*
G37*
G36*
X773770Y936896D02*
Y932770D01*
X777896D01*
X777719Y933662D01*
X776494Y935494D01*
X774662Y936719D01*
X773770Y936896D01*
D02*
G37*
G36*
X686694Y942394D02*
X684938Y942045D01*
X683450Y941050D01*
X682455Y939562D01*
X682106Y937806D01*
X682455Y936050D01*
X683450Y934562D01*
X684938Y933567D01*
X686694Y933218D01*
X688450Y933567D01*
X689938Y934562D01*
X690933Y936050D01*
X691282Y937806D01*
X690933Y939562D01*
X689938Y941050D01*
X688450Y942045D01*
X686694Y942394D01*
D02*
G37*
G36*
X581500Y944088D02*
X579744Y943739D01*
X578256Y942744D01*
X577261Y941256D01*
X576912Y939500D01*
X577261Y937744D01*
X578256Y936256D01*
X579744Y935261D01*
X581500Y934912D01*
X583256Y935261D01*
X584744Y936256D01*
X585739Y937744D01*
X586088Y939500D01*
X585739Y941256D01*
X584744Y942744D01*
X583256Y943739D01*
X581500Y944088D01*
D02*
G37*
G36*
X898230Y950396D02*
X897338Y950219D01*
X895506Y948994D01*
X894281Y947162D01*
X894104Y946270D01*
X898230D01*
Y950396D01*
D02*
G37*
G36*
X900770D02*
Y946270D01*
X904896D01*
X904719Y947162D01*
X903494Y948994D01*
X901662Y950219D01*
X900770Y950396D01*
D02*
G37*
G36*
X717550Y957580D02*
X713424D01*
X713601Y956688D01*
X714826Y954856D01*
X716658Y953631D01*
X717550Y953454D01*
Y957580D01*
D02*
G37*
G36*
X898230Y943730D02*
X894104D01*
X894281Y942838D01*
X895506Y941006D01*
X897338Y939781D01*
X898230Y939604D01*
Y943730D01*
D02*
G37*
G36*
X904896D02*
X900770D01*
Y939604D01*
X901662Y939781D01*
X903494Y941006D01*
X904719Y942838D01*
X904896Y943730D01*
D02*
G37*
G36*
X975868Y948960D02*
X974112Y948611D01*
X972624Y947616D01*
X971629Y946128D01*
X971280Y944372D01*
X971629Y942616D01*
X972624Y941128D01*
X974112Y940133D01*
X975868Y939784D01*
X977624Y940133D01*
X979112Y941128D01*
X980107Y942616D01*
X980456Y944372D01*
X980107Y946128D01*
X979112Y947616D01*
X977624Y948611D01*
X975868Y948960D01*
D02*
G37*
G36*
X770000Y993588D02*
X768244Y993239D01*
X766756Y992244D01*
X765761Y990756D01*
X765412Y989000D01*
X765761Y987244D01*
X766756Y985756D01*
X768244Y984761D01*
X770000Y984412D01*
X771756Y984761D01*
X773244Y985756D01*
X774239Y987244D01*
X774588Y989000D01*
X774239Y990756D01*
X773244Y992244D01*
X771756Y993239D01*
X770000Y993588D01*
D02*
G37*
G36*
X842770Y1007896D02*
Y1003770D01*
X846896D01*
X846719Y1004662D01*
X845494Y1006494D01*
X843662Y1007719D01*
X842770Y1007896D01*
D02*
G37*
G36*
X891230D02*
X890338Y1007719D01*
X888506Y1006494D01*
X887281Y1004662D01*
X887104Y1003770D01*
X891230D01*
Y1007896D01*
D02*
G37*
G36*
X893770D02*
Y1003770D01*
X897896D01*
X897719Y1004662D01*
X896494Y1006494D01*
X894662Y1007719D01*
X893770Y1007896D01*
D02*
G37*
G36*
X891230Y1001230D02*
X887104D01*
X887281Y1000338D01*
X888506Y998506D01*
X890338Y997281D01*
X891230Y997104D01*
Y1001230D01*
D02*
G37*
G36*
X897896D02*
X893770D01*
Y997104D01*
X894662Y997281D01*
X896494Y998506D01*
X897719Y1000338D01*
X897896Y1001230D01*
D02*
G37*
G36*
X840230Y1007896D02*
X839338Y1007719D01*
X837506Y1006494D01*
X836281Y1004662D01*
X836104Y1003770D01*
X840230D01*
Y1007896D01*
D02*
G37*
G36*
X556514Y1057336D02*
X554165Y1057026D01*
X551975Y1056120D01*
X550095Y1054677D01*
X548652Y1052797D01*
X547746Y1050608D01*
X547436Y1048258D01*
X547746Y1045909D01*
X548652Y1043719D01*
X550095Y1041839D01*
X551975Y1040396D01*
X554165Y1039490D01*
X556514Y1039180D01*
X558863Y1039490D01*
X561053Y1040396D01*
X562933Y1041839D01*
X564375Y1043719D01*
X565282Y1045909D01*
X565592Y1048258D01*
X565282Y1050608D01*
X564375Y1052797D01*
X562933Y1054677D01*
X561053Y1056120D01*
X558863Y1057026D01*
X556514Y1057336D01*
D02*
G37*
G36*
X540114Y1057258D02*
X522114D01*
Y1039258D01*
X540114D01*
Y1057258D01*
D02*
G37*
G36*
X399310Y1101412D02*
X395585Y1101045D01*
X392004Y1099959D01*
X388703Y1098194D01*
X385810Y1095820D01*
X383436Y1092927D01*
X381671Y1089626D01*
X380585Y1086045D01*
X380218Y1082320D01*
X380585Y1078595D01*
X381671Y1075014D01*
X383436Y1071713D01*
X385810Y1068820D01*
X388703Y1066446D01*
X392004Y1064681D01*
X395585Y1063595D01*
X399310Y1063228D01*
X403035Y1063595D01*
X406616Y1064681D01*
X409917Y1066446D01*
X412810Y1068820D01*
X415184Y1071713D01*
X416949Y1075014D01*
X418035Y1078595D01*
X418402Y1082320D01*
X418035Y1086045D01*
X416949Y1089626D01*
X415184Y1092927D01*
X412810Y1095820D01*
X409917Y1098194D01*
X406616Y1099959D01*
X403035Y1101045D01*
X399310Y1101412D01*
D02*
G37*
G36*
X531114Y1031936D02*
X528764Y1031626D01*
X526575Y1030720D01*
X524695Y1029277D01*
X523252Y1027397D01*
X522346Y1025208D01*
X522036Y1022858D01*
X522346Y1020508D01*
X523252Y1018319D01*
X524695Y1016439D01*
X526575Y1014996D01*
X528764Y1014090D01*
X531114Y1013780D01*
X533464Y1014090D01*
X535653Y1014996D01*
X537533Y1016439D01*
X538975Y1018319D01*
X539882Y1020508D01*
X540192Y1022858D01*
X539882Y1025208D01*
X538975Y1027397D01*
X537533Y1029277D01*
X535653Y1030720D01*
X533464Y1031626D01*
X531114Y1031936D01*
D02*
G37*
G36*
X556514D02*
X554165Y1031626D01*
X551975Y1030720D01*
X550095Y1029277D01*
X548652Y1027397D01*
X547746Y1025208D01*
X547436Y1022858D01*
X547746Y1020508D01*
X548652Y1018319D01*
X550095Y1016439D01*
X551975Y1014996D01*
X554165Y1014090D01*
X556514Y1013780D01*
X558863Y1014090D01*
X561053Y1014996D01*
X562933Y1016439D01*
X564375Y1018319D01*
X565282Y1020508D01*
X565592Y1022858D01*
X565282Y1025208D01*
X564375Y1027397D01*
X562933Y1029277D01*
X561053Y1030720D01*
X558863Y1031626D01*
X556514Y1031936D01*
D02*
G37*
G36*
X485902Y1033327D02*
X483521Y1033013D01*
X481303Y1032094D01*
X479398Y1030632D01*
X477936Y1028727D01*
X477017Y1026509D01*
X476703Y1024128D01*
X477017Y1021747D01*
X477936Y1019529D01*
X479398Y1017624D01*
X481303Y1016162D01*
X483521Y1015243D01*
X485902Y1014929D01*
X488283Y1015243D01*
X490501Y1016162D01*
X492407Y1017624D01*
X493868Y1019529D01*
X494787Y1021747D01*
X495101Y1024128D01*
X494787Y1026509D01*
X493868Y1028727D01*
X492407Y1030632D01*
X490501Y1032094D01*
X488283Y1033013D01*
X485902Y1033327D01*
D02*
G37*
G36*
X846896Y1001230D02*
X842770D01*
Y997104D01*
X843662Y997281D01*
X845494Y998506D01*
X846719Y1000338D01*
X846896Y1001230D01*
D02*
G37*
G36*
X750124Y989076D02*
X745998D01*
Y984950D01*
X746890Y985127D01*
X748722Y986352D01*
X749947Y988184D01*
X750124Y989076D01*
D02*
G37*
G36*
X531114Y1006536D02*
X528764Y1006226D01*
X526575Y1005320D01*
X524695Y1003877D01*
X523252Y1001997D01*
X522346Y999808D01*
X522036Y997458D01*
X522346Y995108D01*
X523252Y992919D01*
X524695Y991039D01*
X526575Y989596D01*
X528764Y988690D01*
X531114Y988380D01*
X533464Y988690D01*
X535653Y989596D01*
X537533Y991039D01*
X538975Y992919D01*
X539882Y995108D01*
X540192Y997458D01*
X539882Y999808D01*
X538975Y1001997D01*
X537533Y1003877D01*
X535653Y1005320D01*
X533464Y1006226D01*
X531114Y1006536D01*
D02*
G37*
G36*
X556514D02*
X554165Y1006226D01*
X551975Y1005320D01*
X550095Y1003877D01*
X548652Y1001997D01*
X547746Y999808D01*
X547436Y997458D01*
X547746Y995108D01*
X548652Y992919D01*
X550095Y991039D01*
X551975Y989596D01*
X554165Y988690D01*
X556514Y988380D01*
X558863Y988690D01*
X561053Y989596D01*
X562933Y991039D01*
X564375Y992919D01*
X565282Y995108D01*
X565592Y997458D01*
X565282Y999808D01*
X564375Y1001997D01*
X562933Y1003877D01*
X561053Y1005320D01*
X558863Y1006226D01*
X556514Y1006536D01*
D02*
G37*
G36*
X793242Y988568D02*
X789116D01*
X789293Y987676D01*
X790518Y985844D01*
X792350Y984619D01*
X793242Y984442D01*
Y988568D01*
D02*
G37*
G36*
X799908D02*
X795782D01*
Y984442D01*
X796674Y984619D01*
X798506Y985844D01*
X799731Y987676D01*
X799908Y988568D01*
D02*
G37*
G36*
X743458Y989076D02*
X739332D01*
X739509Y988184D01*
X740734Y986352D01*
X742566Y985127D01*
X743458Y984950D01*
Y989076D01*
D02*
G37*
G36*
X745998Y995742D02*
Y991616D01*
X750124D01*
X749947Y992508D01*
X748722Y994340D01*
X746890Y995565D01*
X745998Y995742D01*
D02*
G37*
G36*
X461010Y1013515D02*
X458629Y1013201D01*
X456411Y1012282D01*
X454506Y1010820D01*
X453044Y1008915D01*
X452125Y1006697D01*
X451811Y1004316D01*
X452125Y1001935D01*
X453044Y999717D01*
X454506Y997812D01*
X456411Y996350D01*
X458629Y995431D01*
X461010Y995117D01*
X463391Y995431D01*
X465609Y996350D01*
X467514Y997812D01*
X468976Y999717D01*
X469895Y1001935D01*
X470209Y1004316D01*
X469895Y1006697D01*
X468976Y1008915D01*
X467514Y1010820D01*
X465609Y1012282D01*
X463391Y1013201D01*
X461010Y1013515D01*
D02*
G37*
G36*
X840230Y1001230D02*
X836104D01*
X836281Y1000338D01*
X837506Y998506D01*
X839338Y997281D01*
X840230Y997104D01*
Y1001230D01*
D02*
G37*
G36*
X793242Y995234D02*
X792350Y995057D01*
X790518Y993832D01*
X789293Y992000D01*
X789116Y991108D01*
X793242D01*
Y995234D01*
D02*
G37*
G36*
X795782D02*
Y991108D01*
X799908D01*
X799731Y992000D01*
X798506Y993832D01*
X796674Y995057D01*
X795782Y995234D01*
D02*
G37*
G36*
X743458Y995742D02*
X742566Y995565D01*
X740734Y994340D01*
X739509Y992508D01*
X739332Y991616D01*
X743458D01*
Y995742D01*
D02*
G37*
G36*
X771230Y936896D02*
X770338Y936719D01*
X768506Y935494D01*
X767281Y933662D01*
X767104Y932770D01*
X771230D01*
Y936896D01*
D02*
G37*
G36*
X747268Y911622D02*
X745512Y911273D01*
X744024Y910278D01*
X743029Y908790D01*
X742680Y907034D01*
X743029Y905278D01*
X744024Y903790D01*
X745512Y902795D01*
X747268Y902446D01*
X749024Y902795D01*
X750512Y903790D01*
X751507Y905278D01*
X751856Y907034D01*
X751507Y908790D01*
X750512Y910278D01*
X749024Y911273D01*
X747268Y911622D01*
D02*
G37*
G36*
X911098Y911922D02*
X910206Y911745D01*
X908374Y910520D01*
X907149Y908688D01*
X906972Y907796D01*
X911098D01*
Y911922D01*
D02*
G37*
G36*
X913638D02*
Y907796D01*
X917764D01*
X917587Y908688D01*
X916362Y910520D01*
X914530Y911745D01*
X913638Y911922D01*
D02*
G37*
G36*
X976122Y910860D02*
X974366Y910511D01*
X972878Y909516D01*
X971883Y908028D01*
X971534Y906272D01*
X971883Y904516D01*
X972878Y903028D01*
X974366Y902033D01*
X976122Y901684D01*
X977878Y902033D01*
X979366Y903028D01*
X980361Y904516D01*
X980710Y906272D01*
X980361Y908028D01*
X979366Y909516D01*
X977878Y910511D01*
X976122Y910860D01*
D02*
G37*
G36*
X824000Y911088D02*
X822244Y910739D01*
X820756Y909744D01*
X819761Y908256D01*
X819412Y906500D01*
X819761Y904744D01*
X820756Y903256D01*
X822244Y902261D01*
X824000Y901912D01*
X825756Y902261D01*
X827244Y903256D01*
X828239Y904744D01*
X828588Y906500D01*
X828239Y908256D01*
X827244Y909744D01*
X825756Y910739D01*
X824000Y911088D01*
D02*
G37*
G36*
X721060Y911114D02*
X719304Y910765D01*
X717816Y909770D01*
X716821Y908282D01*
X716472Y906526D01*
X716821Y904770D01*
X717816Y903282D01*
X719304Y902287D01*
X721060Y901938D01*
X722816Y902287D01*
X724304Y903282D01*
X725299Y904770D01*
X725648Y906526D01*
X725299Y908282D01*
X724304Y909770D01*
X722816Y910765D01*
X721060Y911114D01*
D02*
G37*
G36*
X556514Y930336D02*
X554165Y930026D01*
X551975Y929119D01*
X550095Y927677D01*
X548652Y925797D01*
X547746Y923607D01*
X547436Y921258D01*
X547746Y918908D01*
X548652Y916719D01*
X550095Y914839D01*
X551975Y913397D01*
X554165Y912490D01*
X556514Y912180D01*
X558863Y912490D01*
X561053Y913397D01*
X562933Y914839D01*
X564375Y916719D01*
X565282Y918908D01*
X565592Y921258D01*
X565282Y923607D01*
X564375Y925797D01*
X562933Y927677D01*
X561053Y929119D01*
X558863Y930026D01*
X556514Y930336D01*
D02*
G37*
G36*
X898230Y917230D02*
X894104D01*
X894281Y916338D01*
X895506Y914506D01*
X897338Y913281D01*
X898230Y913104D01*
Y917230D01*
D02*
G37*
G36*
X904896D02*
X900770D01*
Y913104D01*
X901662Y913281D01*
X903494Y914506D01*
X904719Y916338D01*
X904896Y917230D01*
D02*
G37*
G36*
X686308Y913384D02*
X682182D01*
X682359Y912492D01*
X683584Y910660D01*
X685416Y909435D01*
X686308Y909258D01*
Y913384D01*
D02*
G37*
G36*
X692974D02*
X688848D01*
Y909258D01*
X689740Y909435D01*
X691572Y910660D01*
X692797Y912492D01*
X692974Y913384D01*
D02*
G37*
G36*
X531114Y930336D02*
X528764Y930026D01*
X526575Y929119D01*
X524695Y927677D01*
X523252Y925797D01*
X522346Y923607D01*
X522036Y921258D01*
X522346Y918908D01*
X523252Y916719D01*
X524695Y914839D01*
X526575Y913397D01*
X528764Y912490D01*
X531114Y912180D01*
X533464Y912490D01*
X535653Y913397D01*
X537533Y914839D01*
X538975Y916719D01*
X539882Y918908D01*
X540192Y921258D01*
X539882Y923607D01*
X538975Y925797D01*
X537533Y927677D01*
X535653Y929119D01*
X533464Y930026D01*
X531114Y930336D01*
D02*
G37*
G36*
X708660Y910860D02*
X706904Y910511D01*
X705416Y909516D01*
X704421Y908028D01*
X704072Y906272D01*
X704421Y904516D01*
X705416Y903028D01*
X706904Y902033D01*
X708660Y901684D01*
X710416Y902033D01*
X711904Y903028D01*
X712899Y904516D01*
X713248Y906272D01*
X712899Y908028D01*
X711904Y909516D01*
X710416Y910511D01*
X708660Y910860D01*
D02*
G37*
G36*
X748538Y886776D02*
Y882650D01*
X752664D01*
X752487Y883542D01*
X751262Y885374D01*
X749430Y886599D01*
X748538Y886776D01*
D02*
G37*
G36*
X531114Y904936D02*
X528764Y904626D01*
X526575Y903719D01*
X524695Y902277D01*
X523252Y900397D01*
X522346Y898207D01*
X522036Y895858D01*
X522346Y893509D01*
X523252Y891319D01*
X524695Y889439D01*
X526575Y887997D01*
X528764Y887090D01*
X531114Y886780D01*
X533464Y887090D01*
X535653Y887997D01*
X537533Y889439D01*
X538975Y891319D01*
X539882Y893509D01*
X540192Y895858D01*
X539882Y898207D01*
X538975Y900397D01*
X537533Y902277D01*
X535653Y903719D01*
X533464Y904626D01*
X531114Y904936D01*
D02*
G37*
G36*
X556514D02*
X554165Y904626D01*
X551975Y903719D01*
X550095Y902277D01*
X548652Y900397D01*
X547746Y898207D01*
X547436Y895858D01*
X547746Y893509D01*
X548652Y891319D01*
X550095Y889439D01*
X551975Y887997D01*
X554165Y887090D01*
X556514Y886780D01*
X558863Y887090D01*
X561053Y887997D01*
X562933Y889439D01*
X564375Y891319D01*
X565282Y893509D01*
X565592Y895858D01*
X565282Y898207D01*
X564375Y900397D01*
X562933Y902277D01*
X561053Y903719D01*
X558863Y904626D01*
X556514Y904936D01*
D02*
G37*
G36*
X926084Y886522D02*
Y882396D01*
X930210D01*
X930033Y883288D01*
X928808Y885120D01*
X926976Y886345D01*
X926084Y886522D01*
D02*
G37*
G36*
X720344Y886776D02*
X719452Y886599D01*
X717620Y885374D01*
X716395Y883542D01*
X716218Y882650D01*
X720344D01*
Y886776D01*
D02*
G37*
G36*
X722884D02*
Y882650D01*
X727010D01*
X726833Y883542D01*
X725608Y885374D01*
X723776Y886599D01*
X722884Y886776D01*
D02*
G37*
G36*
X628500Y909088D02*
X626744Y908739D01*
X625256Y907744D01*
X624261Y906256D01*
X623912Y904500D01*
X624261Y902744D01*
X625256Y901256D01*
X626744Y900261D01*
X628500Y899912D01*
X630256Y900261D01*
X631744Y901256D01*
X632739Y902744D01*
X633088Y904500D01*
X632739Y906256D01*
X631744Y907744D01*
X630256Y908739D01*
X628500Y909088D01*
D02*
G37*
G36*
X911098Y905256D02*
X906972D01*
X907149Y904364D01*
X908374Y902532D01*
X910206Y901307D01*
X911098Y901130D01*
Y905256D01*
D02*
G37*
G36*
X917764D02*
X913638D01*
Y901130D01*
X914530Y901307D01*
X916362Y902532D01*
X917587Y904364D01*
X917764Y905256D01*
D02*
G37*
G36*
X771144Y898968D02*
X770252Y898791D01*
X768420Y897566D01*
X767195Y895734D01*
X767018Y894842D01*
X771144D01*
Y898968D01*
D02*
G37*
G36*
X692912Y904510D02*
X691156Y904161D01*
X689668Y903166D01*
X688673Y901678D01*
X688324Y899922D01*
X688673Y898166D01*
X689668Y896678D01*
X691156Y895683D01*
X692912Y895334D01*
X694668Y895683D01*
X696156Y896678D01*
X697151Y898166D01*
X697500Y899922D01*
X697151Y901678D01*
X696156Y903166D01*
X694668Y904161D01*
X692912Y904510D01*
D02*
G37*
G36*
X486664Y918011D02*
X484283Y917697D01*
X482065Y916778D01*
X480159Y915316D01*
X478698Y913411D01*
X477779Y911193D01*
X477465Y908812D01*
X477779Y906431D01*
X478698Y904213D01*
X480159Y902308D01*
X482065Y900846D01*
X484283Y899927D01*
X486664Y899613D01*
X489045Y899927D01*
X491263Y900846D01*
X493168Y902308D01*
X494630Y904213D01*
X495549Y906431D01*
X495863Y908812D01*
X495549Y911193D01*
X494630Y913411D01*
X493168Y915316D01*
X491263Y916778D01*
X489045Y917697D01*
X486664Y918011D01*
D02*
G37*
G36*
X974598Y917702D02*
X970472D01*
X970649Y916810D01*
X971874Y914978D01*
X973706Y913753D01*
X974598Y913576D01*
Y917702D01*
D02*
G37*
G36*
X847598Y924876D02*
X846706Y924699D01*
X844874Y923474D01*
X843649Y921642D01*
X843472Y920750D01*
X847598D01*
Y924876D01*
D02*
G37*
G36*
X850138D02*
Y920750D01*
X854264D01*
X854087Y921642D01*
X852862Y923474D01*
X851030Y924699D01*
X850138Y924876D01*
D02*
G37*
G36*
X771230Y930230D02*
X767104D01*
X767281Y929338D01*
X768506Y927506D01*
X770338Y926281D01*
X771230Y926104D01*
Y930230D01*
D02*
G37*
G36*
X900770Y923896D02*
Y919770D01*
X904896D01*
X904719Y920662D01*
X903494Y922494D01*
X901662Y923718D01*
X900770Y923896D01*
D02*
G37*
G36*
X974598Y924368D02*
X973706Y924191D01*
X971874Y922966D01*
X970649Y921134D01*
X970472Y920242D01*
X974598D01*
Y924368D01*
D02*
G37*
G36*
X977138D02*
Y920242D01*
X981264D01*
X981087Y921134D01*
X979862Y922966D01*
X978030Y924191D01*
X977138Y924368D01*
D02*
G37*
G36*
X688594Y931226D02*
Y927100D01*
X692720D01*
X692543Y927992D01*
X691318Y929824D01*
X689486Y931049D01*
X688594Y931226D01*
D02*
G37*
G36*
X823468Y936514D02*
X821712Y936165D01*
X820224Y935170D01*
X819229Y933682D01*
X818880Y931926D01*
X819229Y930170D01*
X820224Y928682D01*
X821712Y927687D01*
X823468Y927338D01*
X825224Y927687D01*
X826712Y928682D01*
X827707Y930170D01*
X828056Y931926D01*
X827707Y933682D01*
X826712Y935170D01*
X825224Y936165D01*
X823468Y936514D01*
D02*
G37*
G36*
X811000Y936588D02*
X809244Y936239D01*
X807756Y935244D01*
X806761Y933756D01*
X806412Y932000D01*
X806761Y930244D01*
X807756Y928756D01*
X809244Y927761D01*
X811000Y927412D01*
X812756Y927761D01*
X814244Y928756D01*
X815239Y930244D01*
X815588Y932000D01*
X815239Y933756D01*
X814244Y935244D01*
X812756Y936239D01*
X811000Y936588D01*
D02*
G37*
G36*
X777896Y930230D02*
X773770D01*
Y926104D01*
X774662Y926281D01*
X776494Y927506D01*
X777719Y929338D01*
X777896Y930230D01*
D02*
G37*
G36*
X785622Y936006D02*
X783866Y935657D01*
X782378Y934662D01*
X781383Y933174D01*
X781034Y931418D01*
X781383Y929662D01*
X782378Y928174D01*
X783866Y927179D01*
X785622Y926830D01*
X787378Y927179D01*
X788866Y928174D01*
X789861Y929662D01*
X790210Y931418D01*
X789861Y933174D01*
X788866Y934662D01*
X787378Y935657D01*
X785622Y936006D01*
D02*
G37*
G36*
X686054Y931226D02*
X685162Y931049D01*
X683330Y929824D01*
X682105Y927992D01*
X681928Y927100D01*
X686054D01*
Y931226D01*
D02*
G37*
G36*
X898230Y923896D02*
X897338Y923718D01*
X895506Y922494D01*
X894281Y920662D01*
X894104Y919770D01*
X898230D01*
Y923896D01*
D02*
G37*
G36*
X810498Y923586D02*
X808743Y923237D01*
X807254Y922243D01*
X806260Y920754D01*
X805910Y918998D01*
X806260Y917242D01*
X807254Y915754D01*
X808743Y914759D01*
X810498Y914410D01*
X812254Y914759D01*
X813743Y915754D01*
X814737Y917242D01*
X815087Y918998D01*
X814737Y920754D01*
X813743Y922243D01*
X812254Y923237D01*
X810498Y923586D01*
D02*
G37*
G36*
X747000Y923588D02*
X745244Y923239D01*
X743756Y922244D01*
X742761Y920756D01*
X742412Y919000D01*
X742761Y917244D01*
X743756Y915756D01*
X745244Y914761D01*
X747000Y914412D01*
X748756Y914761D01*
X750244Y915756D01*
X751239Y917244D01*
X751588Y919000D01*
X751239Y920756D01*
X750244Y922244D01*
X748756Y923239D01*
X747000Y923588D01*
D02*
G37*
G36*
X823500D02*
X821744Y923239D01*
X820256Y922244D01*
X819261Y920756D01*
X818912Y919000D01*
X819261Y917244D01*
X820256Y915756D01*
X821744Y914761D01*
X823500Y914412D01*
X825256Y914761D01*
X826744Y915756D01*
X827739Y917244D01*
X828088Y919000D01*
X827739Y920756D01*
X826744Y922244D01*
X825256Y923239D01*
X823500Y923588D01*
D02*
G37*
G36*
X981264Y917702D02*
X977138D01*
Y913576D01*
X978030Y913753D01*
X979862Y914978D01*
X981087Y916810D01*
X981264Y917702D01*
D02*
G37*
G36*
X847598Y918210D02*
X843472D01*
X843649Y917318D01*
X844874Y915486D01*
X846706Y914261D01*
X847598Y914084D01*
Y918210D01*
D02*
G37*
G36*
X854264D02*
X850138D01*
Y914084D01*
X851030Y914261D01*
X852862Y915486D01*
X854087Y917318D01*
X854264Y918210D01*
D02*
G37*
G36*
X461010Y934013D02*
X458629Y933699D01*
X456411Y932780D01*
X454506Y931319D01*
X453044Y929413D01*
X452125Y927195D01*
X451811Y924814D01*
X452125Y922433D01*
X453044Y920215D01*
X454506Y918310D01*
X456411Y916848D01*
X458629Y915929D01*
X461010Y915615D01*
X463391Y915929D01*
X465609Y916848D01*
X467514Y918310D01*
X468976Y920215D01*
X469895Y922433D01*
X470209Y924814D01*
X469895Y927195D01*
X468976Y929413D01*
X467514Y931319D01*
X465609Y932780D01*
X463391Y933699D01*
X461010Y934013D01*
D02*
G37*
G36*
X692720Y924560D02*
X681928D01*
X682105Y923668D01*
X683330Y921836D01*
X685162Y920611D01*
X687147Y920217D01*
X685416Y919873D01*
X683584Y918648D01*
X682359Y916816D01*
X682182Y915924D01*
X692974D01*
X692797Y916816D01*
X691572Y918648D01*
X689740Y919873D01*
X687755Y920267D01*
X689486Y920611D01*
X691318Y921836D01*
X692543Y923668D01*
X692720Y924560D01*
D02*
G37*
G36*
X627888Y927116D02*
X626132Y926767D01*
X624644Y925772D01*
X623649Y924284D01*
X623300Y922528D01*
X623649Y920772D01*
X624644Y919284D01*
X626132Y918289D01*
X627888Y917940D01*
X629644Y918289D01*
X631132Y919284D01*
X632127Y920772D01*
X632476Y922528D01*
X632127Y924284D01*
X631132Y925772D01*
X629644Y926767D01*
X627888Y927116D01*
D02*
G37*
G36*
X836422Y924068D02*
X834666Y923719D01*
X833178Y922724D01*
X832183Y921236D01*
X831834Y919480D01*
X832183Y917724D01*
X833178Y916236D01*
X834666Y915241D01*
X836422Y914892D01*
X838178Y915241D01*
X839666Y916236D01*
X840661Y917724D01*
X841010Y919480D01*
X840661Y921236D01*
X839666Y922724D01*
X838178Y923719D01*
X836422Y924068D01*
D02*
G37*
G36*
X760000Y924088D02*
X758244Y923739D01*
X756756Y922744D01*
X755761Y921256D01*
X755412Y919500D01*
X755761Y917744D01*
X756756Y916256D01*
X758244Y915261D01*
X760000Y914912D01*
X761756Y915261D01*
X763244Y916256D01*
X764239Y917744D01*
X764588Y919500D01*
X764239Y921256D01*
X763244Y922744D01*
X761756Y923739D01*
X760000Y924088D01*
D02*
G37*
G36*
X785368Y924576D02*
X783612Y924227D01*
X782124Y923232D01*
X781129Y921744D01*
X780780Y919988D01*
X781129Y918232D01*
X782124Y916744D01*
X783612Y915749D01*
X785368Y915400D01*
X787124Y915749D01*
X788612Y916744D01*
X789607Y918232D01*
X789956Y919988D01*
X789607Y921744D01*
X788612Y923232D01*
X787124Y924227D01*
X785368Y924576D01*
D02*
G37*
%LPD*%
D14*
X1175725Y1114765D02*
G03*
X1175426Y1115064I-299J0D01*
G01*
X1175725Y893318D02*
Y1115064D01*
X418077Y505755D02*
X608076D01*
X1175725D01*
Y893318D01*
X368300Y505755D02*
X418077D01*
X368300D02*
Y1115064D01*
X1175725D01*
D15*
X531114Y692658D02*
D03*
X595122Y565658D02*
D03*
X596138Y625348D02*
D03*
D18*
X595884Y667004D02*
D03*
X596900Y527050D02*
D03*
D20*
X747268Y881380D02*
D03*
X687578Y914654D02*
D03*
X721614Y881380D02*
D03*
X772160Y881126D02*
D03*
X848868Y919480D02*
D03*
X899500Y918500D02*
D03*
Y945000D02*
D03*
X772500Y931500D02*
D03*
X759500Y843000D02*
D03*
X772414Y868426D02*
D03*
Y893572D02*
D03*
X718820Y958850D02*
D03*
X892500Y1002500D02*
D03*
X841500D02*
D03*
X794512Y989838D02*
D03*
X744728Y990346D02*
D03*
X687324Y925830D02*
D03*
X735000Y804500D02*
D03*
X690880Y823722D02*
D03*
X924814Y881126D02*
D03*
X975868Y918972D02*
D03*
X912368Y906526D02*
D03*
X734568Y868426D02*
D03*
M02*
