%FSLAX44Y44*%
%MOMM*%
G71*
G01*
G75*
G04 Layer_Color=32896*
%ADD10R,1.8000X1.1500*%
%ADD11C,0.7620*%
G04:AMPARAMS|DCode=12|XSize=1.15mm|YSize=1.8mm|CornerRadius=0mm|HoleSize=0mm|Usage=FLASHONLY|Rotation=135.000|XOffset=0mm|YOffset=0mm|HoleType=Round|Shape=Rectangle|*
%AMROTATEDRECTD12*
4,1,4,1.0430,0.2298,-0.2298,-1.0430,-1.0430,-0.2298,0.2298,1.0430,1.0430,0.2298,0.0*
%
%ADD12ROTATEDRECTD12*%

%ADD13R,1.1500X1.8000*%
%ADD14C,0.1500*%
%ADD15C,1.5000*%
%ADD16R,1.5000X1.5000*%
%ADD17R,1.5000X1.5000*%
%ADD18C,1.5240*%
%ADD19C,3.5000*%
%ADD20C,0.6000*%
%ADD21R,1.7000X1.1000*%
%ADD22R,1.1000X1.7000*%
G04:AMPARAMS|DCode=23|XSize=1.7mm|YSize=1.1mm|CornerRadius=0mm|HoleSize=0mm|Usage=FLASHONLY|Rotation=45.000|XOffset=0mm|YOffset=0mm|HoleType=Round|Shape=Rectangle|*
%AMROTATEDRECTD23*
4,1,4,-0.2121,-0.9900,-0.9900,-0.2121,0.2121,0.9900,0.9900,0.2121,-0.2121,-0.9900,0.0*
%
%ADD23ROTATEDRECTD23*%

%ADD24C,0.6000*%
%ADD25C,0.1000*%
%ADD26C,0.2540*%
%ADD27C,0.2000*%
%ADD28C,0.0178*%
%ADD29C,0.2032*%
%ADD30R,2.0000X1.3500*%
%ADD31C,0.9620*%
G04:AMPARAMS|DCode=32|XSize=1.35mm|YSize=2mm|CornerRadius=0mm|HoleSize=0mm|Usage=FLASHONLY|Rotation=135.000|XOffset=0mm|YOffset=0mm|HoleType=Round|Shape=Rectangle|*
%AMROTATEDRECTD32*
4,1,4,1.1844,0.2298,-0.2298,-1.1844,-1.1844,-0.2298,0.2298,1.1844,1.1844,0.2298,0.0*
%
%ADD32ROTATEDRECTD32*%

%ADD33R,1.3500X2.0000*%
%ADD34C,1.7000*%
%ADD35R,1.7000X1.7000*%
%ADD36R,1.7000X1.7000*%
%ADD37C,1.7240*%
%ADD38C,3.7000*%
%ADD39C,0.8000*%
%ADD40R,1.9000X1.3000*%
%ADD41R,1.3000X1.9000*%
G04:AMPARAMS|DCode=42|XSize=1.9mm|YSize=1.3mm|CornerRadius=0mm|HoleSize=0mm|Usage=FLASHONLY|Rotation=45.000|XOffset=0mm|YOffset=0mm|HoleType=Round|Shape=Rectangle|*
%AMROTATEDRECTD42*
4,1,4,-0.2121,-1.1314,-1.1314,-0.2121,0.2121,1.1314,1.1314,0.2121,-0.2121,-1.1314,0.0*
%
%ADD42ROTATEDRECTD42*%

%ADD43C,0.0254*%
%ADD44R,0.8890X0.9144*%
D14*
X602224Y871658D02*
X624224D01*
X577224D02*
Y881658D01*
X624224Y871658D02*
Y884658D01*
X577224Y871658D02*
X602224D01*
X624224Y884658D02*
Y894658D01*
X577224D02*
X624224D01*
X577224Y881658D02*
Y894658D01*
X599420Y912889D02*
X614976Y897333D01*
X581742Y930567D02*
X588813Y937638D01*
X614976Y897333D02*
X624168Y906525D01*
X581742Y930567D02*
X599420Y912889D01*
X624168Y906525D02*
X631239Y913596D01*
X598005Y946830D02*
X631239Y913596D01*
X588813Y937638D02*
X598005Y946830D01*
X577196Y864404D02*
X599196D01*
X624196Y854404D02*
Y864404D01*
X577196Y851404D02*
Y864404D01*
X599196D02*
X624196D01*
X577196Y841404D02*
Y851404D01*
Y841404D02*
X624196D01*
Y854404D01*
X602224Y757104D02*
X624224D01*
X577224D02*
Y767104D01*
X624224Y757104D02*
Y770104D01*
X577224Y757104D02*
X602224D01*
X624224Y770104D02*
Y780104D01*
X577224D02*
X624224D01*
X577224Y767104D02*
Y780104D01*
X820928Y673608D02*
X827278D01*
Y679450D01*
X820928D02*
X827278D01*
X820928Y673608D02*
Y679450D01*
X938530Y909828D02*
Y915670D01*
X944880D01*
Y909828D02*
Y915670D01*
X938530Y909828D02*
X944880D01*
X701040Y926846D02*
Y932688D01*
X707390D01*
Y926846D02*
Y932688D01*
X701040Y926846D02*
X707390D01*
X707136Y807466D02*
Y813308D01*
X713486D01*
Y807466D02*
Y813308D01*
X707136Y807466D02*
X713486D01*
X701040Y969264D02*
Y975106D01*
X707390D01*
Y969264D02*
Y975106D01*
X701040Y969264D02*
X707390D01*
X791718Y998220D02*
Y1004062D01*
X798068D01*
Y998220D02*
Y1004062D01*
X791718Y998220D02*
X798068D01*
D24*
X827210Y645850D02*
G03*
X827215Y645577I-2472J-182D01*
G01*
X602166Y743640D02*
G03*
X602171Y743367I-2472J-182D01*
G01*
X602928Y769040D02*
G03*
X602933Y768767I-2472J-182D01*
G01*
D25*
X595724Y883158D02*
X605724D01*
X600724Y878158D02*
Y888158D01*
X602955Y925617D02*
X610026Y918546D01*
X602955D02*
X610026Y925617D01*
X595696Y852904D02*
X605696D01*
X600696Y847904D02*
Y857904D01*
X595724Y768604D02*
X605724D01*
X600724Y763604D02*
Y773604D01*
X643382Y852678D02*
Y860675D01*
X639383D01*
X638050Y859342D01*
Y856677D01*
X639383Y855344D01*
X643382D01*
X640716D02*
X638050Y852678D01*
X635385Y854011D02*
X634052Y852678D01*
X631386D01*
X630053Y854011D01*
Y859342D01*
X631386Y860675D01*
X634052D01*
X635385Y859342D01*
Y858010D01*
X634052Y856677D01*
X630053D01*
X648208Y877570D02*
Y885567D01*
X644209D01*
X642876Y884234D01*
Y881569D01*
X644209Y880236D01*
X648208D01*
X645542D02*
X642876Y877570D01*
X640211Y884234D02*
X638878Y885567D01*
X636212D01*
X634879Y884234D01*
Y882902D01*
X636212Y881569D01*
X634879Y880236D01*
Y878903D01*
X636212Y877570D01*
X638878D01*
X640211Y878903D01*
Y880236D01*
X638878Y881569D01*
X640211Y882902D01*
Y884234D01*
X638878Y881569D02*
X636212D01*
X587756Y913384D02*
Y921381D01*
X583757D01*
X582424Y920049D01*
Y917383D01*
X583757Y916050D01*
X587756D01*
X585090D02*
X582424Y913384D01*
X579759Y921381D02*
X574427D01*
Y920049D01*
X579759Y914717D01*
Y913384D01*
X641096Y763778D02*
Y771775D01*
X637097D01*
X635764Y770443D01*
Y767777D01*
X637097Y766444D01*
X641096D01*
X638430D02*
X635764Y763778D01*
X627767D02*
X633099D01*
X627767Y769110D01*
Y770443D01*
X629100Y771775D01*
X631766D01*
X633099Y770443D01*
X717044Y895411D02*
X718377Y896743D01*
X721043D01*
X722376Y895411D01*
Y890079D01*
X721043Y888746D01*
X718377D01*
X717044Y890079D01*
X714379Y888746D02*
X711713D01*
X713046D01*
Y896743D01*
X714379Y895411D01*
X847600Y910904D02*
X848933Y912237D01*
X851599D01*
X852932Y910904D01*
Y905573D01*
X851599Y904240D01*
X848933D01*
X847600Y905573D01*
X839603Y904240D02*
X844935D01*
X839603Y909572D01*
Y910904D01*
X840936Y912237D01*
X843602D01*
X844935Y910904D01*
X735586Y925637D02*
X736919Y926969D01*
X739585D01*
X740918Y925637D01*
Y920305D01*
X739585Y918972D01*
X736919D01*
X735586Y920305D01*
X732921Y925637D02*
X731588Y926969D01*
X728922D01*
X727589Y925637D01*
Y924304D01*
X728922Y922971D01*
X730255D01*
X728922D01*
X727589Y921638D01*
Y920305D01*
X728922Y918972D01*
X731588D01*
X732921Y920305D01*
X895860Y936304D02*
X897193Y937637D01*
X899859D01*
X901192Y936304D01*
Y930973D01*
X899859Y929640D01*
X897193D01*
X895860Y930973D01*
X889196Y929640D02*
Y937637D01*
X893195Y933639D01*
X887863D01*
X877572Y827592D02*
X878905Y828925D01*
X881571D01*
X882904Y827592D01*
Y822261D01*
X881571Y820928D01*
X878905D01*
X877572Y822261D01*
X869575Y828925D02*
X874907D01*
Y824927D01*
X872241Y826260D01*
X870908D01*
X869575Y824927D01*
Y822261D01*
X870908Y820928D01*
X873574D01*
X874907Y822261D01*
X919990Y842325D02*
X921323Y843657D01*
X923989D01*
X925322Y842325D01*
Y836993D01*
X923989Y835660D01*
X921323D01*
X919990Y836993D01*
X911993Y843657D02*
X914659Y842325D01*
X917325Y839659D01*
Y836993D01*
X915992Y835660D01*
X913326D01*
X911993Y836993D01*
Y838326D01*
X913326Y839659D01*
X917325D01*
X787148Y819464D02*
X788481Y820797D01*
X791147D01*
X792480Y819464D01*
Y814133D01*
X791147Y812800D01*
X788481D01*
X787148Y814133D01*
X784483Y820797D02*
X779151D01*
Y819464D01*
X784483Y814133D01*
Y812800D01*
X841758Y823020D02*
X843091Y824353D01*
X845757D01*
X847090Y823020D01*
Y817689D01*
X845757Y816356D01*
X843091D01*
X841758Y817689D01*
X839093Y823020D02*
X837760Y824353D01*
X835094D01*
X833761Y823020D01*
Y821688D01*
X835094Y820355D01*
X833761Y819022D01*
Y817689D01*
X835094Y816356D01*
X837760D01*
X839093Y817689D01*
Y819022D01*
X837760Y820355D01*
X839093Y821688D01*
Y823020D01*
X837760Y820355D02*
X835094D01*
X902210Y892617D02*
X903543Y893949D01*
X906209D01*
X907542Y892617D01*
Y887285D01*
X906209Y885952D01*
X903543D01*
X902210Y887285D01*
X899545D02*
X898212Y885952D01*
X895546D01*
X894213Y887285D01*
Y892617D01*
X895546Y893949D01*
X898212D01*
X899545Y892617D01*
Y891284D01*
X898212Y889951D01*
X894213D01*
X733300Y849183D02*
X734633Y850515D01*
X737299D01*
X738632Y849183D01*
Y843851D01*
X737299Y842518D01*
X734633D01*
X733300Y843851D01*
X730635Y842518D02*
X727969D01*
X729302D01*
Y850515D01*
X730635Y849183D01*
X723970D02*
X722637Y850515D01*
X719971D01*
X718638Y849183D01*
Y843851D01*
X719971Y842518D01*
X722637D01*
X723970Y843851D01*
Y849183D01*
X812294Y908111D02*
X813627Y909443D01*
X816293D01*
X817626Y908111D01*
Y902779D01*
X816293Y901446D01*
X813627D01*
X812294Y902779D01*
X809629Y901446D02*
X806963D01*
X808296D01*
Y909443D01*
X809629Y908111D01*
X802964Y901446D02*
X800298D01*
X801631D01*
Y909443D01*
X802964Y908111D01*
X790704Y873313D02*
X792037Y874645D01*
X794703D01*
X796036Y873313D01*
Y867981D01*
X794703Y866648D01*
X792037D01*
X790704Y867981D01*
X788039Y866648D02*
X785373D01*
X786706D01*
Y874645D01*
X788039Y873313D01*
X776042Y866648D02*
X781374D01*
X776042Y871980D01*
Y873313D01*
X777375Y874645D01*
X780041D01*
X781374Y873313D01*
X765304Y925383D02*
X766637Y926715D01*
X769303D01*
X770636Y925383D01*
Y920051D01*
X769303Y918718D01*
X766637D01*
X765304Y920051D01*
X762639Y918718D02*
X759973D01*
X761306D01*
Y926715D01*
X762639Y925383D01*
X755974D02*
X754641Y926715D01*
X751975D01*
X750642Y925383D01*
Y924050D01*
X751975Y922717D01*
X753308D01*
X751975D01*
X750642Y921384D01*
Y920051D01*
X751975Y918718D01*
X754641D01*
X755974Y920051D01*
X814834Y939099D02*
X816167Y940431D01*
X818833D01*
X820166Y939099D01*
Y933767D01*
X818833Y932434D01*
X816167D01*
X814834Y933767D01*
X812169Y932434D02*
X809503D01*
X810836D01*
Y940431D01*
X812169Y939099D01*
X801505Y932434D02*
Y940431D01*
X805504Y936433D01*
X800172D01*
X948184Y953577D02*
X949517Y954909D01*
X952183D01*
X953516Y953577D01*
Y948245D01*
X952183Y946912D01*
X949517D01*
X948184Y948245D01*
X945519Y946912D02*
X942853D01*
X944186D01*
Y954909D01*
X945519Y953577D01*
X933522Y954909D02*
X938854D01*
Y950911D01*
X936188Y952244D01*
X934855D01*
X933522Y950911D01*
Y948245D01*
X934855Y946912D01*
X937521D01*
X938854Y948245D01*
X774924Y975207D02*
X775757Y976040D01*
X777423D01*
X778256Y975207D01*
Y971875D01*
X777423Y971042D01*
X775757D01*
X774924Y971875D01*
X773258Y971042D02*
X771591D01*
X772425D01*
Y976040D01*
X773258Y975207D01*
X765760Y976040D02*
X767426Y975207D01*
X769092Y973541D01*
Y971875D01*
X768259Y971042D01*
X766593D01*
X765760Y971875D01*
Y972708D01*
X766593Y973541D01*
X769092D01*
X829820Y992185D02*
X831153Y993517D01*
X833819D01*
X835152Y992185D01*
Y986853D01*
X833819Y985520D01*
X831153D01*
X829820Y986853D01*
X827155Y985520D02*
X824489D01*
X825822D01*
Y993517D01*
X827155Y992185D01*
X820490Y993517D02*
X815158D01*
Y992185D01*
X820490Y986853D01*
Y985520D01*
X862078Y953577D02*
X863411Y954909D01*
X866077D01*
X867410Y953577D01*
Y948245D01*
X866077Y946912D01*
X863411D01*
X862078Y948245D01*
X859413Y946912D02*
X856747D01*
X858080D01*
Y954909D01*
X859413Y953577D01*
X852748D02*
X851415Y954909D01*
X848749D01*
X847416Y953577D01*
Y952244D01*
X848749Y950911D01*
X847416Y949578D01*
Y948245D01*
X848749Y946912D01*
X851415D01*
X852748Y948245D01*
Y949578D01*
X851415Y950911D01*
X852748Y952244D01*
Y953577D01*
X851415Y950911D02*
X848749D01*
X943866Y967801D02*
X945199Y969133D01*
X947865D01*
X949198Y967801D01*
Y962469D01*
X947865Y961136D01*
X945199D01*
X943866Y962469D01*
X941201Y961136D02*
X938535D01*
X939868D01*
Y969133D01*
X941201Y967801D01*
X934536Y962469D02*
X933203Y961136D01*
X930537D01*
X929204Y962469D01*
Y967801D01*
X930537Y969133D01*
X933203D01*
X934536Y967801D01*
Y966468D01*
X933203Y965135D01*
X929204D01*
X749048Y1019109D02*
X750381Y1020441D01*
X753047D01*
X754380Y1019109D01*
Y1013777D01*
X753047Y1012444D01*
X750381D01*
X749048Y1013777D01*
X741051Y1012444D02*
X746383D01*
X741051Y1017776D01*
Y1019109D01*
X742384Y1020441D01*
X745050D01*
X746383Y1019109D01*
X738385D02*
X737052Y1020441D01*
X734386D01*
X733054Y1019109D01*
Y1013777D01*
X734386Y1012444D01*
X737052D01*
X738385Y1013777D01*
Y1019109D01*
X910846Y1006408D02*
X912179Y1007741D01*
X914845D01*
X916178Y1006408D01*
Y1001077D01*
X914845Y999744D01*
X912179D01*
X910846Y1001077D01*
X902849Y999744D02*
X908181D01*
X902849Y1005076D01*
Y1006408D01*
X904182Y1007741D01*
X906848D01*
X908181Y1006408D01*
X900183Y999744D02*
X897517D01*
X898850D01*
Y1007741D01*
X900183Y1006408D01*
X862332Y1006917D02*
X863665Y1008249D01*
X866331D01*
X867664Y1006917D01*
Y1001585D01*
X866331Y1000252D01*
X863665D01*
X862332Y1001585D01*
X854335Y1000252D02*
X859667D01*
X854335Y1005584D01*
Y1006917D01*
X855668Y1008249D01*
X858334D01*
X859667Y1006917D01*
X846338Y1000252D02*
X851669D01*
X846338Y1005584D01*
Y1006917D01*
X847670Y1008249D01*
X850336D01*
X851669Y1006917D01*
X801372Y1019109D02*
X802705Y1020441D01*
X805371D01*
X806704Y1019109D01*
Y1013777D01*
X805371Y1012444D01*
X802705D01*
X801372Y1013777D01*
X793375Y1012444D02*
X798707D01*
X793375Y1017776D01*
Y1019109D01*
X794708Y1020441D01*
X797374D01*
X798707Y1019109D01*
X790709D02*
X789376Y1020441D01*
X786710D01*
X785378Y1019109D01*
Y1017776D01*
X786710Y1016443D01*
X788043D01*
X786710D01*
X785378Y1015110D01*
Y1013777D01*
X786710Y1012444D01*
X789376D01*
X790709Y1013777D01*
X1017526Y928176D02*
X1018859Y929509D01*
X1021525D01*
X1022858Y928176D01*
Y922845D01*
X1021525Y921512D01*
X1018859D01*
X1017526Y922845D01*
X1009529Y921512D02*
X1014861D01*
X1009529Y926844D01*
Y928176D01*
X1010862Y929509D01*
X1013528D01*
X1014861Y928176D01*
X1002864Y921512D02*
Y929509D01*
X1006863Y925511D01*
X1001532D01*
X966726Y876869D02*
X968059Y878201D01*
X970725D01*
X972058Y876869D01*
Y871537D01*
X970725Y870204D01*
X968059D01*
X966726Y871537D01*
X958729Y870204D02*
X964061D01*
X958729Y875536D01*
Y876869D01*
X960062Y878201D01*
X962728D01*
X964061Y876869D01*
X956063Y878201D02*
X950732D01*
Y876869D01*
X956063Y871537D01*
Y870204D01*
X691390Y813876D02*
X692723Y815209D01*
X695389D01*
X696722Y813876D01*
Y808545D01*
X695389Y807212D01*
X692723D01*
X691390Y808545D01*
X683393Y807212D02*
X688725D01*
X683393Y812544D01*
Y813876D01*
X684726Y815209D01*
X687392D01*
X688725Y813876D01*
X680727D02*
X679394Y815209D01*
X676728D01*
X675396Y813876D01*
Y812544D01*
X676728Y811211D01*
X675396Y809878D01*
Y808545D01*
X676728Y807212D01*
X679394D01*
X680727Y808545D01*
Y809878D01*
X679394Y811211D01*
X680727Y812544D01*
Y813876D01*
X679394Y811211D02*
X676728D01*
X966218Y901253D02*
X967551Y902585D01*
X970217D01*
X971550Y901253D01*
Y895921D01*
X970217Y894588D01*
X967551D01*
X966218Y895921D01*
X963553Y901253D02*
X962220Y902585D01*
X959554D01*
X958221Y901253D01*
Y899920D01*
X959554Y898587D01*
X960887D01*
X959554D01*
X958221Y897254D01*
Y895921D01*
X959554Y894588D01*
X962220D01*
X963553Y895921D01*
X950224Y902585D02*
X955555D01*
Y898587D01*
X952889Y899920D01*
X951556D01*
X950224Y898587D01*
Y895921D01*
X951556Y894588D01*
X954222D01*
X955555Y895921D01*
X677420Y933511D02*
X678753Y934843D01*
X681419D01*
X682752Y933511D01*
Y928179D01*
X681419Y926846D01*
X678753D01*
X677420Y928179D01*
X674755Y933511D02*
X673422Y934843D01*
X670756D01*
X669423Y933511D01*
Y932178D01*
X670756Y930845D01*
X672089D01*
X670756D01*
X669423Y929512D01*
Y928179D01*
X670756Y926846D01*
X673422D01*
X674755Y928179D01*
X661426Y934843D02*
X664091Y933511D01*
X666757Y930845D01*
Y928179D01*
X665424Y926846D01*
X662758D01*
X661426Y928179D01*
Y929512D01*
X662758Y930845D01*
X666757D01*
X683516Y972880D02*
X684849Y974213D01*
X687515D01*
X688848Y972880D01*
Y967549D01*
X687515Y966216D01*
X684849D01*
X683516Y967549D01*
X680851Y972880D02*
X679518Y974213D01*
X676852D01*
X675519Y972880D01*
Y971548D01*
X676852Y970215D01*
X678185D01*
X676852D01*
X675519Y968882D01*
Y967549D01*
X676852Y966216D01*
X679518D01*
X680851Y967549D01*
X672853Y974213D02*
X667522D01*
Y972880D01*
X672853Y967549D01*
Y966216D01*
X641350Y738886D02*
Y746883D01*
X637351D01*
X636018Y745551D01*
Y742885D01*
X637351Y741552D01*
X641350D01*
X638684D02*
X636018Y738886D01*
X629354D02*
Y746883D01*
X633353Y742885D01*
X628021D01*
X750318Y780349D02*
X751651Y781681D01*
X754317D01*
X755650Y780349D01*
Y775017D01*
X754317Y773684D01*
X751651D01*
X750318Y775017D01*
X743654Y773684D02*
Y781681D01*
X747653Y777683D01*
X742321D01*
X734324Y773684D02*
X739655D01*
X734324Y779016D01*
Y780349D01*
X735656Y781681D01*
X738322D01*
X739655Y780349D01*
D26*
X829068Y734841D02*
G03*
X829073Y734568I-5088J-231D01*
G01*
X829830Y645941D02*
G03*
X829836Y645668I-5088J-231D01*
G01*
X790714Y899179D02*
G03*
X790720Y898906I-5088J-231D01*
G01*
X812304Y951503D02*
G03*
X812309Y951230I-5088J-231D01*
G01*
X739152Y893083D02*
G03*
X739157Y892810I-5088J-231D01*
G01*
X753630Y846093D02*
G03*
X753635Y845820I-5088J-231D01*
G01*
X790206Y831361D02*
G03*
X790211Y831088I-5088J-231D01*
G01*
X790206Y854221D02*
G03*
X790211Y853948I-5088J-231D01*
G01*
X880376Y849903D02*
G03*
X880381Y849630I-5088J-231D01*
G01*
X902220Y849649D02*
G03*
X902225Y849376I-5088J-231D01*
G01*
X878090Y885209D02*
G03*
X878095Y884936I-5088J-231D01*
G01*
X878598Y913403D02*
G03*
X878604Y913130I-5088J-231D01*
G01*
X873264Y938549D02*
G03*
X873270Y938276I-5088J-231D01*
G01*
X946670Y938295D02*
G03*
X946675Y938022I-5088J-231D01*
G01*
X738898Y947185D02*
G03*
X738904Y946912I-5088J-231D01*
G01*
X764044Y947185D02*
G03*
X764050Y946912I-5088J-231D01*
G01*
X826782Y822217D02*
G03*
X826787Y821944I-5088J-231D01*
G01*
X911110Y963949D02*
G03*
X911115Y963676I-5088J-231D01*
G01*
X860818Y963949D02*
G03*
X860824Y963676I-5088J-231D01*
G01*
X812050Y976903D02*
G03*
X812056Y976630I-5088J-231D01*
G01*
X749820Y979697D02*
G03*
X749826Y979424I-5088J-231D01*
G01*
X761504Y790975D02*
G03*
X761509Y790702I-5088J-231D01*
G01*
X996200Y926103D02*
G03*
X996206Y925830I-5088J-231D01*
G01*
X860564Y988079D02*
G03*
X860570Y987806I-5088J-231D01*
G01*
X911364Y988079D02*
G03*
X911369Y987806I-5088J-231D01*
G01*
X806958Y727456D02*
X801880D01*
X804419D01*
Y742691D01*
X806958Y740152D01*
X794262D02*
X791723Y742691D01*
X786645D01*
X784105Y740152D01*
Y729995D01*
X786645Y727456D01*
X791723D01*
X794262Y729995D01*
Y740152D01*
X779027D02*
X776488Y742691D01*
X771410D01*
X768870Y740152D01*
Y729995D01*
X771410Y727456D01*
X776488D01*
X779027Y729995D01*
Y740152D01*
X763792Y727456D02*
Y737613D01*
X756174D01*
X753635Y735073D01*
Y727456D01*
X738400Y742691D02*
X748557D01*
Y735073D01*
X743478D01*
X748557D01*
Y727456D01*
X806704Y699516D02*
X801626D01*
X804165D01*
Y714751D01*
X806704Y712212D01*
X794008D02*
X791469Y714751D01*
X786391D01*
X783851Y712212D01*
Y702055D01*
X786391Y699516D01*
X791469D01*
X794008Y702055D01*
Y712212D01*
X778773D02*
X776234Y714751D01*
X771155D01*
X768616Y712212D01*
Y702055D01*
X771155Y699516D01*
X776234D01*
X778773Y702055D01*
Y712212D01*
X763538Y709673D02*
Y702055D01*
X760999Y699516D01*
X753381D01*
Y709673D01*
X738146Y714751D02*
X748303D01*
Y707133D01*
X743224D01*
X748303D01*
Y699516D01*
X798832Y668020D02*
Y683255D01*
X806450Y675638D01*
X796293D01*
X791215Y668020D02*
Y670559D01*
X788676D01*
Y668020D01*
X791215D01*
X778519Y683255D02*
X768362D01*
Y680716D01*
X778519Y670559D01*
Y668020D01*
X763284Y678177D02*
Y670559D01*
X760745Y668020D01*
X753127D01*
Y678177D01*
X737892Y683255D02*
X748049D01*
Y675638D01*
X742971D01*
X748049D01*
Y668020D01*
X807212Y639826D02*
X802134D01*
X804673D01*
Y655061D01*
X807212Y652522D01*
X794516D02*
X791977Y655061D01*
X786899D01*
X784359Y652522D01*
Y642365D01*
X786899Y639826D01*
X791977D01*
X794516Y642365D01*
Y652522D01*
X779281D02*
X776742Y655061D01*
X771664D01*
X769124Y652522D01*
Y642365D01*
X771664Y639826D01*
X776742D01*
X779281Y642365D01*
Y652522D01*
X746272Y639826D02*
X741193D01*
X738654Y642365D01*
Y647443D01*
X741193Y649983D01*
X746272D01*
X748811Y647443D01*
Y642365D01*
X746272Y639826D01*
X733576Y655061D02*
Y639826D01*
Y647443D01*
X731037Y649983D01*
X725958D01*
X723419Y647443D01*
Y639826D01*
X718341D02*
Y649983D01*
X715802D01*
X713262Y647443D01*
Y639826D01*
Y647443D01*
X710723Y649983D01*
X708184Y647443D01*
Y639826D01*
X703106D02*
X695488D01*
X692949Y642365D01*
X695488Y644904D01*
X700566D01*
X703106Y647443D01*
X700566Y649983D01*
X692949D01*
D27*
X695826Y968566D02*
Y976566D01*
X710826Y968566D02*
Y976566D01*
X983608Y921830D02*
Y929830D01*
X998608Y921830D02*
Y929830D01*
X790512Y993768D02*
X798512D01*
X790512Y1008768D02*
X798512D01*
X851980Y995306D02*
X859980D01*
X851980Y980306D02*
X859980D01*
X902272Y995306D02*
X910272D01*
X902272Y980306D02*
X910272D01*
X739712Y994022D02*
X747712D01*
X739712Y1009022D02*
X747712D01*
X851980Y971176D02*
X859980D01*
X851980Y956176D02*
X859980Y956176D01*
X802500Y969000D02*
X810500D01*
X802500Y984000D02*
X810500D01*
X803212Y958984D02*
X811212D01*
X803212Y943984D02*
X811212D01*
X902018Y971176D02*
X910018D01*
X902018Y956176D02*
X910018D01*
X937578Y945776D02*
X945578D01*
X937578Y930776D02*
X945578D01*
X937832Y919868D02*
X945832D01*
X937832Y904868D02*
X945832D01*
X946538Y870522D02*
Y878522D01*
X931538Y870522D02*
Y878522D01*
X904628Y845630D02*
Y853630D01*
X889628Y845630D02*
Y853630D01*
X882784Y845630D02*
Y853630D01*
X867784Y845630D02*
Y853630D01*
X829190Y818198D02*
Y826198D01*
X814190Y818198D02*
Y826198D01*
X718000Y807000D02*
Y815000D01*
X703000Y807000D02*
Y815000D01*
X781368Y823842D02*
X789368D01*
X781368Y838842D02*
X789368D01*
X781500Y847000D02*
X789500D01*
X781500Y862000D02*
X789500D01*
X740500Y972000D02*
X748500D01*
X740500Y987000D02*
X748500D01*
X778122Y895160D02*
Y903160D01*
X793122Y895160D02*
Y903160D01*
X695826Y926148D02*
Y934148D01*
X710826Y926148D02*
Y934148D01*
X726500Y943000D02*
Y951000D01*
X741500Y943000D02*
Y951000D01*
X751500Y943000D02*
Y951000D01*
X766500Y943000D02*
Y951000D01*
X868998Y920376D02*
X876998D01*
X868998Y905376D02*
X876998D01*
X863918Y945776D02*
X871918D01*
X863918Y930776D02*
X871918D01*
X869000Y892500D02*
X877000D01*
X869000Y877500D02*
X877000D01*
X756000Y842000D02*
Y850000D01*
X741000Y842000D02*
Y850000D01*
X741560Y889064D02*
Y897064D01*
X726560Y889064D02*
Y897064D01*
X759395Y798834D02*
X765052Y793177D01*
X748788Y788227D02*
X754445Y782570D01*
D43*
X950976Y667258D02*
X955294D01*
X982472D02*
X986536D01*
X1057656D02*
X1061974D01*
X895350Y667512D02*
X898906D01*
X905764D02*
X909574D01*
X911352D02*
X915670D01*
X923544D02*
X927862D01*
X929640D02*
X933704D01*
X939292D02*
X943356D01*
X950214D02*
X956056D01*
X960882D02*
X965200D01*
X973074D02*
X977392D01*
X981710D02*
X987298D01*
X999744D02*
X1012190D01*
X1020064D02*
X1029208D01*
X1042162D02*
X1046226D01*
X1056894D02*
X1062736D01*
X1070356D02*
X1074166D01*
X895350Y667766D02*
X899160D01*
X905764D02*
X909574D01*
X911606D02*
X915670D01*
X923544D02*
X927608D01*
X929640D02*
X933704D01*
X939292D02*
X943356D01*
X949706D02*
X956564D01*
X960882D02*
X965200D01*
X973074D02*
X977138D01*
X981202D02*
X988060D01*
X999744D02*
X1012190D01*
X1019302D02*
X1029208D01*
X1042162D02*
X1046226D01*
X1056386D02*
X1063244D01*
X1070356D02*
X1074166D01*
X895350Y668020D02*
X899160D01*
X905764D02*
X909574D01*
X911606D02*
X915670D01*
X923544D02*
X927608D01*
X929640D02*
X933704D01*
X939292D02*
X943356D01*
X949198D02*
X957072D01*
X961136D02*
X965200D01*
X973074D02*
X977138D01*
X980694D02*
X988314D01*
X999744D02*
X1012190D01*
X1018794D02*
X1029208D01*
X1042162D02*
X1046226D01*
X1055878D02*
X1063752D01*
X1070356D02*
X1074166D01*
X895350Y668274D02*
X899414D01*
X905764D02*
X909574D01*
X911606D02*
X915924D01*
X923290D02*
X927608D01*
X929640D02*
X933704D01*
X939292D02*
X943356D01*
X948690D02*
X957326D01*
X961136D02*
X965454D01*
X972820D02*
X977138D01*
X980186D02*
X988822D01*
X999744D02*
X1012190D01*
X1018286D02*
X1029208D01*
X1042162D02*
X1046226D01*
X1055624D02*
X1064006D01*
X1070356D02*
X1074166D01*
X895350Y668528D02*
X899668D01*
X905764D02*
X909574D01*
X911860D02*
X915924D01*
X923290D02*
X927354D01*
X929640D02*
X933704D01*
X939292D02*
X943356D01*
X948436D02*
X957580D01*
X961390D02*
X965454D01*
X972820D02*
X976884D01*
X979932D02*
X989076D01*
X999744D02*
X1012190D01*
X1018032D02*
X1029208D01*
X1042162D02*
X1046226D01*
X1055116D02*
X1064514D01*
X1070356D02*
X1074166D01*
X895350Y668782D02*
X899668D01*
X905764D02*
X909574D01*
X911860D02*
X915924D01*
X923290D02*
X927354D01*
X929640D02*
X933704D01*
X939292D02*
X943356D01*
X948182D02*
X957834D01*
X961390D02*
X965454D01*
X972820D02*
X976884D01*
X979678D02*
X989330D01*
X999744D02*
X1012190D01*
X1017778D02*
X1029208D01*
X1042162D02*
X1046226D01*
X1054862D02*
X1064768D01*
X1070356D02*
X1074166D01*
X895350Y669036D02*
X899922D01*
X905764D02*
X909574D01*
X912114D02*
X916178D01*
X923036D02*
X927354D01*
X929640D02*
X933704D01*
X939292D02*
X943356D01*
X947928D02*
X958088D01*
X961390D02*
X965708D01*
X972566D02*
X976884D01*
X979424D02*
X989584D01*
X999744D02*
X1012190D01*
X1017524D02*
X1029208D01*
X1042162D02*
X1046226D01*
X1054608D02*
X1065022D01*
X1070356D02*
X1074166D01*
X895350Y669290D02*
X900176D01*
X905764D02*
X909574D01*
X912114D02*
X916178D01*
X923036D02*
X927100D01*
X929640D02*
X933704D01*
X939292D02*
X943356D01*
X947674D02*
X958342D01*
X961644D02*
X965708D01*
X972566D02*
X976630D01*
X979170D02*
X989838D01*
X999744D02*
X1012190D01*
X1017270D02*
X1029208D01*
X1042162D02*
X1046226D01*
X1054354D02*
X1065276D01*
X1070356D02*
X1074166D01*
X895350Y669544D02*
X900176D01*
X905764D02*
X909574D01*
X912114D02*
X916178D01*
X923036D02*
X927100D01*
X929640D02*
X933704D01*
X939292D02*
X943356D01*
X947420D02*
X958596D01*
X961644D02*
X965708D01*
X972566D02*
X976630D01*
X978916D02*
X990092D01*
X999744D02*
X1012190D01*
X1017016D02*
X1029208D01*
X1042162D02*
X1046226D01*
X1054354D02*
X1065530D01*
X1070356D02*
X1074166D01*
X895350Y669798D02*
X900430D01*
X905764D02*
X909574D01*
X912368D02*
X916432D01*
X922782D02*
X927100D01*
X929640D02*
X933704D01*
X939292D02*
X943356D01*
X947420D02*
X958850D01*
X961644D02*
X965962D01*
X972312D02*
X976630D01*
X978916D02*
X990346D01*
X999744D02*
X1012190D01*
X1016762D02*
X1029208D01*
X1042162D02*
X1046226D01*
X1054100D02*
X1065530D01*
X1070356D02*
X1074166D01*
X895350Y670052D02*
X900684D01*
X905764D02*
X909574D01*
X912368D02*
X916432D01*
X922782D02*
X926846D01*
X929640D02*
X933704D01*
X939292D02*
X943356D01*
X947166D02*
X959104D01*
X961898D02*
X965962D01*
X972312D02*
X976376D01*
X978662D02*
X990600D01*
X999744D02*
X1012190D01*
X1016508D02*
X1029208D01*
X1042162D02*
X1046226D01*
X1053846D02*
X1065784D01*
X1070356D02*
X1074166D01*
X895350Y670306D02*
X900684D01*
X905764D02*
X909574D01*
X912368D02*
X916432D01*
X922782D02*
X926846D01*
X929640D02*
X933704D01*
X939292D02*
X943356D01*
X946912D02*
X959104D01*
X961898D02*
X965962D01*
X972312D02*
X976376D01*
X978408D02*
X990600D01*
X999744D02*
X1012190D01*
X1016508D02*
X1029208D01*
X1042162D02*
X1046226D01*
X1053846D02*
X1066038D01*
X1070356D02*
X1074166D01*
X895350Y670560D02*
X900938D01*
X905764D02*
X909574D01*
X912622D02*
X916432D01*
X922782D02*
X926592D01*
X929640D02*
X933704D01*
X939292D02*
X943356D01*
X946912D02*
X951992D01*
X954024D02*
X959358D01*
X961898D02*
X965962D01*
X972058D02*
X976122D01*
X978408D02*
X983488D01*
X985520D02*
X990854D01*
X999744D02*
X1012190D01*
X1016254D02*
X1029208D01*
X1042162D02*
X1046226D01*
X1053592D02*
X1058926D01*
X1060704D02*
X1066038D01*
X1070356D02*
X1074166D01*
X895350Y670814D02*
X901192D01*
X905764D02*
X909574D01*
X912622D02*
X926592D01*
X929640D02*
X933704D01*
X939292D02*
X943356D01*
X946658D02*
X951484D01*
X954532D02*
X959358D01*
X962152D02*
X976122D01*
X978154D02*
X982980D01*
X986028D02*
X990854D01*
X1008126D02*
X1012190D01*
X1016254D02*
X1021588D01*
X1025144D02*
X1029208D01*
X1042162D02*
X1046226D01*
X1053592D02*
X1058164D01*
X1061466D02*
X1066038D01*
X1070356D02*
X1074166D01*
X895350Y671068D02*
X901192D01*
X905764D02*
X909574D01*
X912622D02*
X926592D01*
X929640D02*
X933704D01*
X939292D02*
X943356D01*
X946658D02*
X951230D01*
X954786D02*
X959612D01*
X962152D02*
X976122D01*
X978154D02*
X982726D01*
X986282D02*
X991108D01*
X1008126D02*
X1012190D01*
X1016000D02*
X1021080D01*
X1025144D02*
X1029208D01*
X1042162D02*
X1046226D01*
X1053338D02*
X1057910D01*
X1061720D02*
X1066292D01*
X1070356D02*
X1074166D01*
X895350Y671322D02*
X901446D01*
X905764D02*
X909574D01*
X912876D02*
X926338D01*
X929640D02*
X933704D01*
X939292D02*
X943356D01*
X946658D02*
X950976D01*
X955040D02*
X959612D01*
X962152D02*
X975868D01*
X978154D02*
X982472D01*
X986536D02*
X991108D01*
X1008126D02*
X1012190D01*
X1016000D02*
X1020826D01*
X1025144D02*
X1029208D01*
X1042162D02*
X1046226D01*
X1053338D02*
X1057656D01*
X1061974D02*
X1066546D01*
X1070356D02*
X1074166D01*
X895350Y671576D02*
X901700D01*
X905764D02*
X909574D01*
X912876D02*
X926338D01*
X929640D02*
X933704D01*
X939292D02*
X943356D01*
X946404D02*
X950722D01*
X955294D02*
X959612D01*
X962406D02*
X975868D01*
X977900D02*
X982218D01*
X986790D02*
X991108D01*
X1008126D02*
X1012190D01*
X1016000D02*
X1020572D01*
X1025144D02*
X1029208D01*
X1042162D02*
X1046226D01*
X1053338D02*
X1057402D01*
X1062228D02*
X1066546D01*
X1070356D02*
X1074166D01*
X895350Y671830D02*
X901700D01*
X905764D02*
X909574D01*
X913130D02*
X926338D01*
X929640D02*
X933704D01*
X939292D02*
X943356D01*
X946404D02*
X950722D01*
X955548D02*
X959612D01*
X962406D02*
X975868D01*
X977900D02*
X982218D01*
X987044D02*
X991108D01*
X1008126D02*
X1012190D01*
X1015746D02*
X1020318D01*
X1025144D02*
X1029208D01*
X1042162D02*
X1046226D01*
X1053084D02*
X1057402D01*
X1062482D02*
X1066546D01*
X1070356D02*
X1074166D01*
X895350Y672084D02*
X901954D01*
X905764D02*
X909574D01*
X913130D02*
X926084D01*
X929640D02*
X933704D01*
X939292D02*
X943356D01*
X946404D02*
X950468D01*
X955548D02*
X959866D01*
X962660D02*
X975614D01*
X977900D02*
X981964D01*
X987044D02*
X991362D01*
X1008126D02*
X1012190D01*
X1015746D02*
X1020064D01*
X1025144D02*
X1029208D01*
X1042162D02*
X1046226D01*
X1053084D02*
X1057148D01*
X1062482D02*
X1066546D01*
X1070356D02*
X1074166D01*
X895350Y672338D02*
X901954D01*
X905764D02*
X909574D01*
X913130D02*
X926084D01*
X929640D02*
X933704D01*
X939292D02*
X943356D01*
X946150D02*
X950468D01*
X955548D02*
X959866D01*
X962660D02*
X975614D01*
X977646D02*
X981964D01*
X987044D02*
X991362D01*
X1008126D02*
X1012190D01*
X1015746D02*
X1020064D01*
X1025144D02*
X1029208D01*
X1042162D02*
X1046226D01*
X1053084D02*
X1057148D01*
X1062736D02*
X1066800D01*
X1070356D02*
X1074166D01*
X895350Y672592D02*
X902208D01*
X905764D02*
X909574D01*
X913384D02*
X926084D01*
X929640D02*
X933704D01*
X939292D02*
X943356D01*
X946150D02*
X950214D01*
X955802D02*
X959866D01*
X962660D02*
X975614D01*
X977646D02*
X981710D01*
X987298D02*
X991362D01*
X1008126D02*
X1012190D01*
X1015746D02*
X1019810D01*
X1025144D02*
X1029208D01*
X1042162D02*
X1046226D01*
X1053084D02*
X1057148D01*
X1062736D02*
X1066546D01*
X1070356D02*
X1074166D01*
X895350Y672846D02*
X902462D01*
X905764D02*
X909574D01*
X913384D02*
X925830D01*
X929640D02*
X933704D01*
X939292D02*
X943356D01*
X946150D02*
X950214D01*
X955802D02*
X959866D01*
X962914D02*
X975360D01*
X977646D02*
X981710D01*
X987298D02*
X991362D01*
X1008126D02*
X1012190D01*
X1015746D02*
X1019810D01*
X1025144D02*
X1029208D01*
X1042162D02*
X1046226D01*
X1053084D02*
X1056894D01*
X1062736D02*
X1066546D01*
X1070356D02*
X1074166D01*
X895350Y673100D02*
X902462D01*
X905764D02*
X909574D01*
X913384D02*
X925830D01*
X929640D02*
X933704D01*
X939292D02*
X943356D01*
X955802D02*
X959866D01*
X962914D02*
X975360D01*
X987298D02*
X991362D01*
X1008126D02*
X1012190D01*
X1015492D02*
X1019810D01*
X1025144D02*
X1029208D01*
X1042162D02*
X1046226D01*
X1053084D02*
X1056894D01*
X1062736D02*
X1066800D01*
X1070356D02*
X1074166D01*
X895350Y673354D02*
X902716D01*
X905764D02*
X909574D01*
X913638D02*
X925576D01*
X929640D02*
X933704D01*
X939292D02*
X943356D01*
X955802D02*
X959866D01*
X962914D02*
X975106D01*
X987298D02*
X991362D01*
X1008126D02*
X1012190D01*
X1015492D02*
X1019810D01*
X1025144D02*
X1029208D01*
X1042162D02*
X1046226D01*
X1053084D02*
X1056894D01*
X1062736D02*
X1066800D01*
X1070356D02*
X1074166D01*
X895350Y673608D02*
X902970D01*
X905764D02*
X909574D01*
X913638D02*
X925576D01*
X929640D02*
X933704D01*
X939292D02*
X943356D01*
X955802D02*
X959866D01*
X963168D02*
X975106D01*
X987298D02*
X991362D01*
X1008126D02*
X1012190D01*
X1015492D02*
X1019810D01*
X1025144D02*
X1029208D01*
X1042162D02*
X1046226D01*
X1053084D02*
X1056894D01*
X1062736D02*
X1066800D01*
X1070356D02*
X1074166D01*
X895350Y673862D02*
X902970D01*
X905764D02*
X909574D01*
X913638D02*
X917702D01*
X921766D02*
X925576D01*
X929640D02*
X933704D01*
X939292D02*
X943356D01*
X955802D02*
X959866D01*
X963168D02*
X967232D01*
X971042D02*
X975106D01*
X987298D02*
X991362D01*
X1008126D02*
X1012190D01*
X1015492D02*
X1019556D01*
X1025144D02*
X1029208D01*
X1042162D02*
X1046226D01*
X1053084D02*
X1056894D01*
X1062736D02*
X1066800D01*
X1070356D02*
X1074166D01*
X895350Y674116D02*
X903224D01*
X905764D02*
X909574D01*
X913892D02*
X917702D01*
X921512D02*
X925322D01*
X929640D02*
X933704D01*
X939292D02*
X943356D01*
X955802D02*
X960120D01*
X963168D02*
X967232D01*
X971042D02*
X974852D01*
X987298D02*
X991362D01*
X1008126D02*
X1012190D01*
X1015492D02*
X1019556D01*
X1025144D02*
X1029208D01*
X1042162D02*
X1046226D01*
X1053084D02*
X1056894D01*
X1062736D02*
X1066800D01*
X1070356D02*
X1074166D01*
X895350Y674370D02*
X903478D01*
X905764D02*
X909574D01*
X913892D02*
X917702D01*
X921258D02*
X925322D01*
X929640D02*
X933704D01*
X939292D02*
X943356D01*
X955802D02*
X960120D01*
X963422D02*
X967232D01*
X970788D02*
X974852D01*
X987298D02*
X991616D01*
X1008126D02*
X1012190D01*
X1015492D02*
X1019556D01*
X1025144D02*
X1029208D01*
X1042162D02*
X1046226D01*
X1053084D02*
X1056894D01*
X1062736D02*
X1066800D01*
X1070356D02*
X1074166D01*
X895350Y674624D02*
X903478D01*
X905764D02*
X909574D01*
X913892D02*
X917956D01*
X921258D02*
X925322D01*
X929640D02*
X933704D01*
X939292D02*
X943356D01*
X956056D02*
X960120D01*
X963422D02*
X967486D01*
X970788D02*
X974852D01*
X987552D02*
X991616D01*
X1008126D02*
X1012190D01*
X1015492D02*
X1019556D01*
X1025144D02*
X1029208D01*
X1042162D02*
X1046226D01*
X1053084D02*
X1056894D01*
X1062736D02*
X1066800D01*
X1070356D02*
X1074166D01*
X895350Y674878D02*
X903732D01*
X905764D02*
X909574D01*
X914146D02*
X917956D01*
X921258D02*
X925068D01*
X929640D02*
X933704D01*
X933958D02*
X939038D01*
X939292D02*
X943356D01*
X956056D02*
X960120D01*
X963676D02*
X967486D01*
X970788D02*
X974598D01*
X987552D02*
X991616D01*
X1001014D02*
X1007872D01*
X1008126D02*
X1012190D01*
X1015492D02*
X1019556D01*
X1025144D02*
X1029208D01*
X1042162D02*
X1046226D01*
X1053084D02*
X1056894D01*
X1062736D02*
X1066800D01*
X1070356D02*
X1074166D01*
X895350Y675132D02*
X899160D01*
X899414D02*
X903986D01*
X905764D02*
X909574D01*
X914146D02*
X917956D01*
X921004D02*
X925068D01*
X929640D02*
X943356D01*
X956056D02*
X960120D01*
X963676D02*
X967486D01*
X970534D02*
X974598D01*
X987552D02*
X991616D01*
X1001014D02*
X1012190D01*
X1015492D02*
X1019556D01*
X1025144D02*
X1029208D01*
X1042162D02*
X1046226D01*
X1053084D02*
X1056894D01*
X1062736D02*
X1066800D01*
X1070356D02*
X1074166D01*
X895350Y675386D02*
X899160D01*
X899414D02*
X903986D01*
X905764D02*
X909574D01*
X914146D02*
X918210D01*
X921004D02*
X925068D01*
X929640D02*
X943356D01*
X956056D02*
X960120D01*
X963676D02*
X967740D01*
X970534D02*
X974598D01*
X987552D02*
X991616D01*
X1001014D02*
X1012190D01*
X1015492D02*
X1019556D01*
X1025144D02*
X1029208D01*
X1042162D02*
X1046226D01*
X1053084D02*
X1056894D01*
X1062736D02*
X1066800D01*
X1070356D02*
X1074166D01*
X895350Y675640D02*
X899160D01*
X899668D02*
X904240D01*
X905764D02*
X909574D01*
X914400D02*
X918210D01*
X921004D02*
X924814D01*
X929640D02*
X943356D01*
X956056D02*
X960120D01*
X963930D02*
X967740D01*
X970280D02*
X974344D01*
X987552D02*
X991616D01*
X1001014D02*
X1012190D01*
X1015492D02*
X1019556D01*
X1025144D02*
X1029208D01*
X1042162D02*
X1046226D01*
X1053084D02*
X1056894D01*
X1062736D02*
X1066800D01*
X1070356D02*
X1074166D01*
X895350Y675894D02*
X899160D01*
X899922D02*
X904240D01*
X905764D02*
X909574D01*
X914400D02*
X918210D01*
X920750D02*
X924814D01*
X929640D02*
X943356D01*
X956056D02*
X960120D01*
X963930D02*
X967740D01*
X970280D02*
X974344D01*
X987552D02*
X991616D01*
X1001014D02*
X1012190D01*
X1015492D02*
X1019556D01*
X1025144D02*
X1029208D01*
X1042162D02*
X1046226D01*
X1053084D02*
X1056894D01*
X1062736D02*
X1066800D01*
X1070356D02*
X1074166D01*
X895350Y676148D02*
X899160D01*
X899922D02*
X904494D01*
X905764D02*
X909574D01*
X914400D02*
X918464D01*
X920750D02*
X924814D01*
X929640D02*
X943356D01*
X956056D02*
X960120D01*
X963930D02*
X967994D01*
X970280D02*
X974344D01*
X987552D02*
X991616D01*
X1001014D02*
X1012190D01*
X1015492D02*
X1019556D01*
X1025144D02*
X1029208D01*
X1042162D02*
X1046226D01*
X1053084D02*
X1056894D01*
X1062736D02*
X1066800D01*
X1070356D02*
X1074166D01*
X895350Y676402D02*
X899160D01*
X900176D02*
X904748D01*
X905764D02*
X909574D01*
X914654D02*
X918464D01*
X920750D02*
X924560D01*
X929640D02*
X943356D01*
X956056D02*
X960120D01*
X964184D02*
X967994D01*
X970026D02*
X974090D01*
X987552D02*
X991616D01*
X1001014D02*
X1012190D01*
X1015492D02*
X1019556D01*
X1025144D02*
X1029208D01*
X1042162D02*
X1046226D01*
X1053084D02*
X1056894D01*
X1062736D02*
X1066800D01*
X1070356D02*
X1074166D01*
X895350Y676656D02*
X899160D01*
X900430D02*
X904748D01*
X905764D02*
X909574D01*
X914654D02*
X918464D01*
X920496D02*
X924560D01*
X929640D02*
X943356D01*
X956056D02*
X960120D01*
X964184D02*
X967994D01*
X970026D02*
X974090D01*
X987552D02*
X991616D01*
X1001014D02*
X1012190D01*
X1015492D02*
X1019556D01*
X1025144D02*
X1029208D01*
X1042162D02*
X1046226D01*
X1053084D02*
X1056894D01*
X1062736D02*
X1066800D01*
X1070356D02*
X1074166D01*
X895350Y676910D02*
X899160D01*
X900430D02*
X905002D01*
X905764D02*
X909574D01*
X914908D02*
X918718D01*
X920496D02*
X924306D01*
X929640D02*
X943356D01*
X956056D02*
X960120D01*
X964184D02*
X968248D01*
X970026D02*
X973836D01*
X987552D02*
X991616D01*
X1001014D02*
X1012190D01*
X1015492D02*
X1019556D01*
X1025144D02*
X1029208D01*
X1042162D02*
X1046226D01*
X1053084D02*
X1056894D01*
X1062736D02*
X1066800D01*
X1070356D02*
X1074166D01*
X895350Y677164D02*
X899160D01*
X900684D02*
X905256D01*
X905764D02*
X909574D01*
X914908D02*
X918718D01*
X920242D02*
X924306D01*
X929640D02*
X943356D01*
X956056D02*
X960120D01*
X964438D02*
X968248D01*
X969772D02*
X973836D01*
X987552D02*
X991616D01*
X1001014D02*
X1012190D01*
X1015492D02*
X1019556D01*
X1025144D02*
X1029208D01*
X1042162D02*
X1046226D01*
X1053084D02*
X1056894D01*
X1062736D02*
X1066800D01*
X1070356D02*
X1074166D01*
X895350Y677418D02*
X899160D01*
X900938D02*
X905256D01*
X905764D02*
X909574D01*
X914908D02*
X918718D01*
X920242D02*
X924306D01*
X929640D02*
X943356D01*
X956056D02*
X960120D01*
X964438D02*
X968248D01*
X969772D02*
X973836D01*
X987552D02*
X991616D01*
X1001014D02*
X1012190D01*
X1015492D02*
X1019556D01*
X1025144D02*
X1029208D01*
X1042162D02*
X1046226D01*
X1053084D02*
X1056894D01*
X1062736D02*
X1066800D01*
X1070356D02*
X1074166D01*
X895350Y677672D02*
X899160D01*
X900938D02*
X905510D01*
X905764D02*
X909574D01*
X915162D02*
X918972D01*
X920242D02*
X924052D01*
X929640D02*
X943356D01*
X956056D02*
X960120D01*
X964692D02*
X968502D01*
X969772D02*
X973582D01*
X987552D02*
X991616D01*
X1001014D02*
X1012190D01*
X1015492D02*
X1019556D01*
X1025144D02*
X1029208D01*
X1042162D02*
X1046226D01*
X1053084D02*
X1056894D01*
X1062736D02*
X1066800D01*
X1070356D02*
X1074166D01*
X895350Y677926D02*
X899160D01*
X901192D02*
X909574D01*
X915162D02*
X918972D01*
X919988D02*
X924052D01*
X929640D02*
X943356D01*
X956056D02*
X960120D01*
X964692D02*
X968502D01*
X969518D02*
X973582D01*
X987552D02*
X991616D01*
X1001014D02*
X1012190D01*
X1015492D02*
X1019556D01*
X1025144D02*
X1029208D01*
X1042162D02*
X1046226D01*
X1053084D02*
X1056894D01*
X1062736D02*
X1066800D01*
X1070356D02*
X1074166D01*
X895350Y678180D02*
X899160D01*
X901446D02*
X909574D01*
X915162D02*
X918972D01*
X919988D02*
X924052D01*
X929640D02*
X943356D01*
X956056D02*
X960120D01*
X964692D02*
X968502D01*
X969518D02*
X973582D01*
X987552D02*
X991616D01*
X1001014D02*
X1012190D01*
X1015492D02*
X1019556D01*
X1025144D02*
X1029208D01*
X1042162D02*
X1046226D01*
X1053084D02*
X1056894D01*
X1062736D02*
X1066800D01*
X1070356D02*
X1074166D01*
X895350Y678434D02*
X899160D01*
X901446D02*
X909574D01*
X915416D02*
X919226D01*
X919988D02*
X923798D01*
X929640D02*
X933704D01*
X939292D02*
X943356D01*
X955802D02*
X960120D01*
X964946D02*
X968756D01*
X969518D02*
X973328D01*
X987298D02*
X991616D01*
X1008126D02*
X1012190D01*
X1015492D02*
X1019556D01*
X1025144D02*
X1029208D01*
X1042162D02*
X1046226D01*
X1053084D02*
X1056894D01*
X1062736D02*
X1066800D01*
X1070356D02*
X1074166D01*
X895350Y678688D02*
X899160D01*
X901700D02*
X909574D01*
X915416D02*
X919226D01*
X919734D02*
X923798D01*
X929640D02*
X933704D01*
X939292D02*
X943356D01*
X955802D02*
X959866D01*
X964946D02*
X968756D01*
X969264D02*
X973328D01*
X987298D02*
X991362D01*
X1008126D02*
X1012190D01*
X1015492D02*
X1019556D01*
X1025144D02*
X1029208D01*
X1042162D02*
X1046226D01*
X1053084D02*
X1056894D01*
X1062736D02*
X1066800D01*
X1070356D02*
X1074166D01*
X895350Y678942D02*
X899160D01*
X901700D02*
X909574D01*
X915670D02*
X919226D01*
X919734D02*
X923798D01*
X929640D02*
X933704D01*
X939292D02*
X943356D01*
X955802D02*
X959866D01*
X964946D02*
X968756D01*
X969264D02*
X973328D01*
X987298D02*
X991362D01*
X1008126D02*
X1012190D01*
X1015492D02*
X1019556D01*
X1025144D02*
X1029208D01*
X1042162D02*
X1046226D01*
X1053084D02*
X1056894D01*
X1062736D02*
X1066800D01*
X1070356D02*
X1074166D01*
X895350Y679196D02*
X899160D01*
X901954D02*
X909574D01*
X915670D02*
X919480D01*
X919734D02*
X923544D01*
X929640D02*
X933704D01*
X939292D02*
X943356D01*
X955802D02*
X959866D01*
X965200D02*
X969010D01*
X969264D02*
X973074D01*
X987298D02*
X991362D01*
X1008126D02*
X1012190D01*
X1015492D02*
X1019556D01*
X1025144D02*
X1029208D01*
X1042162D02*
X1046226D01*
X1053084D02*
X1056894D01*
X1062736D02*
X1066800D01*
X1070356D02*
X1074166D01*
X895350Y679450D02*
X899160D01*
X902208D02*
X909574D01*
X915670D02*
X919480D01*
X919734D02*
X923544D01*
X929640D02*
X933704D01*
X939292D02*
X943356D01*
X955802D02*
X959866D01*
X965200D02*
X973074D01*
X987298D02*
X991362D01*
X1008126D02*
X1012190D01*
X1015492D02*
X1019810D01*
X1025144D02*
X1029208D01*
X1042162D02*
X1046226D01*
X1053084D02*
X1056894D01*
X1062736D02*
X1066800D01*
X1070356D02*
X1074166D01*
X895350Y679704D02*
X899160D01*
X902208D02*
X909574D01*
X915924D02*
X919480D01*
X919734D02*
X923290D01*
X929640D02*
X933704D01*
X939292D02*
X943356D01*
X946150D02*
X950214D01*
X955802D02*
X959866D01*
X965454D02*
X972820D01*
X977646D02*
X981710D01*
X987298D02*
X991362D01*
X1008126D02*
X1012190D01*
X1015492D02*
X1019810D01*
X1025144D02*
X1029208D01*
X1042162D02*
X1046226D01*
X1053084D02*
X1056894D01*
X1062736D02*
X1066800D01*
X1070356D02*
X1074166D01*
X895350Y679958D02*
X899160D01*
X902462D02*
X909574D01*
X915924D02*
X923290D01*
X929640D02*
X933704D01*
X939292D02*
X943356D01*
X946150D02*
X950214D01*
X955802D02*
X959866D01*
X965454D02*
X972820D01*
X977646D02*
X981710D01*
X987298D02*
X991362D01*
X1008126D02*
X1012190D01*
X1015492D02*
X1019810D01*
X1025144D02*
X1029208D01*
X1042162D02*
X1046226D01*
X1053084D02*
X1056894D01*
X1062736D02*
X1066800D01*
X1070356D02*
X1074166D01*
X895350Y680212D02*
X899160D01*
X902716D02*
X909574D01*
X915924D02*
X923290D01*
X929640D02*
X933704D01*
X939292D02*
X943356D01*
X946150D02*
X950214D01*
X955802D02*
X959866D01*
X965454D02*
X972820D01*
X977646D02*
X981710D01*
X987298D02*
X991362D01*
X1008126D02*
X1012190D01*
X1015746D02*
X1019810D01*
X1025144D02*
X1029208D01*
X1042162D02*
X1046226D01*
X1053084D02*
X1056894D01*
X1062736D02*
X1066800D01*
X1070356D02*
X1074166D01*
X895350Y680466D02*
X899160D01*
X902716D02*
X909574D01*
X916178D02*
X923036D01*
X929640D02*
X933704D01*
X939292D02*
X943356D01*
X946150D02*
X950468D01*
X955548D02*
X959866D01*
X965708D02*
X972566D01*
X977646D02*
X981964D01*
X987044D02*
X991362D01*
X1008126D02*
X1012190D01*
X1015746D02*
X1019810D01*
X1025144D02*
X1029208D01*
X1042162D02*
X1046226D01*
X1053084D02*
X1056894D01*
X1062736D02*
X1066800D01*
X1070356D02*
X1074166D01*
X895350Y680720D02*
X899160D01*
X902970D02*
X909574D01*
X916178D02*
X923036D01*
X929640D02*
X933704D01*
X939292D02*
X943356D01*
X946404D02*
X950468D01*
X955548D02*
X959866D01*
X965708D02*
X972566D01*
X977900D02*
X981964D01*
X987044D02*
X991362D01*
X1008126D02*
X1012190D01*
X1015746D02*
X1020064D01*
X1025144D02*
X1029208D01*
X1042162D02*
X1046226D01*
X1053084D02*
X1056894D01*
X1062736D02*
X1066800D01*
X1070356D02*
X1074166D01*
X895350Y680974D02*
X899160D01*
X903224D02*
X909574D01*
X916432D02*
X923036D01*
X929640D02*
X933704D01*
X939292D02*
X943356D01*
X946404D02*
X950722D01*
X955548D02*
X959612D01*
X965708D02*
X972566D01*
X977900D02*
X982218D01*
X987044D02*
X991108D01*
X1008126D02*
X1012190D01*
X1015746D02*
X1020064D01*
X1025144D02*
X1029208D01*
X1042162D02*
X1046226D01*
X1053084D02*
X1056894D01*
X1062736D02*
X1066800D01*
X1070356D02*
X1074166D01*
X895350Y681228D02*
X899160D01*
X903224D02*
X909574D01*
X916432D02*
X922782D01*
X929640D02*
X933704D01*
X939292D02*
X943356D01*
X946404D02*
X950722D01*
X955294D02*
X959612D01*
X965962D02*
X972312D01*
X977900D02*
X982218D01*
X986790D02*
X991108D01*
X1008126D02*
X1012190D01*
X1015746D02*
X1020318D01*
X1025144D02*
X1029208D01*
X1042162D02*
X1046226D01*
X1053084D02*
X1056894D01*
X1062736D02*
X1066800D01*
X1070356D02*
X1074166D01*
X895350Y681482D02*
X899160D01*
X903478D02*
X909574D01*
X916432D02*
X922782D01*
X929640D02*
X933704D01*
X939292D02*
X943356D01*
X946658D02*
X950976D01*
X955040D02*
X959612D01*
X965962D02*
X972312D01*
X978154D02*
X982472D01*
X986536D02*
X991108D01*
X1008126D02*
X1012190D01*
X1016000D02*
X1020572D01*
X1025144D02*
X1029208D01*
X1042162D02*
X1046226D01*
X1053084D02*
X1056894D01*
X1062736D02*
X1066800D01*
X1070356D02*
X1074166D01*
X895350Y681736D02*
X899160D01*
X903732D02*
X909574D01*
X916686D02*
X922782D01*
X929640D02*
X933704D01*
X939292D02*
X943356D01*
X946658D02*
X951230D01*
X954786D02*
X959612D01*
X965962D02*
X972058D01*
X978154D02*
X982726D01*
X986282D02*
X991108D01*
X1008126D02*
X1012190D01*
X1016000D02*
X1020826D01*
X1025144D02*
X1029208D01*
X1042162D02*
X1046226D01*
X1053084D02*
X1056894D01*
X1062736D02*
X1066800D01*
X1070356D02*
X1074166D01*
X895350Y681990D02*
X899160D01*
X903732D02*
X909574D01*
X916686D02*
X922528D01*
X929640D02*
X933704D01*
X939292D02*
X943356D01*
X946658D02*
X951992D01*
X954278D02*
X959358D01*
X966216D02*
X972058D01*
X978154D02*
X983488D01*
X985520D02*
X990854D01*
X1008126D02*
X1012190D01*
X1016000D02*
X1021334D01*
X1025144D02*
X1029208D01*
X1042162D02*
X1046226D01*
X1053084D02*
X1056894D01*
X1062736D02*
X1066800D01*
X1070356D02*
X1074166D01*
X895350Y682244D02*
X899160D01*
X903986D02*
X909574D01*
X916686D02*
X922528D01*
X929640D02*
X933704D01*
X939292D02*
X943356D01*
X946912D02*
X959358D01*
X966216D02*
X972058D01*
X978408D02*
X990854D01*
X999744D02*
X1007872D01*
X1008126D02*
X1012190D01*
X1016254D02*
X1024890D01*
X1025144D02*
X1029208D01*
X1037336D02*
X1041908D01*
X1042162D02*
X1050798D01*
X1053084D02*
X1056894D01*
X1062736D02*
X1066800D01*
X1070356D02*
X1074166D01*
X895350Y682498D02*
X899160D01*
X903986D02*
X909574D01*
X916940D02*
X922274D01*
X929640D02*
X933704D01*
X939292D02*
X943356D01*
X946912D02*
X959104D01*
X966470D02*
X971804D01*
X978408D02*
X990600D01*
X999744D02*
X1012190D01*
X1016254D02*
X1029208D01*
X1037336D02*
X1050798D01*
X1053084D02*
X1056894D01*
X1062736D02*
X1066800D01*
X1070356D02*
X1074166D01*
X895350Y682752D02*
X899160D01*
X904240D02*
X909574D01*
X916940D02*
X922274D01*
X929640D02*
X933704D01*
X939292D02*
X943356D01*
X947166D02*
X959104D01*
X966470D02*
X971804D01*
X978662D02*
X990600D01*
X999744D02*
X1012190D01*
X1016508D02*
X1029208D01*
X1037336D02*
X1051052D01*
X1053084D02*
X1056894D01*
X1062736D02*
X1066800D01*
X1070356D02*
X1074166D01*
X895350Y683006D02*
X899160D01*
X904494D02*
X909574D01*
X916940D02*
X922274D01*
X929640D02*
X933704D01*
X939292D02*
X943356D01*
X947420D02*
X958850D01*
X966470D02*
X971804D01*
X978916D02*
X990346D01*
X999744D02*
X1012190D01*
X1016508D02*
X1029208D01*
X1037336D02*
X1051052D01*
X1053084D02*
X1056894D01*
X1062736D02*
X1066800D01*
X1070356D02*
X1074166D01*
X895350Y683260D02*
X899160D01*
X904494D02*
X909574D01*
X917194D02*
X922020D01*
X929640D02*
X933704D01*
X939292D02*
X943356D01*
X947420D02*
X958596D01*
X966724D02*
X971550D01*
X978916D02*
X990092D01*
X999744D02*
X1012190D01*
X1016762D02*
X1029208D01*
X1037336D02*
X1051052D01*
X1053084D02*
X1056894D01*
X1062736D02*
X1066800D01*
X1070356D02*
X1074166D01*
X895350Y683514D02*
X899160D01*
X904748D02*
X909574D01*
X917194D02*
X922020D01*
X929640D02*
X933704D01*
X939292D02*
X943356D01*
X947674D02*
X958342D01*
X966724D02*
X971550D01*
X979170D02*
X989838D01*
X999744D02*
X1012190D01*
X1017016D02*
X1029208D01*
X1037336D02*
X1051052D01*
X1053084D02*
X1056894D01*
X1062736D02*
X1066800D01*
X1070356D02*
X1074166D01*
X895350Y683768D02*
X899160D01*
X905002D02*
X909574D01*
X917448D02*
X922020D01*
X929640D02*
X933704D01*
X939292D02*
X943356D01*
X947928D02*
X958088D01*
X966724D02*
X971550D01*
X979424D02*
X989584D01*
X999744D02*
X1012190D01*
X1017270D02*
X1029208D01*
X1037336D02*
X1051052D01*
X1053084D02*
X1056894D01*
X1062736D02*
X1066800D01*
X1070356D02*
X1074166D01*
X895350Y684022D02*
X899160D01*
X905002D02*
X909574D01*
X917448D02*
X921766D01*
X929640D02*
X933704D01*
X939292D02*
X943356D01*
X948182D02*
X957834D01*
X966978D02*
X971296D01*
X979678D02*
X989330D01*
X999744D02*
X1012190D01*
X1017524D02*
X1029208D01*
X1037336D02*
X1051052D01*
X1053084D02*
X1056894D01*
X1062736D02*
X1066800D01*
X1070356D02*
X1074166D01*
X895350Y684276D02*
X899160D01*
X905256D02*
X909574D01*
X917448D02*
X921766D01*
X929640D02*
X933704D01*
X939292D02*
X943356D01*
X948436D02*
X957580D01*
X966978D02*
X971296D01*
X979932D02*
X989076D01*
X999744D02*
X1012190D01*
X1017778D02*
X1029208D01*
X1037336D02*
X1051052D01*
X1053084D02*
X1056894D01*
X1062736D02*
X1066800D01*
X1070356D02*
X1074166D01*
X895350Y684530D02*
X899160D01*
X905510D02*
X909574D01*
X917702D02*
X921766D01*
X929640D02*
X933704D01*
X939292D02*
X943356D01*
X948944D02*
X957326D01*
X966978D02*
X971296D01*
X980186D02*
X988822D01*
X999744D02*
X1012190D01*
X1018032D02*
X1029208D01*
X1037336D02*
X1051052D01*
X1053084D02*
X1056894D01*
X1062736D02*
X1066800D01*
X1070356D02*
X1074166D01*
X895350Y684784D02*
X899160D01*
X905510D02*
X909574D01*
X917702D02*
X921512D01*
X929640D02*
X933704D01*
X939292D02*
X943356D01*
X949198D02*
X956818D01*
X967232D02*
X971042D01*
X980694D02*
X988314D01*
X999744D02*
X1012190D01*
X1018286D02*
X1029208D01*
X1037336D02*
X1051052D01*
X1053084D02*
X1056894D01*
X1062736D02*
X1066800D01*
X1070356D02*
X1074166D01*
X895350Y685038D02*
X899160D01*
X905764D02*
X909574D01*
X917702D02*
X921512D01*
X929640D02*
X933704D01*
X939292D02*
X943356D01*
X949706D02*
X956564D01*
X967232D02*
X971042D01*
X981202D02*
X988060D01*
X999744D02*
X1012190D01*
X1018794D02*
X1029208D01*
X1037336D02*
X1051052D01*
X1053084D02*
X1056894D01*
X1062736D02*
X1066800D01*
X1070356D02*
X1074166D01*
X895350Y685292D02*
X899160D01*
X905764D02*
X909574D01*
X917956D02*
X921258D01*
X929640D02*
X933704D01*
X939292D02*
X943356D01*
X950214D02*
X955802D01*
X967486D02*
X970788D01*
X981710D02*
X987298D01*
X999744D02*
X1012190D01*
X1019556D02*
X1029208D01*
X1037336D02*
X1051052D01*
X1053084D02*
X1056894D01*
X1062736D02*
X1066800D01*
X1070356D02*
X1074166D01*
X895350Y685546D02*
X899160D01*
X906018D02*
X909574D01*
X917956D02*
X921258D01*
X929640D02*
X933704D01*
X939292D02*
X943356D01*
X950976D02*
X955040D01*
X967486D02*
X970788D01*
X982472D02*
X986536D01*
X999744D02*
X1012190D01*
X1020318D02*
X1029208D01*
X1037336D02*
X1051052D01*
X1053084D02*
X1056894D01*
X1062736D02*
X1066800D01*
X1070356D02*
X1074166D01*
X890778Y700278D02*
X1079500D01*
X890778Y700532D02*
X1079500D01*
X890778Y700786D02*
X1079500D01*
X890778Y701040D02*
X1079500D01*
X890778Y701294D02*
X1079500D01*
X890778Y701548D02*
X1079500D01*
X890778Y701802D02*
X1079500D01*
X988568Y715010D02*
X993648D01*
X1011174D02*
X1023366D01*
X971804Y715264D02*
X977138D01*
X987298D02*
X994918D01*
X1009904D02*
X1023366D01*
X970026Y715518D02*
X978916D01*
X986536D02*
X995680D01*
X1009142D02*
X1023366D01*
X969010Y715772D02*
X979678D01*
X986028D02*
X996442D01*
X1008634D02*
X1023366D01*
X1077976D02*
X1078484D01*
X967994Y716026D02*
X980186D01*
X985266D02*
X996950D01*
X1008126D02*
X1023366D01*
X1077468D02*
X1078484D01*
X967486Y716280D02*
X980186D01*
X984758D02*
X997458D01*
X1007618D02*
X1023366D01*
X1076706D02*
X1078484D01*
X966724Y716534D02*
X979932D01*
X984504D02*
X997966D01*
X1007110D02*
X1023366D01*
X1076198D02*
X1078484D01*
X966216Y716788D02*
X979932D01*
X983996D02*
X998220D01*
X1006856D02*
X1023366D01*
X1075690D02*
X1078484D01*
X965708Y717042D02*
X979678D01*
X983742D02*
X998474D01*
X1006602D02*
X1023366D01*
X1074928D02*
X1078484D01*
X965454Y717296D02*
X979678D01*
X983488D02*
X998982D01*
X1006348D02*
X1023366D01*
X1074420D02*
X1078484D01*
X964946Y717550D02*
X979424D01*
X982980D02*
X999236D01*
X1006094D02*
X1023366D01*
X1073912D02*
X1078484D01*
X964438Y717804D02*
X979424D01*
X982726D02*
X999490D01*
X1005840D02*
X1023366D01*
X1073404D02*
X1078484D01*
X964184Y718058D02*
X979170D01*
X982472D02*
X999744D01*
X1005840D02*
X1023366D01*
X1072642D02*
X1078484D01*
X963930Y718312D02*
X979170D01*
X982218D02*
X999998D01*
X1005586D02*
X1023366D01*
X1072134D02*
X1078484D01*
X963676Y718566D02*
X978916D01*
X982218D02*
X999998D01*
X1005332D02*
X1023366D01*
X1071626D02*
X1078484D01*
X963422Y718820D02*
X978916D01*
X981964D02*
X1000252D01*
X1005332D02*
X1023366D01*
X1070864D02*
X1078484D01*
X963168Y719074D02*
X978662D01*
X981710D02*
X1000506D01*
X1005078D02*
X1023366D01*
X1070356D02*
X1078484D01*
X962914Y719328D02*
X978662D01*
X981710D02*
X1000760D01*
X1005078D02*
X1023366D01*
X1069848D02*
X1078484D01*
X962660Y719582D02*
X978408D01*
X981456D02*
X989584D01*
X992886D02*
X1000760D01*
X1005078D02*
X1023366D01*
X1069086D02*
X1078484D01*
X962406Y719836D02*
X972566D01*
X974852D02*
X978408D01*
X981202D02*
X988822D01*
X993902D02*
X1001014D01*
X1004824D02*
X1012698D01*
X1068578D02*
X1078484D01*
X962152Y720090D02*
X971042D01*
X977138D02*
X978154D01*
X981202D02*
X988060D01*
X994410D02*
X1001014D01*
X1004824D02*
X1011174D01*
X1068070D02*
X1078484D01*
X962152Y720344D02*
X970280D01*
X980948D02*
X987552D01*
X994918D02*
X1001268D01*
X1004824D02*
X1010412D01*
X1067562D02*
X1078484D01*
X961898Y720598D02*
X969772D01*
X980948D02*
X987298D01*
X995172D02*
X1001268D01*
X1004570D02*
X1010158D01*
X1067562D02*
X1078484D01*
X961644Y720852D02*
X969264D01*
X980694D02*
X987044D01*
X995426D02*
X1001522D01*
X1004570D02*
X1009904D01*
X1067562D02*
X1078484D01*
X961644Y721106D02*
X968756D01*
X980694D02*
X986790D01*
X995680D02*
X1001522D01*
X1004570D02*
X1009904D01*
X1067562D02*
X1078484D01*
X961390Y721360D02*
X968502D01*
X980694D02*
X986536D01*
X995934D02*
X1001522D01*
X1004570D02*
X1009650D01*
X1067562D02*
X1078484D01*
X961390Y721614D02*
X967994D01*
X980440D02*
X986282D01*
X996188D02*
X1001776D01*
X1004570D02*
X1009650D01*
X1067562D02*
X1078484D01*
X961136Y721868D02*
X967740D01*
X980440D02*
X986282D01*
X996188D02*
X1001776D01*
X1004316D02*
X1009650D01*
X1067562D02*
X1078484D01*
X961136Y722122D02*
X967486D01*
X980440D02*
X986028D01*
X996442D02*
X1001776D01*
X1004316D02*
X1009396D01*
X1067562D02*
X1078484D01*
X960882Y722376D02*
X967232D01*
X980440D02*
X986028D01*
X996442D02*
X1002030D01*
X1004316D02*
X1009396D01*
X1067562D02*
X1078484D01*
X960882Y722630D02*
X967232D01*
X980186D02*
X985774D01*
X996696D02*
X1002030D01*
X1004316D02*
X1009396D01*
X1067562D02*
X1078484D01*
X960628Y722884D02*
X966978D01*
X980186D02*
X985774D01*
X996696D02*
X1002030D01*
X1004316D02*
X1009396D01*
X1067562D02*
X1078484D01*
X960628Y723138D02*
X966724D01*
X980186D02*
X985774D01*
X996696D02*
X1002030D01*
X1004316D02*
X1009650D01*
X1067562D02*
X1078484D01*
X960374Y723392D02*
X966470D01*
X980186D02*
X985774D01*
X996696D02*
X1002030D01*
X1004316D02*
X1009650D01*
X1067562D02*
X1078484D01*
X960374Y723646D02*
X966470D01*
X980186D02*
X985520D01*
X996950D02*
X1002030D01*
X1004316D02*
X1009650D01*
X1067562D02*
X1078484D01*
X960374Y723900D02*
X966216D01*
X980186D02*
X985520D01*
X996950D02*
X1002030D01*
X1004316D02*
X1009904D01*
X1067562D02*
X1078484D01*
X960374Y724154D02*
X966216D01*
X980186D02*
X985520D01*
X996950D02*
X1002284D01*
X1004570D02*
X1010158D01*
X1067562D02*
X1078484D01*
X960120Y724408D02*
X965962D01*
X980186D02*
X985520D01*
X996950D02*
X1002284D01*
X1004570D02*
X1010412D01*
X1067562D02*
X1078484D01*
X960120Y724662D02*
X965962D01*
X980186D02*
X985520D01*
X996950D02*
X1002284D01*
X1004570D02*
X1010666D01*
X1067562D02*
X1078484D01*
X960120Y724916D02*
X965708D01*
X980186D02*
X985520D01*
X996950D02*
X1002284D01*
X1004570D02*
X1010920D01*
X1067562D02*
X1078484D01*
X959866Y725170D02*
X965708D01*
X980186D02*
X985520D01*
X996950D02*
X1002284D01*
X1004824D02*
X1011174D01*
X1067562D02*
X1078484D01*
X959866Y725424D02*
X965708D01*
X980186D02*
X985520D01*
X996950D02*
X1002284D01*
X1004824D02*
X1011428D01*
X1067562D02*
X1078484D01*
X959866Y725678D02*
X965454D01*
X980186D02*
X985520D01*
X996950D02*
X1002284D01*
X1004824D02*
X1011936D01*
X1067562D02*
X1078484D01*
X959866Y725932D02*
X965454D01*
X980186D02*
X985520D01*
X996950D02*
X1002284D01*
X1005078D02*
X1012444D01*
X1067562D02*
X1078484D01*
X959866Y726186D02*
X965454D01*
X980186D02*
X985520D01*
X996950D02*
X1002284D01*
X1005078D02*
X1012698D01*
X1067562D02*
X1078484D01*
X959866Y726440D02*
X965200D01*
X980186D02*
X985520D01*
X996950D02*
X1002284D01*
X1005332D02*
X1013206D01*
X1067562D02*
X1078484D01*
X959612Y726694D02*
X965200D01*
X980186D02*
X985520D01*
X996950D02*
X1002284D01*
X1005332D02*
X1013714D01*
X1067562D02*
X1078484D01*
X959612Y726948D02*
X965200D01*
X980186D02*
X985520D01*
X996950D02*
X1002284D01*
X1005586D02*
X1014222D01*
X1067562D02*
X1078484D01*
X959612Y727202D02*
X965200D01*
X980186D02*
X985520D01*
X996950D02*
X1002284D01*
X1005840D02*
X1014984D01*
X1067562D02*
X1078484D01*
X959612Y727456D02*
X965200D01*
X980186D02*
X985520D01*
X996950D02*
X1002284D01*
X1006094D02*
X1015492D01*
X1067562D02*
X1078484D01*
X959612Y727710D02*
X965200D01*
X980186D02*
X985520D01*
X996950D02*
X1002284D01*
X1006094D02*
X1016000D01*
X1067562D02*
X1078484D01*
X959612Y727964D02*
X964946D01*
X980186D02*
X985520D01*
X996950D02*
X1002284D01*
X1006348D02*
X1016508D01*
X1067562D02*
X1078484D01*
X959612Y728218D02*
X964946D01*
X980186D02*
X985520D01*
X996950D02*
X1002284D01*
X1006602D02*
X1017016D01*
X1067562D02*
X1078484D01*
X959612Y728472D02*
X964946D01*
X980186D02*
X985520D01*
X996950D02*
X1002284D01*
X1006856D02*
X1017524D01*
X1067562D02*
X1078484D01*
X959612Y728726D02*
X964946D01*
X980186D02*
X985520D01*
X996950D02*
X1002284D01*
X1007110D02*
X1018032D01*
X1067562D02*
X1078484D01*
X959612Y728980D02*
X964946D01*
X980186D02*
X985520D01*
X996950D02*
X1002284D01*
X1007618D02*
X1018286D01*
X1067562D02*
X1078484D01*
X959612Y729234D02*
X964946D01*
X980186D02*
X985520D01*
X996950D02*
X1002284D01*
X1007872D02*
X1018794D01*
X1067562D02*
X1078484D01*
X959612Y729488D02*
X964946D01*
X980186D02*
X985520D01*
X996950D02*
X1002284D01*
X1008126D02*
X1019302D01*
X1067562D02*
X1078484D01*
X959612Y729742D02*
X964946D01*
X980186D02*
X985520D01*
X996950D02*
X1002284D01*
X1008634D02*
X1019556D01*
X1067562D02*
X1078484D01*
X959612Y729996D02*
X964946D01*
X980186D02*
X985520D01*
X996950D02*
X1002284D01*
X1008888D02*
X1019810D01*
X1067562D02*
X1078484D01*
X959612Y730250D02*
X964946D01*
X980186D02*
X985520D01*
X996950D02*
X1002284D01*
X1009396D02*
X1020318D01*
X1067562D02*
X1078484D01*
X959612Y730504D02*
X964946D01*
X980186D02*
X985520D01*
X996950D02*
X1002284D01*
X1009904D02*
X1020572D01*
X1067562D02*
X1078484D01*
X959612Y730758D02*
X964946D01*
X980186D02*
X985520D01*
X996950D02*
X1002284D01*
X1010158D02*
X1020826D01*
X1067562D02*
X1078484D01*
X959612Y731012D02*
X965200D01*
X980186D02*
X985520D01*
X996950D02*
X1002284D01*
X1010666D02*
X1021080D01*
X1067562D02*
X1078484D01*
X959612Y731266D02*
X965200D01*
X980186D02*
X985520D01*
X996950D02*
X1002284D01*
X1011174D02*
X1021334D01*
X1067562D02*
X1078484D01*
X959612Y731520D02*
X965200D01*
X980186D02*
X985520D01*
X996950D02*
X1002284D01*
X1011682D02*
X1021588D01*
X1067562D02*
X1078484D01*
X959612Y731774D02*
X965200D01*
X980186D02*
X985520D01*
X996950D02*
X1002284D01*
X1012444D02*
X1021588D01*
X1067562D02*
X1078484D01*
X959612Y732028D02*
X965200D01*
X980186D02*
X985520D01*
X996950D02*
X1002284D01*
X1012952D02*
X1021842D01*
X1067562D02*
X1078484D01*
X959866Y732282D02*
X965454D01*
X980186D02*
X985520D01*
X996950D02*
X1002284D01*
X1013460D02*
X1022096D01*
X1067562D02*
X1078484D01*
X959866Y732536D02*
X965454D01*
X980186D02*
X985520D01*
X996950D02*
X1002284D01*
X1013968D02*
X1022096D01*
X1067562D02*
X1078484D01*
X959866Y732790D02*
X965454D01*
X980186D02*
X985520D01*
X996950D02*
X1002284D01*
X1014476D02*
X1022350D01*
X1067562D02*
X1078484D01*
X959866Y733044D02*
X965708D01*
X980186D02*
X985520D01*
X996950D02*
X1002284D01*
X1014984D02*
X1022604D01*
X1067562D02*
X1078484D01*
X959866Y733298D02*
X965708D01*
X980186D02*
X985520D01*
X996950D02*
X1002284D01*
X1015492D02*
X1022604D01*
X1067562D02*
X1078484D01*
X960120Y733552D02*
X965708D01*
X980186D02*
X985520D01*
X996950D02*
X1002284D01*
X1015746D02*
X1022604D01*
X1067562D02*
X1078484D01*
X960120Y733806D02*
X965962D01*
X980186D02*
X985520D01*
X996950D02*
X1002284D01*
X1016254D02*
X1022858D01*
X1067562D02*
X1078484D01*
X960120Y734060D02*
X965962D01*
X980186D02*
X985520D01*
X996950D02*
X1002284D01*
X1016762D02*
X1022858D01*
X1067562D02*
X1078484D01*
X960374Y734314D02*
X966216D01*
X980186D02*
X985520D01*
X996950D02*
X1002284D01*
X1017016D02*
X1022858D01*
X1067562D02*
X1078484D01*
X960374Y734568D02*
X966470D01*
X980186D02*
X985520D01*
X996950D02*
X1002284D01*
X1017270D02*
X1022858D01*
X1067562D02*
X1078484D01*
X960374Y734822D02*
X966470D01*
X980186D02*
X985520D01*
X996950D02*
X1002284D01*
X1017524D02*
X1022858D01*
X1067562D02*
X1078484D01*
X960628Y735076D02*
X966724D01*
X980186D02*
X985520D01*
X996950D02*
X1002284D01*
X1017778D02*
X1023112D01*
X1067562D02*
X1078484D01*
X960628Y735330D02*
X966978D01*
X980186D02*
X985520D01*
X996950D02*
X1002284D01*
X1017778D02*
X1023112D01*
X1067562D02*
X1078484D01*
X960628Y735584D02*
X966978D01*
X980186D02*
X985520D01*
X996950D02*
X1002284D01*
X1017778D02*
X1023112D01*
X1053592D02*
X1078484D01*
X960882Y735838D02*
X967232D01*
X980186D02*
X985520D01*
X996950D02*
X1002284D01*
X1018032D02*
X1023112D01*
X1051814D02*
X1078484D01*
X960882Y736092D02*
X967486D01*
X980186D02*
X985520D01*
X996950D02*
X1002284D01*
X1018032D02*
X1023112D01*
X1050544D02*
X1078484D01*
X961136Y736346D02*
X967740D01*
X980186D02*
X985520D01*
X996950D02*
X1002284D01*
X1018032D02*
X1023112D01*
X1049274D02*
X1078484D01*
X961136Y736600D02*
X967994D01*
X980186D02*
X985520D01*
X996950D02*
X1002284D01*
X1018032D02*
X1023112D01*
X1048512D02*
X1078484D01*
X961390Y736854D02*
X968248D01*
X980186D02*
X985520D01*
X996950D02*
X1002284D01*
X1017778D02*
X1023112D01*
X1047750D02*
X1078484D01*
X961390Y737108D02*
X968756D01*
X980186D02*
X985520D01*
X996950D02*
X1002284D01*
X1017778D02*
X1023112D01*
X1047242D02*
X1078484D01*
X961644Y737362D02*
X969010D01*
X980186D02*
X985520D01*
X996950D02*
X1002284D01*
X1017778D02*
X1022858D01*
X1046480D02*
X1078484D01*
X961898Y737616D02*
X969518D01*
X980186D02*
X985520D01*
X996950D02*
X1002284D01*
X1017524D02*
X1022858D01*
X1045972D02*
X1078484D01*
X961898Y737870D02*
X970280D01*
X980186D02*
X985520D01*
X996950D02*
X1002284D01*
X1017270D02*
X1022858D01*
X1045464D02*
X1078484D01*
X962152Y738124D02*
X970788D01*
X980186D02*
X985520D01*
X996950D02*
X1002284D01*
X1017016D02*
X1022858D01*
X1044956D02*
X1078484D01*
X962406Y738378D02*
X971804D01*
X980186D02*
X985520D01*
X996950D02*
X1002284D01*
X1016508D02*
X1022604D01*
X1044702D02*
X1078484D01*
X962660Y738632D02*
X985520D01*
X996950D02*
X1002284D01*
X1005078D02*
X1022604D01*
X1044194D02*
X1078484D01*
X962660Y738886D02*
X985520D01*
X996950D02*
X1002284D01*
X1005078D02*
X1022604D01*
X1043940D02*
X1078484D01*
X962914Y739140D02*
X985520D01*
X996950D02*
X1002284D01*
X1005078D02*
X1022350D01*
X1043686D02*
X1078484D01*
X963168Y739394D02*
X985520D01*
X996950D02*
X1002284D01*
X1005078D02*
X1022350D01*
X1043178D02*
X1078484D01*
X963422Y739648D02*
X985520D01*
X996950D02*
X1002284D01*
X1005078D02*
X1022096D01*
X1042924D02*
X1078484D01*
X963676Y739902D02*
X985520D01*
X996950D02*
X1002284D01*
X1005078D02*
X1022096D01*
X1042670D02*
X1078484D01*
X963930Y740156D02*
X985520D01*
X996950D02*
X1002284D01*
X1005078D02*
X1021842D01*
X1042416D02*
X1078484D01*
X964184Y740410D02*
X985520D01*
X996950D02*
X1002284D01*
X1005078D02*
X1021588D01*
X1042162D02*
X1078484D01*
X964438Y740664D02*
X985520D01*
X996950D02*
X1002284D01*
X1005078D02*
X1021588D01*
X1042162D02*
X1078484D01*
X964692Y740918D02*
X985520D01*
X996950D02*
X1002284D01*
X1005078D02*
X1021334D01*
X1041908D02*
X1078484D01*
X965200Y741172D02*
X985520D01*
X996950D02*
X1002284D01*
X1005078D02*
X1021080D01*
X1041654D02*
X1078484D01*
X965454Y741426D02*
X985520D01*
X996950D02*
X1002284D01*
X1005078D02*
X1020826D01*
X1041400D02*
X1078484D01*
X965962Y741680D02*
X985520D01*
X996950D02*
X1002284D01*
X1005078D02*
X1020572D01*
X1041400D02*
X1078484D01*
X966470Y741934D02*
X985520D01*
X996950D02*
X1002284D01*
X1005078D02*
X1020064D01*
X1041146D02*
X1078484D01*
X966978Y742188D02*
X985520D01*
X996950D02*
X1002284D01*
X1005078D02*
X1019810D01*
X1040892D02*
X1078484D01*
X967486Y742442D02*
X985520D01*
X996950D02*
X1002284D01*
X1005078D02*
X1019302D01*
X1040892D02*
X1078484D01*
X967994Y742696D02*
X985520D01*
X996950D02*
X1002284D01*
X1005078D02*
X1018794D01*
X1040638D02*
X1078484D01*
X968756Y742950D02*
X985520D01*
X996950D02*
X1002284D01*
X1005078D02*
X1018032D01*
X1040638D02*
X1078484D01*
X969772Y743204D02*
X985520D01*
X996950D02*
X1002284D01*
X1005078D02*
X1017016D01*
X1040384D02*
X1078484D01*
X1040384Y743458D02*
X1078484D01*
X1040130Y743712D02*
X1078484D01*
X1040130Y743966D02*
X1078484D01*
X1040130Y744220D02*
X1078484D01*
X1039876Y744474D02*
X1078484D01*
X1039876Y744728D02*
X1078484D01*
X1039876Y744982D02*
X1078484D01*
X1039622Y745236D02*
X1078484D01*
X1039622Y745490D02*
X1078484D01*
X1039622Y745744D02*
X1078484D01*
X1039622Y745998D02*
X1078484D01*
X1039368Y746252D02*
X1055116D01*
X1039368Y746506D02*
X1054354D01*
X1039368Y746760D02*
X1053846D01*
X1039368Y747014D02*
X1053338D01*
X1039368Y747268D02*
X1053084D01*
X1039368Y747522D02*
X1052830D01*
X1039368Y747776D02*
X1052576D01*
X1039368Y748030D02*
X1052322D01*
X1039368Y748284D02*
X1052068D01*
X1039368Y748538D02*
X1052068D01*
X1039114Y748792D02*
X1051814D01*
X925830Y749046D02*
X936498D01*
X941070D02*
X946912D01*
X950722D02*
X957072D01*
X968502D02*
X973582D01*
X973836D02*
X979678D01*
X998982D02*
X1004570D01*
X1018286D02*
X1023366D01*
X1039114D02*
X1051814D01*
X923544Y749300D02*
X936498D01*
X941070D02*
X946912D01*
X950722D02*
X957326D01*
X968502D02*
X973582D01*
X974090D02*
X979678D01*
X998982D02*
X1004570D01*
X1018286D02*
X1023366D01*
X1039114D02*
X1051814D01*
X922528Y749554D02*
X936498D01*
X941070D02*
X946912D01*
X950976D02*
X957580D01*
X968502D02*
X973582D01*
X974090D02*
X979678D01*
X998728D02*
X1004316D01*
X1018286D02*
X1023366D01*
X1039114D02*
X1051560D01*
X922020Y749808D02*
X936498D01*
X941070D02*
X946912D01*
X951230D02*
X957834D01*
X968502D02*
X973582D01*
X974344D02*
X979932D01*
X998728D02*
X1004316D01*
X1018286D02*
X1023366D01*
X1033272D02*
X1033780D01*
X1039114D02*
X1051560D01*
X921512Y750062D02*
X936498D01*
X941070D02*
X946912D01*
X951484D02*
X958088D01*
X968502D02*
X973582D01*
X974344D02*
X979932D01*
X998474D02*
X1004062D01*
X1018286D02*
X1023366D01*
X1033018D02*
X1033780D01*
X1039368D02*
X1051560D01*
X921004Y750316D02*
X936498D01*
X941070D02*
X946912D01*
X951738D02*
X958342D01*
X968502D02*
X973582D01*
X974344D02*
X980186D01*
X998474D02*
X1004062D01*
X1018286D02*
X1023366D01*
X1033018D02*
X1033780D01*
X1039368D02*
X1051560D01*
X920496Y750570D02*
X936498D01*
X941070D02*
X946912D01*
X951992D02*
X958596D01*
X968502D02*
X973582D01*
X974598D02*
X980186D01*
X998474D02*
X1004062D01*
X1018286D02*
X1023366D01*
X1033018D02*
X1033780D01*
X1039368D02*
X1051560D01*
X920242Y750824D02*
X936498D01*
X941070D02*
X946912D01*
X952246D02*
X958850D01*
X968502D02*
X973582D01*
X974598D02*
X980440D01*
X998220D02*
X1003808D01*
X1018286D02*
X1023366D01*
X1033018D02*
X1033780D01*
X1039368D02*
X1051560D01*
X919988Y751078D02*
X936498D01*
X941070D02*
X946912D01*
X952500D02*
X959104D01*
X968502D02*
X973582D01*
X974852D02*
X980440D01*
X998220D02*
X1003808D01*
X1018286D02*
X1023366D01*
X1033018D02*
X1034034D01*
X1039368D02*
X1051560D01*
X919734Y751332D02*
X936498D01*
X941070D02*
X946912D01*
X952754D02*
X959358D01*
X968502D02*
X973582D01*
X974852D02*
X980694D01*
X998220D02*
X1003554D01*
X1018286D02*
X1023366D01*
X1033018D02*
X1034034D01*
X1039368D02*
X1051560D01*
X919480Y751586D02*
X936498D01*
X941070D02*
X946912D01*
X953008D02*
X959612D01*
X968502D02*
X973582D01*
X975106D02*
X980694D01*
X997966D02*
X1003554D01*
X1018286D02*
X1023366D01*
X1033018D02*
X1034034D01*
X1039368D02*
X1051560D01*
X919226Y751840D02*
X936498D01*
X941070D02*
X946912D01*
X953262D02*
X959866D01*
X968502D02*
X973582D01*
X975106D02*
X980694D01*
X997966D02*
X1003554D01*
X1018286D02*
X1023366D01*
X1032764D02*
X1034288D01*
X1039368D02*
X1051560D01*
X918972Y752094D02*
X936498D01*
X941070D02*
X946912D01*
X953516D02*
X960120D01*
X968502D02*
X973582D01*
X975360D02*
X980948D01*
X997712D02*
X1003300D01*
X1018286D02*
X1023366D01*
X1032764D02*
X1034288D01*
X1039368D02*
X1051560D01*
X918972Y752348D02*
X936498D01*
X941070D02*
X946912D01*
X953770D02*
X960374D01*
X968502D02*
X973582D01*
X975360D02*
X980948D01*
X997712D02*
X1003300D01*
X1018286D02*
X1023366D01*
X1032764D02*
X1034288D01*
X1039622D02*
X1051560D01*
X918718Y752602D02*
X936498D01*
X941070D02*
X946912D01*
X954024D02*
X960628D01*
X968502D02*
X973582D01*
X975614D02*
X981202D01*
X997712D02*
X1003046D01*
X1018286D02*
X1023366D01*
X1032764D02*
X1034542D01*
X1039622D02*
X1051814D01*
X918464Y752856D02*
X936498D01*
X941070D02*
X946912D01*
X954278D02*
X960882D01*
X968502D02*
X973582D01*
X975614D02*
X981202D01*
X997458D02*
X1003046D01*
X1018286D02*
X1023366D01*
X1032764D02*
X1034542D01*
X1039622D02*
X1051814D01*
X918464Y753110D02*
X936498D01*
X941070D02*
X946912D01*
X954532D02*
X961136D01*
X968502D02*
X973582D01*
X975868D02*
X981456D01*
X997458D02*
X1003046D01*
X1018286D02*
X1023366D01*
X1032764D02*
X1034796D01*
X1039622D02*
X1051814D01*
X918210Y753364D02*
X936498D01*
X941070D02*
X946912D01*
X954786D02*
X961136D01*
X968502D02*
X973582D01*
X975868D02*
X981456D01*
X997204D02*
X1002792D01*
X1018286D02*
X1023366D01*
X1032764D02*
X1034796D01*
X1039622D02*
X1051814D01*
X918210Y753618D02*
X936498D01*
X941070D02*
X946912D01*
X955040D02*
X961390D01*
X968502D02*
X973582D01*
X975868D02*
X981710D01*
X997204D02*
X1002792D01*
X1018286D02*
X1023366D01*
X1032764D02*
X1034796D01*
X1039876D02*
X1052068D01*
X917956Y753872D02*
X936498D01*
X941070D02*
X946912D01*
X955294D02*
X961644D01*
X968502D02*
X973582D01*
X976122D02*
X981710D01*
X997204D02*
X1002538D01*
X1018286D02*
X1023366D01*
X1032764D02*
X1035050D01*
X1039876D02*
X1052068D01*
X917956Y754126D02*
X924560D01*
X941070D02*
X946912D01*
X955548D02*
X961898D01*
X968502D02*
X973582D01*
X976122D02*
X981710D01*
X996950D02*
X1002538D01*
X1018286D02*
X1023366D01*
X1032764D02*
X1035050D01*
X1039876D02*
X1052322D01*
X917956Y754380D02*
X923798D01*
X941070D02*
X946912D01*
X955548D02*
X962152D01*
X968502D02*
X973582D01*
X976376D02*
X981964D01*
X996950D02*
X1002538D01*
X1018286D02*
X1023366D01*
X1032764D02*
X1035304D01*
X1040130D02*
X1052322D01*
X917702Y754634D02*
X923544D01*
X941070D02*
X946912D01*
X955802D02*
X962406D01*
X968502D02*
X973582D01*
X976376D02*
X981964D01*
X996696D02*
X1002284D01*
X1018286D02*
X1023366D01*
X1032764D02*
X1035304D01*
X1040130D02*
X1052576D01*
X917702Y754888D02*
X923036D01*
X941070D02*
X946912D01*
X956056D02*
X962660D01*
X968502D02*
X973582D01*
X976630D02*
X982218D01*
X996696D02*
X1002284D01*
X1018286D02*
X1023366D01*
X1032764D02*
X1035558D01*
X1040130D02*
X1052576D01*
X917702Y755142D02*
X923036D01*
X941070D02*
X946912D01*
X956310D02*
X962914D01*
X968502D02*
X973582D01*
X976630D02*
X982218D01*
X996696D02*
X1002030D01*
X1018286D02*
X1023366D01*
X1032764D02*
X1035558D01*
X1040384D02*
X1052830D01*
X917702Y755396D02*
X922782D01*
X941070D02*
X946912D01*
X956564D02*
X963168D01*
X968502D02*
X973582D01*
X976884D02*
X982472D01*
X996442D02*
X1002030D01*
X1018286D02*
X1023366D01*
X1032764D02*
X1035812D01*
X1040384D02*
X1053084D01*
X917702Y755650D02*
X922782D01*
X941070D02*
X946912D01*
X956818D02*
X963422D01*
X968502D02*
X973582D01*
X976884D02*
X982472D01*
X996442D02*
X1002030D01*
X1018286D02*
X1023366D01*
X1032764D02*
X1035812D01*
X1040638D02*
X1053338D01*
X917702Y755904D02*
X922782D01*
X941070D02*
X946912D01*
X957072D02*
X963676D01*
X968502D02*
X973582D01*
X977138D02*
X982726D01*
X996188D02*
X1001776D01*
X1018286D02*
X1023366D01*
X1032764D02*
X1036066D01*
X1040638D02*
X1053846D01*
X917448Y756158D02*
X922528D01*
X941070D02*
X946912D01*
X957326D02*
X963930D01*
X968502D02*
X973582D01*
X977138D02*
X982726D01*
X996188D02*
X1001776D01*
X1018286D02*
X1023366D01*
X1032764D02*
X1036066D01*
X1040892D02*
X1054100D01*
X917702Y756412D02*
X922528D01*
X941070D02*
X946912D01*
X957580D02*
X964184D01*
X968502D02*
X973582D01*
X977392D02*
X982726D01*
X996188D02*
X1001522D01*
X1018286D02*
X1023366D01*
X1032764D02*
X1036320D01*
X1040892D02*
X1054608D01*
X917702Y756666D02*
X922528D01*
X941070D02*
X946912D01*
X957834D02*
X964438D01*
X968502D02*
X973582D01*
X977392D02*
X982980D01*
X995934D02*
X1001522D01*
X1018286D02*
X1023366D01*
X1032764D02*
X1036574D01*
X1041146D02*
X1055116D01*
X917702Y756920D02*
X922528D01*
X941070D02*
X946912D01*
X958088D02*
X964692D01*
X968502D02*
X973582D01*
X977392D02*
X982980D01*
X995934D02*
X1001268D01*
X1018286D02*
X1023366D01*
X1032764D02*
X1036574D01*
X1041146D02*
X1055624D01*
X917702Y757174D02*
X922782D01*
X941070D02*
X946912D01*
X958342D02*
X964946D01*
X968502D02*
X973582D01*
X977646D02*
X983234D01*
X995680D02*
X1001268D01*
X1018286D02*
X1023366D01*
X1032764D02*
X1036828D01*
X1041400D02*
X1055878D01*
X917702Y757428D02*
X922782D01*
X941070D02*
X946912D01*
X958596D02*
X965200D01*
X968502D02*
X973582D01*
X977646D02*
X983234D01*
X995680D02*
X1001268D01*
X1018286D02*
X1023366D01*
X1032764D02*
X1037082D01*
X1041654D02*
X1056386D01*
X917448Y757682D02*
X922782D01*
X941070D02*
X946912D01*
X958850D02*
X965454D01*
X968502D02*
X973582D01*
X977900D02*
X983488D01*
X995680D02*
X1001014D01*
X1018286D02*
X1023366D01*
X1032764D02*
X1037082D01*
X1041654D02*
X1056894D01*
X917702Y757936D02*
X923036D01*
X941070D02*
X946912D01*
X959104D02*
X965708D01*
X968502D02*
X973582D01*
X977900D02*
X983488D01*
X995426D02*
X1001014D01*
X1018286D02*
X1023366D01*
X1032764D02*
X1037336D01*
X1041908D02*
X1057402D01*
X917702Y758190D02*
X923290D01*
X941070D02*
X946912D01*
X959358D02*
X965962D01*
X968502D02*
X973582D01*
X978154D02*
X983488D01*
X995426D02*
X1000760D01*
X1018286D02*
X1023366D01*
X1033018D02*
X1037590D01*
X1042162D02*
X1057910D01*
X917702Y758444D02*
X923290D01*
X941070D02*
X946912D01*
X959612D02*
X966216D01*
X968502D02*
X973582D01*
X978154D02*
X1000760D01*
X1018286D02*
X1023366D01*
X1033018D02*
X1037844D01*
X1042416D02*
X1058418D01*
X917702Y758698D02*
X923544D01*
X941070D02*
X946912D01*
X959866D02*
X966470D01*
X968502D02*
X973582D01*
X978408D02*
X1000760D01*
X1018286D02*
X1023366D01*
X1033018D02*
X1037844D01*
X1042416D02*
X1058926D01*
X917956Y758952D02*
X923798D01*
X941070D02*
X946912D01*
X960120D02*
X966724D01*
X968502D02*
X973582D01*
X978408D02*
X1000506D01*
X1018286D02*
X1023366D01*
X1033018D02*
X1038098D01*
X1042670D02*
X1059434D01*
X917956Y759206D02*
X924306D01*
X941070D02*
X946912D01*
X960374D02*
X966978D01*
X968502D02*
X973582D01*
X978662D02*
X1000506D01*
X1011428D02*
X1014222D01*
X1018286D02*
X1023366D01*
X1033018D02*
X1038352D01*
X1042924D02*
X1059942D01*
X917956Y759460D02*
X924560D01*
X941070D02*
X946912D01*
X960628D02*
X966978D01*
X968502D02*
X973582D01*
X978662D02*
X1000252D01*
X1009142D02*
X1016762D01*
X1018286D02*
X1023366D01*
X1033272D02*
X1038606D01*
X1043178D02*
X1060450D01*
X918210Y759714D02*
X925068D01*
X941070D02*
X946912D01*
X959358D02*
X966978D01*
X968502D02*
X973582D01*
X978662D02*
X1000252D01*
X1008126D02*
X1016762D01*
X1018286D02*
X1023366D01*
X1033272D02*
X1038860D01*
X1043432D02*
X1060958D01*
X918210Y759968D02*
X925576D01*
X941070D02*
X946912D01*
X958088D02*
X966978D01*
X968502D02*
X973582D01*
X978916D02*
X1000252D01*
X1007364D02*
X1016762D01*
X1018286D02*
X1023366D01*
X1033272D02*
X1039114D01*
X1043686D02*
X1061466D01*
X918464Y760222D02*
X925830D01*
X941070D02*
X946912D01*
X957326D02*
X966724D01*
X968502D02*
X973582D01*
X978916D02*
X999998D01*
X1006602D02*
X1016508D01*
X1018286D02*
X1023366D01*
X1033526D02*
X1039368D01*
X1043940D02*
X1061974D01*
X918464Y760476D02*
X926338D01*
X941070D02*
X946912D01*
X956564D02*
X966724D01*
X968502D02*
X973582D01*
X979170D02*
X999998D01*
X1005840D02*
X1016508D01*
X1018286D02*
X1023366D01*
X1033526D02*
X1039622D01*
X1044194D02*
X1062228D01*
X918718Y760730D02*
X926846D01*
X941070D02*
X946912D01*
X955802D02*
X966724D01*
X968502D02*
X973582D01*
X979170D02*
X999744D01*
X1005332D02*
X1016508D01*
X1018286D02*
X1023366D01*
X1033526D02*
X1039876D01*
X1044448D02*
X1062736D01*
X918972Y760984D02*
X927354D01*
X941070D02*
X946912D01*
X955294D02*
X966470D01*
X968502D02*
X973582D01*
X979424D02*
X999744D01*
X1005078D02*
X1016254D01*
X1018286D02*
X1023366D01*
X1033780D02*
X1040130D01*
X1044956D02*
X1063244D01*
X918972Y761238D02*
X928116D01*
X941070D02*
X946912D01*
X954786D02*
X966470D01*
X968502D02*
X973582D01*
X979424D02*
X999744D01*
X1004570D02*
X1016254D01*
X1018286D02*
X1023366D01*
X1033780D02*
X1040384D01*
X1045210D02*
X1063752D01*
X919226Y761492D02*
X928624D01*
X941070D02*
X946912D01*
X954532D02*
X966470D01*
X968502D02*
X973582D01*
X979678D02*
X999490D01*
X1004316D02*
X1016254D01*
X1018286D02*
X1023366D01*
X1033780D02*
X1040638D01*
X1045464D02*
X1064260D01*
X919480Y761746D02*
X929132D01*
X941070D02*
X946912D01*
X954024D02*
X966216D01*
X968502D02*
X973582D01*
X979678D02*
X999490D01*
X1004062D02*
X1016000D01*
X1018286D02*
X1023366D01*
X1034034D02*
X1040892D01*
X1045718D02*
X1064514D01*
X919734Y762000D02*
X929640D01*
X941070D02*
X946912D01*
X953770D02*
X966216D01*
X968502D02*
X973582D01*
X979932D02*
X999236D01*
X1003808D02*
X1016000D01*
X1018286D02*
X1023366D01*
X1034034D02*
X1041146D01*
X1046226D02*
X1065022D01*
X919988Y762254D02*
X930148D01*
X941070D02*
X946912D01*
X953516D02*
X966216D01*
X968502D02*
X973582D01*
X979932D02*
X999236D01*
X1003554D02*
X1016000D01*
X1018286D02*
X1023366D01*
X1034288D02*
X1041400D01*
X1046480D02*
X1065530D01*
X920242Y762508D02*
X930656D01*
X941070D02*
X946912D01*
X953262D02*
X965962D01*
X968502D02*
X973582D01*
X980186D02*
X999236D01*
X1003300D02*
X1015746D01*
X1018286D02*
X1023366D01*
X1034288D02*
X1041908D01*
X1046988D02*
X1065784D01*
X920496Y762762D02*
X931164D01*
X941070D02*
X946912D01*
X953008D02*
X965962D01*
X968502D02*
X973582D01*
X980186D02*
X998982D01*
X1003046D02*
X1015746D01*
X1018286D02*
X1023366D01*
X1034542D02*
X1042162D01*
X1047242D02*
X1066292D01*
X920750Y763016D02*
X931418D01*
X941070D02*
X946912D01*
X952754D02*
X965962D01*
X968502D02*
X973582D01*
X980440D02*
X985774D01*
X993394D02*
X998982D01*
X1002792D02*
X1015746D01*
X1018286D02*
X1023366D01*
X1034542D02*
X1042416D01*
X1047750D02*
X1066546D01*
X921004Y763270D02*
X931926D01*
X941070D02*
X946912D01*
X952500D02*
X965708D01*
X968502D02*
X973582D01*
X980440D02*
X985774D01*
X993394D02*
X998728D01*
X1002538D02*
X1015492D01*
X1018286D02*
X1023366D01*
X1034796D02*
X1042924D01*
X1048258D02*
X1067054D01*
X921512Y763524D02*
X932434D01*
X941070D02*
X946912D01*
X952500D02*
X965708D01*
X968502D02*
X973582D01*
X980440D02*
X986028D01*
X993394D02*
X998728D01*
X1002538D02*
X1015492D01*
X1018286D02*
X1023366D01*
X1034796D02*
X1043178D01*
X1048512D02*
X1067308D01*
X921766Y763778D02*
X932688D01*
X941070D02*
X946912D01*
X952246D02*
X965708D01*
X968502D02*
X973582D01*
X980694D02*
X986028D01*
X993140D02*
X998474D01*
X1002284D02*
X1015492D01*
X1018286D02*
X1023366D01*
X1035050D02*
X1043686D01*
X1049020D02*
X1067816D01*
X922274Y764032D02*
X932942D01*
X941070D02*
X946912D01*
X952246D02*
X961390D01*
X968502D02*
X973582D01*
X980694D02*
X986282D01*
X993140D02*
X998474D01*
X1002030D02*
X1010412D01*
X1018286D02*
X1023366D01*
X1035304D02*
X1043940D01*
X1049528D02*
X1068070D01*
X922528Y764286D02*
X933450D01*
X941070D02*
X946912D01*
X951992D02*
X960120D01*
X968502D02*
X973582D01*
X980948D02*
X986282D01*
X992886D02*
X998474D01*
X1002030D02*
X1009396D01*
X1018286D02*
X1023366D01*
X1035304D02*
X1044448D01*
X1050036D02*
X1068578D01*
X923036Y764540D02*
X933704D01*
X941070D02*
X946912D01*
X951992D02*
X959358D01*
X968502D02*
X973582D01*
X980948D02*
X986536D01*
X992886D02*
X998220D01*
X1001776D02*
X1008634D01*
X1018286D02*
X1023366D01*
X1035558D02*
X1044702D01*
X1050544D02*
X1068832D01*
X923544Y764794D02*
X933958D01*
X941070D02*
X946912D01*
X951738D02*
X958596D01*
X968502D02*
X973582D01*
X981202D02*
X986536D01*
X992886D02*
X998220D01*
X1001776D02*
X1008126D01*
X1018286D02*
X1023366D01*
X1035812D02*
X1045210D01*
X1051052D02*
X1069086D01*
X924052Y765048D02*
X934212D01*
X941070D02*
X946912D01*
X951738D02*
X958088D01*
X968502D02*
X973582D01*
X981202D02*
X986790D01*
X992632D02*
X997966D01*
X1001776D02*
X1007872D01*
X1018286D02*
X1023366D01*
X1036066D02*
X1045718D01*
X1051560D02*
X1069340D01*
X924560Y765302D02*
X934466D01*
X941070D02*
X946912D01*
X951738D02*
X957834D01*
X968502D02*
X973582D01*
X981456D02*
X986790D01*
X992632D02*
X997966D01*
X1001522D02*
X1007364D01*
X1018286D02*
X1023366D01*
X1036066D02*
X1045972D01*
X1052068D02*
X1069848D01*
X925068Y765556D02*
X934720D01*
X941070D02*
X946912D01*
X951484D02*
X957580D01*
X968502D02*
X973582D01*
X981456D02*
X986790D01*
X992378D02*
X997966D01*
X1001522D02*
X1007110D01*
X1018286D02*
X1023366D01*
X1036320D02*
X1046480D01*
X1052576D02*
X1070102D01*
X925576Y765810D02*
X934720D01*
X941070D02*
X946912D01*
X951484D02*
X957326D01*
X968502D02*
X973582D01*
X981710D02*
X987044D01*
X992378D02*
X997712D01*
X1001522D02*
X1007110D01*
X1018286D02*
X1023366D01*
X1036574D02*
X1046988D01*
X1053084D02*
X1070356D01*
X926084Y766064D02*
X934974D01*
X941070D02*
X946912D01*
X951484D02*
X957072D01*
X968502D02*
X973582D01*
X981710D02*
X987044D01*
X992378D02*
X997712D01*
X1001522D02*
X1006856D01*
X1018286D02*
X1023366D01*
X1036828D02*
X1047496D01*
X1053846D02*
X1070610D01*
X926592Y766318D02*
X935228D01*
X941070D02*
X946912D01*
X951484D02*
X956818D01*
X968502D02*
X973582D01*
X981710D02*
X987298D01*
X992124D02*
X997458D01*
X1001268D02*
X1006602D01*
X1018286D02*
X1023366D01*
X1037082D02*
X1048004D01*
X1054354D02*
X1070864D01*
X927100Y766572D02*
X935228D01*
X941070D02*
X946912D01*
X951484D02*
X956818D01*
X968502D02*
X973582D01*
X981964D02*
X987298D01*
X992124D02*
X997458D01*
X1001268D02*
X1006602D01*
X1018286D02*
X1023366D01*
X1037336D02*
X1048512D01*
X1054862D02*
X1071118D01*
X927608Y766826D02*
X935482D01*
X941070D02*
X946912D01*
X951484D02*
X956564D01*
X968502D02*
X973582D01*
X981964D02*
X987552D01*
X991870D02*
X997204D01*
X1001268D02*
X1006348D01*
X1018286D02*
X1023366D01*
X1037590D02*
X1049020D01*
X1055624D02*
X1071372D01*
X928116Y767080D02*
X935736D01*
X941070D02*
X946912D01*
X951484D02*
X956564D01*
X968502D02*
X973582D01*
X982218D02*
X987552D01*
X991870D02*
X997204D01*
X1001268D02*
X1006348D01*
X1018286D02*
X1023366D01*
X1037844D02*
X1049528D01*
X1056132D02*
X1071626D01*
X928624Y767334D02*
X935736D01*
X941070D02*
X946912D01*
X951230D02*
X956564D01*
X968502D02*
X973582D01*
X982218D02*
X987806D01*
X991870D02*
X997204D01*
X1001268D02*
X1006348D01*
X1018286D02*
X1023366D01*
X1038098D02*
X1050036D01*
X1056640D02*
X1071880D01*
X929132Y767588D02*
X935736D01*
X941070D02*
X946912D01*
X951230D02*
X956564D01*
X968502D02*
X973582D01*
X982472D02*
X987806D01*
X991616D02*
X996950D01*
X1001268D02*
X1006348D01*
X1018286D02*
X1023366D01*
X1038352D02*
X1050544D01*
X1057402D02*
X1072134D01*
X929386Y767842D02*
X935990D01*
X941070D02*
X946912D01*
X951230D02*
X956564D01*
X968502D02*
X973582D01*
X982472D02*
X987806D01*
X991616D02*
X996950D01*
X1001268D02*
X1006348D01*
X1018286D02*
X1023366D01*
X1038606D02*
X1051052D01*
X1057910D02*
X1072388D01*
X929894Y768096D02*
X935990D01*
X941070D02*
X946912D01*
X951230D02*
X956564D01*
X968502D02*
X973582D01*
X982726D02*
X988060D01*
X991362D02*
X996950D01*
X1001268D02*
X1006348D01*
X1018286D02*
X1023366D01*
X1038860D02*
X1051560D01*
X1058672D02*
X1072642D01*
X930148Y768350D02*
X935990D01*
X941070D02*
X946912D01*
X951230D02*
X956310D01*
X968502D02*
X973582D01*
X982726D02*
X988060D01*
X991362D02*
X996696D01*
X1001268D02*
X1006348D01*
X1018286D02*
X1023366D01*
X1039114D02*
X1052068D01*
X1059180D02*
X1072896D01*
X930402Y768604D02*
X935990D01*
X941070D02*
X946912D01*
X951230D02*
X956564D01*
X968502D02*
X973582D01*
X982980D02*
X988314D01*
X991362D02*
X996696D01*
X1001268D02*
X1006348D01*
X1018286D02*
X1023366D01*
X1039622D02*
X1052830D01*
X1059688D02*
X1073150D01*
X930656Y768858D02*
X936244D01*
X941070D02*
X946912D01*
X951230D02*
X956564D01*
X968502D02*
X973582D01*
X982980D02*
X988314D01*
X991108D02*
X996442D01*
X1001268D02*
X1006348D01*
X1018286D02*
X1023366D01*
X1039876D02*
X1053338D01*
X1060450D02*
X1073404D01*
X930910Y769112D02*
X936244D01*
X941070D02*
X946912D01*
X951230D02*
X956564D01*
X968502D02*
X973582D01*
X983234D02*
X988568D01*
X991108D02*
X996442D01*
X1001268D02*
X1006348D01*
X1018286D02*
X1023366D01*
X1040384D02*
X1053846D01*
X1060958D02*
X1073658D01*
X930910Y769366D02*
X936244D01*
X941070D02*
X946912D01*
X951484D02*
X956564D01*
X968502D02*
X973582D01*
X983234D02*
X988568D01*
X990854D02*
X996188D01*
X1001268D02*
X1006348D01*
X1018286D02*
X1023366D01*
X1040638D02*
X1054354D01*
X1061720D02*
X1073658D01*
X931164Y769620D02*
X936244D01*
X941070D02*
X946912D01*
X951484D02*
X956564D01*
X968502D02*
X973582D01*
X983234D02*
X988822D01*
X990854D02*
X996188D01*
X1001268D02*
X1006348D01*
X1018286D02*
X1023366D01*
X1040892D02*
X1055116D01*
X1062228D02*
X1073912D01*
X931164Y769874D02*
X936244D01*
X941070D02*
X946912D01*
X951484D02*
X956564D01*
X968502D02*
X973582D01*
X983488D02*
X988822D01*
X990854D02*
X996188D01*
X1001268D02*
X1006348D01*
X1018286D02*
X1023366D01*
X1041400D02*
X1055624D01*
X1062736D02*
X1074166D01*
X931164Y770128D02*
X936244D01*
X941070D02*
X946912D01*
X951484D02*
X956818D01*
X968502D02*
X973582D01*
X983488D02*
X988822D01*
X990600D02*
X995934D01*
X1001268D02*
X1006602D01*
X1018286D02*
X1023366D01*
X1041654D02*
X1056132D01*
X1063244D02*
X1074420D01*
X931164Y770382D02*
X936244D01*
X941070D02*
X946912D01*
X951484D02*
X956818D01*
X968502D02*
X973582D01*
X983742D02*
X989076D01*
X990600D02*
X995934D01*
X1001268D02*
X1006602D01*
X1018286D02*
X1023366D01*
X1042162D02*
X1056894D01*
X1063752D02*
X1074420D01*
X931164Y770636D02*
X936244D01*
X941070D02*
X946912D01*
X951484D02*
X957072D01*
X968502D02*
X973582D01*
X983742D02*
X989076D01*
X990346D02*
X995680D01*
X1001268D02*
X1006856D01*
X1018286D02*
X1023366D01*
X1042670D02*
X1057402D01*
X1064514D02*
X1074674D01*
X931164Y770890D02*
X936244D01*
X941070D02*
X946912D01*
X951484D02*
X957072D01*
X968502D02*
X973582D01*
X983996D02*
X989330D01*
X990346D02*
X995680D01*
X1001522D02*
X1007110D01*
X1018286D02*
X1023366D01*
X1042924D02*
X1057910D01*
X1065022D02*
X1074928D01*
X930910Y771144D02*
X936244D01*
X941070D02*
X946912D01*
X951738D02*
X957326D01*
X968502D02*
X973582D01*
X983996D02*
X989330D01*
X990346D02*
X995680D01*
X1001522D02*
X1007110D01*
X1018286D02*
X1023366D01*
X1043432D02*
X1058418D01*
X1065530D02*
X1074928D01*
X930910Y771398D02*
X935990D01*
X941070D02*
X946912D01*
X951738D02*
X957580D01*
X968502D02*
X973582D01*
X984250D02*
X989584D01*
X990092D02*
X995426D01*
X1001522D02*
X1007618D01*
X1018286D02*
X1023366D01*
X1043940D02*
X1058926D01*
X1066038D02*
X1075182D01*
X930656Y771652D02*
X935990D01*
X941070D02*
X946912D01*
X951738D02*
X958088D01*
X968502D02*
X973582D01*
X984250D02*
X989584D01*
X990092D02*
X995426D01*
X1001522D02*
X1007872D01*
X1018286D02*
X1023366D01*
X1044448D02*
X1059688D01*
X1066546D02*
X1075436D01*
X930656Y771906D02*
X935990D01*
X941070D02*
X946912D01*
X951738D02*
X958596D01*
X968502D02*
X973582D01*
X984504D02*
X989584D01*
X989838D02*
X995172D01*
X1001776D02*
X1008380D01*
X1018286D02*
X1023366D01*
X1044956D02*
X1060196D01*
X1067054D02*
X1075436D01*
X930402Y772160D02*
X935990D01*
X941070D02*
X946912D01*
X951992D02*
X959104D01*
X968502D02*
X973582D01*
X984504D02*
X995172D01*
X1001776D02*
X1008888D01*
X1018286D02*
X1023366D01*
X1045210D02*
X1060704D01*
X1067308D02*
X1075690D01*
X930148Y772414D02*
X935736D01*
X941070D02*
X946912D01*
X951992D02*
X959866D01*
X968502D02*
X973582D01*
X984758D02*
X995172D01*
X1001776D02*
X1009650D01*
X1018286D02*
X1023366D01*
X1045718D02*
X1061212D01*
X1067816D02*
X1075690D01*
X928878Y772668D02*
X935736D01*
X941070D02*
X946912D01*
X952246D02*
X961390D01*
X968502D02*
X973582D01*
X984758D02*
X994918D01*
X1002030D02*
X1011174D01*
X1018286D02*
X1023366D01*
X1046226D02*
X1061720D01*
X1068324D02*
X1075944D01*
X918210Y772922D02*
X935736D01*
X941070D02*
X946912D01*
X952246D02*
X973582D01*
X985012D02*
X994918D01*
X1002030D02*
X1023366D01*
X1046734D02*
X1062228D01*
X1068832D02*
X1075944D01*
X918210Y773176D02*
X935482D01*
X941070D02*
X946912D01*
X952500D02*
X973582D01*
X985012D02*
X994664D01*
X1002284D02*
X1023366D01*
X1047242D02*
X1062736D01*
X1069086D02*
X1076198D01*
X918210Y773430D02*
X935482D01*
X941070D02*
X946912D01*
X952500D02*
X973582D01*
X985012D02*
X994664D01*
X1002284D02*
X1023366D01*
X1047750D02*
X1062990D01*
X1069594D02*
X1076198D01*
X918210Y773684D02*
X935228D01*
X941070D02*
X946912D01*
X952754D02*
X973582D01*
X985266D02*
X994410D01*
X1002538D02*
X1023366D01*
X1048258D02*
X1063498D01*
X1069848D02*
X1076452D01*
X918210Y773938D02*
X935228D01*
X941070D02*
X946912D01*
X953008D02*
X973582D01*
X985266D02*
X994410D01*
X1002792D02*
X1023366D01*
X1048766D02*
X1064006D01*
X1070356D02*
X1076452D01*
X918210Y774192D02*
X934974D01*
X941070D02*
X946912D01*
X953262D02*
X973582D01*
X985520D02*
X994410D01*
X1003046D02*
X1023366D01*
X1049528D02*
X1064514D01*
X1070610D02*
X1076706D01*
X918210Y774446D02*
X934974D01*
X941070D02*
X946912D01*
X953262D02*
X973582D01*
X985520D02*
X994156D01*
X1003300D02*
X1023366D01*
X1050036D02*
X1064768D01*
X1071118D02*
X1076706D01*
X918210Y774700D02*
X934720D01*
X941070D02*
X946912D01*
X953516D02*
X973582D01*
X985774D02*
X994156D01*
X1003554D02*
X1023366D01*
X1050544D02*
X1065276D01*
X1071372D02*
X1076960D01*
X918210Y774954D02*
X934466D01*
X941070D02*
X946912D01*
X954024D02*
X973582D01*
X985774D02*
X993902D01*
X1003554D02*
X1023366D01*
X1051052D02*
X1065530D01*
X1071626D02*
X1076960D01*
X918210Y775208D02*
X934212D01*
X941070D02*
X946912D01*
X954278D02*
X973582D01*
X986028D02*
X993902D01*
X1004062D02*
X1023366D01*
X1051560D02*
X1065784D01*
X1071880D02*
X1076960D01*
X918210Y775462D02*
X933958D01*
X941070D02*
X946912D01*
X954532D02*
X973582D01*
X986028D02*
X993902D01*
X1004316D02*
X1023366D01*
X1052068D02*
X1066292D01*
X1072388D02*
X1077214D01*
X918210Y775716D02*
X933704D01*
X941070D02*
X946912D01*
X955040D02*
X973582D01*
X986282D02*
X993648D01*
X1004570D02*
X1023366D01*
X1052576D02*
X1066546D01*
X1072642D02*
X1077214D01*
X918210Y775970D02*
X933450D01*
X941070D02*
X946912D01*
X955294D02*
X973582D01*
X986282D02*
X993648D01*
X1005078D02*
X1023366D01*
X1052830D02*
X1066800D01*
X1072896D02*
X1077214D01*
X918210Y776224D02*
X932942D01*
X941070D02*
X946912D01*
X955802D02*
X973582D01*
X986536D02*
X993394D01*
X1005586D02*
X1023366D01*
X1053338D02*
X1067308D01*
X1073404D02*
X1077468D01*
X918210Y776478D02*
X932688D01*
X941070D02*
X946912D01*
X956564D02*
X973582D01*
X986536D02*
X993394D01*
X1006348D02*
X1023366D01*
X1053846D02*
X1067562D01*
X1073658D02*
X1077468D01*
X918210Y776732D02*
X932180D01*
X941070D02*
X946912D01*
X957326D02*
X973582D01*
X986536D02*
X993394D01*
X1007110D02*
X1023366D01*
X1054354D02*
X1067816D01*
X1073912D02*
X1077468D01*
X918210Y776986D02*
X931418D01*
X941070D02*
X946912D01*
X958342D02*
X973582D01*
X986790D02*
X993140D01*
X1008126D02*
X1023366D01*
X1054862D02*
X1068070D01*
X1074166D02*
X1077722D01*
X918210Y777240D02*
X930656D01*
X941070D02*
X946912D01*
X959866D02*
X973582D01*
X986790D02*
X993140D01*
X1009650D02*
X1023366D01*
X1055116D02*
X1068324D01*
X1074420D02*
X1077722D01*
X918464Y777494D02*
X929132D01*
X941070D02*
X946912D01*
X963168D02*
X967994D01*
X987044D02*
X993140D01*
X1012698D02*
X1017778D01*
X1055624D02*
X1068578D01*
X1074420D02*
X1077722D01*
X1055878Y777748D02*
X1068832D01*
X1074674D02*
X1077976D01*
X1056386Y778002D02*
X1069086D01*
X1074928D02*
X1077976D01*
X1056894Y778256D02*
X1069340D01*
X1075182D02*
X1077976D01*
X1057148Y778510D02*
X1069594D01*
X1075436D02*
X1077976D01*
X1057656Y778764D02*
X1069594D01*
X1075436D02*
X1077976D01*
X1057910Y779018D02*
X1069848D01*
X1075690D02*
X1078230D01*
X1058164Y779272D02*
X1070102D01*
X1075944D02*
X1078230D01*
X1058164Y779526D02*
X1070102D01*
X1076198D02*
X1078230D01*
X1058418Y779780D02*
X1070356D01*
X1076198D02*
X1078230D01*
X1058672Y780034D02*
X1070610D01*
X1076452D02*
X1078230D01*
X1058926Y780288D02*
X1070610D01*
X1076452D02*
X1078484D01*
X1058926Y780542D02*
X1070864D01*
X1076706D02*
X1078484D01*
X1059180Y780796D02*
X1070864D01*
X1076960D02*
X1078484D01*
X1059180Y781050D02*
X1071118D01*
X1076960D02*
X1078484D01*
X1059434Y781304D02*
X1071118D01*
X1077214D02*
X1078484D01*
X1059434Y781558D02*
X1071118D01*
X1077214D02*
X1078484D01*
X1059434Y781812D02*
X1071372D01*
X1077468D02*
X1078484D01*
X1059688Y782066D02*
X1071372D01*
X1077468D02*
X1078484D01*
X1059688Y782320D02*
X1071372D01*
X1077468D02*
X1078738D01*
X1059688Y782574D02*
X1071626D01*
X1077722D02*
X1078738D01*
X1059688Y782828D02*
X1071626D01*
X1077722D02*
X1078738D01*
X1059942Y783082D02*
X1071626D01*
X1077976D02*
X1078738D01*
X1059942Y783336D02*
X1071626D01*
X1077976D02*
X1078738D01*
X1059942Y783590D02*
X1071880D01*
X1077976D02*
X1078738D01*
X1059942Y783844D02*
X1071880D01*
X1078230D02*
X1078738D01*
X1059942Y784098D02*
X1071880D01*
X1078230D02*
X1078738D01*
X1059942Y784352D02*
X1071880D01*
X1078230D02*
X1078738D01*
X1059942Y784606D02*
X1071880D01*
X1078230D02*
X1078738D01*
X983742Y784860D02*
X986536D01*
X998474D02*
X1000760D01*
X1016508D02*
X1019048D01*
X1059688D02*
X1071880D01*
X1078484D02*
X1078738D01*
X918210Y785114D02*
X927354D01*
X932180D02*
X935228D01*
X939800D02*
X943102D01*
X947166D02*
X954024D01*
X954786D02*
X958342D01*
X963676D02*
X966470D01*
X968248D02*
X977392D01*
X983742D02*
X986790D01*
X992886D02*
X996188D01*
X997966D02*
X1001268D01*
X1007618D02*
X1010412D01*
X1015492D02*
X1020064D01*
X1059688D02*
X1072134D01*
X1078484D02*
X1078738D01*
X918210Y785368D02*
X927354D01*
X932180D02*
X935228D01*
X939800D02*
X943102D01*
X946404D02*
X954024D01*
X955040D02*
X958596D01*
X963676D02*
X966470D01*
X968248D02*
X977392D01*
X983742D02*
X987044D01*
X992886D02*
X996188D01*
X997966D02*
X1001776D01*
X1007618D02*
X1010412D01*
X1014984D02*
X1020826D01*
X1059688D02*
X1072134D01*
X1078484D02*
X1078738D01*
X918210Y785622D02*
X927354D01*
X932180D02*
X935228D01*
X939800D02*
X943102D01*
X946150D02*
X954024D01*
X955294D02*
X958850D01*
X963676D02*
X966470D01*
X968248D02*
X977392D01*
X983488D02*
X987298D01*
X992886D02*
X996188D01*
X997966D02*
X1002030D01*
X1007618D02*
X1010412D01*
X1014476D02*
X1021080D01*
X1059688D02*
X1072134D01*
X1078484D02*
X1078738D01*
X918210Y785876D02*
X927354D01*
X932180D02*
X935228D01*
X939800D02*
X943102D01*
X945642D02*
X954024D01*
X955548D02*
X959104D01*
X963676D02*
X966470D01*
X968248D02*
X977392D01*
X983488D02*
X987552D01*
X992886D02*
X996188D01*
X997966D02*
X1002284D01*
X1007618D02*
X1010412D01*
X1014222D02*
X1021588D01*
X1059434D02*
X1072134D01*
X918210Y786130D02*
X927354D01*
X932180D02*
X935228D01*
X939800D02*
X943102D01*
X945388D02*
X954024D01*
X955802D02*
X959358D01*
X963676D02*
X966470D01*
X968248D02*
X977392D01*
X983234D02*
X987552D01*
X992886D02*
X996188D01*
X997966D02*
X1002284D01*
X1007618D02*
X1010412D01*
X1013714D02*
X1021842D01*
X1059434D02*
X1072134D01*
X918210Y786384D02*
X927354D01*
X932180D02*
X935228D01*
X939800D02*
X943102D01*
X945134D02*
X954024D01*
X956056D02*
X959612D01*
X963676D02*
X966470D01*
X968248D02*
X977392D01*
X983234D02*
X987806D01*
X992886D02*
X996188D01*
X997966D02*
X1002538D01*
X1007618D02*
X1010412D01*
X1013460D02*
X1022096D01*
X1059180D02*
X1072134D01*
X918210Y786638D02*
X927354D01*
X932180D02*
X935228D01*
X939800D02*
X943102D01*
X944880D02*
X954024D01*
X956310D02*
X959866D01*
X963676D02*
X966470D01*
X968248D02*
X977392D01*
X983234D02*
X987806D01*
X992886D02*
X996188D01*
X997966D02*
X1002538D01*
X1007618D02*
X1010412D01*
X1013206D02*
X1022350D01*
X1059180D02*
X1072134D01*
X918210Y786892D02*
X927354D01*
X932180D02*
X935228D01*
X939800D02*
X943102D01*
X944880D02*
X954024D01*
X956564D02*
X960120D01*
X963676D02*
X966470D01*
X968248D02*
X977392D01*
X982980D02*
X987806D01*
X992886D02*
X996188D01*
X997966D02*
X1002792D01*
X1007618D02*
X1010412D01*
X1012952D02*
X1022604D01*
X1058926D02*
X1072134D01*
X918210Y787146D02*
X927354D01*
X932180D02*
X935228D01*
X939800D02*
X943102D01*
X944626D02*
X954024D01*
X956818D02*
X960374D01*
X963676D02*
X966470D01*
X968248D02*
X977392D01*
X982980D02*
X988060D01*
X992886D02*
X996188D01*
X997966D02*
X1003046D01*
X1007618D02*
X1010412D01*
X1012952D02*
X1022858D01*
X1058672D02*
X1072134D01*
X918464Y787400D02*
X924052D01*
X924306D02*
X927354D01*
X932180D02*
X935228D01*
X939800D02*
X943102D01*
X944626D02*
X954024D01*
X957072D02*
X960628D01*
X963676D02*
X966470D01*
X968502D02*
X974090D01*
X974344D02*
X977392D01*
X982980D02*
X988060D01*
X992886D02*
X996188D01*
X997966D02*
X1003046D01*
X1007618D02*
X1010412D01*
X1012698D02*
X1016508D01*
X1019302D02*
X1022858D01*
X1058418D02*
X1072134D01*
X924306Y787654D02*
X927354D01*
X932180D02*
X935228D01*
X939800D02*
X943102D01*
X944626D02*
X947674D01*
X957326D02*
X960882D01*
X963676D02*
X966470D01*
X974344D02*
X977392D01*
X982726D02*
X988314D01*
X992886D02*
X996188D01*
X997966D02*
X1003300D01*
X1007618D02*
X1010412D01*
X1012698D02*
X1016000D01*
X1019556D02*
X1023112D01*
X1058164D02*
X1072134D01*
X924306Y787908D02*
X927354D01*
X932180D02*
X935228D01*
X939800D02*
X943102D01*
X944372D02*
X947420D01*
X957580D02*
X960882D01*
X963676D02*
X966470D01*
X974344D02*
X977392D01*
X982726D02*
X988314D01*
X992886D02*
X996188D01*
X997966D02*
X1003300D01*
X1007618D02*
X1010412D01*
X1012444D02*
X1015746D01*
X1020064D02*
X1023112D01*
X1057910D02*
X1072134D01*
X924306Y788162D02*
X927354D01*
X932180D02*
X935228D01*
X939800D02*
X943102D01*
X944372D02*
X947166D01*
X957834D02*
X961136D01*
X963676D02*
X966470D01*
X974344D02*
X977392D01*
X982472D02*
X988314D01*
X992886D02*
X996188D01*
X997966D02*
X1003554D01*
X1007618D02*
X1010412D01*
X1012444D02*
X1015746D01*
X1020318D02*
X1023366D01*
X1057402D02*
X1072134D01*
X924306Y788416D02*
X927354D01*
X932180D02*
X935228D01*
X939800D02*
X943102D01*
X944372D02*
X947166D01*
X958088D02*
X961390D01*
X963676D02*
X966470D01*
X974344D02*
X977392D01*
X982472D02*
X988568D01*
X992886D02*
X996188D01*
X997966D02*
X1003554D01*
X1007618D02*
X1010412D01*
X1012444D02*
X1015492D01*
X1020318D02*
X1023366D01*
X1056640D02*
X1071880D01*
X924306Y788670D02*
X927354D01*
X932180D02*
X935228D01*
X939800D02*
X943102D01*
X944372D02*
X947166D01*
X958342D02*
X961644D01*
X963676D02*
X966470D01*
X974344D02*
X977392D01*
X982472D02*
X985266D01*
X985520D02*
X988568D01*
X992886D02*
X996188D01*
X997966D02*
X1003808D01*
X1007618D02*
X1010412D01*
X1012190D02*
X1015492D01*
X1020572D02*
X1023366D01*
X1055370D02*
X1071880D01*
X924306Y788924D02*
X927354D01*
X932180D02*
X935228D01*
X939800D02*
X943102D01*
X944372D02*
X947166D01*
X958596D02*
X961898D01*
X963676D02*
X966470D01*
X974344D02*
X977392D01*
X982218D02*
X985266D01*
X985774D02*
X988822D01*
X992886D02*
X996188D01*
X997966D02*
X1003808D01*
X1007618D02*
X1010412D01*
X1012190D02*
X1015238D01*
X1020572D02*
X1023366D01*
X1038860D02*
X1071880D01*
X924306Y789178D02*
X927354D01*
X932180D02*
X935228D01*
X939800D02*
X943102D01*
X944372D02*
X947166D01*
X958596D02*
X962152D01*
X963676D02*
X966470D01*
X974344D02*
X977392D01*
X982218D02*
X985266D01*
X985774D02*
X988822D01*
X992886D02*
X996188D01*
X997966D02*
X1004062D01*
X1007618D02*
X1010412D01*
X1012190D02*
X1015238D01*
X1020572D02*
X1023620D01*
X1038606D02*
X1071880D01*
X924306Y789432D02*
X927354D01*
X932180D02*
X935228D01*
X939800D02*
X943102D01*
X944372D02*
X947420D01*
X958850D02*
X962406D01*
X963676D02*
X966470D01*
X974344D02*
X977392D01*
X982218D02*
X985012D01*
X985774D02*
X988822D01*
X992886D02*
X996188D01*
X997966D02*
X1000760D01*
X1001014D02*
X1004316D01*
X1007618D02*
X1010412D01*
X1012190D02*
X1015238D01*
X1020572D02*
X1023620D01*
X1038606D02*
X1071880D01*
X924306Y789686D02*
X927354D01*
X932180D02*
X935228D01*
X939800D02*
X943102D01*
X944372D02*
X947674D01*
X959104D02*
X962660D01*
X963676D02*
X966470D01*
X974344D02*
X977392D01*
X981964D02*
X985012D01*
X986028D02*
X989076D01*
X992886D02*
X996188D01*
X997966D02*
X1000760D01*
X1001014D02*
X1004316D01*
X1007618D02*
X1010412D01*
X1012190D02*
X1015238D01*
X1020572D02*
X1023620D01*
X1038352D02*
X1071880D01*
X924306Y789940D02*
X927354D01*
X932180D02*
X935228D01*
X939800D02*
X943102D01*
X944626D02*
X947928D01*
X959358D02*
X962914D01*
X963676D02*
X966470D01*
X974344D02*
X977392D01*
X981964D02*
X985012D01*
X986028D02*
X989076D01*
X992886D02*
X996188D01*
X997966D02*
X1000760D01*
X1001268D02*
X1004570D01*
X1007618D02*
X1010412D01*
X1012190D02*
X1015238D01*
X1020572D02*
X1023620D01*
X1038352D02*
X1071626D01*
X924306Y790194D02*
X927354D01*
X932180D02*
X935228D01*
X939800D02*
X943102D01*
X944626D02*
X948182D01*
X959866D02*
X963168D01*
X963676D02*
X966470D01*
X974344D02*
X977392D01*
X981710D02*
X984758D01*
X986282D02*
X989330D01*
X992886D02*
X996188D01*
X997966D02*
X1000760D01*
X1001522D02*
X1004570D01*
X1007618D02*
X1010412D01*
X1012190D02*
X1015238D01*
X1020572D02*
X1023620D01*
X1038098D02*
X1071626D01*
X924306Y790448D02*
X927354D01*
X932180D02*
X935228D01*
X939800D02*
X943102D01*
X944626D02*
X948690D01*
X958596D02*
X963168D01*
X963676D02*
X966470D01*
X974344D02*
X977392D01*
X981710D02*
X984758D01*
X986282D02*
X989330D01*
X992886D02*
X996188D01*
X997966D02*
X1000760D01*
X1001522D02*
X1004824D01*
X1007618D02*
X1010412D01*
X1012190D02*
X1015238D01*
X1020572D02*
X1023620D01*
X1038098D02*
X1071626D01*
X924306Y790702D02*
X927354D01*
X932180D02*
X935228D01*
X939800D02*
X943102D01*
X944880D02*
X949198D01*
X957834D02*
X963168D01*
X963676D02*
X966470D01*
X974344D02*
X977392D01*
X981710D02*
X984758D01*
X986282D02*
X989330D01*
X992886D02*
X996188D01*
X997966D02*
X1000760D01*
X1001776D02*
X1004824D01*
X1007618D02*
X1010412D01*
X1012190D02*
X1015238D01*
X1020572D02*
X1023620D01*
X1037844D02*
X1071372D01*
X924306Y790956D02*
X927354D01*
X932180D02*
X935228D01*
X939800D02*
X943102D01*
X944880D02*
X949706D01*
X957326D02*
X962914D01*
X963676D02*
X966470D01*
X974344D02*
X977392D01*
X981456D02*
X984504D01*
X986536D02*
X989584D01*
X992886D02*
X996188D01*
X997966D02*
X1000760D01*
X1001776D02*
X1005078D01*
X1007618D02*
X1010412D01*
X1012190D02*
X1015238D01*
X1020572D02*
X1023620D01*
X1037590D02*
X1071372D01*
X919226Y791210D02*
X927354D01*
X932180D02*
X935228D01*
X939800D02*
X943102D01*
X945134D02*
X950214D01*
X956818D02*
X962914D01*
X963676D02*
X966470D01*
X969264D02*
X977392D01*
X981456D02*
X984504D01*
X986536D02*
X989584D01*
X992886D02*
X996188D01*
X997966D02*
X1000760D01*
X1002030D02*
X1005332D01*
X1007618D02*
X1010412D01*
X1012190D02*
X1015238D01*
X1020572D02*
X1023620D01*
X1037590D02*
X1071372D01*
X918972Y791464D02*
X927354D01*
X932180D02*
X935228D01*
X939800D02*
X943102D01*
X945388D02*
X950722D01*
X956310D02*
X962914D01*
X963676D02*
X966470D01*
X969010D02*
X977392D01*
X981202D02*
X984250D01*
X986790D02*
X989584D01*
X992886D02*
X996188D01*
X997966D02*
X1000760D01*
X1002030D02*
X1005332D01*
X1007618D02*
X1010412D01*
X1012190D02*
X1015238D01*
X1020572D02*
X1023620D01*
X1037336D02*
X1071118D01*
X918972Y791718D02*
X927354D01*
X932180D02*
X935228D01*
X939800D02*
X943102D01*
X945642D02*
X951230D01*
X956056D02*
X962660D01*
X963676D02*
X966470D01*
X969010D02*
X977392D01*
X981202D02*
X984250D01*
X986790D02*
X989838D01*
X992886D02*
X996188D01*
X997966D02*
X1000760D01*
X1002284D02*
X1005586D01*
X1007618D02*
X1010412D01*
X1012190D02*
X1015238D01*
X1020572D02*
X1023620D01*
X1037336D02*
X1071118D01*
X918718Y791972D02*
X927354D01*
X932180D02*
X935228D01*
X939800D02*
X943102D01*
X945896D02*
X951738D01*
X955802D02*
X962660D01*
X963676D02*
X966470D01*
X969010D02*
X977392D01*
X981202D02*
X984250D01*
X986790D02*
X989838D01*
X992886D02*
X996188D01*
X997966D02*
X1000760D01*
X1002284D02*
X1005586D01*
X1007618D02*
X1010412D01*
X1012190D02*
X1015238D01*
X1020572D02*
X1023620D01*
X1037082D02*
X1070864D01*
X918718Y792226D02*
X927354D01*
X932180D02*
X935228D01*
X939800D02*
X943102D01*
X946404D02*
X951992D01*
X955802D02*
X962660D01*
X963676D02*
X966470D01*
X968756D02*
X977392D01*
X980948D02*
X983996D01*
X987044D02*
X990092D01*
X992886D02*
X996188D01*
X997966D02*
X1000760D01*
X1002538D02*
X1005840D01*
X1007618D02*
X1010412D01*
X1012190D02*
X1015238D01*
X1020572D02*
X1023620D01*
X1037082D02*
X1070864D01*
X918718Y792480D02*
X927354D01*
X932180D02*
X935228D01*
X939800D02*
X943102D01*
X946658D02*
X952500D01*
X955548D02*
X960628D01*
X963676D02*
X966470D01*
X968756D02*
X977392D01*
X980948D02*
X983996D01*
X987044D02*
X990092D01*
X992886D02*
X996188D01*
X997966D02*
X1000760D01*
X1002792D02*
X1005840D01*
X1007618D02*
X1010412D01*
X1012190D02*
X1015238D01*
X1020572D02*
X1023620D01*
X1036828D02*
X1070610D01*
X918464Y792734D02*
X927354D01*
X932180D02*
X935228D01*
X939800D02*
X943102D01*
X947166D02*
X952754D01*
X955294D02*
X959358D01*
X963676D02*
X966470D01*
X968502D02*
X977392D01*
X980948D02*
X983742D01*
X987298D02*
X990092D01*
X992886D02*
X996188D01*
X997966D02*
X1000760D01*
X1002792D02*
X1006094D01*
X1007618D02*
X1010412D01*
X1012190D02*
X1015238D01*
X1020572D02*
X1023620D01*
X1036828D02*
X1070610D01*
X918464Y792988D02*
X927354D01*
X932180D02*
X935228D01*
X939800D02*
X943102D01*
X947674D02*
X953008D01*
X955294D02*
X958850D01*
X963676D02*
X966470D01*
X968502D02*
X977392D01*
X980694D02*
X983742D01*
X987298D02*
X990346D01*
X992886D02*
X996188D01*
X997966D02*
X1000760D01*
X1003046D02*
X1006348D01*
X1007618D02*
X1010412D01*
X1012190D02*
X1015238D01*
X1020572D02*
X1023620D01*
X1036574D02*
X1070356D01*
X918464Y793242D02*
X927354D01*
X932180D02*
X935228D01*
X939800D02*
X943102D01*
X948182D02*
X953262D01*
X955294D02*
X958596D01*
X963676D02*
X966470D01*
X968502D02*
X977392D01*
X980694D02*
X983742D01*
X987298D02*
X990346D01*
X992886D02*
X996188D01*
X997966D02*
X1000760D01*
X1003046D02*
X1006348D01*
X1007618D02*
X1010412D01*
X1012190D02*
X1015238D01*
X1020572D02*
X1023620D01*
X1036574D02*
X1070102D01*
X924306Y793496D02*
X927354D01*
X932180D02*
X935228D01*
X939800D02*
X943102D01*
X948690D02*
X953516D01*
X955294D02*
X958342D01*
X963676D02*
X966470D01*
X974344D02*
X977392D01*
X980440D02*
X983488D01*
X987552D02*
X990600D01*
X992886D02*
X996188D01*
X997966D02*
X1000760D01*
X1003300D02*
X1006602D01*
X1007618D02*
X1010412D01*
X1012190D02*
X1015238D01*
X1020572D02*
X1023620D01*
X1036320D02*
X1070102D01*
X924306Y793750D02*
X927354D01*
X932180D02*
X935228D01*
X939800D02*
X943102D01*
X949198D02*
X953516D01*
X955040D02*
X958088D01*
X963676D02*
X966470D01*
X974344D02*
X977392D01*
X980440D02*
X983488D01*
X987552D02*
X990600D01*
X992886D02*
X996188D01*
X997966D02*
X1000760D01*
X1003300D02*
X1006602D01*
X1007618D02*
X1010412D01*
X1012190D02*
X1015238D01*
X1020572D02*
X1023620D01*
X1036320D02*
X1069848D01*
X924306Y794004D02*
X927354D01*
X932180D02*
X935228D01*
X939800D02*
X943102D01*
X949706D02*
X953770D01*
X955040D02*
X958088D01*
X963676D02*
X966470D01*
X974344D02*
X977392D01*
X980440D02*
X983234D01*
X987552D02*
X990600D01*
X992886D02*
X996188D01*
X997966D02*
X1000760D01*
X1003554D02*
X1006856D01*
X1007618D02*
X1010412D01*
X1012190D02*
X1015238D01*
X1020572D02*
X1023620D01*
X1036066D02*
X1069594D01*
X924306Y794258D02*
X927354D01*
X932180D02*
X935228D01*
X939800D02*
X943102D01*
X950214D02*
X953770D01*
X955040D02*
X957834D01*
X963676D02*
X966470D01*
X974344D02*
X977392D01*
X980186D02*
X983234D01*
X987806D02*
X990854D01*
X992886D02*
X996188D01*
X997966D02*
X1000760D01*
X1003808D02*
X1006856D01*
X1007618D02*
X1010412D01*
X1012190D02*
X1015238D01*
X1020572D02*
X1023620D01*
X1036066D02*
X1069340D01*
X924306Y794512D02*
X927354D01*
X932180D02*
X935228D01*
X939800D02*
X943102D01*
X950468D02*
X953770D01*
X955040D02*
X957834D01*
X963676D02*
X966470D01*
X974344D02*
X977392D01*
X980186D02*
X983234D01*
X987806D02*
X990854D01*
X992886D02*
X996188D01*
X997966D02*
X1000760D01*
X1003808D02*
X1007110D01*
X1007618D02*
X1010412D01*
X1012190D02*
X1015238D01*
X1020572D02*
X1023620D01*
X1035812D02*
X1069086D01*
X924306Y794766D02*
X927354D01*
X932180D02*
X935228D01*
X939800D02*
X943102D01*
X950976D02*
X954024D01*
X955040D02*
X957834D01*
X963676D02*
X966470D01*
X974344D02*
X977392D01*
X980186D02*
X982980D01*
X988060D02*
X991108D01*
X992886D02*
X996188D01*
X997966D02*
X1000760D01*
X1004062D02*
X1007364D01*
X1007618D02*
X1010412D01*
X1012190D02*
X1015238D01*
X1020572D02*
X1023620D01*
X1035812D02*
X1068832D01*
X924306Y795020D02*
X927354D01*
X932180D02*
X935228D01*
X939800D02*
X943102D01*
X950976D02*
X954024D01*
X955040D02*
X957834D01*
X963676D02*
X966470D01*
X974344D02*
X977392D01*
X979932D02*
X982980D01*
X988060D02*
X991108D01*
X992886D02*
X996188D01*
X997966D02*
X1000760D01*
X1004062D02*
X1007364D01*
X1007618D02*
X1010412D01*
X1012190D02*
X1015238D01*
X1020572D02*
X1023620D01*
X1035558D02*
X1068578D01*
X924306Y795274D02*
X927354D01*
X932180D02*
X935228D01*
X939800D02*
X943102D01*
X951230D02*
X954024D01*
X955040D02*
X958088D01*
X963676D02*
X966470D01*
X974344D02*
X977392D01*
X979932D02*
X982980D01*
X988314D02*
X991108D01*
X992886D02*
X996188D01*
X997966D02*
X1000760D01*
X1004316D02*
X1007364D01*
X1007618D02*
X1010412D01*
X1012190D02*
X1015238D01*
X1020572D02*
X1023620D01*
X1035304D02*
X1068324D01*
X924306Y795528D02*
X927354D01*
X932180D02*
X935228D01*
X939800D02*
X943102D01*
X951230D02*
X954024D01*
X955040D02*
X958088D01*
X963676D02*
X966470D01*
X974344D02*
X977392D01*
X979678D02*
X982726D01*
X988314D02*
X991362D01*
X992886D02*
X996188D01*
X997966D02*
X1000760D01*
X1004570D02*
X1010412D01*
X1012190D02*
X1015238D01*
X1020572D02*
X1023620D01*
X1035304D02*
X1068070D01*
X924306Y795782D02*
X927354D01*
X932180D02*
X935228D01*
X939800D02*
X943102D01*
X951230D02*
X954024D01*
X955294D02*
X958088D01*
X963676D02*
X966470D01*
X974344D02*
X977392D01*
X979678D02*
X982726D01*
X988314D02*
X991362D01*
X992886D02*
X996188D01*
X997966D02*
X1000760D01*
X1004570D02*
X1010412D01*
X1012190D02*
X1015238D01*
X1020572D02*
X1023620D01*
X1035050D02*
X1067562D01*
X924306Y796036D02*
X927354D01*
X932180D02*
X935228D01*
X939800D02*
X943102D01*
X950976D02*
X954024D01*
X955294D02*
X958342D01*
X963676D02*
X966470D01*
X974344D02*
X977392D01*
X979678D02*
X982472D01*
X988568D02*
X991616D01*
X992886D02*
X996188D01*
X997966D02*
X1000760D01*
X1004824D02*
X1010412D01*
X1012190D02*
X1015238D01*
X1020572D02*
X1023620D01*
X1035050D02*
X1067308D01*
X924306Y796290D02*
X927354D01*
X932180D02*
X935228D01*
X939800D02*
X943102D01*
X950976D02*
X953770D01*
X955294D02*
X958596D01*
X963676D02*
X966470D01*
X974344D02*
X977392D01*
X979424D02*
X982472D01*
X988568D02*
X991616D01*
X992886D02*
X996188D01*
X997966D02*
X1000760D01*
X1004824D02*
X1010412D01*
X1012190D02*
X1015238D01*
X1020572D02*
X1023620D01*
X1034796D02*
X1066800D01*
X924306Y796544D02*
X927354D01*
X932180D02*
X935228D01*
X939800D02*
X943102D01*
X950722D02*
X953770D01*
X955294D02*
X959104D01*
X963676D02*
X966470D01*
X974344D02*
X977392D01*
X979424D02*
X982472D01*
X988822D02*
X991616D01*
X992886D02*
X996188D01*
X997966D02*
X1000760D01*
X1005078D02*
X1010412D01*
X1012190D02*
X1015238D01*
X1020572D02*
X1023620D01*
X1034796D02*
X1066292D01*
X924306Y796798D02*
X927354D01*
X932434D02*
X935228D01*
X939800D02*
X943102D01*
X944880D02*
X953770D01*
X955548D02*
X960374D01*
X963676D02*
X966470D01*
X974344D02*
X977392D01*
X979170D02*
X982218D01*
X988822D02*
X991870D01*
X992886D02*
X996188D01*
X997966D02*
X1000760D01*
X1005078D02*
X1010412D01*
X1012190D02*
X1015238D01*
X1020572D02*
X1023620D01*
X1034542D02*
X1066038D01*
X918210Y797052D02*
X927354D01*
X928370D02*
X939038D01*
X939800D02*
X943102D01*
X944880D02*
X953516D01*
X955548D02*
X966470D01*
X968248D02*
X977392D01*
X979170D02*
X982218D01*
X988822D02*
X991870D01*
X992886D02*
X996188D01*
X997966D02*
X1000760D01*
X1005332D02*
X1010412D01*
X1012190D02*
X1015238D01*
X1020572D02*
X1023620D01*
X1034542D02*
X1065530D01*
X918210Y797306D02*
X927354D01*
X928370D02*
X939038D01*
X939800D02*
X943102D01*
X944880D02*
X953516D01*
X955802D02*
X966470D01*
X968248D02*
X977392D01*
X979170D02*
X981964D01*
X989076D02*
X992124D01*
X992886D02*
X996188D01*
X997966D02*
X1000760D01*
X1005332D02*
X1010412D01*
X1012190D02*
X1015238D01*
X1020572D02*
X1023620D01*
X1034288D02*
X1064768D01*
X918210Y797560D02*
X927354D01*
X928370D02*
X939038D01*
X939800D02*
X943102D01*
X944880D02*
X953262D01*
X956056D02*
X966470D01*
X968248D02*
X977392D01*
X978916D02*
X981964D01*
X989076D02*
X992124D01*
X992886D02*
X996188D01*
X997966D02*
X1000760D01*
X1005586D02*
X1010412D01*
X1012190D02*
X1015238D01*
X1020572D02*
X1023620D01*
X1034288D02*
X1064260D01*
X918210Y797814D02*
X927354D01*
X928370D02*
X939038D01*
X939800D02*
X943102D01*
X944880D02*
X953262D01*
X956310D02*
X966470D01*
X968248D02*
X977392D01*
X978916D02*
X981964D01*
X989330D02*
X992124D01*
X992886D02*
X996188D01*
X997966D02*
X1000760D01*
X1005840D02*
X1010412D01*
X1012190D02*
X1015238D01*
X1020572D02*
X1023620D01*
X1034034D02*
X1063498D01*
X918210Y798068D02*
X927354D01*
X928370D02*
X939038D01*
X939800D02*
X943102D01*
X944880D02*
X953008D01*
X956564D02*
X966470D01*
X968248D02*
X977392D01*
X978916D02*
X981710D01*
X989330D02*
X992378D01*
X992886D02*
X996188D01*
X997966D02*
X1000760D01*
X1005840D02*
X1010412D01*
X1012190D02*
X1015238D01*
X1020572D02*
X1023620D01*
X1034034D02*
X1062736D01*
X918210Y798322D02*
X927354D01*
X928370D02*
X939038D01*
X939800D02*
X943102D01*
X944880D02*
X952754D01*
X956818D02*
X966470D01*
X968248D02*
X977392D01*
X978662D02*
X981710D01*
X989330D02*
X992378D01*
X992886D02*
X996188D01*
X997966D02*
X1000760D01*
X1006094D02*
X1010412D01*
X1012190D02*
X1015238D01*
X1020572D02*
X1023620D01*
X1033780D02*
X1061720D01*
X918210Y798576D02*
X927354D01*
X928370D02*
X939038D01*
X939800D02*
X943102D01*
X944880D02*
X952246D01*
X957326D02*
X966470D01*
X968248D02*
X977392D01*
X978662D02*
X981710D01*
X989584D02*
X992632D01*
X992886D02*
X996188D01*
X997966D02*
X1000760D01*
X1006348D02*
X1010412D01*
X1012190D02*
X1015238D01*
X1020572D02*
X1023620D01*
X1033780D02*
X1060450D01*
X918210Y798830D02*
X927354D01*
X928370D02*
X939038D01*
X939800D02*
X943102D01*
X944880D02*
X951738D01*
X958088D02*
X966470D01*
X968248D02*
X977392D01*
X978408D02*
X981456D01*
X989584D02*
X992632D01*
X992886D02*
X996188D01*
X997966D02*
X1000760D01*
X1006602D02*
X1010412D01*
X1012190D02*
X1015238D01*
X1020572D02*
X1023620D01*
X1033526D02*
X1058926D01*
X918210Y799084D02*
X927354D01*
X928624D02*
X939038D01*
X939800D02*
X943102D01*
X944880D02*
X950976D01*
X959358D02*
X966470D01*
X968248D02*
X977392D01*
X978408D02*
X981456D01*
X989584D02*
X992632D01*
X992886D02*
X996188D01*
X997966D02*
X1000760D01*
X1006856D02*
X1010412D01*
X1012190D02*
X1015238D01*
X1020572D02*
X1023620D01*
X1033526D02*
X1056386D01*
X1007872Y799338D02*
X1008634D01*
X920496Y799846D02*
X922528D01*
X920242Y800100D02*
X922528D01*
X919988Y800354D02*
X922274D01*
X919734Y800608D02*
X922020D01*
X919480Y800862D02*
X921766D01*
X919226Y801116D02*
X921766D01*
X918972Y801370D02*
X921512D01*
X918718Y801624D02*
X921258D01*
X918464Y801878D02*
X921004D01*
X918210Y802132D02*
X921004D01*
X917702Y802386D02*
X920750D01*
X917448Y802640D02*
X920496D01*
D44*
X824865Y705358D02*
D03*
X939165Y874522D02*
D03*
X743585Y1001522D02*
D03*
M02*
