M48
;Layer_Color=9474304
;FILE_FORMAT=4:4
METRIC,LZ
;TYPE=PLATED
T1F00S00C0.2500
T2F00S00C0.7620
T3F00S00C0.9000
T4F00S00C3.0000
%
T01
X00773Y00792
X007725Y008175
X007595Y00843
X0076Y008685
X00772414Y00868426
X0077216Y00881126
X0076Y00881
X00760222Y00893572
X00772414
X00747522
X00747268Y0088138
X00734568Y00868426
X00721614Y0088138
X0072106Y00906526
X0070866Y00906272
X00692912Y00899922
X00687578Y00914654
X00687324Y0092583
X00686694Y00937806
X0071882Y0095885
Y00983996
X00744728Y00990346
X00746506Y00969518
X0077Y00989
X007725Y009315
X00785622Y00931418
X00785368Y00919988
X0076Y009195
X00747Y00919
X00747268Y00907034
X00785622Y00868172
X007215Y008555
X00708914Y00867918
X00692658Y00861822
X0069088Y00823722
X00691642Y00798322
X00735Y008045
X007345Y008305
X00631952Y0085217
X00631444Y00883158
X006285Y009045
X00627888Y00922528
X005815Y009395
X00811Y00932
X00823468Y00931926
X008235Y00919
X00824Y009065
X00836422Y0091948
X00848868
X00849122Y00893572
X00848998Y00880998
X00849498Y00868498
X00836Y008685
X00836168Y00855472
Y00843026
X00848868
X00861568Y00830072
X00912368Y00842772
X00924814Y0085598
Y00881126
X00899414Y0088138
X008995Y009185
X00912368Y00906526
X008995Y00945
X00880618Y00963676
X00881Y00976
X008925Y010025
X008415
X00832Y00964
X00794512Y00989838
X00810498Y00918998
X00810998Y00893498
X00811Y00881
X0079883Y00881126
X00798576Y00868172
X00797814Y00893826
X008235Y00881
X0081026Y0080518
X00976122Y00906272
X00975868Y00918972
Y00944372
X0093218Y00964184
T02
X005969Y0052705
X00595884Y00667004
X0048641Y00727456
Y00765979
X00460756Y0078359
Y00743458
Y0070612
Y0082296
X00461264Y0085725
X0048641Y00843026
X00486918Y00877316
X00486664Y00908812
Y00947335
Y00985859
X00485902Y01024128
X0046101Y01004316
Y00964946
Y00924814
X0048641Y00804503
T03
X00531114Y00565658
Y00591058
Y00616458
Y00641858
Y00667258
Y00692658
Y00718058
Y00743458
Y00768858
X00556514
Y00743458
Y00718058
Y00692658
Y00667258
Y00641858
Y00616458
Y00591058
Y00565658
X00595122
X00620522
X00621538Y00625348
X00596138
X00556514Y00794258
Y00819658
Y00845058
Y00870458
Y00895858
Y00921258
Y00946658
Y00972058
Y00997458
Y01022858
Y01048258
X00531114
Y01022858
Y00997458
Y00972058
Y00946658
Y00921258
Y00895858
Y00870458
Y00845058
Y00819658
Y00794258
T04
X0039931Y0053784
Y0108232
M30
